G04 #@! TF.FileFunction,Soldermask,Bot*
%FSLAX46Y46*%
G04 Gerber Fmt 4.6, Leading zero omitted, Abs format (unit mm)*
G04 Created by KiCad (PCBNEW (2016-08-20 BZR 7083)-product) date Thu Jan 26 00:07:01 2017*
%MOMM*%
%LPD*%
G01*
G04 APERTURE LIST*
%ADD10C,0.100000*%
%ADD11C,1.800000*%
%ADD12C,2.200000*%
%ADD13C,1.400000*%
%ADD14R,1.600000X1.600000*%
%ADD15C,1.600000*%
%ADD16O,2.200000X3.200000*%
%ADD17R,1.800000X1.800000*%
%ADD18O,2.800000X1.800000*%
%ADD19C,6.200000*%
G04 APERTURE END LIST*
D10*
D11*
X16200000Y51800000D03*
X23800000Y51800000D03*
D12*
X2200000Y60700000D03*
X12200000Y60700000D03*
D13*
X35200000Y61065000D03*
X36470000Y62335000D03*
X33930000Y62335000D03*
D14*
X12650000Y47200000D03*
D15*
X10150000Y47200000D03*
D14*
X25400000Y43150000D03*
D15*
X25400000Y45650000D03*
D14*
X11850000Y93700000D03*
D15*
X9350000Y93700000D03*
D14*
X2750000Y95800000D03*
D15*
X5250000Y95800000D03*
D13*
X14760000Y91000000D03*
X19840000Y91000000D03*
X7560000Y98300000D03*
X12640000Y98300000D03*
D14*
X11250000Y32700000D03*
D15*
X13750000Y32700000D03*
D14*
X36650000Y56900000D03*
D15*
X34150000Y56900000D03*
D13*
X36700000Y52640000D03*
X36700000Y47560000D03*
D14*
X27750000Y32700000D03*
D15*
X25250000Y32700000D03*
D12*
X15100000Y103680000D03*
X15100000Y93520000D03*
X18100000Y103680000D03*
X18100000Y93520000D03*
D16*
X31000000Y97000000D03*
X21000000Y97000000D03*
D11*
X28500000Y90000000D03*
X26000000Y90000000D03*
X23500000Y90000000D03*
D16*
X31000000Y75000000D03*
X21000000Y75000000D03*
D11*
X28500000Y68000000D03*
X26000000Y68000000D03*
X23500000Y68000000D03*
X34250000Y89650000D03*
X33350000Y94750000D03*
X37650000Y89650000D03*
X36750000Y94750000D03*
D17*
X29080000Y82230000D03*
D11*
X29080000Y84770000D03*
X26540000Y82230000D03*
X26540000Y84770000D03*
X24000000Y82230000D03*
X24000000Y84770000D03*
X21460000Y82230000D03*
X21460000Y84770000D03*
X18920000Y82230000D03*
X18920000Y84770000D03*
D12*
X7500000Y20698000D03*
X7500000Y28826000D03*
X7500000Y17650000D03*
X31500000Y20698000D03*
X31500000Y28826000D03*
X31500000Y17650000D03*
X7500000Y35698000D03*
X7500000Y43826000D03*
X7500000Y32650000D03*
X31500000Y35698000D03*
X31500000Y43826000D03*
X31500000Y32650000D03*
X7500000Y5698000D03*
X7500000Y13826000D03*
X7500000Y2650000D03*
X19500000Y5698000D03*
X19500000Y13826000D03*
X19500000Y2650000D03*
D13*
X32660000Y65000000D03*
X37740000Y65000000D03*
D12*
X12280000Y103800000D03*
X2120000Y103800000D03*
X2120000Y100800000D03*
X12280000Y100800000D03*
D11*
X1500000Y68610000D03*
X1500000Y71150000D03*
X1500000Y73690000D03*
X1500000Y76230000D03*
X1500000Y78770000D03*
X1500000Y81310000D03*
D17*
X1500000Y86390000D03*
D11*
X1500000Y83850000D03*
X1500000Y11110000D03*
X1500000Y13650000D03*
X1500000Y16190000D03*
X1500000Y18730000D03*
X1500000Y21270000D03*
X1500000Y23810000D03*
D17*
X1500000Y28890000D03*
D11*
X1500000Y26350000D03*
X37500000Y68610000D03*
X37500000Y71150000D03*
X37500000Y73690000D03*
X37500000Y76230000D03*
X37500000Y78770000D03*
X37500000Y81310000D03*
D17*
X37500000Y86390000D03*
D11*
X37500000Y83850000D03*
X37500000Y11110000D03*
X37500000Y13650000D03*
X37500000Y16190000D03*
X37500000Y18730000D03*
X37500000Y21270000D03*
X37500000Y23810000D03*
D17*
X37500000Y28890000D03*
D11*
X37500000Y26350000D03*
D14*
X20750000Y32700000D03*
D15*
X18250000Y32700000D03*
D18*
X9000000Y88540000D03*
X9000000Y83460000D03*
X9000000Y86000000D03*
D12*
X31500000Y5698000D03*
X31500000Y13826000D03*
X31500000Y2650000D03*
X10200000Y16900000D03*
X13200000Y16900000D03*
X28800000Y16900000D03*
X25800000Y16900000D03*
X21000000Y27700000D03*
X21000000Y17700000D03*
X18000000Y17700000D03*
X18000000Y27700000D03*
X15300000Y60700000D03*
X25300000Y60700000D03*
X2200000Y52600000D03*
X12200000Y52600000D03*
X31200000Y62500000D03*
X31200000Y52500000D03*
X16500000Y37400000D03*
X16500000Y47400000D03*
X19500000Y37400000D03*
X19500000Y47400000D03*
X24000000Y28500000D03*
X24000000Y18500000D03*
X15000000Y28600000D03*
X15000000Y18600000D03*
X28100000Y52500000D03*
X28100000Y62500000D03*
X12200000Y55700000D03*
X2200000Y55700000D03*
X23600000Y49300000D03*
X33600000Y49300000D03*
X34100000Y77300000D03*
X34100000Y67300000D03*
X6800000Y77300000D03*
X16800000Y77300000D03*
D11*
X13500000Y66300000D03*
X5900000Y66300000D03*
X5900000Y64200000D03*
X13500000Y64200000D03*
X16200000Y58100000D03*
X23800000Y58100000D03*
X23800000Y56000000D03*
X16200000Y56000000D03*
X23800000Y53900000D03*
X16200000Y53900000D03*
X13500000Y74700000D03*
X5900000Y74700000D03*
X5900000Y72600000D03*
X13500000Y72600000D03*
X13500000Y68400000D03*
X5900000Y68400000D03*
X5900000Y70500000D03*
X13500000Y70500000D03*
X18300000Y65500000D03*
X25900000Y65500000D03*
X18400000Y67600000D03*
X18400000Y75200000D03*
X25900000Y63300000D03*
X18300000Y63300000D03*
X16300000Y75200000D03*
X16300000Y67600000D03*
D19*
X23600000Y38600000D03*
M02*
