G04 #@! TF.FileFunction,Legend,Bot*
%FSLAX46Y46*%
G04 Gerber Fmt 4.6, Leading zero omitted, Abs format (unit mm)*
G04 Created by KiCad (PCBNEW (2016-08-20 BZR 7083)-product) date Thu Jan 26 00:07:01 2017*
%MOMM*%
%LPD*%
G01*
G04 APERTURE LIST*
%ADD10C,0.100000*%
%ADD11C,1.000000*%
%ADD12C,0.150000*%
%ADD13C,0.200000*%
%ADD14C,0.120000*%
G04 APERTURE END LIST*
D10*
D11*
X38300000Y105400000D02*
X800000Y105400000D01*
D12*
X24428571Y1271429D02*
X24276190Y738096D01*
X24123809Y1119048D01*
X23971428Y738096D01*
X23819047Y1271429D01*
X23590476Y1271429D02*
X23438095Y738096D01*
X23285714Y1119048D01*
X23133333Y738096D01*
X22980952Y1271429D01*
X22752380Y1271429D02*
X22600000Y738096D01*
X22447619Y1119048D01*
X22295238Y738096D01*
X22142857Y1271429D01*
X21838095Y814286D02*
X21800000Y776191D01*
X21838095Y738096D01*
X21876190Y776191D01*
X21838095Y814286D01*
X21838095Y738096D01*
X21152380Y776191D02*
X21228571Y738096D01*
X21380952Y738096D01*
X21457142Y776191D01*
X21495238Y852381D01*
X21495238Y1157143D01*
X21457142Y1233334D01*
X21380952Y1271429D01*
X21228571Y1271429D01*
X21152380Y1233334D01*
X21114285Y1157143D01*
X21114285Y1080953D01*
X21495238Y1004762D01*
X20771428Y738096D02*
X20771428Y1271429D01*
X20771428Y1119048D02*
X20733333Y1195239D01*
X20695238Y1233334D01*
X20619047Y1271429D01*
X20542857Y1271429D01*
X20276190Y738096D02*
X20276190Y1271429D01*
X20276190Y1538096D02*
X20314285Y1500000D01*
X20276190Y1461905D01*
X20238095Y1500000D01*
X20276190Y1538096D01*
X20276190Y1461905D01*
X19552380Y776191D02*
X19628571Y738096D01*
X19780952Y738096D01*
X19857142Y776191D01*
X19895238Y814286D01*
X19933333Y890477D01*
X19933333Y1119048D01*
X19895238Y1195239D01*
X19857142Y1233334D01*
X19780952Y1271429D01*
X19628571Y1271429D01*
X19552380Y1233334D01*
X18866666Y738096D02*
X18866666Y1157143D01*
X18904761Y1233334D01*
X18980952Y1271429D01*
X19133333Y1271429D01*
X19209523Y1233334D01*
X18866666Y776191D02*
X18942857Y738096D01*
X19133333Y738096D01*
X19209523Y776191D01*
X19247619Y852381D01*
X19247619Y928572D01*
X19209523Y1004762D01*
X19133333Y1042858D01*
X18942857Y1042858D01*
X18866666Y1080953D01*
X18523809Y776191D02*
X18447619Y738096D01*
X18295238Y738096D01*
X18219047Y776191D01*
X18180952Y852381D01*
X18180952Y890477D01*
X18219047Y966667D01*
X18295238Y1004762D01*
X18409523Y1004762D01*
X18485714Y1042858D01*
X18523809Y1119048D01*
X18523809Y1157143D01*
X18485714Y1233334D01*
X18409523Y1271429D01*
X18295238Y1271429D01*
X18219047Y1233334D01*
X17914285Y1271429D02*
X17723809Y738096D01*
X17533333Y1271429D02*
X17723809Y738096D01*
X17800000Y547620D01*
X17838095Y509524D01*
X17914285Y471429D01*
X17228571Y1271429D02*
X17228571Y738096D01*
X17228571Y1195239D02*
X17190476Y1233334D01*
X17114285Y1271429D01*
X17000000Y1271429D01*
X16923809Y1233334D01*
X16885714Y1157143D01*
X16885714Y738096D01*
X16619047Y1271429D02*
X16314285Y1271429D01*
X16504761Y1538096D02*
X16504761Y852381D01*
X16466666Y776191D01*
X16390476Y738096D01*
X16314285Y738096D01*
X16047619Y738096D02*
X16047619Y1538096D01*
X15704761Y738096D02*
X15704761Y1157143D01*
X15742857Y1233334D01*
X15819047Y1271429D01*
X15933333Y1271429D01*
X16009523Y1233334D01*
X16047619Y1195239D01*
X15361904Y776191D02*
X15285714Y738096D01*
X15133333Y738096D01*
X15057142Y776191D01*
X15019047Y852381D01*
X15019047Y890477D01*
X15057142Y966667D01*
X15133333Y1004762D01*
X15247619Y1004762D01*
X15323809Y1042858D01*
X15361904Y1119048D01*
X15361904Y1157143D01*
X15323809Y1233334D01*
X15247619Y1271429D01*
X15133333Y1271429D01*
X15057142Y1233334D01*
X14676190Y814286D02*
X14638095Y776191D01*
X14676190Y738096D01*
X14714285Y776191D01*
X14676190Y814286D01*
X14676190Y738096D01*
X14180952Y738096D02*
X14257142Y776191D01*
X14295238Y852381D01*
X14295238Y1538096D01*
X13952380Y1271429D02*
X13761904Y738096D01*
X13571428Y1271429D01*
D13*
X7614285Y74476191D02*
X7614285Y74142858D01*
X8242857Y74000000D02*
X8242857Y74476191D01*
X7042857Y74476191D01*
X7042857Y74000000D01*
X8242857Y73571429D02*
X7442857Y73571429D01*
X7671428Y73571429D02*
X7557142Y73523810D01*
X7500000Y73476191D01*
X7442857Y73380953D01*
X7442857Y73285715D01*
X8242857Y72952381D02*
X7442857Y72952381D01*
X7042857Y72952381D02*
X7100000Y73000000D01*
X7157142Y72952381D01*
X7100000Y72904762D01*
X7042857Y72952381D01*
X7157142Y72952381D01*
X8185714Y72047620D02*
X8242857Y72142858D01*
X8242857Y72333334D01*
X8185714Y72428572D01*
X8128571Y72476191D01*
X8014285Y72523810D01*
X7671428Y72523810D01*
X7557142Y72476191D01*
X7500000Y72428572D01*
X7442857Y72333334D01*
X7442857Y72142858D01*
X7500000Y72047620D01*
X8242857Y71190477D02*
X7614285Y71190477D01*
X7500000Y71238096D01*
X7442857Y71333334D01*
X7442857Y71523810D01*
X7500000Y71619048D01*
X8185714Y71190477D02*
X8242857Y71285715D01*
X8242857Y71523810D01*
X8185714Y71619048D01*
X8071428Y71666667D01*
X7957142Y71666667D01*
X7842857Y71619048D01*
X7785714Y71523810D01*
X7785714Y71285715D01*
X7728571Y71190477D01*
X8185714Y70000000D02*
X8242857Y69857143D01*
X8242857Y69619048D01*
X8185714Y69523810D01*
X8128571Y69476191D01*
X8014285Y69428572D01*
X7900000Y69428572D01*
X7785714Y69476191D01*
X7728571Y69523810D01*
X7671428Y69619048D01*
X7614285Y69809524D01*
X7557142Y69904762D01*
X7500000Y69952381D01*
X7385714Y70000000D01*
X7271428Y70000000D01*
X7157142Y69952381D01*
X7100000Y69904762D01*
X7042857Y69809524D01*
X7042857Y69571429D01*
X7100000Y69428572D01*
X7442857Y69095239D02*
X8242857Y68857143D01*
X7442857Y68619048D02*
X8242857Y68857143D01*
X8528571Y68952381D01*
X8585714Y69000000D01*
X8642857Y69095239D01*
X7442857Y68238096D02*
X8242857Y68238096D01*
X7557142Y68238096D02*
X7500000Y68190477D01*
X7442857Y68095239D01*
X7442857Y67952381D01*
X7500000Y67857143D01*
X7614285Y67809524D01*
X8242857Y67809524D01*
X7442857Y67476191D02*
X7442857Y67095239D01*
X7042857Y67333334D02*
X8071428Y67333334D01*
X8185714Y67285715D01*
X8242857Y67190477D01*
X8242857Y67095239D01*
X8242857Y66761905D02*
X7042857Y66761905D01*
X8242857Y66333334D02*
X7614285Y66333334D01*
X7500000Y66380953D01*
X7442857Y66476191D01*
X7442857Y66619048D01*
X7500000Y66714286D01*
X7557142Y66761905D01*
X8185714Y65904762D02*
X8242857Y65809524D01*
X8242857Y65619048D01*
X8185714Y65523810D01*
X8071428Y65476191D01*
X8014285Y65476191D01*
X7900000Y65523810D01*
X7842857Y65619048D01*
X7842857Y65761905D01*
X7785714Y65857143D01*
X7671428Y65904762D01*
X7614285Y65904762D01*
X7500000Y65857143D01*
X7442857Y65761905D01*
X7442857Y65619048D01*
X7500000Y65523810D01*
X10242857Y76547620D02*
X9042857Y76547620D01*
X9042857Y76166667D01*
X9100000Y76071429D01*
X9157142Y76023810D01*
X9271428Y75976191D01*
X9442857Y75976191D01*
X9557142Y76023810D01*
X9614285Y76071429D01*
X9671428Y76166667D01*
X9671428Y76547620D01*
X10242857Y75404762D02*
X10185714Y75500000D01*
X10128571Y75547620D01*
X10014285Y75595239D01*
X9671428Y75595239D01*
X9557142Y75547620D01*
X9500000Y75500000D01*
X9442857Y75404762D01*
X9442857Y75261905D01*
X9500000Y75166667D01*
X9557142Y75119048D01*
X9671428Y75071429D01*
X10014285Y75071429D01*
X10128571Y75119048D01*
X10185714Y75166667D01*
X10242857Y75261905D01*
X10242857Y75404762D01*
X10242857Y74500000D02*
X10185714Y74595239D01*
X10071428Y74642858D01*
X9042857Y74642858D01*
X10242857Y74119048D02*
X9442857Y74119048D01*
X9042857Y74119048D02*
X9100000Y74166667D01*
X9157142Y74119048D01*
X9100000Y74071429D01*
X9042857Y74119048D01*
X9157142Y74119048D01*
X9442857Y73738096D02*
X10242857Y73500000D01*
X9442857Y73261905D01*
X10242857Y72738096D02*
X10185714Y72833334D01*
X10128571Y72880953D01*
X10014285Y72928572D01*
X9671428Y72928572D01*
X9557142Y72880953D01*
X9500000Y72833334D01*
X9442857Y72738096D01*
X9442857Y72595239D01*
X9500000Y72500000D01*
X9557142Y72452381D01*
X9671428Y72404762D01*
X10014285Y72404762D01*
X10128571Y72452381D01*
X10185714Y72500000D01*
X10242857Y72595239D01*
X10242857Y72738096D01*
X10242857Y71976191D02*
X9042857Y71976191D01*
X9785714Y71880953D02*
X10242857Y71595239D01*
X9442857Y71595239D02*
X9900000Y71976191D01*
X10185714Y71214286D02*
X10242857Y71119048D01*
X10242857Y70928572D01*
X10185714Y70833334D01*
X10071428Y70785715D01*
X10014285Y70785715D01*
X9900000Y70833334D01*
X9842857Y70928572D01*
X9842857Y71071429D01*
X9785714Y71166667D01*
X9671428Y71214286D01*
X9614285Y71214286D01*
X9500000Y71166667D01*
X9442857Y71071429D01*
X9442857Y70928572D01*
X9500000Y70833334D01*
X9042857Y69738096D02*
X10242857Y69404762D01*
X9042857Y69071429D01*
X10128571Y68166667D02*
X10185714Y68214286D01*
X10242857Y68357143D01*
X10242857Y68452381D01*
X10185714Y68595239D01*
X10071428Y68690477D01*
X9957142Y68738096D01*
X9728571Y68785715D01*
X9557142Y68785715D01*
X9328571Y68738096D01*
X9214285Y68690477D01*
X9100000Y68595239D01*
X9042857Y68452381D01*
X9042857Y68357143D01*
X9100000Y68214286D01*
X9157142Y68166667D01*
X9900000Y67785715D02*
X9900000Y67309524D01*
X10242857Y67880953D02*
X9042857Y67547620D01*
X10242857Y67214286D01*
X9442857Y66214286D02*
X10242857Y65976191D01*
X9442857Y65738096D01*
X9157142Y65404762D02*
X9100000Y65357143D01*
X9042857Y65261905D01*
X9042857Y65023810D01*
X9100000Y64928572D01*
X9157142Y64880953D01*
X9271428Y64833334D01*
X9385714Y64833334D01*
X9557142Y64880953D01*
X10242857Y65452381D01*
X10242857Y64833334D01*
X10128571Y64404762D02*
X10185714Y64357143D01*
X10242857Y64404762D01*
X10185714Y64452381D01*
X10128571Y64404762D01*
X10242857Y64404762D01*
X10242857Y63404762D02*
X10242857Y63976191D01*
X10242857Y63690477D02*
X9042857Y63690477D01*
X9214285Y63785715D01*
X9328571Y63880953D01*
X9385714Y63976191D01*
X11042857Y73285715D02*
X11900000Y73285715D01*
X12071428Y73333334D01*
X12185714Y73428572D01*
X12242857Y73571429D01*
X12242857Y73666667D01*
X12242857Y72380953D02*
X11614285Y72380953D01*
X11500000Y72428572D01*
X11442857Y72523810D01*
X11442857Y72714286D01*
X11500000Y72809524D01*
X12185714Y72380953D02*
X12242857Y72476191D01*
X12242857Y72714286D01*
X12185714Y72809524D01*
X12071428Y72857143D01*
X11957142Y72857143D01*
X11842857Y72809524D01*
X11785714Y72714286D01*
X11785714Y72476191D01*
X11728571Y72380953D01*
X11442857Y71904762D02*
X12242857Y71904762D01*
X11557142Y71904762D02*
X11500000Y71857143D01*
X11442857Y71761905D01*
X11442857Y71619048D01*
X11500000Y71523810D01*
X11614285Y71476191D01*
X12242857Y71476191D01*
X12128571Y71000000D02*
X12185714Y70952381D01*
X12242857Y71000000D01*
X12185714Y71047620D01*
X12128571Y71000000D01*
X12242857Y71000000D01*
X11157142Y69809524D02*
X11100000Y69761905D01*
X11042857Y69666667D01*
X11042857Y69428572D01*
X11100000Y69333334D01*
X11157142Y69285715D01*
X11271428Y69238096D01*
X11385714Y69238096D01*
X11557142Y69285715D01*
X12242857Y69857143D01*
X12242857Y69238096D01*
X11042857Y68619048D02*
X11042857Y68523810D01*
X11100000Y68428572D01*
X11157142Y68380953D01*
X11271428Y68333334D01*
X11500000Y68285715D01*
X11785714Y68285715D01*
X12014285Y68333334D01*
X12128571Y68380953D01*
X12185714Y68428572D01*
X12242857Y68523810D01*
X12242857Y68619048D01*
X12185714Y68714286D01*
X12128571Y68761905D01*
X12014285Y68809524D01*
X11785714Y68857143D01*
X11500000Y68857143D01*
X11271428Y68809524D01*
X11157142Y68761905D01*
X11100000Y68714286D01*
X11042857Y68619048D01*
X12242857Y67333334D02*
X12242857Y67904762D01*
X12242857Y67619048D02*
X11042857Y67619048D01*
X11214285Y67714286D01*
X11328571Y67809524D01*
X11385714Y67904762D01*
X11042857Y67000000D02*
X11042857Y66333334D01*
X12242857Y66761905D01*
X30961904Y77714286D02*
X30200000Y77714286D01*
X29200000Y77257143D02*
X29771428Y77257143D01*
X29485714Y77257143D02*
X29485714Y78457143D01*
X29580952Y78285715D01*
X29676190Y78171429D01*
X29771428Y78114286D01*
X28819047Y78342858D02*
X28771428Y78400000D01*
X28676190Y78457143D01*
X28438095Y78457143D01*
X28342857Y78400000D01*
X28295238Y78342858D01*
X28247619Y78228572D01*
X28247619Y78114286D01*
X28295238Y77942858D01*
X28866666Y77257143D01*
X28247619Y77257143D01*
X27961904Y78457143D02*
X27628571Y77257143D01*
X27295238Y78457143D01*
X18561904Y89014286D02*
X17800000Y89014286D01*
X18180952Y88557143D02*
X18180952Y89471429D01*
X16800000Y88557143D02*
X17371428Y88557143D01*
X17085714Y88557143D02*
X17085714Y89757143D01*
X17180952Y89585715D01*
X17276190Y89471429D01*
X17371428Y89414286D01*
X16419047Y89642858D02*
X16371428Y89700000D01*
X16276190Y89757143D01*
X16038095Y89757143D01*
X15942857Y89700000D01*
X15895238Y89642858D01*
X15847619Y89528572D01*
X15847619Y89414286D01*
X15895238Y89242858D01*
X16466666Y88557143D01*
X15847619Y88557143D01*
X15561904Y89757143D02*
X15228571Y88557143D01*
X14895238Y89757143D01*
D10*
X37300000Y30383334D02*
X37700000Y30383334D01*
X37500000Y30383334D02*
X37500000Y31083334D01*
X37566666Y30983334D01*
X37633333Y30916667D01*
X37700000Y30883334D01*
X1300000Y30383334D02*
X1700000Y30383334D01*
X1500000Y30383334D02*
X1500000Y31083334D01*
X1566666Y30983334D01*
X1633333Y30916667D01*
X1700000Y30883334D01*
X1200000Y87883334D02*
X1600000Y87883334D01*
X1400000Y87883334D02*
X1400000Y88583334D01*
X1466666Y88483334D01*
X1533333Y88416667D01*
X1600000Y88383334D01*
X35600000Y86283334D02*
X36000000Y86283334D01*
X35800000Y86283334D02*
X35800000Y86983334D01*
X35866666Y86883334D01*
X35933333Y86816667D01*
X36000000Y86783334D01*
X38116666Y99816667D02*
X38083333Y99850000D01*
X38016666Y99883334D01*
X37850000Y99883334D01*
X37783333Y99850000D01*
X37750000Y99816667D01*
X37716666Y99750000D01*
X37716666Y99683334D01*
X37750000Y99583334D01*
X38150000Y99183334D01*
X37716666Y99183334D01*
X36950000Y99183334D02*
X36583333Y99650000D01*
X36950000Y99650000D02*
X36583333Y99183334D01*
X37105000Y60430000D02*
X33295000Y60430000D01*
X33297661Y60426017D02*
G75*
G02X37105000Y60430000I1902339J1273983D01*
G01*
D12*
X14723908Y47200000D02*
G75*
G03X14723908Y47200000I-3323908J0D01*
G01*
X28723908Y44400000D02*
G75*
G03X28723908Y44400000I-3323908J0D01*
G01*
D10*
X8123500Y95668500D02*
X8123500Y91731500D01*
X13780710Y93700000D02*
G75*
G03X13780710Y93700000I-3180710J0D01*
G01*
X6476500Y93831500D02*
X6476500Y97768500D01*
X7180710Y95800000D02*
G75*
G03X7180710Y95800000I-3180710J0D01*
G01*
D12*
X15823908Y32700000D02*
G75*
G03X15823908Y32700000I-3323908J0D01*
G01*
D10*
X32923500Y58868500D02*
X32923500Y54931500D01*
X38580710Y56900000D02*
G75*
G03X38580710Y56900000I-3180710J0D01*
G01*
D12*
X29823908Y32700000D02*
G75*
G03X29823908Y32700000I-3323908J0D01*
G01*
D10*
X35387500Y95946500D02*
X35387500Y88453500D01*
X35387500Y88453500D02*
X32212500Y88453500D01*
X32212500Y88453500D02*
X32212500Y95946500D01*
X32212500Y95946500D02*
X35387500Y95946500D01*
X38787500Y95946500D02*
X38787500Y88453500D01*
X38787500Y88453500D02*
X35612500Y88453500D01*
X35612500Y88453500D02*
X35612500Y95946500D01*
X35612500Y95946500D02*
X38787500Y95946500D01*
X33271000Y78928000D02*
X34287000Y79944000D01*
X13713000Y78928000D02*
X33271000Y78928000D01*
X34287000Y88072000D02*
X34287000Y79944000D01*
X13713000Y88072000D02*
X13713000Y78928000D01*
X34287000Y88072000D02*
X13713000Y88072000D01*
X2770000Y67340000D02*
X230000Y67340000D01*
X230000Y67340000D02*
X230000Y87660000D01*
X230000Y87660000D02*
X2135000Y87660000D01*
X2135000Y87660000D02*
X2770000Y87025000D01*
X2770000Y87025000D02*
X2770000Y67340000D01*
X2770000Y9840000D02*
X230000Y9840000D01*
X230000Y9840000D02*
X230000Y30160000D01*
X230000Y30160000D02*
X2135000Y30160000D01*
X2135000Y30160000D02*
X2770000Y29525000D01*
X2770000Y29525000D02*
X2770000Y9840000D01*
X38770000Y67340000D02*
X36230000Y67340000D01*
X36230000Y67340000D02*
X36230000Y87660000D01*
X36230000Y87660000D02*
X38135000Y87660000D01*
X38135000Y87660000D02*
X38770000Y87025000D01*
X38770000Y87025000D02*
X38770000Y67340000D01*
X38770000Y9840000D02*
X36230000Y9840000D01*
X36230000Y9840000D02*
X36230000Y30160000D01*
X36230000Y30160000D02*
X38135000Y30160000D01*
X38135000Y30160000D02*
X38770000Y29525000D01*
X38770000Y29525000D02*
X38770000Y9840000D01*
G36*
X28626647Y24732782D02*
X28796201Y24734600D01*
X29099114Y24743211D01*
X29319056Y24758139D01*
X29474571Y24781599D01*
X29584205Y24815808D01*
X29619249Y24832933D01*
X29780858Y24974904D01*
X29897219Y25183932D01*
X29959154Y25432090D01*
X29957483Y25691451D01*
X29935856Y25796094D01*
X29862017Y25972284D01*
X29762363Y26086256D01*
X29653502Y26121279D01*
X29620746Y26113590D01*
X29556283Y26067970D01*
X29543587Y25986493D01*
X29582518Y25848178D01*
X29618367Y25758147D01*
X29668854Y25597118D01*
X29663346Y25453616D01*
X29643534Y25376969D01*
X29574317Y25207877D01*
X29475512Y25108097D01*
X29348329Y25054312D01*
X29274585Y25038476D01*
X29258657Y25071282D01*
X29289977Y25175603D01*
X29290970Y25178453D01*
X29329541Y25390241D01*
X29317489Y25621540D01*
X29260573Y25832546D01*
X29176197Y25971723D01*
X29060293Y26082417D01*
X28944259Y26152569D01*
X28796774Y26194327D01*
X28586516Y26219837D01*
X28523404Y26224878D01*
X28252595Y26228625D01*
X28068668Y26193144D01*
X27974697Y26119300D01*
X27962400Y26067000D01*
X28007433Y25978116D01*
X28144097Y25920088D01*
X28374736Y25892155D01*
X28509986Y25889200D01*
X28715238Y25882733D01*
X28845557Y25859621D01*
X28927008Y25814300D01*
X28945126Y25796300D01*
X29011000Y25659085D01*
X29027673Y25477161D01*
X28996022Y25294219D01*
X28932576Y25171531D01*
X28871079Y25110566D01*
X28790193Y25072227D01*
X28664103Y25049543D01*
X28466989Y25035542D01*
X28420852Y25033355D01*
X28198582Y25018168D01*
X28060834Y24994684D01*
X27990636Y24959210D01*
X27975822Y24936506D01*
X27967619Y24856496D01*
X28019470Y24798366D01*
X28140506Y24759868D01*
X28339855Y24738756D01*
X28626647Y24732782D01*
X28626647Y24732782D01*
X28626647Y24732782D01*
G37*
X28626647Y24732782D02*
X28796201Y24734600D01*
X29099114Y24743211D01*
X29319056Y24758139D01*
X29474571Y24781599D01*
X29584205Y24815808D01*
X29619249Y24832933D01*
X29780858Y24974904D01*
X29897219Y25183932D01*
X29959154Y25432090D01*
X29957483Y25691451D01*
X29935856Y25796094D01*
X29862017Y25972284D01*
X29762363Y26086256D01*
X29653502Y26121279D01*
X29620746Y26113590D01*
X29556283Y26067970D01*
X29543587Y25986493D01*
X29582518Y25848178D01*
X29618367Y25758147D01*
X29668854Y25597118D01*
X29663346Y25453616D01*
X29643534Y25376969D01*
X29574317Y25207877D01*
X29475512Y25108097D01*
X29348329Y25054312D01*
X29274585Y25038476D01*
X29258657Y25071282D01*
X29289977Y25175603D01*
X29290970Y25178453D01*
X29329541Y25390241D01*
X29317489Y25621540D01*
X29260573Y25832546D01*
X29176197Y25971723D01*
X29060293Y26082417D01*
X28944259Y26152569D01*
X28796774Y26194327D01*
X28586516Y26219837D01*
X28523404Y26224878D01*
X28252595Y26228625D01*
X28068668Y26193144D01*
X27974697Y26119300D01*
X27962400Y26067000D01*
X28007433Y25978116D01*
X28144097Y25920088D01*
X28374736Y25892155D01*
X28509986Y25889200D01*
X28715238Y25882733D01*
X28845557Y25859621D01*
X28927008Y25814300D01*
X28945126Y25796300D01*
X29011000Y25659085D01*
X29027673Y25477161D01*
X28996022Y25294219D01*
X28932576Y25171531D01*
X28871079Y25110566D01*
X28790193Y25072227D01*
X28664103Y25049543D01*
X28466989Y25035542D01*
X28420852Y25033355D01*
X28198582Y25018168D01*
X28060834Y24994684D01*
X27990636Y24959210D01*
X27975822Y24936506D01*
X27967619Y24856496D01*
X28019470Y24798366D01*
X28140506Y24759868D01*
X28339855Y24738756D01*
X28626647Y24732782D01*
X28626647Y24732782D01*
G36*
X28878314Y26296540D02*
X29055659Y26337640D01*
X29204916Y26458457D01*
X29307860Y26651750D01*
X29359485Y26897172D01*
X29354789Y27174375D01*
X29313096Y27384481D01*
X29237354Y27585880D01*
X29148694Y27705138D01*
X29054494Y27735285D01*
X28984401Y27694974D01*
X28936752Y27612723D01*
X28961946Y27505334D01*
X28965285Y27497897D01*
X29024403Y27318060D01*
X29054545Y27119601D01*
X29056867Y26926919D01*
X29032526Y26764411D01*
X28982679Y26656475D01*
X28923945Y26625800D01*
X28884268Y26652671D01*
X28855503Y26743205D01*
X28834097Y26912285D01*
X28824210Y27043571D01*
X28784952Y27352557D01*
X28711471Y27570889D01*
X28600636Y27704643D01*
X28455188Y27759232D01*
X28267368Y27737602D01*
X28120137Y27628602D01*
X28018976Y27440204D01*
X27969365Y27180380D01*
X27965267Y27046532D01*
X27985001Y26807706D01*
X28033517Y26605942D01*
X28102888Y26454542D01*
X28185192Y26366812D01*
X28272503Y26356054D01*
X28342144Y26413823D01*
X28382827Y26493803D01*
X28373448Y26587186D01*
X28339168Y26678892D01*
X28288692Y26856827D01*
X28268253Y27054357D01*
X28277484Y27238197D01*
X28316020Y27375063D01*
X28347271Y27416414D01*
X28424100Y27449825D01*
X28477202Y27398446D01*
X28508585Y27257349D01*
X28520259Y27021608D01*
X28520422Y26991578D01*
X28545642Y26699052D01*
X28616760Y26481961D01*
X28729182Y26345920D01*
X28878314Y26296540D01*
X28878314Y26296540D01*
X28878314Y26296540D01*
G37*
X28878314Y26296540D02*
X29055659Y26337640D01*
X29204916Y26458457D01*
X29307860Y26651750D01*
X29359485Y26897172D01*
X29354789Y27174375D01*
X29313096Y27384481D01*
X29237354Y27585880D01*
X29148694Y27705138D01*
X29054494Y27735285D01*
X28984401Y27694974D01*
X28936752Y27612723D01*
X28961946Y27505334D01*
X28965285Y27497897D01*
X29024403Y27318060D01*
X29054545Y27119601D01*
X29056867Y26926919D01*
X29032526Y26764411D01*
X28982679Y26656475D01*
X28923945Y26625800D01*
X28884268Y26652671D01*
X28855503Y26743205D01*
X28834097Y26912285D01*
X28824210Y27043571D01*
X28784952Y27352557D01*
X28711471Y27570889D01*
X28600636Y27704643D01*
X28455188Y27759232D01*
X28267368Y27737602D01*
X28120137Y27628602D01*
X28018976Y27440204D01*
X27969365Y27180380D01*
X27965267Y27046532D01*
X27985001Y26807706D01*
X28033517Y26605942D01*
X28102888Y26454542D01*
X28185192Y26366812D01*
X28272503Y26356054D01*
X28342144Y26413823D01*
X28382827Y26493803D01*
X28373448Y26587186D01*
X28339168Y26678892D01*
X28288692Y26856827D01*
X28268253Y27054357D01*
X28277484Y27238197D01*
X28316020Y27375063D01*
X28347271Y27416414D01*
X28424100Y27449825D01*
X28477202Y27398446D01*
X28508585Y27257349D01*
X28520259Y27021608D01*
X28520422Y26991578D01*
X28545642Y26699052D01*
X28616760Y26481961D01*
X28729182Y26345920D01*
X28878314Y26296540D01*
X28878314Y26296540D01*
G36*
X28878314Y19032140D02*
X29055659Y19073240D01*
X29205265Y19194428D01*
X29308218Y19389215D01*
X29358917Y19638263D01*
X29351763Y19922234D01*
X29333361Y20032136D01*
X29270149Y20262480D01*
X29192539Y20399864D01*
X29095532Y20452492D01*
X29076618Y20453600D01*
X28982778Y20426824D01*
X28947398Y20339751D01*
X28968637Y20182266D01*
X29004808Y20058840D01*
X29046518Y19870155D01*
X29056021Y19680537D01*
X29036205Y19515544D01*
X28989958Y19400735D01*
X28925993Y19361400D01*
X28885439Y19386172D01*
X28856519Y19471107D01*
X28835301Y19632131D01*
X28824616Y19772146D01*
X28789076Y20071067D01*
X28724137Y20282354D01*
X28624558Y20417056D01*
X28485977Y20486005D01*
X28309374Y20482646D01*
X28153307Y20392821D01*
X28041700Y20231607D01*
X28028767Y20197886D01*
X27979900Y19989213D01*
X27966515Y19770340D01*
X27983731Y19557494D01*
X28026665Y19366902D01*
X28090437Y19214790D01*
X28170163Y19117386D01*
X28260963Y19090916D01*
X28347017Y19140046D01*
X28397696Y19204980D01*
X28395628Y19274366D01*
X28347970Y19377962D01*
X28292582Y19546968D01*
X28270116Y19749975D01*
X28280866Y19947221D01*
X28325125Y20098943D01*
X28342434Y20126391D01*
X28415944Y20185170D01*
X28470475Y20145476D01*
X28505377Y20008766D01*
X28519999Y19776500D01*
X28520422Y19727178D01*
X28545642Y19434652D01*
X28616760Y19217561D01*
X28729182Y19081520D01*
X28878314Y19032140D01*
X28878314Y19032140D01*
X28878314Y19032140D01*
G37*
X28878314Y19032140D02*
X29055659Y19073240D01*
X29205265Y19194428D01*
X29308218Y19389215D01*
X29358917Y19638263D01*
X29351763Y19922234D01*
X29333361Y20032136D01*
X29270149Y20262480D01*
X29192539Y20399864D01*
X29095532Y20452492D01*
X29076618Y20453600D01*
X28982778Y20426824D01*
X28947398Y20339751D01*
X28968637Y20182266D01*
X29004808Y20058840D01*
X29046518Y19870155D01*
X29056021Y19680537D01*
X29036205Y19515544D01*
X28989958Y19400735D01*
X28925993Y19361400D01*
X28885439Y19386172D01*
X28856519Y19471107D01*
X28835301Y19632131D01*
X28824616Y19772146D01*
X28789076Y20071067D01*
X28724137Y20282354D01*
X28624558Y20417056D01*
X28485977Y20486005D01*
X28309374Y20482646D01*
X28153307Y20392821D01*
X28041700Y20231607D01*
X28028767Y20197886D01*
X27979900Y19989213D01*
X27966515Y19770340D01*
X27983731Y19557494D01*
X28026665Y19366902D01*
X28090437Y19214790D01*
X28170163Y19117386D01*
X28260963Y19090916D01*
X28347017Y19140046D01*
X28397696Y19204980D01*
X28395628Y19274366D01*
X28347970Y19377962D01*
X28292582Y19546968D01*
X28270116Y19749975D01*
X28280866Y19947221D01*
X28325125Y20098943D01*
X28342434Y20126391D01*
X28415944Y20185170D01*
X28470475Y20145476D01*
X28505377Y20008766D01*
X28519999Y19776500D01*
X28520422Y19727178D01*
X28545642Y19434652D01*
X28616760Y19217561D01*
X28729182Y19081520D01*
X28878314Y19032140D01*
X28878314Y19032140D01*
G36*
X29017171Y23096741D02*
X29199159Y23115202D01*
X29299402Y23165652D01*
X29325898Y23250219D01*
X29324597Y23262096D01*
X29308414Y23317757D01*
X29265227Y23353735D01*
X29174199Y23376644D01*
X29014489Y23393101D01*
X28883206Y23402230D01*
X28616411Y23432384D01*
X28435758Y23488907D01*
X28327053Y23582192D01*
X28276103Y23722630D01*
X28267200Y23853249D01*
X28292550Y24039952D01*
X28376331Y24164760D01*
X28530141Y24236223D01*
X28765574Y24262890D01*
X28823824Y24263600D01*
X29059291Y24268740D01*
X29210669Y24288272D01*
X29295136Y24328367D01*
X29329869Y24395193D01*
X29334000Y24446836D01*
X29334000Y24568400D01*
X28672005Y24568400D01*
X28392879Y24566460D01*
X28199723Y24559486D01*
X28076963Y24545746D01*
X28009024Y24523510D01*
X27980522Y24491554D01*
X27984457Y24390461D01*
X28011041Y24342401D01*
X28044522Y24248288D01*
X28016725Y24168587D01*
X27969538Y23998584D01*
X27968740Y23786349D01*
X28011342Y23578449D01*
X28061764Y23466261D01*
X28198876Y23294408D01*
X28373936Y23184204D01*
X28610931Y23123085D01*
X28745441Y23108146D01*
X29017171Y23096741D01*
X29017171Y23096741D01*
X29017171Y23096741D01*
G37*
X29017171Y23096741D02*
X29199159Y23115202D01*
X29299402Y23165652D01*
X29325898Y23250219D01*
X29324597Y23262096D01*
X29308414Y23317757D01*
X29265227Y23353735D01*
X29174199Y23376644D01*
X29014489Y23393101D01*
X28883206Y23402230D01*
X28616411Y23432384D01*
X28435758Y23488907D01*
X28327053Y23582192D01*
X28276103Y23722630D01*
X28267200Y23853249D01*
X28292550Y24039952D01*
X28376331Y24164760D01*
X28530141Y24236223D01*
X28765574Y24262890D01*
X28823824Y24263600D01*
X29059291Y24268740D01*
X29210669Y24288272D01*
X29295136Y24328367D01*
X29329869Y24395193D01*
X29334000Y24446836D01*
X29334000Y24568400D01*
X28672005Y24568400D01*
X28392879Y24566460D01*
X28199723Y24559486D01*
X28076963Y24545746D01*
X28009024Y24523510D01*
X27980522Y24491554D01*
X27984457Y24390461D01*
X28011041Y24342401D01*
X28044522Y24248288D01*
X28016725Y24168587D01*
X27969538Y23998584D01*
X27968740Y23786349D01*
X28011342Y23578449D01*
X28061764Y23466261D01*
X28198876Y23294408D01*
X28373936Y23184204D01*
X28610931Y23123085D01*
X28745441Y23108146D01*
X29017171Y23096741D01*
X29017171Y23096741D01*
G36*
X29156439Y22155988D02*
X29251361Y22159959D01*
X29312703Y22231953D01*
X29334652Y22362098D01*
X29318147Y22515295D01*
X29264126Y22656444D01*
X29237040Y22695873D01*
X29175209Y22756975D01*
X29092986Y22796325D01*
X28964956Y22821014D01*
X28765704Y22838136D01*
X28716340Y22841200D01*
X28505878Y22856865D01*
X28379132Y22876019D01*
X28318221Y22903345D01*
X28305269Y22943529D01*
X28305970Y22948724D01*
X28280166Y23052216D01*
X28193517Y23117582D01*
X28098809Y23117182D01*
X28027788Y23046765D01*
X28003470Y22976605D01*
X27981487Y22913504D01*
X27921804Y22875582D01*
X27800001Y22852509D01*
X27683446Y22841200D01*
X27506669Y22820370D01*
X27408560Y22789496D01*
X27366198Y22739986D01*
X27360948Y22720288D01*
X27371928Y22626146D01*
X27455177Y22568005D01*
X27621282Y22540790D01*
X27742966Y22537178D01*
X27899296Y22531716D01*
X27981085Y22509145D01*
X28015210Y22458396D01*
X28022366Y22422100D01*
X28070127Y22324727D01*
X28153126Y22286499D01*
X28234441Y22311553D01*
X28275971Y22393682D01*
X28292118Y22455190D01*
X28334127Y22490364D01*
X28425135Y22506499D01*
X28588280Y22510884D01*
X28648200Y22511000D01*
X28834230Y22509140D01*
X28941831Y22497902D01*
X28994169Y22468802D01*
X29014411Y22413357D01*
X29019515Y22375018D01*
X29066842Y22230559D01*
X29156439Y22155988D01*
X29156439Y22155988D01*
X29156439Y22155988D01*
G37*
X29156439Y22155988D02*
X29251361Y22159959D01*
X29312703Y22231953D01*
X29334652Y22362098D01*
X29318147Y22515295D01*
X29264126Y22656444D01*
X29237040Y22695873D01*
X29175209Y22756975D01*
X29092986Y22796325D01*
X28964956Y22821014D01*
X28765704Y22838136D01*
X28716340Y22841200D01*
X28505878Y22856865D01*
X28379132Y22876019D01*
X28318221Y22903345D01*
X28305269Y22943529D01*
X28305970Y22948724D01*
X28280166Y23052216D01*
X28193517Y23117582D01*
X28098809Y23117182D01*
X28027788Y23046765D01*
X28003470Y22976605D01*
X27981487Y22913504D01*
X27921804Y22875582D01*
X27800001Y22852509D01*
X27683446Y22841200D01*
X27506669Y22820370D01*
X27408560Y22789496D01*
X27366198Y22739986D01*
X27360948Y22720288D01*
X27371928Y22626146D01*
X27455177Y22568005D01*
X27621282Y22540790D01*
X27742966Y22537178D01*
X27899296Y22531716D01*
X27981085Y22509145D01*
X28015210Y22458396D01*
X28022366Y22422100D01*
X28070127Y22324727D01*
X28153126Y22286499D01*
X28234441Y22311553D01*
X28275971Y22393682D01*
X28292118Y22455190D01*
X28334127Y22490364D01*
X28425135Y22506499D01*
X28588280Y22510884D01*
X28648200Y22511000D01*
X28834230Y22509140D01*
X28941831Y22497902D01*
X28994169Y22468802D01*
X29014411Y22413357D01*
X29019515Y22375018D01*
X29066842Y22230559D01*
X29156439Y22155988D01*
X29156439Y22155988D01*
G36*
X29036541Y20576506D02*
X29213706Y20606134D01*
X29309902Y20670940D01*
X29334000Y20754263D01*
X29307634Y20826666D01*
X29219985Y20874320D01*
X29058221Y20900885D01*
X28809513Y20910024D01*
X28787900Y20910107D01*
X28544706Y20930264D01*
X28384728Y20995531D01*
X28296185Y21114992D01*
X28267294Y21297730D01*
X28267200Y21311573D01*
X28285520Y21494425D01*
X28350123Y21621569D01*
X28475470Y21703819D01*
X28676024Y21751988D01*
X28883206Y21772171D01*
X29092430Y21788120D01*
X29220820Y21806882D01*
X29289080Y21834821D01*
X29317914Y21878301D01*
X29323985Y21907635D01*
X29302063Y22011068D01*
X29256331Y22047335D01*
X29179130Y22058137D01*
X29019558Y22067372D01*
X28796840Y22074363D01*
X28530202Y22078437D01*
X28348954Y22079200D01*
X27989120Y22075747D01*
X27720644Y22063875D01*
X27533471Y22041315D01*
X27417547Y22005798D01*
X27362815Y21955056D01*
X27359221Y21886819D01*
X27368351Y21857947D01*
X27408847Y21810910D01*
X27499446Y21784900D01*
X27661960Y21774983D01*
X27737640Y21774400D01*
X27916479Y21771736D01*
X28012925Y21759925D01*
X28046126Y21733244D01*
X28035233Y21685968D01*
X28035024Y21685500D01*
X27984089Y21486005D01*
X27979029Y21253091D01*
X28018832Y21038402D01*
X28049142Y20965212D01*
X28164184Y20791266D01*
X28307421Y20677439D01*
X28502579Y20611044D01*
X28770388Y20579570D01*
X29036541Y20576506D01*
X29036541Y20576506D01*
X29036541Y20576506D01*
G37*
X29036541Y20576506D02*
X29213706Y20606134D01*
X29309902Y20670940D01*
X29334000Y20754263D01*
X29307634Y20826666D01*
X29219985Y20874320D01*
X29058221Y20900885D01*
X28809513Y20910024D01*
X28787900Y20910107D01*
X28544706Y20930264D01*
X28384728Y20995531D01*
X28296185Y21114992D01*
X28267294Y21297730D01*
X28267200Y21311573D01*
X28285520Y21494425D01*
X28350123Y21621569D01*
X28475470Y21703819D01*
X28676024Y21751988D01*
X28883206Y21772171D01*
X29092430Y21788120D01*
X29220820Y21806882D01*
X29289080Y21834821D01*
X29317914Y21878301D01*
X29323985Y21907635D01*
X29302063Y22011068D01*
X29256331Y22047335D01*
X29179130Y22058137D01*
X29019558Y22067372D01*
X28796840Y22074363D01*
X28530202Y22078437D01*
X28348954Y22079200D01*
X27989120Y22075747D01*
X27720644Y22063875D01*
X27533471Y22041315D01*
X27417547Y22005798D01*
X27362815Y21955056D01*
X27359221Y21886819D01*
X27368351Y21857947D01*
X27408847Y21810910D01*
X27499446Y21784900D01*
X27661960Y21774983D01*
X27737640Y21774400D01*
X27916479Y21771736D01*
X28012925Y21759925D01*
X28046126Y21733244D01*
X28035233Y21685968D01*
X28035024Y21685500D01*
X27984089Y21486005D01*
X27979029Y21253091D01*
X28018832Y21038402D01*
X28049142Y20965212D01*
X28164184Y20791266D01*
X28307421Y20677439D01*
X28502579Y20611044D01*
X28770388Y20579570D01*
X29036541Y20576506D01*
X29036541Y20576506D01*
G36*
X25979879Y25250361D02*
X26129233Y25253241D01*
X26277205Y25314353D01*
X26379110Y25430528D01*
X26420031Y25551723D01*
X26107553Y25551723D01*
X26006995Y25554502D01*
X25931983Y25633214D01*
X25886545Y25764496D01*
X25874708Y25924986D01*
X25900499Y26091322D01*
X25967944Y26240140D01*
X25984887Y26263350D01*
X26069578Y26354771D01*
X26133793Y26396884D01*
X26137287Y26397200D01*
X26159126Y26350415D01*
X26175589Y26226050D01*
X26183907Y26048092D01*
X26184400Y25989206D01*
X26179926Y25773104D01*
X26164328Y25639711D01*
X26134341Y25570442D01*
X26107553Y25551723D01*
X26420031Y25551723D01*
X26441442Y25615135D01*
X26470697Y25881541D01*
X26473589Y25961883D01*
X26486917Y26197625D01*
X26514138Y26336650D01*
X26557752Y26383201D01*
X26620258Y26341521D01*
X26663023Y26283399D01*
X26765379Y26041266D01*
X26768067Y25779578D01*
X26720597Y25610056D01*
X26667494Y25434043D01*
X26674969Y25329442D01*
X26745949Y25284007D01*
X26799590Y25279600D01*
X26894274Y25325865D01*
X26968976Y25449198D01*
X27020164Y25626408D01*
X27044304Y25834304D01*
X27037866Y26049696D01*
X26997316Y26249391D01*
X26961136Y26340229D01*
X26818565Y26526381D01*
X26622519Y26646118D01*
X26396431Y26699182D01*
X26163733Y26685318D01*
X25947859Y26604268D01*
X25772241Y26455776D01*
X25705719Y26353980D01*
X25619325Y26116427D01*
X25594628Y25877291D01*
X25624980Y25653844D01*
X25703736Y25463359D01*
X25824251Y25323107D01*
X25979879Y25250361D01*
X25979879Y25250361D01*
X25979879Y25250361D01*
G37*
X25979879Y25250361D02*
X26129233Y25253241D01*
X26277205Y25314353D01*
X26379110Y25430528D01*
X26420031Y25551723D01*
X26107553Y25551723D01*
X26006995Y25554502D01*
X25931983Y25633214D01*
X25886545Y25764496D01*
X25874708Y25924986D01*
X25900499Y26091322D01*
X25967944Y26240140D01*
X25984887Y26263350D01*
X26069578Y26354771D01*
X26133793Y26396884D01*
X26137287Y26397200D01*
X26159126Y26350415D01*
X26175589Y26226050D01*
X26183907Y26048092D01*
X26184400Y25989206D01*
X26179926Y25773104D01*
X26164328Y25639711D01*
X26134341Y25570442D01*
X26107553Y25551723D01*
X26420031Y25551723D01*
X26441442Y25615135D01*
X26470697Y25881541D01*
X26473589Y25961883D01*
X26486917Y26197625D01*
X26514138Y26336650D01*
X26557752Y26383201D01*
X26620258Y26341521D01*
X26663023Y26283399D01*
X26765379Y26041266D01*
X26768067Y25779578D01*
X26720597Y25610056D01*
X26667494Y25434043D01*
X26674969Y25329442D01*
X26745949Y25284007D01*
X26799590Y25279600D01*
X26894274Y25325865D01*
X26968976Y25449198D01*
X27020164Y25626408D01*
X27044304Y25834304D01*
X27037866Y26049696D01*
X26997316Y26249391D01*
X26961136Y26340229D01*
X26818565Y26526381D01*
X26622519Y26646118D01*
X26396431Y26699182D01*
X26163733Y26685318D01*
X25947859Y26604268D01*
X25772241Y26455776D01*
X25705719Y26353980D01*
X25619325Y26116427D01*
X25594628Y25877291D01*
X25624980Y25653844D01*
X25703736Y25463359D01*
X25824251Y25323107D01*
X25979879Y25250361D01*
X25979879Y25250361D01*
G36*
X25865910Y23664635D02*
X25925459Y23680991D01*
X25961951Y23714581D01*
X26010667Y23778579D01*
X26006875Y23849275D01*
X25960370Y23949962D01*
X25898399Y24141789D01*
X25888435Y24351050D01*
X25925307Y24548787D01*
X26003846Y24706038D01*
X26110475Y24790844D01*
X26203410Y24807835D01*
X26360102Y24819566D01*
X26506054Y24823094D01*
X26693747Y24828366D01*
X26854784Y24841282D01*
X26933700Y24854419D01*
X27022663Y24918066D01*
X27049472Y25017171D01*
X27014133Y25093334D01*
X26953367Y25105897D01*
X26810984Y25116351D01*
X26606960Y25123737D01*
X26361272Y25127096D01*
X26308368Y25127200D01*
X26031910Y25125768D01*
X25840512Y25120104D01*
X25717658Y25108158D01*
X25646833Y25087881D01*
X25611519Y25057223D01*
X25602870Y25039641D01*
X25610967Y24936573D01*
X25652250Y24891404D01*
X25707266Y24814081D01*
X25686314Y24737664D01*
X25615734Y24525458D01*
X25596946Y24282195D01*
X25626655Y24040997D01*
X25701566Y23834984D01*
X25787377Y23721714D01*
X25865910Y23664635D01*
X25865910Y23664635D01*
X25865910Y23664635D01*
G37*
X25865910Y23664635D02*
X25925459Y23680991D01*
X25961951Y23714581D01*
X26010667Y23778579D01*
X26006875Y23849275D01*
X25960370Y23949962D01*
X25898399Y24141789D01*
X25888435Y24351050D01*
X25925307Y24548787D01*
X26003846Y24706038D01*
X26110475Y24790844D01*
X26203410Y24807835D01*
X26360102Y24819566D01*
X26506054Y24823094D01*
X26693747Y24828366D01*
X26854784Y24841282D01*
X26933700Y24854419D01*
X27022663Y24918066D01*
X27049472Y25017171D01*
X27014133Y25093334D01*
X26953367Y25105897D01*
X26810984Y25116351D01*
X26606960Y25123737D01*
X26361272Y25127096D01*
X26308368Y25127200D01*
X26031910Y25125768D01*
X25840512Y25120104D01*
X25717658Y25108158D01*
X25646833Y25087881D01*
X25611519Y25057223D01*
X25602870Y25039641D01*
X25610967Y24936573D01*
X25652250Y24891404D01*
X25707266Y24814081D01*
X25686314Y24737664D01*
X25615734Y24525458D01*
X25596946Y24282195D01*
X25626655Y24040997D01*
X25701566Y23834984D01*
X25787377Y23721714D01*
X25865910Y23664635D01*
X25865910Y23664635D01*
G36*
X25910083Y23305181D02*
X26130775Y23306150D01*
X26330070Y23309706D01*
X26607364Y23316145D01*
X26799274Y23324076D01*
X26922008Y23336286D01*
X26991772Y23355565D01*
X27024775Y23384699D01*
X27037224Y23426478D01*
X27037965Y23431479D01*
X27017462Y23527471D01*
X26936365Y23570485D01*
X26837745Y23583672D01*
X26664997Y23594265D01*
X26445582Y23600919D01*
X26283009Y23602507D01*
X25981318Y23595618D01*
X25771600Y23572187D01*
X25645166Y23529427D01*
X25593323Y23464550D01*
X25603405Y23384566D01*
X25626491Y23348849D01*
X25674356Y23324840D01*
X25763416Y23310848D01*
X25910083Y23305181D01*
X25910083Y23305181D01*
X25910083Y23305181D01*
G37*
X25910083Y23305181D02*
X26130775Y23306150D01*
X26330070Y23309706D01*
X26607364Y23316145D01*
X26799274Y23324076D01*
X26922008Y23336286D01*
X26991772Y23355565D01*
X27024775Y23384699D01*
X27037224Y23426478D01*
X27037965Y23431479D01*
X27017462Y23527471D01*
X26936365Y23570485D01*
X26837745Y23583672D01*
X26664997Y23594265D01*
X26445582Y23600919D01*
X26283009Y23602507D01*
X25981318Y23595618D01*
X25771600Y23572187D01*
X25645166Y23529427D01*
X25593323Y23464550D01*
X25603405Y23384566D01*
X25626491Y23348849D01*
X25674356Y23324840D01*
X25763416Y23310848D01*
X25910083Y23305181D01*
X25910083Y23305181D01*
G36*
X26799590Y21774400D02*
X26894685Y21820534D01*
X26969834Y21942933D01*
X27021488Y22117595D01*
X27046103Y22320518D01*
X27040130Y22527699D01*
X27000022Y22715137D01*
X26953483Y22815800D01*
X26807531Y23009924D01*
X26646509Y23123569D01*
X26439130Y23176555D01*
X26374112Y23182814D01*
X26098935Y23161757D01*
X25879156Y23057893D01*
X25720240Y22876896D01*
X25627651Y22624442D01*
X25604992Y22384000D01*
X25625956Y22144334D01*
X25684199Y21950527D01*
X25771609Y21822699D01*
X25847282Y21782958D01*
X25961882Y21790105D01*
X26004103Y21864159D01*
X25970673Y21997547D01*
X25954468Y22030976D01*
X25900001Y22210858D01*
X25890431Y22422371D01*
X25923061Y22624727D01*
X25995201Y22777139D01*
X26004459Y22788036D01*
X26164211Y22900187D01*
X26343315Y22927170D01*
X26517686Y22875667D01*
X26663238Y22752356D01*
X26751067Y22580975D01*
X26784410Y22434047D01*
X26778814Y22304587D01*
X26731341Y22140575D01*
X26725196Y22123137D01*
X26671766Y21941095D01*
X26672364Y21832368D01*
X26730105Y21782350D01*
X26799590Y21774400D01*
X26799590Y21774400D01*
X26799590Y21774400D01*
G37*
X26799590Y21774400D02*
X26894685Y21820534D01*
X26969834Y21942933D01*
X27021488Y22117595D01*
X27046103Y22320518D01*
X27040130Y22527699D01*
X27000022Y22715137D01*
X26953483Y22815800D01*
X26807531Y23009924D01*
X26646509Y23123569D01*
X26439130Y23176555D01*
X26374112Y23182814D01*
X26098935Y23161757D01*
X25879156Y23057893D01*
X25720240Y22876896D01*
X25627651Y22624442D01*
X25604992Y22384000D01*
X25625956Y22144334D01*
X25684199Y21950527D01*
X25771609Y21822699D01*
X25847282Y21782958D01*
X25961882Y21790105D01*
X26004103Y21864159D01*
X25970673Y21997547D01*
X25954468Y22030976D01*
X25900001Y22210858D01*
X25890431Y22422371D01*
X25923061Y22624727D01*
X25995201Y22777139D01*
X26004459Y22788036D01*
X26164211Y22900187D01*
X26343315Y22927170D01*
X26517686Y22875667D01*
X26663238Y22752356D01*
X26751067Y22580975D01*
X26784410Y22434047D01*
X26778814Y22304587D01*
X26731341Y22140575D01*
X26725196Y22123137D01*
X26671766Y21941095D01*
X26672364Y21832368D01*
X26730105Y21782350D01*
X26799590Y21774400D01*
X26799590Y21774400D01*
G36*
X26229798Y20090176D02*
X26464927Y20091600D01*
X26685671Y20101780D01*
X26868910Y20120682D01*
X26991526Y20148271D01*
X27029877Y20174847D01*
X27025334Y20274647D01*
X26995414Y20328752D01*
X26973210Y20379337D01*
X26273060Y20379337D01*
X26102666Y20436488D01*
X25967906Y20566610D01*
X25945335Y20606000D01*
X25882143Y20813718D01*
X25886815Y21025321D01*
X25949929Y21218164D01*
X26062065Y21369603D01*
X26213802Y21456989D01*
X26304612Y21469600D01*
X26512968Y21426677D01*
X26668565Y21308853D01*
X26763172Y21132554D01*
X26788558Y20914200D01*
X26736493Y20670216D01*
X26722716Y20635331D01*
X26610619Y20479798D01*
X26451556Y20394121D01*
X26273060Y20379337D01*
X26973210Y20379337D01*
X26957299Y20415589D01*
X26988385Y20530727D01*
X26989731Y20533695D01*
X27027803Y20684602D01*
X27042727Y20889592D01*
X27034434Y21103806D01*
X27002856Y21282382D01*
X26990928Y21317174D01*
X26852202Y21534351D01*
X26643911Y21684350D01*
X26526357Y21727274D01*
X26268271Y21756012D01*
X26036154Y21690566D01*
X25854222Y21564405D01*
X25709635Y21375509D01*
X25622358Y21131308D01*
X25597369Y20863585D01*
X25639648Y20604123D01*
X25685984Y20490501D01*
X25697043Y20383829D01*
X25655587Y20323931D01*
X25605463Y20230497D01*
X25607793Y20172730D01*
X25669280Y20138785D01*
X25808856Y20113734D01*
X26003401Y20097543D01*
X26229798Y20090176D01*
X26229798Y20090176D01*
X26229798Y20090176D01*
G37*
X26229798Y20090176D02*
X26464927Y20091600D01*
X26685671Y20101780D01*
X26868910Y20120682D01*
X26991526Y20148271D01*
X27029877Y20174847D01*
X27025334Y20274647D01*
X26995414Y20328752D01*
X26973210Y20379337D01*
X26273060Y20379337D01*
X26102666Y20436488D01*
X25967906Y20566610D01*
X25945335Y20606000D01*
X25882143Y20813718D01*
X25886815Y21025321D01*
X25949929Y21218164D01*
X26062065Y21369603D01*
X26213802Y21456989D01*
X26304612Y21469600D01*
X26512968Y21426677D01*
X26668565Y21308853D01*
X26763172Y21132554D01*
X26788558Y20914200D01*
X26736493Y20670216D01*
X26722716Y20635331D01*
X26610619Y20479798D01*
X26451556Y20394121D01*
X26273060Y20379337D01*
X26973210Y20379337D01*
X26957299Y20415589D01*
X26988385Y20530727D01*
X26989731Y20533695D01*
X27027803Y20684602D01*
X27042727Y20889592D01*
X27034434Y21103806D01*
X27002856Y21282382D01*
X26990928Y21317174D01*
X26852202Y21534351D01*
X26643911Y21684350D01*
X26526357Y21727274D01*
X26268271Y21756012D01*
X26036154Y21690566D01*
X25854222Y21564405D01*
X25709635Y21375509D01*
X25622358Y21131308D01*
X25597369Y20863585D01*
X25639648Y20604123D01*
X25685984Y20490501D01*
X25697043Y20383829D01*
X25655587Y20323931D01*
X25605463Y20230497D01*
X25607793Y20172730D01*
X25669280Y20138785D01*
X25808856Y20113734D01*
X26003401Y20097543D01*
X26229798Y20090176D01*
X26229798Y20090176D01*
G36*
X25171738Y23302311D02*
X25264975Y23341946D01*
X25289964Y23378755D01*
X25316526Y23457082D01*
X25299422Y23501833D01*
X25259840Y23542240D01*
X25156289Y23592823D01*
X25056099Y23569098D01*
X24991890Y23490929D01*
X24995158Y23381039D01*
X25065191Y23315471D01*
X25171738Y23302311D01*
X25171738Y23302311D01*
X25171738Y23302311D01*
G37*
X25171738Y23302311D02*
X25264975Y23341946D01*
X25289964Y23378755D01*
X25316526Y23457082D01*
X25299422Y23501833D01*
X25259840Y23542240D01*
X25156289Y23592823D01*
X25056099Y23569098D01*
X24991890Y23490929D01*
X24995158Y23381039D01*
X25065191Y23315471D01*
X25171738Y23302311D01*
X25171738Y23302311D01*
G36*
X19896190Y21036490D02*
X20335029Y21046312D01*
X20445560Y21063483D01*
X20857902Y21183955D01*
X21225707Y21382429D01*
X21351520Y21490717D01*
X20220937Y21490717D01*
X19886216Y21543320D01*
X19562915Y21663527D01*
X19274717Y21846452D01*
X19157922Y21952912D01*
X18926195Y22261098D01*
X18760268Y22629563D01*
X18662253Y23039424D01*
X18634267Y23471797D01*
X18678423Y23907799D01*
X18796835Y24328545D01*
X18872418Y24502768D01*
X19078291Y24824732D01*
X19339462Y25076141D01*
X19641256Y25253974D01*
X19969000Y25355208D01*
X20308019Y25376823D01*
X20643640Y25315797D01*
X20961189Y25169109D01*
X21198839Y24981775D01*
X21511582Y24617359D01*
X21735213Y24225249D01*
X21867565Y23815198D01*
X21906473Y23396963D01*
X21849770Y22980299D01*
X21721578Y22627926D01*
X21562317Y22350510D01*
X21359568Y22079137D01*
X21136238Y21840011D01*
X20915233Y21659336D01*
X20829917Y21607871D01*
X20543398Y21510605D01*
X20220937Y21490717D01*
X21351520Y21490717D01*
X21534632Y21648321D01*
X21770335Y21971046D01*
X21827276Y22083116D01*
X21895117Y22221536D01*
X21947949Y22312355D01*
X21967789Y22333200D01*
X22003932Y22292305D01*
X22068981Y22187325D01*
X22119054Y22096669D01*
X22225714Y21910658D01*
X22344990Y21723634D01*
X22385985Y21664869D01*
X22488083Y21541423D01*
X22583174Y21484204D01*
X22711766Y21469633D01*
X22721463Y21469600D01*
X22916332Y21511389D01*
X23059317Y21624678D01*
X23130900Y21791351D01*
X23135533Y21853875D01*
X23109196Y21980732D01*
X23042466Y22146827D01*
X22984000Y22257000D01*
X22902248Y22401698D01*
X22847174Y22512324D01*
X22832466Y22555314D01*
X22878903Y22572585D01*
X23003820Y22581199D01*
X23184381Y22580083D01*
X23276100Y22576204D01*
X23558118Y22551513D01*
X23773261Y22507154D01*
X23955470Y22436039D01*
X23961522Y22433051D01*
X24178048Y22355365D01*
X24353913Y22364953D01*
X24505077Y22464730D01*
X24572927Y22544678D01*
X24636629Y22689808D01*
X22853206Y22689808D01*
X22652004Y22692024D01*
X22472080Y22705785D01*
X22344019Y22731359D01*
X22320260Y22741388D01*
X22278808Y22772350D01*
X22250906Y22824729D01*
X22233926Y22916604D01*
X22225238Y23066054D01*
X22222214Y23291157D01*
X22222000Y23417028D01*
X22227361Y23738455D01*
X22243491Y23959624D01*
X22270459Y24081311D01*
X22282960Y24101041D01*
X22358412Y24127655D01*
X22505692Y24147550D01*
X22695195Y24159812D01*
X22897314Y24163528D01*
X23082443Y24157783D01*
X23220976Y24141665D01*
X23259245Y24131165D01*
X23293188Y24103382D01*
X23316262Y24039915D01*
X23330400Y23924521D01*
X23337534Y23740953D01*
X23339595Y23472966D01*
X23339600Y23455525D01*
X23334600Y23130649D01*
X23319494Y22905039D01*
X23294123Y22776849D01*
X23278640Y22749761D01*
X23197108Y22718944D01*
X23045102Y22698870D01*
X22853206Y22689808D01*
X24636629Y22689808D01*
X24646182Y22711571D01*
X24623515Y22876836D01*
X24510452Y23033254D01*
X24312517Y23173609D01*
X24035235Y23290681D01*
X23991312Y23304525D01*
X23800859Y23370581D01*
X23681903Y23428877D01*
X23641914Y23473460D01*
X23688361Y23498375D01*
X23744094Y23501600D01*
X23910714Y23530286D01*
X24115455Y23604153D01*
X24318591Y23704913D01*
X24480396Y23814282D01*
X24531291Y23863959D01*
X24630884Y24013732D01*
X24650671Y24153458D01*
X24609245Y24298380D01*
X24504222Y24439997D01*
X24342100Y24506447D01*
X24136647Y24495367D01*
X23923800Y24416000D01*
X23788518Y24361324D01*
X23628037Y24329532D01*
X23412061Y24315892D01*
X23273209Y24314400D01*
X22821901Y24314400D01*
X22979150Y24593031D01*
X23097780Y24853706D01*
X23130212Y25064604D01*
X23076738Y25229252D01*
X23036092Y25278308D01*
X22875113Y25396019D01*
X22716633Y25420784D01*
X22556664Y25350729D01*
X22391217Y25183980D01*
X22216301Y24918663D01*
X22196600Y24883896D01*
X22100086Y24716591D01*
X22021602Y24590149D01*
X21974324Y24525474D01*
X21968000Y24521234D01*
X21934581Y24563570D01*
X21874321Y24672580D01*
X21818488Y24786383D01*
X21602463Y25132657D01*
X21316010Y25416281D01*
X20973132Y25631121D01*
X20587831Y25771043D01*
X20174110Y25829914D01*
X19745971Y25801599D01*
X19581254Y25766408D01*
X19177221Y25612277D01*
X18823565Y25374042D01*
X18529133Y25060324D01*
X18302768Y24679743D01*
X18203609Y24423849D01*
X18122912Y24080936D01*
X18076407Y23688000D01*
X18065906Y23285074D01*
X18093222Y22912193D01*
X18126768Y22726900D01*
X18278815Y22265637D01*
X18498684Y21868524D01*
X18778364Y21541308D01*
X19109848Y21289733D01*
X19485126Y21119546D01*
X19896190Y21036490D01*
X19896190Y21036490D01*
X19896190Y21036490D01*
G37*
X19896190Y21036490D02*
X20335029Y21046312D01*
X20445560Y21063483D01*
X20857902Y21183955D01*
X21225707Y21382429D01*
X21351520Y21490717D01*
X20220937Y21490717D01*
X19886216Y21543320D01*
X19562915Y21663527D01*
X19274717Y21846452D01*
X19157922Y21952912D01*
X18926195Y22261098D01*
X18760268Y22629563D01*
X18662253Y23039424D01*
X18634267Y23471797D01*
X18678423Y23907799D01*
X18796835Y24328545D01*
X18872418Y24502768D01*
X19078291Y24824732D01*
X19339462Y25076141D01*
X19641256Y25253974D01*
X19969000Y25355208D01*
X20308019Y25376823D01*
X20643640Y25315797D01*
X20961189Y25169109D01*
X21198839Y24981775D01*
X21511582Y24617359D01*
X21735213Y24225249D01*
X21867565Y23815198D01*
X21906473Y23396963D01*
X21849770Y22980299D01*
X21721578Y22627926D01*
X21562317Y22350510D01*
X21359568Y22079137D01*
X21136238Y21840011D01*
X20915233Y21659336D01*
X20829917Y21607871D01*
X20543398Y21510605D01*
X20220937Y21490717D01*
X21351520Y21490717D01*
X21534632Y21648321D01*
X21770335Y21971046D01*
X21827276Y22083116D01*
X21895117Y22221536D01*
X21947949Y22312355D01*
X21967789Y22333200D01*
X22003932Y22292305D01*
X22068981Y22187325D01*
X22119054Y22096669D01*
X22225714Y21910658D01*
X22344990Y21723634D01*
X22385985Y21664869D01*
X22488083Y21541423D01*
X22583174Y21484204D01*
X22711766Y21469633D01*
X22721463Y21469600D01*
X22916332Y21511389D01*
X23059317Y21624678D01*
X23130900Y21791351D01*
X23135533Y21853875D01*
X23109196Y21980732D01*
X23042466Y22146827D01*
X22984000Y22257000D01*
X22902248Y22401698D01*
X22847174Y22512324D01*
X22832466Y22555314D01*
X22878903Y22572585D01*
X23003820Y22581199D01*
X23184381Y22580083D01*
X23276100Y22576204D01*
X23558118Y22551513D01*
X23773261Y22507154D01*
X23955470Y22436039D01*
X23961522Y22433051D01*
X24178048Y22355365D01*
X24353913Y22364953D01*
X24505077Y22464730D01*
X24572927Y22544678D01*
X24636629Y22689808D01*
X22853206Y22689808D01*
X22652004Y22692024D01*
X22472080Y22705785D01*
X22344019Y22731359D01*
X22320260Y22741388D01*
X22278808Y22772350D01*
X22250906Y22824729D01*
X22233926Y22916604D01*
X22225238Y23066054D01*
X22222214Y23291157D01*
X22222000Y23417028D01*
X22227361Y23738455D01*
X22243491Y23959624D01*
X22270459Y24081311D01*
X22282960Y24101041D01*
X22358412Y24127655D01*
X22505692Y24147550D01*
X22695195Y24159812D01*
X22897314Y24163528D01*
X23082443Y24157783D01*
X23220976Y24141665D01*
X23259245Y24131165D01*
X23293188Y24103382D01*
X23316262Y24039915D01*
X23330400Y23924521D01*
X23337534Y23740953D01*
X23339595Y23472966D01*
X23339600Y23455525D01*
X23334600Y23130649D01*
X23319494Y22905039D01*
X23294123Y22776849D01*
X23278640Y22749761D01*
X23197108Y22718944D01*
X23045102Y22698870D01*
X22853206Y22689808D01*
X24636629Y22689808D01*
X24646182Y22711571D01*
X24623515Y22876836D01*
X24510452Y23033254D01*
X24312517Y23173609D01*
X24035235Y23290681D01*
X23991312Y23304525D01*
X23800859Y23370581D01*
X23681903Y23428877D01*
X23641914Y23473460D01*
X23688361Y23498375D01*
X23744094Y23501600D01*
X23910714Y23530286D01*
X24115455Y23604153D01*
X24318591Y23704913D01*
X24480396Y23814282D01*
X24531291Y23863959D01*
X24630884Y24013732D01*
X24650671Y24153458D01*
X24609245Y24298380D01*
X24504222Y24439997D01*
X24342100Y24506447D01*
X24136647Y24495367D01*
X23923800Y24416000D01*
X23788518Y24361324D01*
X23628037Y24329532D01*
X23412061Y24315892D01*
X23273209Y24314400D01*
X22821901Y24314400D01*
X22979150Y24593031D01*
X23097780Y24853706D01*
X23130212Y25064604D01*
X23076738Y25229252D01*
X23036092Y25278308D01*
X22875113Y25396019D01*
X22716633Y25420784D01*
X22556664Y25350729D01*
X22391217Y25183980D01*
X22216301Y24918663D01*
X22196600Y24883896D01*
X22100086Y24716591D01*
X22021602Y24590149D01*
X21974324Y24525474D01*
X21968000Y24521234D01*
X21934581Y24563570D01*
X21874321Y24672580D01*
X21818488Y24786383D01*
X21602463Y25132657D01*
X21316010Y25416281D01*
X20973132Y25631121D01*
X20587831Y25771043D01*
X20174110Y25829914D01*
X19745971Y25801599D01*
X19581254Y25766408D01*
X19177221Y25612277D01*
X18823565Y25374042D01*
X18529133Y25060324D01*
X18302768Y24679743D01*
X18203609Y24423849D01*
X18122912Y24080936D01*
X18076407Y23688000D01*
X18065906Y23285074D01*
X18093222Y22912193D01*
X18126768Y22726900D01*
X18278815Y22265637D01*
X18498684Y21868524D01*
X18778364Y21541308D01*
X19109848Y21289733D01*
X19485126Y21119546D01*
X19896190Y21036490D01*
X19896190Y21036490D01*
G36*
X21504884Y23273420D02*
X21537209Y23280417D01*
X21621235Y23356427D01*
X21623317Y23469168D01*
X21590856Y23530317D01*
X21498794Y23589242D01*
X21397314Y23565574D01*
X21323593Y23470007D01*
X21333557Y23378360D01*
X21406376Y23301837D01*
X21504884Y23273420D01*
X21504884Y23273420D01*
X21504884Y23273420D01*
G37*
X21504884Y23273420D02*
X21537209Y23280417D01*
X21621235Y23356427D01*
X21623317Y23469168D01*
X21590856Y23530317D01*
X21498794Y23589242D01*
X21397314Y23565574D01*
X21323593Y23470007D01*
X21333557Y23378360D01*
X21406376Y23301837D01*
X21504884Y23273420D01*
X21504884Y23273420D01*
G36*
X20630472Y23848981D02*
X20833293Y23904308D01*
X20873640Y23927314D01*
X20982257Y24049150D01*
X21003359Y24201577D01*
X20937803Y24365056D01*
X20849990Y24467183D01*
X20613220Y24629322D01*
X20332494Y24729990D01*
X20039766Y24762659D01*
X19766986Y24720797D01*
X19710663Y24700038D01*
X19558221Y24600285D01*
X19501373Y24466753D01*
X19539122Y24296616D01*
X19555995Y24261675D01*
X19684660Y24111149D01*
X19884723Y23987439D01*
X20127903Y23897723D01*
X20385914Y23849178D01*
X20630472Y23848981D01*
X20630472Y23848981D01*
X20630472Y23848981D01*
G37*
X20630472Y23848981D02*
X20833293Y23904308D01*
X20873640Y23927314D01*
X20982257Y24049150D01*
X21003359Y24201577D01*
X20937803Y24365056D01*
X20849990Y24467183D01*
X20613220Y24629322D01*
X20332494Y24729990D01*
X20039766Y24762659D01*
X19766986Y24720797D01*
X19710663Y24700038D01*
X19558221Y24600285D01*
X19501373Y24466753D01*
X19539122Y24296616D01*
X19555995Y24261675D01*
X19684660Y24111149D01*
X19884723Y23987439D01*
X20127903Y23897723D01*
X20385914Y23849178D01*
X20630472Y23848981D01*
X20630472Y23848981D01*
G36*
X19993540Y22109535D02*
X20353451Y22149838D01*
X20655252Y22269170D01*
X20829357Y22394641D01*
X20961368Y22554901D01*
X21002706Y22715832D01*
X20951255Y22862939D01*
X20905142Y22913832D01*
X20737174Y23002663D01*
X20517840Y23031312D01*
X20271789Y23007013D01*
X20023667Y22937000D01*
X19798120Y22828508D01*
X19619795Y22688769D01*
X19513339Y22525019D01*
X19506329Y22503277D01*
X19516879Y22375057D01*
X19597997Y22251091D01*
X19686308Y22165193D01*
X19784275Y22122815D01*
X19931423Y22109812D01*
X19993540Y22109535D01*
X19993540Y22109535D01*
X19993540Y22109535D01*
G37*
X19993540Y22109535D02*
X20353451Y22149838D01*
X20655252Y22269170D01*
X20829357Y22394641D01*
X20961368Y22554901D01*
X21002706Y22715832D01*
X20951255Y22862939D01*
X20905142Y22913832D01*
X20737174Y23002663D01*
X20517840Y23031312D01*
X20271789Y23007013D01*
X20023667Y22937000D01*
X19798120Y22828508D01*
X19619795Y22688769D01*
X19513339Y22525019D01*
X19506329Y22503277D01*
X19516879Y22375057D01*
X19597997Y22251091D01*
X19686308Y22165193D01*
X19784275Y22122815D01*
X19931423Y22109812D01*
X19993540Y22109535D01*
X19993540Y22109535D01*
D12*
X22823908Y32700000D02*
G75*
G03X22823908Y32700000I-3323908J0D01*
G01*
D14*
X11600000Y16900000D02*
X12000000Y16900000D01*
X11600000Y16900000D02*
G75*
G03X11600000Y16900000I-1400000J0D01*
G01*
X27400000Y16900000D02*
X27000000Y16900000D01*
X30200000Y16900000D02*
G75*
G03X30200000Y16900000I-1400000J0D01*
G01*
D10*
X36716666Y64983334D02*
X36250000Y64983334D01*
X36550000Y64283334D01*
X35883333Y64683334D02*
X35950000Y64716667D01*
X35983333Y64750000D01*
X36016666Y64816667D01*
X36016666Y64850000D01*
X35983333Y64916667D01*
X35950000Y64950000D01*
X35883333Y64983334D01*
X35750000Y64983334D01*
X35683333Y64950000D01*
X35650000Y64916667D01*
X35616666Y64850000D01*
X35616666Y64816667D01*
X35650000Y64750000D01*
X35683333Y64716667D01*
X35750000Y64683334D01*
X35883333Y64683334D01*
X35950000Y64650000D01*
X35983333Y64616667D01*
X36016666Y64550000D01*
X36016666Y64416667D01*
X35983333Y64350000D01*
X35950000Y64316667D01*
X35883333Y64283334D01*
X35750000Y64283334D01*
X35683333Y64316667D01*
X35650000Y64350000D01*
X35616666Y64416667D01*
X35616666Y64550000D01*
X35650000Y64616667D01*
X35683333Y64650000D01*
X35750000Y64683334D01*
X34983333Y64283334D02*
X35316666Y64283334D01*
X35316666Y64983334D01*
X34383333Y64283334D02*
X34783333Y64283334D01*
X34583333Y64283334D02*
X34583333Y64983334D01*
X34650000Y64883334D01*
X34716666Y64816667D01*
X34783333Y64783334D01*
X33950000Y64983334D02*
X33883333Y64983334D01*
X33816666Y64950000D01*
X33783333Y64916667D01*
X33750000Y64850000D01*
X33716666Y64716667D01*
X33716666Y64550000D01*
X33750000Y64416667D01*
X33783333Y64350000D01*
X33816666Y64316667D01*
X33883333Y64283334D01*
X33950000Y64283334D01*
X34016666Y64316667D01*
X34050000Y64350000D01*
X34083333Y64416667D01*
X34116666Y64550000D01*
X34116666Y64716667D01*
X34083333Y64850000D01*
X34050000Y64916667D01*
X34016666Y64950000D01*
X33950000Y64983334D01*
X36016666Y65183334D02*
X36016666Y65883334D01*
X35850000Y65883334D01*
X35750000Y65850000D01*
X35683333Y65783334D01*
X35650000Y65716667D01*
X35616666Y65583334D01*
X35616666Y65483334D01*
X35650000Y65350000D01*
X35683333Y65283334D01*
X35750000Y65216667D01*
X35850000Y65183334D01*
X36016666Y65183334D01*
X35350000Y65383334D02*
X35016666Y65383334D01*
X35416666Y65183334D02*
X35183333Y65883334D01*
X34950000Y65183334D01*
X34416666Y65650000D02*
X34416666Y65183334D01*
X34583333Y65916667D02*
X34750000Y65416667D01*
X34316666Y65416667D01*
X7200000Y47883334D02*
X7600000Y47883334D01*
X7400000Y47883334D02*
X7400000Y48583334D01*
X7466666Y48483334D01*
X7533333Y48416667D01*
X7600000Y48383334D01*
X6766666Y48583334D02*
X6700000Y48583334D01*
X6633333Y48550000D01*
X6600000Y48516667D01*
X6566666Y48450000D01*
X6533333Y48316667D01*
X6533333Y48150000D01*
X6566666Y48016667D01*
X6600000Y47950000D01*
X6633333Y47916667D01*
X6700000Y47883334D01*
X6766666Y47883334D01*
X6833333Y47916667D01*
X6866666Y47950000D01*
X6900000Y48016667D01*
X6933333Y48150000D01*
X6933333Y48316667D01*
X6900000Y48450000D01*
X6866666Y48516667D01*
X6833333Y48550000D01*
X6766666Y48583334D01*
X5933333Y48350000D02*
X5933333Y47883334D01*
X6233333Y48350000D02*
X6233333Y47983334D01*
X6200000Y47916667D01*
X6133333Y47883334D01*
X6033333Y47883334D01*
X5966666Y47916667D01*
X5933333Y47950000D01*
X5366666Y48250000D02*
X5600000Y48250000D01*
X5600000Y47883334D02*
X5600000Y48583334D01*
X5266666Y48583334D01*
X5066666Y47883334D02*
X4700000Y48350000D01*
X5066666Y48350000D02*
X4700000Y47883334D01*
X4466666Y48516667D02*
X4433333Y48550000D01*
X4366666Y48583334D01*
X4200000Y48583334D01*
X4133333Y48550000D01*
X4100000Y48516667D01*
X4066666Y48450000D01*
X4066666Y48383334D01*
X4100000Y48283334D01*
X4500000Y47883334D01*
X4066666Y47883334D01*
X3433333Y48583334D02*
X3766666Y48583334D01*
X3800000Y48250000D01*
X3766666Y48283334D01*
X3700000Y48316667D01*
X3533333Y48316667D01*
X3466666Y48283334D01*
X3433333Y48250000D01*
X3400000Y48183334D01*
X3400000Y48016667D01*
X3433333Y47950000D01*
X3466666Y47916667D01*
X3533333Y47883334D01*
X3700000Y47883334D01*
X3766666Y47916667D01*
X3800000Y47950000D01*
X3200000Y48583334D02*
X2966666Y47883334D01*
X2733333Y48583334D01*
X6816666Y48850000D02*
X6850000Y48816667D01*
X6950000Y48783334D01*
X7016666Y48783334D01*
X7116666Y48816667D01*
X7183333Y48883334D01*
X7216666Y48950000D01*
X7250000Y49083334D01*
X7250000Y49183334D01*
X7216666Y49316667D01*
X7183333Y49383334D01*
X7116666Y49450000D01*
X7016666Y49483334D01*
X6950000Y49483334D01*
X6850000Y49450000D01*
X6816666Y49416667D01*
X6150000Y48783334D02*
X6550000Y48783334D01*
X6350000Y48783334D02*
X6350000Y49483334D01*
X6416666Y49383334D01*
X6483333Y49316667D01*
X6550000Y49283334D01*
X30800000Y47883334D02*
X31200000Y47883334D01*
X31000000Y47883334D02*
X31000000Y48583334D01*
X31066666Y48483334D01*
X31133333Y48416667D01*
X31200000Y48383334D01*
X30366666Y48583334D02*
X30300000Y48583334D01*
X30233333Y48550000D01*
X30200000Y48516667D01*
X30166666Y48450000D01*
X30133333Y48316667D01*
X30133333Y48150000D01*
X30166666Y48016667D01*
X30200000Y47950000D01*
X30233333Y47916667D01*
X30300000Y47883334D01*
X30366666Y47883334D01*
X30433333Y47916667D01*
X30466666Y47950000D01*
X30500000Y48016667D01*
X30533333Y48150000D01*
X30533333Y48316667D01*
X30500000Y48450000D01*
X30466666Y48516667D01*
X30433333Y48550000D01*
X30366666Y48583334D01*
X29533333Y48350000D02*
X29533333Y47883334D01*
X29833333Y48350000D02*
X29833333Y47983334D01*
X29800000Y47916667D01*
X29733333Y47883334D01*
X29633333Y47883334D01*
X29566666Y47916667D01*
X29533333Y47950000D01*
X28966666Y48250000D02*
X29200000Y48250000D01*
X29200000Y47883334D02*
X29200000Y48583334D01*
X28866666Y48583334D01*
X28666666Y47883334D02*
X28300000Y48350000D01*
X28666666Y48350000D02*
X28300000Y47883334D01*
X28066666Y48516667D02*
X28033333Y48550000D01*
X27966666Y48583334D01*
X27800000Y48583334D01*
X27733333Y48550000D01*
X27700000Y48516667D01*
X27666666Y48450000D01*
X27666666Y48383334D01*
X27700000Y48283334D01*
X28100000Y47883334D01*
X27666666Y47883334D01*
X27033333Y48583334D02*
X27366666Y48583334D01*
X27400000Y48250000D01*
X27366666Y48283334D01*
X27300000Y48316667D01*
X27133333Y48316667D01*
X27066666Y48283334D01*
X27033333Y48250000D01*
X27000000Y48183334D01*
X27000000Y48016667D01*
X27033333Y47950000D01*
X27066666Y47916667D01*
X27133333Y47883334D01*
X27300000Y47883334D01*
X27366666Y47916667D01*
X27400000Y47950000D01*
X26800000Y48583334D02*
X26566666Y47883334D01*
X26333333Y48583334D01*
X28616666Y48950000D02*
X28650000Y48916667D01*
X28750000Y48883334D01*
X28816666Y48883334D01*
X28916666Y48916667D01*
X28983333Y48983334D01*
X29016666Y49050000D01*
X29050000Y49183334D01*
X29050000Y49283334D01*
X29016666Y49416667D01*
X28983333Y49483334D01*
X28916666Y49550000D01*
X28816666Y49583334D01*
X28750000Y49583334D01*
X28650000Y49550000D01*
X28616666Y49516667D01*
X28350000Y49516667D02*
X28316666Y49550000D01*
X28250000Y49583334D01*
X28083333Y49583334D01*
X28016666Y49550000D01*
X27983333Y49516667D01*
X27950000Y49450000D01*
X27950000Y49383334D01*
X27983333Y49283334D01*
X28383333Y48883334D01*
X27950000Y48883334D01*
X17466666Y96350000D02*
X17466666Y95883334D01*
X17633333Y96616667D02*
X17800000Y96116667D01*
X17366666Y96116667D01*
X17166666Y96583334D02*
X16700000Y96583334D01*
X17000000Y95883334D01*
X16133333Y96350000D02*
X16133333Y95883334D01*
X16433333Y96350000D02*
X16433333Y95983334D01*
X16400000Y95916667D01*
X16333333Y95883334D01*
X16233333Y95883334D01*
X16166666Y95916667D01*
X16133333Y95950000D01*
X15566666Y96250000D02*
X15800000Y96250000D01*
X15800000Y95883334D02*
X15800000Y96583334D01*
X15466666Y96583334D01*
X15266666Y95883334D02*
X14900000Y96350000D01*
X15266666Y96350000D02*
X14900000Y95883334D01*
X14666666Y96516667D02*
X14633333Y96550000D01*
X14566666Y96583334D01*
X14400000Y96583334D01*
X14333333Y96550000D01*
X14300000Y96516667D01*
X14266666Y96450000D01*
X14266666Y96383334D01*
X14300000Y96283334D01*
X14700000Y95883334D01*
X14266666Y95883334D01*
X13633333Y96583334D02*
X13966666Y96583334D01*
X14000000Y96250000D01*
X13966666Y96283334D01*
X13900000Y96316667D01*
X13733333Y96316667D01*
X13666666Y96283334D01*
X13633333Y96250000D01*
X13600000Y96183334D01*
X13600000Y96016667D01*
X13633333Y95950000D01*
X13666666Y95916667D01*
X13733333Y95883334D01*
X13900000Y95883334D01*
X13966666Y95916667D01*
X14000000Y95950000D01*
X13400000Y96583334D02*
X13166666Y95883334D01*
X12933333Y96583334D01*
X14416666Y96850000D02*
X14450000Y96816667D01*
X14550000Y96783334D01*
X14616666Y96783334D01*
X14716666Y96816667D01*
X14783333Y96883334D01*
X14816666Y96950000D01*
X14850000Y97083334D01*
X14850000Y97183334D01*
X14816666Y97316667D01*
X14783333Y97383334D01*
X14716666Y97450000D01*
X14616666Y97483334D01*
X14550000Y97483334D01*
X14450000Y97450000D01*
X14416666Y97416667D01*
X14183333Y97483334D02*
X13750000Y97483334D01*
X13983333Y97216667D01*
X13883333Y97216667D01*
X13816666Y97183334D01*
X13783333Y97150000D01*
X13750000Y97083334D01*
X13750000Y96916667D01*
X13783333Y96850000D01*
X13816666Y96816667D01*
X13883333Y96783334D01*
X14083333Y96783334D01*
X14150000Y96816667D01*
X14183333Y96850000D01*
X6066666Y92250000D02*
X6066666Y91783334D01*
X6233333Y92516667D02*
X6400000Y92016667D01*
X5966666Y92016667D01*
X5766666Y92483334D02*
X5300000Y92483334D01*
X5600000Y91783334D01*
X4733333Y92250000D02*
X4733333Y91783334D01*
X5033333Y92250000D02*
X5033333Y91883334D01*
X5000000Y91816667D01*
X4933333Y91783334D01*
X4833333Y91783334D01*
X4766666Y91816667D01*
X4733333Y91850000D01*
X4166666Y92150000D02*
X4400000Y92150000D01*
X4400000Y91783334D02*
X4400000Y92483334D01*
X4066666Y92483334D01*
X3866666Y91783334D02*
X3500000Y92250000D01*
X3866666Y92250000D02*
X3500000Y91783334D01*
X3266666Y92416667D02*
X3233333Y92450000D01*
X3166666Y92483334D01*
X3000000Y92483334D01*
X2933333Y92450000D01*
X2900000Y92416667D01*
X2866666Y92350000D01*
X2866666Y92283334D01*
X2900000Y92183334D01*
X3300000Y91783334D01*
X2866666Y91783334D01*
X2233333Y92483334D02*
X2566666Y92483334D01*
X2600000Y92150000D01*
X2566666Y92183334D01*
X2500000Y92216667D01*
X2333333Y92216667D01*
X2266666Y92183334D01*
X2233333Y92150000D01*
X2200000Y92083334D01*
X2200000Y91916667D01*
X2233333Y91850000D01*
X2266666Y91816667D01*
X2333333Y91783334D01*
X2500000Y91783334D01*
X2566666Y91816667D01*
X2600000Y91850000D01*
X2000000Y92483334D02*
X1766666Y91783334D01*
X1533333Y92483334D01*
X4116666Y90950000D02*
X4150000Y90916667D01*
X4250000Y90883334D01*
X4316666Y90883334D01*
X4416666Y90916667D01*
X4483333Y90983334D01*
X4516666Y91050000D01*
X4550000Y91183334D01*
X4550000Y91283334D01*
X4516666Y91416667D01*
X4483333Y91483334D01*
X4416666Y91550000D01*
X4316666Y91583334D01*
X4250000Y91583334D01*
X4150000Y91550000D01*
X4116666Y91516667D01*
X3516666Y91350000D02*
X3516666Y90883334D01*
X3683333Y91616667D02*
X3850000Y91116667D01*
X3416666Y91116667D01*
X14500000Y36383334D02*
X14900000Y36383334D01*
X14700000Y36383334D02*
X14700000Y37083334D01*
X14766666Y36983334D01*
X14833333Y36916667D01*
X14900000Y36883334D01*
X14066666Y37083334D02*
X14000000Y37083334D01*
X13933333Y37050000D01*
X13900000Y37016667D01*
X13866666Y36950000D01*
X13833333Y36816667D01*
X13833333Y36650000D01*
X13866666Y36516667D01*
X13900000Y36450000D01*
X13933333Y36416667D01*
X14000000Y36383334D01*
X14066666Y36383334D01*
X14133333Y36416667D01*
X14166666Y36450000D01*
X14200000Y36516667D01*
X14233333Y36650000D01*
X14233333Y36816667D01*
X14200000Y36950000D01*
X14166666Y37016667D01*
X14133333Y37050000D01*
X14066666Y37083334D01*
X13233333Y36850000D02*
X13233333Y36383334D01*
X13533333Y36850000D02*
X13533333Y36483334D01*
X13500000Y36416667D01*
X13433333Y36383334D01*
X13333333Y36383334D01*
X13266666Y36416667D01*
X13233333Y36450000D01*
X12666666Y36750000D02*
X12900000Y36750000D01*
X12900000Y36383334D02*
X12900000Y37083334D01*
X12566666Y37083334D01*
X12366666Y36383334D02*
X12000000Y36850000D01*
X12366666Y36850000D02*
X12000000Y36383334D01*
X11766666Y37016667D02*
X11733333Y37050000D01*
X11666666Y37083334D01*
X11500000Y37083334D01*
X11433333Y37050000D01*
X11400000Y37016667D01*
X11366666Y36950000D01*
X11366666Y36883334D01*
X11400000Y36783334D01*
X11800000Y36383334D01*
X11366666Y36383334D01*
X10733333Y37083334D02*
X11066666Y37083334D01*
X11100000Y36750000D01*
X11066666Y36783334D01*
X11000000Y36816667D01*
X10833333Y36816667D01*
X10766666Y36783334D01*
X10733333Y36750000D01*
X10700000Y36683334D01*
X10700000Y36516667D01*
X10733333Y36450000D01*
X10766666Y36416667D01*
X10833333Y36383334D01*
X11000000Y36383334D01*
X11066666Y36416667D01*
X11100000Y36450000D01*
X10500000Y37083334D02*
X10266666Y36383334D01*
X10033333Y37083334D01*
X12050000Y37350000D02*
X12083333Y37316667D01*
X12183333Y37283334D01*
X12250000Y37283334D01*
X12350000Y37316667D01*
X12416666Y37383334D01*
X12450000Y37450000D01*
X12483333Y37583334D01*
X12483333Y37683334D01*
X12450000Y37816667D01*
X12416666Y37883334D01*
X12350000Y37950000D01*
X12250000Y37983334D01*
X12183333Y37983334D01*
X12083333Y37950000D01*
X12050000Y37916667D01*
X11383333Y37283334D02*
X11783333Y37283334D01*
X11583333Y37283334D02*
X11583333Y37983334D01*
X11650000Y37883334D01*
X11716666Y37816667D01*
X11783333Y37783334D01*
X10750000Y37983334D02*
X11083333Y37983334D01*
X11116666Y37650000D01*
X11083333Y37683334D01*
X11016666Y37716667D01*
X10850000Y37716667D01*
X10783333Y37683334D01*
X10750000Y37650000D01*
X10716666Y37583334D01*
X10716666Y37416667D01*
X10750000Y37350000D01*
X10783333Y37316667D01*
X10850000Y37283334D01*
X11016666Y37283334D01*
X11083333Y37316667D01*
X11116666Y37350000D01*
X31400000Y56983334D02*
X31800000Y56983334D01*
X31600000Y56983334D02*
X31600000Y57683334D01*
X31666666Y57583334D01*
X31733333Y57516667D01*
X31800000Y57483334D01*
X30966666Y57683334D02*
X30900000Y57683334D01*
X30833333Y57650000D01*
X30800000Y57616667D01*
X30766666Y57550000D01*
X30733333Y57416667D01*
X30733333Y57250000D01*
X30766666Y57116667D01*
X30800000Y57050000D01*
X30833333Y57016667D01*
X30900000Y56983334D01*
X30966666Y56983334D01*
X31033333Y57016667D01*
X31066666Y57050000D01*
X31100000Y57116667D01*
X31133333Y57250000D01*
X31133333Y57416667D01*
X31100000Y57550000D01*
X31066666Y57616667D01*
X31033333Y57650000D01*
X30966666Y57683334D01*
X30133333Y57450000D02*
X30133333Y56983334D01*
X30433333Y57450000D02*
X30433333Y57083334D01*
X30400000Y57016667D01*
X30333333Y56983334D01*
X30233333Y56983334D01*
X30166666Y57016667D01*
X30133333Y57050000D01*
X29566666Y57350000D02*
X29800000Y57350000D01*
X29800000Y56983334D02*
X29800000Y57683334D01*
X29466666Y57683334D01*
X29266666Y56983334D02*
X28900000Y57450000D01*
X29266666Y57450000D02*
X28900000Y56983334D01*
X28666666Y57616667D02*
X28633333Y57650000D01*
X28566666Y57683334D01*
X28400000Y57683334D01*
X28333333Y57650000D01*
X28300000Y57616667D01*
X28266666Y57550000D01*
X28266666Y57483334D01*
X28300000Y57383334D01*
X28700000Y56983334D01*
X28266666Y56983334D01*
X27633333Y57683334D02*
X27966666Y57683334D01*
X28000000Y57350000D01*
X27966666Y57383334D01*
X27900000Y57416667D01*
X27733333Y57416667D01*
X27666666Y57383334D01*
X27633333Y57350000D01*
X27600000Y57283334D01*
X27600000Y57116667D01*
X27633333Y57050000D01*
X27666666Y57016667D01*
X27733333Y56983334D01*
X27900000Y56983334D01*
X27966666Y57016667D01*
X28000000Y57050000D01*
X27400000Y57683334D02*
X27166666Y56983334D01*
X26933333Y57683334D01*
X31550000Y58150000D02*
X31583333Y58116667D01*
X31683333Y58083334D01*
X31750000Y58083334D01*
X31850000Y58116667D01*
X31916666Y58183334D01*
X31950000Y58250000D01*
X31983333Y58383334D01*
X31983333Y58483334D01*
X31950000Y58616667D01*
X31916666Y58683334D01*
X31850000Y58750000D01*
X31750000Y58783334D01*
X31683333Y58783334D01*
X31583333Y58750000D01*
X31550000Y58716667D01*
X30883333Y58083334D02*
X31283333Y58083334D01*
X31083333Y58083334D02*
X31083333Y58783334D01*
X31150000Y58683334D01*
X31216666Y58616667D01*
X31283333Y58583334D01*
X30650000Y58783334D02*
X30183333Y58783334D01*
X30483333Y58083334D01*
X28500000Y33683334D02*
X28900000Y33683334D01*
X28700000Y33683334D02*
X28700000Y34383334D01*
X28766666Y34283334D01*
X28833333Y34216667D01*
X28900000Y34183334D01*
X28066666Y34383334D02*
X28000000Y34383334D01*
X27933333Y34350000D01*
X27900000Y34316667D01*
X27866666Y34250000D01*
X27833333Y34116667D01*
X27833333Y33950000D01*
X27866666Y33816667D01*
X27900000Y33750000D01*
X27933333Y33716667D01*
X28000000Y33683334D01*
X28066666Y33683334D01*
X28133333Y33716667D01*
X28166666Y33750000D01*
X28200000Y33816667D01*
X28233333Y33950000D01*
X28233333Y34116667D01*
X28200000Y34250000D01*
X28166666Y34316667D01*
X28133333Y34350000D01*
X28066666Y34383334D01*
X27233333Y34150000D02*
X27233333Y33683334D01*
X27533333Y34150000D02*
X27533333Y33783334D01*
X27500000Y33716667D01*
X27433333Y33683334D01*
X27333333Y33683334D01*
X27266666Y33716667D01*
X27233333Y33750000D01*
X26666666Y34050000D02*
X26900000Y34050000D01*
X26900000Y33683334D02*
X26900000Y34383334D01*
X26566666Y34383334D01*
X26366666Y33683334D02*
X26000000Y34150000D01*
X26366666Y34150000D02*
X26000000Y33683334D01*
X25766666Y34316667D02*
X25733333Y34350000D01*
X25666666Y34383334D01*
X25500000Y34383334D01*
X25433333Y34350000D01*
X25400000Y34316667D01*
X25366666Y34250000D01*
X25366666Y34183334D01*
X25400000Y34083334D01*
X25800000Y33683334D01*
X25366666Y33683334D01*
X24733333Y34383334D02*
X25066666Y34383334D01*
X25100000Y34050000D01*
X25066666Y34083334D01*
X25000000Y34116667D01*
X24833333Y34116667D01*
X24766666Y34083334D01*
X24733333Y34050000D01*
X24700000Y33983334D01*
X24700000Y33816667D01*
X24733333Y33750000D01*
X24766666Y33716667D01*
X24833333Y33683334D01*
X25000000Y33683334D01*
X25066666Y33716667D01*
X25100000Y33750000D01*
X24500000Y34383334D02*
X24266666Y33683334D01*
X24033333Y34383334D01*
X28250000Y36250000D02*
X28283333Y36216667D01*
X28383333Y36183334D01*
X28450000Y36183334D01*
X28550000Y36216667D01*
X28616666Y36283334D01*
X28650000Y36350000D01*
X28683333Y36483334D01*
X28683333Y36583334D01*
X28650000Y36716667D01*
X28616666Y36783334D01*
X28550000Y36850000D01*
X28450000Y36883334D01*
X28383333Y36883334D01*
X28283333Y36850000D01*
X28250000Y36816667D01*
X27583333Y36183334D02*
X27983333Y36183334D01*
X27783333Y36183334D02*
X27783333Y36883334D01*
X27850000Y36783334D01*
X27916666Y36716667D01*
X27983333Y36683334D01*
X27250000Y36183334D02*
X27116666Y36183334D01*
X27050000Y36216667D01*
X27016666Y36250000D01*
X26950000Y36350000D01*
X26916666Y36483334D01*
X26916666Y36750000D01*
X26950000Y36816667D01*
X26983333Y36850000D01*
X27050000Y36883334D01*
X27183333Y36883334D01*
X27250000Y36850000D01*
X27283333Y36816667D01*
X27316666Y36750000D01*
X27316666Y36583334D01*
X27283333Y36516667D01*
X27250000Y36483334D01*
X27183333Y36450000D01*
X27050000Y36450000D01*
X26983333Y36483334D01*
X26950000Y36516667D01*
X26916666Y36583334D01*
X35966666Y99550000D02*
X35733333Y99550000D01*
X35633333Y99183334D02*
X35966666Y99183334D01*
X35966666Y99883334D01*
X35633333Y99883334D01*
X34933333Y99183334D02*
X35166666Y99516667D01*
X35333333Y99183334D02*
X35333333Y99883334D01*
X35066666Y99883334D01*
X35000000Y99850000D01*
X34966666Y99816667D01*
X34933333Y99750000D01*
X34933333Y99650000D01*
X34966666Y99583334D01*
X35000000Y99550000D01*
X35066666Y99516667D01*
X35333333Y99516667D01*
X34400000Y99550000D02*
X34633333Y99550000D01*
X34633333Y99183334D02*
X34633333Y99883334D01*
X34300000Y99883334D01*
X34033333Y99450000D02*
X33500000Y99450000D01*
X32766666Y99183334D02*
X33000000Y99516667D01*
X33166666Y99183334D02*
X33166666Y99883334D01*
X32900000Y99883334D01*
X32833333Y99850000D01*
X32800000Y99816667D01*
X32766666Y99750000D01*
X32766666Y99650000D01*
X32800000Y99583334D01*
X32833333Y99550000D01*
X32900000Y99516667D01*
X33166666Y99516667D01*
X32233333Y99550000D02*
X32133333Y99516667D01*
X32100000Y99483334D01*
X32066666Y99416667D01*
X32066666Y99316667D01*
X32100000Y99250000D01*
X32133333Y99216667D01*
X32200000Y99183334D01*
X32466666Y99183334D01*
X32466666Y99883334D01*
X32233333Y99883334D01*
X32166666Y99850000D01*
X32133333Y99816667D01*
X32100000Y99750000D01*
X32100000Y99683334D01*
X32133333Y99616667D01*
X32166666Y99583334D01*
X32233333Y99550000D01*
X32466666Y99550000D01*
X31766666Y99450000D02*
X31233333Y99450000D01*
X30766666Y99883334D02*
X30700000Y99883334D01*
X30633333Y99850000D01*
X30600000Y99816667D01*
X30566666Y99750000D01*
X30533333Y99616667D01*
X30533333Y99450000D01*
X30566666Y99316667D01*
X30600000Y99250000D01*
X30633333Y99216667D01*
X30700000Y99183334D01*
X30766666Y99183334D01*
X30833333Y99216667D01*
X30866666Y99250000D01*
X30900000Y99316667D01*
X30933333Y99450000D01*
X30933333Y99616667D01*
X30900000Y99750000D01*
X30866666Y99816667D01*
X30833333Y99850000D01*
X30766666Y99883334D01*
X30200000Y99183334D02*
X30066666Y99183334D01*
X30000000Y99216667D01*
X29966666Y99250000D01*
X29900000Y99350000D01*
X29866666Y99483334D01*
X29866666Y99750000D01*
X29900000Y99816667D01*
X29933333Y99850000D01*
X30000000Y99883334D01*
X30133333Y99883334D01*
X30200000Y99850000D01*
X30233333Y99816667D01*
X30266666Y99750000D01*
X30266666Y99583334D01*
X30233333Y99516667D01*
X30200000Y99483334D01*
X30133333Y99450000D01*
X30000000Y99450000D01*
X29933333Y99483334D01*
X29900000Y99516667D01*
X29866666Y99583334D01*
X29433333Y99883334D02*
X29366666Y99883334D01*
X29300000Y99850000D01*
X29266666Y99816667D01*
X29233333Y99750000D01*
X29200000Y99616667D01*
X29200000Y99450000D01*
X29233333Y99316667D01*
X29266666Y99250000D01*
X29300000Y99216667D01*
X29366666Y99183334D01*
X29433333Y99183334D01*
X29500000Y99216667D01*
X29533333Y99250000D01*
X29566666Y99316667D01*
X29600000Y99450000D01*
X29600000Y99616667D01*
X29566666Y99750000D01*
X29533333Y99816667D01*
X29500000Y99850000D01*
X29433333Y99883334D01*
X28900000Y99450000D02*
X28366666Y99450000D01*
X28100000Y99883334D02*
X27666666Y99883334D01*
X27900000Y99616667D01*
X27800000Y99616667D01*
X27733333Y99583334D01*
X27700000Y99550000D01*
X27666666Y99483334D01*
X27666666Y99316667D01*
X27700000Y99250000D01*
X27733333Y99216667D01*
X27800000Y99183334D01*
X28000000Y99183334D01*
X28066666Y99216667D01*
X28100000Y99250000D01*
X27233333Y99883334D02*
X27166666Y99883334D01*
X27100000Y99850000D01*
X27066666Y99816667D01*
X27033333Y99750000D01*
X27000000Y99616667D01*
X27000000Y99450000D01*
X27033333Y99316667D01*
X27066666Y99250000D01*
X27100000Y99216667D01*
X27166666Y99183334D01*
X27233333Y99183334D01*
X27300000Y99216667D01*
X27333333Y99250000D01*
X27366666Y99316667D01*
X27400000Y99450000D01*
X27400000Y99616667D01*
X27366666Y99750000D01*
X27333333Y99816667D01*
X27300000Y99850000D01*
X27233333Y99883334D01*
X34516666Y96883334D02*
X34283333Y96183334D01*
X34050000Y96883334D01*
X33416666Y96183334D02*
X33650000Y96516667D01*
X33816666Y96183334D02*
X33816666Y96883334D01*
X33550000Y96883334D01*
X33483333Y96850000D01*
X33450000Y96816667D01*
X33416666Y96750000D01*
X33416666Y96650000D01*
X33450000Y96583334D01*
X33483333Y96550000D01*
X33550000Y96516667D01*
X33816666Y96516667D01*
X32750000Y96183334D02*
X33150000Y96183334D01*
X32950000Y96183334D02*
X32950000Y96883334D01*
X33016666Y96783334D01*
X33083333Y96716667D01*
X33150000Y96683334D01*
X38216666Y96883334D02*
X37983333Y96183334D01*
X37750000Y96883334D01*
X37116666Y96183334D02*
X37350000Y96516667D01*
X37516666Y96183334D02*
X37516666Y96883334D01*
X37250000Y96883334D01*
X37183333Y96850000D01*
X37150000Y96816667D01*
X37116666Y96750000D01*
X37116666Y96650000D01*
X37150000Y96583334D01*
X37183333Y96550000D01*
X37250000Y96516667D01*
X37516666Y96516667D01*
X36850000Y96816667D02*
X36816666Y96850000D01*
X36750000Y96883334D01*
X36583333Y96883334D01*
X36516666Y96850000D01*
X36483333Y96816667D01*
X36450000Y96750000D01*
X36450000Y96683334D01*
X36483333Y96583334D01*
X36883333Y96183334D01*
X36450000Y96183334D01*
X24916666Y78168334D02*
X24450000Y77468334D01*
X24450000Y78168334D02*
X24916666Y77468334D01*
X24183333Y77468334D02*
X24183333Y78168334D01*
X23916666Y78168334D01*
X23850000Y78135000D01*
X23816666Y78101667D01*
X23783333Y78035000D01*
X23783333Y77935000D01*
X23816666Y77868334D01*
X23850000Y77835000D01*
X23916666Y77801667D01*
X24183333Y77801667D01*
X23116666Y77468334D02*
X23516666Y77468334D01*
X23316666Y77468334D02*
X23316666Y78168334D01*
X23383333Y78068334D01*
X23450000Y78001667D01*
X23516666Y77968334D01*
X2600000Y67183334D02*
X2133333Y66483334D01*
X2133333Y67183334D02*
X2600000Y66483334D01*
X1900000Y66516667D02*
X1800000Y66483334D01*
X1633333Y66483334D01*
X1566666Y66516667D01*
X1533333Y66550000D01*
X1500000Y66616667D01*
X1500000Y66683334D01*
X1533333Y66750000D01*
X1566666Y66783334D01*
X1633333Y66816667D01*
X1766666Y66850000D01*
X1833333Y66883334D01*
X1866666Y66916667D01*
X1900000Y66983334D01*
X1900000Y67050000D01*
X1866666Y67116667D01*
X1833333Y67150000D01*
X1766666Y67183334D01*
X1600000Y67183334D01*
X1500000Y67150000D01*
X1266666Y67183334D02*
X800000Y67183334D01*
X1100000Y66483334D01*
X2600000Y9283334D02*
X2133333Y8583334D01*
X2133333Y9283334D02*
X2600000Y8583334D01*
X1900000Y8616667D02*
X1800000Y8583334D01*
X1633333Y8583334D01*
X1566666Y8616667D01*
X1533333Y8650000D01*
X1500000Y8716667D01*
X1500000Y8783334D01*
X1533333Y8850000D01*
X1566666Y8883334D01*
X1633333Y8916667D01*
X1766666Y8950000D01*
X1833333Y8983334D01*
X1866666Y9016667D01*
X1900000Y9083334D01*
X1900000Y9150000D01*
X1866666Y9216667D01*
X1833333Y9250000D01*
X1766666Y9283334D01*
X1600000Y9283334D01*
X1500000Y9250000D01*
X1100000Y8983334D02*
X1166666Y9016667D01*
X1200000Y9050000D01*
X1233333Y9116667D01*
X1233333Y9150000D01*
X1200000Y9216667D01*
X1166666Y9250000D01*
X1100000Y9283334D01*
X966666Y9283334D01*
X900000Y9250000D01*
X866666Y9216667D01*
X833333Y9150000D01*
X833333Y9116667D01*
X866666Y9050000D01*
X900000Y9016667D01*
X966666Y8983334D01*
X1100000Y8983334D01*
X1166666Y8950000D01*
X1200000Y8916667D01*
X1233333Y8850000D01*
X1233333Y8716667D01*
X1200000Y8650000D01*
X1166666Y8616667D01*
X1100000Y8583334D01*
X966666Y8583334D01*
X900000Y8616667D01*
X866666Y8650000D01*
X833333Y8716667D01*
X833333Y8850000D01*
X866666Y8916667D01*
X900000Y8950000D01*
X966666Y8983334D01*
X38300000Y67083334D02*
X37833333Y66383334D01*
X37833333Y67083334D02*
X38300000Y66383334D01*
X37600000Y66416667D02*
X37500000Y66383334D01*
X37333333Y66383334D01*
X37266666Y66416667D01*
X37233333Y66450000D01*
X37200000Y66516667D01*
X37200000Y66583334D01*
X37233333Y66650000D01*
X37266666Y66683334D01*
X37333333Y66716667D01*
X37466666Y66750000D01*
X37533333Y66783334D01*
X37566666Y66816667D01*
X37600000Y66883334D01*
X37600000Y66950000D01*
X37566666Y67016667D01*
X37533333Y67050000D01*
X37466666Y67083334D01*
X37300000Y67083334D01*
X37200000Y67050000D01*
X36866666Y66383334D02*
X36733333Y66383334D01*
X36666666Y66416667D01*
X36633333Y66450000D01*
X36566666Y66550000D01*
X36533333Y66683334D01*
X36533333Y66950000D01*
X36566666Y67016667D01*
X36600000Y67050000D01*
X36666666Y67083334D01*
X36800000Y67083334D01*
X36866666Y67050000D01*
X36900000Y67016667D01*
X36933333Y66950000D01*
X36933333Y66783334D01*
X36900000Y66716667D01*
X36866666Y66683334D01*
X36800000Y66650000D01*
X36666666Y66650000D01*
X36600000Y66683334D01*
X36566666Y66716667D01*
X36533333Y66783334D01*
X38533333Y9583334D02*
X38066666Y8883334D01*
X38066666Y9583334D02*
X38533333Y8883334D01*
X37833333Y8916667D02*
X37733333Y8883334D01*
X37566666Y8883334D01*
X37500000Y8916667D01*
X37466666Y8950000D01*
X37433333Y9016667D01*
X37433333Y9083334D01*
X37466666Y9150000D01*
X37500000Y9183334D01*
X37566666Y9216667D01*
X37700000Y9250000D01*
X37766666Y9283334D01*
X37800000Y9316667D01*
X37833333Y9383334D01*
X37833333Y9450000D01*
X37800000Y9516667D01*
X37766666Y9550000D01*
X37700000Y9583334D01*
X37533333Y9583334D01*
X37433333Y9550000D01*
X36766666Y8883334D02*
X37166666Y8883334D01*
X36966666Y8883334D02*
X36966666Y9583334D01*
X37033333Y9483334D01*
X37100000Y9416667D01*
X37166666Y9383334D01*
X36333333Y9583334D02*
X36266666Y9583334D01*
X36200000Y9550000D01*
X36166666Y9516667D01*
X36133333Y9450000D01*
X36100000Y9316667D01*
X36100000Y9150000D01*
X36133333Y9016667D01*
X36166666Y8950000D01*
X36200000Y8916667D01*
X36266666Y8883334D01*
X36333333Y8883334D01*
X36400000Y8916667D01*
X36433333Y8950000D01*
X36466666Y9016667D01*
X36500000Y9150000D01*
X36500000Y9316667D01*
X36466666Y9450000D01*
X36433333Y9516667D01*
X36400000Y9550000D01*
X36333333Y9583334D01*
X21500000Y33783334D02*
X21900000Y33783334D01*
X21700000Y33783334D02*
X21700000Y34483334D01*
X21766666Y34383334D01*
X21833333Y34316667D01*
X21900000Y34283334D01*
X21066666Y34483334D02*
X21000000Y34483334D01*
X20933333Y34450000D01*
X20900000Y34416667D01*
X20866666Y34350000D01*
X20833333Y34216667D01*
X20833333Y34050000D01*
X20866666Y33916667D01*
X20900000Y33850000D01*
X20933333Y33816667D01*
X21000000Y33783334D01*
X21066666Y33783334D01*
X21133333Y33816667D01*
X21166666Y33850000D01*
X21200000Y33916667D01*
X21233333Y34050000D01*
X21233333Y34216667D01*
X21200000Y34350000D01*
X21166666Y34416667D01*
X21133333Y34450000D01*
X21066666Y34483334D01*
X20233333Y34250000D02*
X20233333Y33783334D01*
X20533333Y34250000D02*
X20533333Y33883334D01*
X20500000Y33816667D01*
X20433333Y33783334D01*
X20333333Y33783334D01*
X20266666Y33816667D01*
X20233333Y33850000D01*
X19666666Y34150000D02*
X19900000Y34150000D01*
X19900000Y33783334D02*
X19900000Y34483334D01*
X19566666Y34483334D01*
X19366666Y33783334D02*
X19000000Y34250000D01*
X19366666Y34250000D02*
X19000000Y33783334D01*
X18766666Y34416667D02*
X18733333Y34450000D01*
X18666666Y34483334D01*
X18500000Y34483334D01*
X18433333Y34450000D01*
X18400000Y34416667D01*
X18366666Y34350000D01*
X18366666Y34283334D01*
X18400000Y34183334D01*
X18800000Y33783334D01*
X18366666Y33783334D01*
X17733333Y34483334D02*
X18066666Y34483334D01*
X18100000Y34150000D01*
X18066666Y34183334D01*
X18000000Y34216667D01*
X17833333Y34216667D01*
X17766666Y34183334D01*
X17733333Y34150000D01*
X17700000Y34083334D01*
X17700000Y33916667D01*
X17733333Y33850000D01*
X17766666Y33816667D01*
X17833333Y33783334D01*
X18000000Y33783334D01*
X18066666Y33816667D01*
X18100000Y33850000D01*
X17500000Y34483334D02*
X17266666Y33783334D01*
X17033333Y34483334D01*
X18550000Y38650000D02*
X18583333Y38616667D01*
X18683333Y38583334D01*
X18750000Y38583334D01*
X18850000Y38616667D01*
X18916666Y38683334D01*
X18950000Y38750000D01*
X18983333Y38883334D01*
X18983333Y38983334D01*
X18950000Y39116667D01*
X18916666Y39183334D01*
X18850000Y39250000D01*
X18750000Y39283334D01*
X18683333Y39283334D01*
X18583333Y39250000D01*
X18550000Y39216667D01*
X18283333Y39216667D02*
X18250000Y39250000D01*
X18183333Y39283334D01*
X18016666Y39283334D01*
X17950000Y39250000D01*
X17916666Y39216667D01*
X17883333Y39150000D01*
X17883333Y39083334D01*
X17916666Y38983334D01*
X18316666Y38583334D01*
X17883333Y38583334D01*
X17650000Y39283334D02*
X17216666Y39283334D01*
X17450000Y39016667D01*
X17350000Y39016667D01*
X17283333Y38983334D01*
X17250000Y38950000D01*
X17216666Y38883334D01*
X17216666Y38716667D01*
X17250000Y38650000D01*
X17283333Y38616667D01*
X17350000Y38583334D01*
X17550000Y38583334D01*
X17616666Y38616667D01*
X17650000Y38650000D01*
X12333333Y18750000D02*
X12333333Y18283334D01*
X12500000Y19016667D02*
X12666666Y18516667D01*
X12233333Y18516667D01*
X12033333Y18983334D02*
X11566666Y18983334D01*
X11866666Y18283334D01*
X11166666Y18983334D02*
X11100000Y18983334D01*
X11033333Y18950000D01*
X11000000Y18916667D01*
X10966666Y18850000D01*
X10933333Y18716667D01*
X10933333Y18550000D01*
X10966666Y18416667D01*
X11000000Y18350000D01*
X11033333Y18316667D01*
X11100000Y18283334D01*
X11166666Y18283334D01*
X11233333Y18316667D01*
X11266666Y18350000D01*
X11300000Y18416667D01*
X11333333Y18550000D01*
X11333333Y18716667D01*
X11300000Y18850000D01*
X11266666Y18916667D01*
X11233333Y18950000D01*
X11166666Y18983334D01*
X12150000Y19183334D02*
X12383333Y19516667D01*
X12550000Y19183334D02*
X12550000Y19883334D01*
X12283333Y19883334D01*
X12216666Y19850000D01*
X12183333Y19816667D01*
X12150000Y19750000D01*
X12150000Y19650000D01*
X12183333Y19583334D01*
X12216666Y19550000D01*
X12283333Y19516667D01*
X12550000Y19516667D01*
X11916666Y19883334D02*
X11483333Y19883334D01*
X11716666Y19616667D01*
X11616666Y19616667D01*
X11550000Y19583334D01*
X11516666Y19550000D01*
X11483333Y19483334D01*
X11483333Y19316667D01*
X11516666Y19250000D01*
X11550000Y19216667D01*
X11616666Y19183334D01*
X11816666Y19183334D01*
X11883333Y19216667D01*
X11916666Y19250000D01*
X11150000Y19183334D02*
X11016666Y19183334D01*
X10950000Y19216667D01*
X10916666Y19250000D01*
X10850000Y19350000D01*
X10816666Y19483334D01*
X10816666Y19750000D01*
X10850000Y19816667D01*
X10883333Y19850000D01*
X10950000Y19883334D01*
X11083333Y19883334D01*
X11150000Y19850000D01*
X11183333Y19816667D01*
X11216666Y19750000D01*
X11216666Y19583334D01*
X11183333Y19516667D01*
X11150000Y19483334D01*
X11083333Y19450000D01*
X10950000Y19450000D01*
X10883333Y19483334D01*
X10850000Y19516667D01*
X10816666Y19583334D01*
X27733333Y14250000D02*
X27733333Y13783334D01*
X27900000Y14516667D02*
X28066666Y14016667D01*
X27633333Y14016667D01*
X27433333Y14483334D02*
X26966666Y14483334D01*
X27266666Y13783334D01*
X26566666Y14483334D02*
X26500000Y14483334D01*
X26433333Y14450000D01*
X26400000Y14416667D01*
X26366666Y14350000D01*
X26333333Y14216667D01*
X26333333Y14050000D01*
X26366666Y13916667D01*
X26400000Y13850000D01*
X26433333Y13816667D01*
X26500000Y13783334D01*
X26566666Y13783334D01*
X26633333Y13816667D01*
X26666666Y13850000D01*
X26700000Y13916667D01*
X26733333Y14050000D01*
X26733333Y14216667D01*
X26700000Y14350000D01*
X26666666Y14416667D01*
X26633333Y14450000D01*
X26566666Y14483334D01*
X27650000Y14783334D02*
X27883333Y15116667D01*
X28050000Y14783334D02*
X28050000Y15483334D01*
X27783333Y15483334D01*
X27716666Y15450000D01*
X27683333Y15416667D01*
X27650000Y15350000D01*
X27650000Y15250000D01*
X27683333Y15183334D01*
X27716666Y15150000D01*
X27783333Y15116667D01*
X28050000Y15116667D01*
X27050000Y15250000D02*
X27050000Y14783334D01*
X27216666Y15516667D02*
X27383333Y15016667D01*
X26950000Y15016667D01*
X26650000Y14783334D02*
X26516666Y14783334D01*
X26450000Y14816667D01*
X26416666Y14850000D01*
X26350000Y14950000D01*
X26316666Y15083334D01*
X26316666Y15350000D01*
X26350000Y15416667D01*
X26383333Y15450000D01*
X26450000Y15483334D01*
X26583333Y15483334D01*
X26650000Y15450000D01*
X26683333Y15416667D01*
X26716666Y15350000D01*
X26716666Y15183334D01*
X26683333Y15116667D01*
X26650000Y15083334D01*
X26583333Y15050000D01*
X26450000Y15050000D01*
X26383333Y15083334D01*
X26350000Y15116667D01*
X26316666Y15183334D01*
M02*
