G04 #@! TF.FileFunction,Legend,Top*
%FSLAX46Y46*%
G04 Gerber Fmt 4.6, Leading zero omitted, Abs format (unit mm)*
G04 Created by KiCad (PCBNEW (2016-08-20 BZR 7083)-product) date Thu Jan 26 00:07:01 2017*
%MOMM*%
%LPD*%
G01*
G04 APERTURE LIST*
%ADD10C,0.100000*%
%ADD11C,0.200000*%
%ADD12C,0.150000*%
G04 APERTURE END LIST*
D10*
D11*
X16971428Y30147620D02*
X16971428Y29433334D01*
X16933333Y29290477D01*
X16857142Y29195239D01*
X16742857Y29147620D01*
X16666666Y29147620D01*
X17695238Y29147620D02*
X17695238Y29671429D01*
X17657142Y29766667D01*
X17580952Y29814286D01*
X17428571Y29814286D01*
X17352380Y29766667D01*
X17695238Y29195239D02*
X17619047Y29147620D01*
X17428571Y29147620D01*
X17352380Y29195239D01*
X17314285Y29290477D01*
X17314285Y29385715D01*
X17352380Y29480953D01*
X17428571Y29528572D01*
X17619047Y29528572D01*
X17695238Y29576191D01*
X18076190Y29814286D02*
X18076190Y29147620D01*
X18076190Y29719048D02*
X18114285Y29766667D01*
X18190476Y29814286D01*
X18304761Y29814286D01*
X18380952Y29766667D01*
X18419047Y29671429D01*
X18419047Y29147620D01*
X18800000Y29242858D02*
X18838095Y29195239D01*
X18800000Y29147620D01*
X18761904Y29195239D01*
X18800000Y29242858D01*
X18800000Y29147620D01*
X19752380Y30052381D02*
X19790476Y30100000D01*
X19866666Y30147620D01*
X20057142Y30147620D01*
X20133333Y30100000D01*
X20171428Y30052381D01*
X20209523Y29957143D01*
X20209523Y29861905D01*
X20171428Y29719048D01*
X19714285Y29147620D01*
X20209523Y29147620D01*
X20704761Y30147620D02*
X20780952Y30147620D01*
X20857142Y30100000D01*
X20895238Y30052381D01*
X20933333Y29957143D01*
X20971428Y29766667D01*
X20971428Y29528572D01*
X20933333Y29338096D01*
X20895238Y29242858D01*
X20857142Y29195239D01*
X20780952Y29147620D01*
X20704761Y29147620D01*
X20628571Y29195239D01*
X20590476Y29242858D01*
X20552380Y29338096D01*
X20514285Y29528572D01*
X20514285Y29766667D01*
X20552380Y29957143D01*
X20590476Y30052381D01*
X20628571Y30100000D01*
X20704761Y30147620D01*
X21733333Y29147620D02*
X21276190Y29147620D01*
X21504761Y29147620D02*
X21504761Y30147620D01*
X21428571Y30004762D01*
X21352380Y29909524D01*
X21276190Y29861905D01*
X22000000Y30147620D02*
X22533333Y30147620D01*
X22190476Y29147620D01*
X12952380Y30457143D02*
X12952380Y31657143D01*
X13333333Y31657143D01*
X13428571Y31600000D01*
X13476190Y31542858D01*
X13523809Y31428572D01*
X13523809Y31257143D01*
X13476190Y31142858D01*
X13428571Y31085715D01*
X13333333Y31028572D01*
X12952380Y31028572D01*
X14095238Y30457143D02*
X14000000Y30514286D01*
X13952380Y30571429D01*
X13904761Y30685715D01*
X13904761Y31028572D01*
X13952380Y31142858D01*
X14000000Y31200000D01*
X14095238Y31257143D01*
X14238095Y31257143D01*
X14333333Y31200000D01*
X14380952Y31142858D01*
X14428571Y31028572D01*
X14428571Y30685715D01*
X14380952Y30571429D01*
X14333333Y30514286D01*
X14238095Y30457143D01*
X14095238Y30457143D01*
X15000000Y30457143D02*
X14904761Y30514286D01*
X14857142Y30628572D01*
X14857142Y31657143D01*
X15380952Y30457143D02*
X15380952Y31257143D01*
X15380952Y31657143D02*
X15333333Y31600000D01*
X15380952Y31542858D01*
X15428571Y31600000D01*
X15380952Y31657143D01*
X15380952Y31542858D01*
X15761904Y31257143D02*
X16000000Y30457143D01*
X16238095Y31257143D01*
X16761904Y30457143D02*
X16666666Y30514286D01*
X16619047Y30571429D01*
X16571428Y30685715D01*
X16571428Y31028572D01*
X16619047Y31142858D01*
X16666666Y31200000D01*
X16761904Y31257143D01*
X16904761Y31257143D01*
X17000000Y31200000D01*
X17047619Y31142858D01*
X17095238Y31028572D01*
X17095238Y30685715D01*
X17047619Y30571429D01*
X17000000Y30514286D01*
X16904761Y30457143D01*
X16761904Y30457143D01*
X17523809Y30457143D02*
X17523809Y31657143D01*
X17619047Y30914286D02*
X17904761Y30457143D01*
X17904761Y31257143D02*
X17523809Y30800000D01*
X18285714Y30514286D02*
X18380952Y30457143D01*
X18571428Y30457143D01*
X18666666Y30514286D01*
X18714285Y30628572D01*
X18714285Y30685715D01*
X18666666Y30800000D01*
X18571428Y30857143D01*
X18428571Y30857143D01*
X18333333Y30914286D01*
X18285714Y31028572D01*
X18285714Y31085715D01*
X18333333Y31200000D01*
X18428571Y31257143D01*
X18571428Y31257143D01*
X18666666Y31200000D01*
X19761904Y31657143D02*
X20095238Y30457143D01*
X20428571Y31657143D01*
X21333333Y30571429D02*
X21285714Y30514286D01*
X21142857Y30457143D01*
X21047619Y30457143D01*
X20904761Y30514286D01*
X20809523Y30628572D01*
X20761904Y30742858D01*
X20714285Y30971429D01*
X20714285Y31142858D01*
X20761904Y31371429D01*
X20809523Y31485715D01*
X20904761Y31600000D01*
X21047619Y31657143D01*
X21142857Y31657143D01*
X21285714Y31600000D01*
X21333333Y31542858D01*
X21714285Y30800000D02*
X22190476Y30800000D01*
X21619047Y30457143D02*
X21952380Y31657143D01*
X22285714Y30457143D01*
X23285714Y31257143D02*
X23523809Y30457143D01*
X23761904Y31257143D01*
X24095238Y31542858D02*
X24142857Y31600000D01*
X24238095Y31657143D01*
X24476190Y31657143D01*
X24571428Y31600000D01*
X24619047Y31542858D01*
X24666666Y31428572D01*
X24666666Y31314286D01*
X24619047Y31142858D01*
X24047619Y30457143D01*
X24666666Y30457143D01*
X25095238Y30571429D02*
X25142857Y30514286D01*
X25095238Y30457143D01*
X25047619Y30514286D01*
X25095238Y30571429D01*
X25095238Y30457143D01*
X26095238Y30457143D02*
X25523809Y30457143D01*
X25809523Y30457143D02*
X25809523Y31657143D01*
X25714285Y31485715D01*
X25619047Y31371429D01*
X25523809Y31314286D01*
D12*
X24461904Y4057143D02*
X24728571Y2857143D01*
X24995238Y4057143D01*
X25719047Y2971429D02*
X25680952Y2914286D01*
X25566666Y2857143D01*
X25490476Y2857143D01*
X25376190Y2914286D01*
X25300000Y3028572D01*
X25261904Y3142858D01*
X25223809Y3371429D01*
X25223809Y3542858D01*
X25261904Y3771429D01*
X25300000Y3885715D01*
X25376190Y4000000D01*
X25490476Y4057143D01*
X25566666Y4057143D01*
X25680952Y4000000D01*
X25719047Y3942858D01*
X26023809Y3200000D02*
X26404761Y3200000D01*
X25947619Y2857143D02*
X26214285Y4057143D01*
X26480952Y2857143D01*
X26709523Y3942858D02*
X26747619Y4000000D01*
X26823809Y4057143D01*
X27014285Y4057143D01*
X27090476Y4000000D01*
X27128571Y3942858D01*
X27166666Y3828572D01*
X27166666Y3714286D01*
X27128571Y3542858D01*
X26671428Y2857143D01*
X27166666Y2857143D01*
X28271428Y4057143D02*
X28423809Y4057143D01*
X28500000Y4000000D01*
X28576190Y3885715D01*
X28614285Y3657143D01*
X28614285Y3257143D01*
X28576190Y3028572D01*
X28500000Y2914286D01*
X28423809Y2857143D01*
X28271428Y2857143D01*
X28195238Y2914286D01*
X28119047Y3028572D01*
X28080952Y3257143D01*
X28080952Y3657143D01*
X28119047Y3885715D01*
X28195238Y4000000D01*
X28271428Y4057143D01*
X28957142Y4057143D02*
X28957142Y3085715D01*
X28995238Y2971429D01*
X29033333Y2914286D01*
X29109523Y2857143D01*
X29261904Y2857143D01*
X29338095Y2914286D01*
X29376190Y2971429D01*
X29414285Y3085715D01*
X29414285Y4057143D01*
X29680952Y4057143D02*
X30138095Y4057143D01*
X29909523Y2857143D02*
X29909523Y4057143D01*
X13571428Y1171429D02*
X13723809Y638096D01*
X13876190Y1019048D01*
X14028571Y638096D01*
X14180952Y1171429D01*
X14409523Y1171429D02*
X14561904Y638096D01*
X14714285Y1019048D01*
X14866666Y638096D01*
X15019047Y1171429D01*
X15247619Y1171429D02*
X15400000Y638096D01*
X15552380Y1019048D01*
X15704761Y638096D01*
X15857142Y1171429D01*
X16161904Y714286D02*
X16200000Y676191D01*
X16161904Y638096D01*
X16123809Y676191D01*
X16161904Y714286D01*
X16161904Y638096D01*
X16847619Y676191D02*
X16771428Y638096D01*
X16619047Y638096D01*
X16542857Y676191D01*
X16504761Y752381D01*
X16504761Y1057143D01*
X16542857Y1133334D01*
X16619047Y1171429D01*
X16771428Y1171429D01*
X16847619Y1133334D01*
X16885714Y1057143D01*
X16885714Y980953D01*
X16504761Y904762D01*
X17228571Y638096D02*
X17228571Y1171429D01*
X17228571Y1019048D02*
X17266666Y1095239D01*
X17304761Y1133334D01*
X17380952Y1171429D01*
X17457142Y1171429D01*
X17723809Y638096D02*
X17723809Y1171429D01*
X17723809Y1438096D02*
X17685714Y1400000D01*
X17723809Y1361905D01*
X17761904Y1400000D01*
X17723809Y1438096D01*
X17723809Y1361905D01*
X18447619Y676191D02*
X18371428Y638096D01*
X18219047Y638096D01*
X18142857Y676191D01*
X18104761Y714286D01*
X18066666Y790477D01*
X18066666Y1019048D01*
X18104761Y1095239D01*
X18142857Y1133334D01*
X18219047Y1171429D01*
X18371428Y1171429D01*
X18447619Y1133334D01*
X19133333Y638096D02*
X19133333Y1057143D01*
X19095238Y1133334D01*
X19019047Y1171429D01*
X18866666Y1171429D01*
X18790476Y1133334D01*
X19133333Y676191D02*
X19057142Y638096D01*
X18866666Y638096D01*
X18790476Y676191D01*
X18752380Y752381D01*
X18752380Y828572D01*
X18790476Y904762D01*
X18866666Y942858D01*
X19057142Y942858D01*
X19133333Y980953D01*
X19476190Y676191D02*
X19552380Y638096D01*
X19704761Y638096D01*
X19780952Y676191D01*
X19819047Y752381D01*
X19819047Y790477D01*
X19780952Y866667D01*
X19704761Y904762D01*
X19590476Y904762D01*
X19514285Y942858D01*
X19476190Y1019048D01*
X19476190Y1057143D01*
X19514285Y1133334D01*
X19590476Y1171429D01*
X19704761Y1171429D01*
X19780952Y1133334D01*
X20085714Y1171429D02*
X20276190Y638096D01*
X20466666Y1171429D02*
X20276190Y638096D01*
X20200000Y447620D01*
X20161904Y409524D01*
X20085714Y371429D01*
X20771428Y1171429D02*
X20771428Y638096D01*
X20771428Y1095239D02*
X20809523Y1133334D01*
X20885714Y1171429D01*
X21000000Y1171429D01*
X21076190Y1133334D01*
X21114285Y1057143D01*
X21114285Y638096D01*
X21380952Y1171429D02*
X21685714Y1171429D01*
X21495238Y1438096D02*
X21495238Y752381D01*
X21533333Y676191D01*
X21609523Y638096D01*
X21685714Y638096D01*
X21952380Y638096D02*
X21952380Y1438096D01*
X22295238Y638096D02*
X22295238Y1057143D01*
X22257142Y1133334D01*
X22180952Y1171429D01*
X22066666Y1171429D01*
X21990476Y1133334D01*
X21952380Y1095239D01*
X22638095Y676191D02*
X22714285Y638096D01*
X22866666Y638096D01*
X22942857Y676191D01*
X22980952Y752381D01*
X22980952Y790477D01*
X22942857Y866667D01*
X22866666Y904762D01*
X22752380Y904762D01*
X22676190Y942858D01*
X22638095Y1019048D01*
X22638095Y1057143D01*
X22676190Y1133334D01*
X22752380Y1171429D01*
X22866666Y1171429D01*
X22942857Y1133334D01*
X23323809Y714286D02*
X23361904Y676191D01*
X23323809Y638096D01*
X23285714Y676191D01*
X23323809Y714286D01*
X23323809Y638096D01*
X23819047Y638096D02*
X23742857Y676191D01*
X23704761Y752381D01*
X23704761Y1438096D01*
X24047619Y1171429D02*
X24238095Y638096D01*
X24428571Y1171429D01*
D11*
X27038095Y86814286D02*
X27800000Y86814286D01*
X28800000Y86357143D02*
X28228571Y86357143D01*
X28514285Y86357143D02*
X28514285Y87557143D01*
X28419047Y87385715D01*
X28323809Y87271429D01*
X28228571Y87214286D01*
X29180952Y87442858D02*
X29228571Y87500000D01*
X29323809Y87557143D01*
X29561904Y87557143D01*
X29657142Y87500000D01*
X29704761Y87442858D01*
X29752380Y87328572D01*
X29752380Y87214286D01*
X29704761Y87042858D01*
X29133333Y86357143D01*
X29752380Y86357143D01*
X30038095Y87557143D02*
X30371428Y86357143D01*
X30704761Y87557143D01*
X17038095Y87114286D02*
X17800000Y87114286D01*
X17419047Y86657143D02*
X17419047Y87571429D01*
X18800000Y86657143D02*
X18228571Y86657143D01*
X18514285Y86657143D02*
X18514285Y87857143D01*
X18419047Y87685715D01*
X18323809Y87571429D01*
X18228571Y87514286D01*
X19180952Y87742858D02*
X19228571Y87800000D01*
X19323809Y87857143D01*
X19561904Y87857143D01*
X19657142Y87800000D01*
X19704761Y87742858D01*
X19752380Y87628572D01*
X19752380Y87514286D01*
X19704761Y87342858D01*
X19133333Y86657143D01*
X19752380Y86657143D01*
X20038095Y87857143D02*
X20371428Y86657143D01*
X20704761Y87857143D01*
X13723809Y34785715D02*
X14057142Y34785715D01*
X14200000Y34157143D02*
X13723809Y34157143D01*
X13723809Y35357143D01*
X14200000Y35357143D01*
X14628571Y34157143D02*
X14628571Y34957143D01*
X14628571Y34728572D02*
X14676190Y34842858D01*
X14723809Y34900000D01*
X14819047Y34957143D01*
X14914285Y34957143D01*
X15247619Y34157143D02*
X15247619Y34957143D01*
X15247619Y35357143D02*
X15200000Y35300000D01*
X15247619Y35242858D01*
X15295238Y35300000D01*
X15247619Y35357143D01*
X15247619Y35242858D01*
X16152380Y34214286D02*
X16057142Y34157143D01*
X15866666Y34157143D01*
X15771428Y34214286D01*
X15723809Y34271429D01*
X15676190Y34385715D01*
X15676190Y34728572D01*
X15723809Y34842858D01*
X15771428Y34900000D01*
X15866666Y34957143D01*
X16057142Y34957143D01*
X16152380Y34900000D01*
X17009523Y34157143D02*
X17009523Y34785715D01*
X16961904Y34900000D01*
X16866666Y34957143D01*
X16676190Y34957143D01*
X16580952Y34900000D01*
X17009523Y34214286D02*
X16914285Y34157143D01*
X16676190Y34157143D01*
X16580952Y34214286D01*
X16533333Y34328572D01*
X16533333Y34442858D01*
X16580952Y34557143D01*
X16676190Y34614286D01*
X16914285Y34614286D01*
X17009523Y34671429D01*
X18200000Y34214286D02*
X18342857Y34157143D01*
X18580952Y34157143D01*
X18676190Y34214286D01*
X18723809Y34271429D01*
X18771428Y34385715D01*
X18771428Y34500000D01*
X18723809Y34614286D01*
X18676190Y34671429D01*
X18580952Y34728572D01*
X18390476Y34785715D01*
X18295238Y34842858D01*
X18247619Y34900000D01*
X18200000Y35014286D01*
X18200000Y35128572D01*
X18247619Y35242858D01*
X18295238Y35300000D01*
X18390476Y35357143D01*
X18628571Y35357143D01*
X18771428Y35300000D01*
X19104761Y34957143D02*
X19342857Y34157143D01*
X19580952Y34957143D02*
X19342857Y34157143D01*
X19247619Y33871429D01*
X19200000Y33814286D01*
X19104761Y33757143D01*
X19961904Y34957143D02*
X19961904Y34157143D01*
X19961904Y34842858D02*
X20009523Y34900000D01*
X20104761Y34957143D01*
X20247619Y34957143D01*
X20342857Y34900000D01*
X20390476Y34785715D01*
X20390476Y34157143D01*
X20723809Y34957143D02*
X21104761Y34957143D01*
X20866666Y35357143D02*
X20866666Y34328572D01*
X20914285Y34214286D01*
X21009523Y34157143D01*
X21104761Y34157143D01*
X21438095Y34157143D02*
X21438095Y35357143D01*
X21866666Y34157143D02*
X21866666Y34785715D01*
X21819047Y34900000D01*
X21723809Y34957143D01*
X21580952Y34957143D01*
X21485714Y34900000D01*
X21438095Y34842858D01*
X22295238Y34214286D02*
X22390476Y34157143D01*
X22580952Y34157143D01*
X22676190Y34214286D01*
X22723809Y34328572D01*
X22723809Y34385715D01*
X22676190Y34500000D01*
X22580952Y34557143D01*
X22438095Y34557143D01*
X22342857Y34614286D01*
X22295238Y34728572D01*
X22295238Y34785715D01*
X22342857Y34900000D01*
X22438095Y34957143D01*
X22580952Y34957143D01*
X22676190Y34900000D01*
D10*
X15150000Y49583334D02*
X14750000Y49583334D01*
X14950000Y49583334D02*
X14950000Y50283334D01*
X14883333Y50183334D01*
X14816666Y50116667D01*
X14750000Y50083334D01*
X15750000Y50050000D02*
X15750000Y49583334D01*
X15583333Y50316667D02*
X15416666Y49816667D01*
X15850000Y49816667D01*
X16583333Y49583334D02*
X16950000Y50050000D01*
X16583333Y50050000D02*
X16950000Y49583334D01*
D11*
X7280952Y80021429D02*
X7280952Y81521429D01*
X7519047Y81521429D01*
X7661904Y81450000D01*
X7757142Y81307143D01*
X7804761Y81164286D01*
X7852380Y80878572D01*
X7852380Y80664286D01*
X7804761Y80378572D01*
X7757142Y80235715D01*
X7661904Y80092858D01*
X7519047Y80021429D01*
X7280952Y80021429D01*
X8280952Y81521429D02*
X8280952Y80307143D01*
X8328571Y80164286D01*
X8376190Y80092858D01*
X8471428Y80021429D01*
X8661904Y80021429D01*
X8757142Y80092858D01*
X8804761Y80164286D01*
X8852380Y80307143D01*
X8852380Y81521429D01*
X9280952Y80450000D02*
X9757142Y80450000D01*
X9185714Y80021429D02*
X9519047Y81521429D01*
X9852380Y80021429D01*
X10661904Y80021429D02*
X10185714Y80021429D01*
X10185714Y81521429D01*
X6595238Y90592858D02*
X6738095Y90521429D01*
X6976190Y90521429D01*
X7071428Y90592858D01*
X7119047Y90664286D01*
X7166666Y90807143D01*
X7166666Y90950000D01*
X7119047Y91092858D01*
X7071428Y91164286D01*
X6976190Y91235715D01*
X6785714Y91307143D01*
X6690476Y91378572D01*
X6642857Y91450000D01*
X6595238Y91592858D01*
X6595238Y91735715D01*
X6642857Y91878572D01*
X6690476Y91950000D01*
X6785714Y92021429D01*
X7023809Y92021429D01*
X7166666Y91950000D01*
X7595238Y90521429D02*
X7595238Y92021429D01*
X8071428Y90521429D02*
X8071428Y92021429D01*
X8642857Y90521429D01*
X8642857Y92021429D01*
X9642857Y91950000D02*
X9547619Y92021429D01*
X9404761Y92021429D01*
X9261904Y91950000D01*
X9166666Y91807143D01*
X9119047Y91664286D01*
X9071428Y91378572D01*
X9071428Y91164286D01*
X9119047Y90878572D01*
X9166666Y90735715D01*
X9261904Y90592858D01*
X9404761Y90521429D01*
X9500000Y90521429D01*
X9642857Y90592858D01*
X9690476Y90664286D01*
X9690476Y91164286D01*
X9500000Y91164286D01*
X10595238Y90521429D02*
X10119047Y90521429D01*
X10119047Y92021429D01*
X10928571Y91307143D02*
X11261904Y91307143D01*
X11404761Y90521429D02*
X10928571Y90521429D01*
X10928571Y92021429D01*
X11404761Y92021429D01*
D12*
X13314285Y2557143D02*
X13314285Y3757143D01*
X13580952Y2900000D01*
X13847619Y3757143D01*
X13847619Y2557143D01*
X14228571Y2557143D02*
X14228571Y3757143D01*
X14533333Y3757143D02*
X15066666Y2557143D01*
X15066666Y3757143D02*
X14533333Y2557143D01*
X16133333Y3757143D02*
X16285714Y3757143D01*
X16361904Y3700000D01*
X16438095Y3585715D01*
X16476190Y3357143D01*
X16476190Y2957143D01*
X16438095Y2728572D01*
X16361904Y2614286D01*
X16285714Y2557143D01*
X16133333Y2557143D01*
X16057142Y2614286D01*
X15980952Y2728572D01*
X15942857Y2957143D01*
X15942857Y3357143D01*
X15980952Y3585715D01*
X16057142Y3700000D01*
X16133333Y3757143D01*
X16819047Y3757143D02*
X16819047Y2785715D01*
X16857142Y2671429D01*
X16895238Y2614286D01*
X16971428Y2557143D01*
X17123809Y2557143D01*
X17200000Y2614286D01*
X17238095Y2671429D01*
X17276190Y2785715D01*
X17276190Y3757143D01*
X17542857Y3757143D02*
X18000000Y3757143D01*
X17771428Y2557143D02*
X17771428Y3757143D01*
X561904Y4057143D02*
X828571Y2857143D01*
X1095238Y4057143D01*
X1819047Y2971429D02*
X1780952Y2914286D01*
X1666666Y2857143D01*
X1590476Y2857143D01*
X1476190Y2914286D01*
X1400000Y3028572D01*
X1361904Y3142858D01*
X1323809Y3371429D01*
X1323809Y3542858D01*
X1361904Y3771429D01*
X1400000Y3885715D01*
X1476190Y4000000D01*
X1590476Y4057143D01*
X1666666Y4057143D01*
X1780952Y4000000D01*
X1819047Y3942858D01*
X2123809Y3200000D02*
X2504761Y3200000D01*
X2047619Y2857143D02*
X2314285Y4057143D01*
X2580952Y2857143D01*
X3266666Y2857143D02*
X2809523Y2857143D01*
X3038095Y2857143D02*
X3038095Y4057143D01*
X2961904Y3885715D01*
X2885714Y3771429D01*
X2809523Y3714286D01*
X4371428Y4057143D02*
X4523809Y4057143D01*
X4600000Y4000000D01*
X4676190Y3885715D01*
X4714285Y3657143D01*
X4714285Y3257143D01*
X4676190Y3028572D01*
X4600000Y2914286D01*
X4523809Y2857143D01*
X4371428Y2857143D01*
X4295238Y2914286D01*
X4219047Y3028572D01*
X4180952Y3257143D01*
X4180952Y3657143D01*
X4219047Y3885715D01*
X4295238Y4000000D01*
X4371428Y4057143D01*
X5057142Y4057143D02*
X5057142Y3085715D01*
X5095238Y2971429D01*
X5133333Y2914286D01*
X5209523Y2857143D01*
X5361904Y2857143D01*
X5438095Y2914286D01*
X5476190Y2971429D01*
X5514285Y3085715D01*
X5514285Y4057143D01*
X5780952Y4057143D02*
X6238095Y4057143D01*
X6009523Y2857143D02*
X6009523Y4057143D01*
X32180952Y30800000D02*
X32561904Y30800000D01*
X32104761Y30457143D02*
X32371428Y31657143D01*
X32638095Y30457143D01*
X32904761Y31657143D02*
X32904761Y30685715D01*
X32942857Y30571429D01*
X32980952Y30514286D01*
X33057142Y30457143D01*
X33209523Y30457143D01*
X33285714Y30514286D01*
X33323809Y30571429D01*
X33361904Y30685715D01*
X33361904Y31657143D01*
X33742857Y30457143D02*
X33742857Y31657143D01*
X33933333Y31657143D01*
X34047619Y31600000D01*
X34123809Y31485715D01*
X34161904Y31371429D01*
X34200000Y31142858D01*
X34200000Y30971429D01*
X34161904Y30742858D01*
X34123809Y30628572D01*
X34047619Y30514286D01*
X33933333Y30457143D01*
X33742857Y30457143D01*
X34542857Y30457143D02*
X34542857Y31657143D01*
X35076190Y31657143D02*
X35228571Y31657143D01*
X35304761Y31600000D01*
X35380952Y31485715D01*
X35419047Y31257143D01*
X35419047Y30857143D01*
X35380952Y30628572D01*
X35304761Y30514286D01*
X35228571Y30457143D01*
X35076190Y30457143D01*
X35000000Y30514286D01*
X34923809Y30628572D01*
X34885714Y30857143D01*
X34885714Y31257143D01*
X34923809Y31485715D01*
X35000000Y31600000D01*
X35076190Y31657143D01*
X36333333Y31542858D02*
X36371428Y31600000D01*
X36447619Y31657143D01*
X36638095Y31657143D01*
X36714285Y31600000D01*
X36752380Y31542858D01*
X36790476Y31428572D01*
X36790476Y31314286D01*
X36752380Y31142858D01*
X36295238Y30457143D01*
X36790476Y30457143D01*
X37742857Y30457143D02*
X37742857Y31657143D01*
X38123809Y30457143D02*
X38123809Y31657143D01*
X38580952Y30457143D01*
X38580952Y31657143D01*
X480952Y30700000D02*
X861904Y30700000D01*
X404761Y30357143D02*
X671428Y31557143D01*
X938095Y30357143D01*
X1204761Y31557143D02*
X1204761Y30585715D01*
X1242857Y30471429D01*
X1280952Y30414286D01*
X1357142Y30357143D01*
X1509523Y30357143D01*
X1585714Y30414286D01*
X1623809Y30471429D01*
X1661904Y30585715D01*
X1661904Y31557143D01*
X2042857Y30357143D02*
X2042857Y31557143D01*
X2233333Y31557143D01*
X2347619Y31500000D01*
X2423809Y31385715D01*
X2461904Y31271429D01*
X2500000Y31042858D01*
X2500000Y30871429D01*
X2461904Y30642858D01*
X2423809Y30528572D01*
X2347619Y30414286D01*
X2233333Y30357143D01*
X2042857Y30357143D01*
X2842857Y30357143D02*
X2842857Y31557143D01*
X3376190Y31557143D02*
X3528571Y31557143D01*
X3604761Y31500000D01*
X3680952Y31385715D01*
X3719047Y31157143D01*
X3719047Y30757143D01*
X3680952Y30528572D01*
X3604761Y30414286D01*
X3528571Y30357143D01*
X3376190Y30357143D01*
X3300000Y30414286D01*
X3223809Y30528572D01*
X3185714Y30757143D01*
X3185714Y31157143D01*
X3223809Y31385715D01*
X3300000Y31500000D01*
X3376190Y31557143D01*
X5090476Y30357143D02*
X4633333Y30357143D01*
X4861904Y30357143D02*
X4861904Y31557143D01*
X4785714Y31385715D01*
X4709523Y31271429D01*
X4633333Y31214286D01*
X6042857Y30357143D02*
X6042857Y31557143D01*
X6423809Y30357143D02*
X6423809Y31557143D01*
X6880952Y30357143D01*
X6880952Y31557143D01*
D11*
X28333333Y46307143D02*
X28666666Y46307143D01*
X28809523Y45521429D02*
X28333333Y45521429D01*
X28333333Y47021429D01*
X28809523Y47021429D01*
X29761904Y46950000D02*
X29666666Y47021429D01*
X29523809Y47021429D01*
X29380952Y46950000D01*
X29285714Y46807143D01*
X29238095Y46664286D01*
X29190476Y46378572D01*
X29190476Y46164286D01*
X29238095Y45878572D01*
X29285714Y45735715D01*
X29380952Y45592858D01*
X29523809Y45521429D01*
X29619047Y45521429D01*
X29761904Y45592858D01*
X29809523Y45664286D01*
X29809523Y46164286D01*
X29619047Y46164286D01*
X31571428Y45664286D02*
X31523809Y45592858D01*
X31380952Y45521429D01*
X31285714Y45521429D01*
X31142857Y45592858D01*
X31047619Y45735715D01*
X31000000Y45878572D01*
X30952380Y46164286D01*
X30952380Y46378572D01*
X31000000Y46664286D01*
X31047619Y46807143D01*
X31142857Y46950000D01*
X31285714Y47021429D01*
X31380952Y47021429D01*
X31523809Y46950000D01*
X31571428Y46878572D01*
X31857142Y47021429D02*
X32190476Y45521429D01*
X32523809Y47021429D01*
X33619047Y45521429D02*
X33619047Y47021429D01*
X34095238Y45521429D02*
X34095238Y47021429D01*
X34666666Y45521429D01*
X34666666Y47021429D01*
X2104761Y45621429D02*
X1628571Y45621429D01*
X1628571Y47121429D01*
X2771428Y46407143D02*
X2438095Y46407143D01*
X2438095Y45621429D02*
X2438095Y47121429D01*
X2914285Y47121429D01*
X3485714Y47121429D02*
X3676190Y47121429D01*
X3771428Y47050000D01*
X3866666Y46907143D01*
X3914285Y46621429D01*
X3914285Y46121429D01*
X3866666Y45835715D01*
X3771428Y45692858D01*
X3676190Y45621429D01*
X3485714Y45621429D01*
X3390476Y45692858D01*
X3295238Y45835715D01*
X3247619Y46121429D01*
X3247619Y46621429D01*
X3295238Y46907143D01*
X3390476Y47050000D01*
X3485714Y47121429D01*
X5676190Y45764286D02*
X5628571Y45692858D01*
X5485714Y45621429D01*
X5390476Y45621429D01*
X5247619Y45692858D01*
X5152380Y45835715D01*
X5104761Y45978572D01*
X5057142Y46264286D01*
X5057142Y46478572D01*
X5104761Y46764286D01*
X5152380Y46907143D01*
X5247619Y47050000D01*
X5390476Y47121429D01*
X5485714Y47121429D01*
X5628571Y47050000D01*
X5676190Y46978572D01*
X5961904Y47121429D02*
X6295238Y45621429D01*
X6628571Y47121429D01*
X7723809Y45621429D02*
X7723809Y47121429D01*
X8200000Y45621429D02*
X8200000Y47121429D01*
X8771428Y45621429D01*
X8771428Y47121429D01*
X30966666Y81207143D02*
X31300000Y81207143D01*
X31442857Y80421429D02*
X30966666Y80421429D01*
X30966666Y81921429D01*
X31442857Y81921429D01*
X32395238Y81850000D02*
X32300000Y81921429D01*
X32157142Y81921429D01*
X32014285Y81850000D01*
X31919047Y81707143D01*
X31871428Y81564286D01*
X31823809Y81278572D01*
X31823809Y81064286D01*
X31871428Y80778572D01*
X31919047Y80635715D01*
X32014285Y80492858D01*
X32157142Y80421429D01*
X32252380Y80421429D01*
X32395238Y80492858D01*
X32442857Y80564286D01*
X32442857Y81064286D01*
X32252380Y81064286D01*
X34109523Y80421429D02*
X33633333Y80421429D01*
X33633333Y81921429D01*
X34300000Y81921429D02*
X34633333Y80421429D01*
X34966666Y81921429D01*
X35776190Y80421429D02*
X35300000Y80421429D01*
X35300000Y81921429D01*
X23738095Y102421429D02*
X23261904Y102421429D01*
X23261904Y103921429D01*
X24404761Y103207143D02*
X24071428Y103207143D01*
X24071428Y102421429D02*
X24071428Y103921429D01*
X24547619Y103921429D01*
X25119047Y103921429D02*
X25309523Y103921429D01*
X25404761Y103850000D01*
X25500000Y103707143D01*
X25547619Y103421429D01*
X25547619Y102921429D01*
X25500000Y102635715D01*
X25404761Y102492858D01*
X25309523Y102421429D01*
X25119047Y102421429D01*
X25023809Y102492858D01*
X24928571Y102635715D01*
X24880952Y102921429D01*
X24880952Y103421429D01*
X24928571Y103707143D01*
X25023809Y103850000D01*
X25119047Y103921429D01*
X27214285Y102421429D02*
X26738095Y102421429D01*
X26738095Y103921429D01*
X27404761Y103921429D02*
X27738095Y102421429D01*
X28071428Y103921429D01*
X28880952Y102421429D02*
X28404761Y102421429D01*
X28404761Y103921429D01*
D10*
X18730000Y50847500D02*
X18730000Y52752500D01*
X18412500Y50847500D02*
X18412500Y52752500D01*
X22222500Y51800000D02*
X22900000Y51800000D01*
X17777500Y51800000D02*
X17100000Y51800000D01*
X22222500Y50847500D02*
X17777500Y50847500D01*
X17777500Y50847500D02*
X17777500Y52752500D01*
X17777500Y52752500D02*
X22222500Y52752500D01*
X22222500Y52752500D02*
X22222500Y50847500D01*
X10200000Y60700000D02*
X11000000Y60700000D01*
X4200000Y60700000D02*
X3400000Y60700000D01*
X10200000Y62100000D02*
X10200000Y59300000D01*
X10200000Y59300000D02*
X4200000Y59300000D01*
X4200000Y59300000D02*
X4200000Y62100000D01*
X4200000Y62100000D02*
X10200000Y62100000D01*
X17100000Y91000000D02*
X15600000Y91000000D01*
X17500000Y91000000D02*
X19000000Y91000000D01*
X17500000Y91600000D02*
X17500000Y90400000D01*
X17100000Y91600000D02*
X17100000Y90400000D01*
X14000000Y91900000D02*
X20600000Y91900000D01*
X20600000Y91900000D02*
X20600000Y90100000D01*
X20600000Y90100000D02*
X14000000Y90100000D01*
X14000000Y90100000D02*
X14000000Y91900000D01*
X9900000Y98300000D02*
X8400000Y98300000D01*
X10300000Y98300000D02*
X11800000Y98300000D01*
X10300000Y98900000D02*
X10300000Y97700000D01*
X9900000Y98900000D02*
X9900000Y97700000D01*
X6800000Y99200000D02*
X13400000Y99200000D01*
X13400000Y99200000D02*
X13400000Y97400000D01*
X13400000Y97400000D02*
X6800000Y97400000D01*
X6800000Y97400000D02*
X6800000Y99200000D01*
X36700000Y50300000D02*
X36700000Y51800000D01*
X36700000Y49900000D02*
X36700000Y48400000D01*
X37300000Y49900000D02*
X36100000Y49900000D01*
X37300000Y50300000D02*
X36100000Y50300000D01*
X37600000Y53400000D02*
X37600000Y46800000D01*
X37600000Y46800000D02*
X35800000Y46800000D01*
X35800000Y46800000D02*
X35800000Y53400000D01*
X35800000Y53400000D02*
X37600000Y53400000D01*
X13703000Y102537000D02*
X13703000Y101267000D01*
X13703000Y101267000D02*
X13957000Y101267000D01*
X13957000Y101267000D02*
X13957000Y95933000D01*
X13957000Y95933000D02*
X13703000Y95933000D01*
X13703000Y95933000D02*
X13703000Y94663000D01*
X13703000Y94663000D02*
X14592000Y94663000D01*
X14592000Y102537000D02*
X13703000Y102537000D01*
X16497000Y102537000D02*
X15608000Y102537000D01*
X16497000Y102537000D02*
X16497000Y101267000D01*
X16497000Y101267000D02*
X16243000Y101267000D01*
X16243000Y101267000D02*
X16243000Y95933000D01*
X16243000Y95933000D02*
X16497000Y95933000D01*
X16497000Y95933000D02*
X16497000Y94663000D01*
X16497000Y94663000D02*
X15608000Y94663000D01*
X16703000Y102537000D02*
X16703000Y101267000D01*
X16703000Y101267000D02*
X16957000Y101267000D01*
X16957000Y101267000D02*
X16957000Y95933000D01*
X16957000Y95933000D02*
X16703000Y95933000D01*
X16703000Y95933000D02*
X16703000Y94663000D01*
X16703000Y94663000D02*
X17592000Y94663000D01*
X17592000Y102537000D02*
X16703000Y102537000D01*
X19497000Y102537000D02*
X18608000Y102537000D01*
X19497000Y102537000D02*
X19497000Y101267000D01*
X19497000Y101267000D02*
X19243000Y101267000D01*
X19243000Y101267000D02*
X19243000Y95933000D01*
X19243000Y95933000D02*
X19497000Y95933000D01*
X19497000Y95933000D02*
X19497000Y94663000D01*
X19497000Y94663000D02*
X18608000Y94663000D01*
X30953000Y95349000D02*
X30953000Y90269000D01*
X30953000Y90269000D02*
X29556000Y90269000D01*
X21047000Y95349000D02*
X21047000Y90269000D01*
X21047000Y90269000D02*
X22444000Y90269000D01*
X21047000Y98651000D02*
X21047000Y102080000D01*
X21047000Y102080000D02*
X30953000Y102080000D01*
X30953000Y102080000D02*
X30953000Y98651000D01*
X30953000Y73349000D02*
X30953000Y68269000D01*
X30953000Y68269000D02*
X29556000Y68269000D01*
X21047000Y73349000D02*
X21047000Y68269000D01*
X21047000Y68269000D02*
X22444000Y68269000D01*
X21047000Y76651000D02*
X21047000Y80080000D01*
X21047000Y80080000D02*
X30953000Y80080000D01*
X30953000Y80080000D02*
X30953000Y76651000D01*
X6611000Y19301000D02*
X2801000Y19301000D01*
X2801000Y19301000D02*
X2801000Y30223000D01*
X2801000Y30223000D02*
X12199000Y30223000D01*
X12199000Y30223000D02*
X12199000Y19301000D01*
X12199000Y19301000D02*
X8389000Y19301000D01*
X30611000Y19301000D02*
X26801000Y19301000D01*
X26801000Y19301000D02*
X26801000Y30223000D01*
X26801000Y30223000D02*
X36199000Y30223000D01*
X36199000Y30223000D02*
X36199000Y19301000D01*
X36199000Y19301000D02*
X32389000Y19301000D01*
X6611000Y34301000D02*
X2801000Y34301000D01*
X2801000Y34301000D02*
X2801000Y45223000D01*
X2801000Y45223000D02*
X12199000Y45223000D01*
X12199000Y45223000D02*
X12199000Y34301000D01*
X12199000Y34301000D02*
X8389000Y34301000D01*
X30611000Y34301000D02*
X26801000Y34301000D01*
X26801000Y34301000D02*
X26801000Y45223000D01*
X26801000Y45223000D02*
X36199000Y45223000D01*
X36199000Y45223000D02*
X36199000Y34301000D01*
X36199000Y34301000D02*
X32389000Y34301000D01*
X6611000Y4301000D02*
X2801000Y4301000D01*
X2801000Y4301000D02*
X2801000Y15223000D01*
X2801000Y15223000D02*
X12199000Y15223000D01*
X12199000Y15223000D02*
X12199000Y4301000D01*
X12199000Y4301000D02*
X8389000Y4301000D01*
X18611000Y4301000D02*
X14801000Y4301000D01*
X14801000Y4301000D02*
X14801000Y15223000D01*
X14801000Y15223000D02*
X24199000Y15223000D01*
X24199000Y15223000D02*
X24199000Y4301000D01*
X24199000Y4301000D02*
X20389000Y4301000D01*
X35000000Y65000000D02*
X33500000Y65000000D01*
X35400000Y65000000D02*
X36900000Y65000000D01*
X35400000Y65600000D02*
X35400000Y64400000D01*
X35000000Y65600000D02*
X35000000Y64400000D01*
X31900000Y65900000D02*
X38500000Y65900000D01*
X38500000Y65900000D02*
X38500000Y64100000D01*
X38500000Y64100000D02*
X31900000Y64100000D01*
X31900000Y64100000D02*
X31900000Y65900000D01*
X9867000Y103292000D02*
X9867000Y102403000D01*
X9867000Y105197000D02*
X9867000Y104308000D01*
X4533000Y103292000D02*
X4533000Y102403000D01*
X4533000Y105197000D02*
X4533000Y104308000D01*
X8978000Y105197000D02*
X8978000Y102403000D01*
X9232000Y105197000D02*
X9232000Y102403000D01*
X4533000Y105197000D02*
X9867000Y105197000D01*
X9867000Y102403000D02*
X4533000Y102403000D01*
X4533000Y101308000D02*
X4533000Y102197000D01*
X4533000Y99403000D02*
X4533000Y100292000D01*
X9867000Y101308000D02*
X9867000Y102197000D01*
X9867000Y99403000D02*
X9867000Y100292000D01*
X5422000Y99403000D02*
X5422000Y102197000D01*
X5168000Y99403000D02*
X5168000Y102197000D01*
X9867000Y99403000D02*
X4533000Y99403000D01*
X4533000Y102197000D02*
X9867000Y102197000D01*
X6396500Y81872500D02*
X11603500Y81872500D01*
X11603500Y81872500D02*
X11603500Y90127500D01*
X11603500Y90127500D02*
X6396500Y90127500D01*
X6396500Y90127500D02*
X6396500Y81872500D01*
X30611000Y4301000D02*
X26801000Y4301000D01*
X26801000Y4301000D02*
X26801000Y15223000D01*
X26801000Y15223000D02*
X36199000Y15223000D01*
X36199000Y15223000D02*
X36199000Y4301000D01*
X36199000Y4301000D02*
X32389000Y4301000D01*
X21000000Y19700000D02*
X21000000Y18900000D01*
X21000000Y25700000D02*
X21000000Y26500000D01*
X22400000Y19700000D02*
X19600000Y19700000D01*
X19600000Y19700000D02*
X19600000Y25700000D01*
X19600000Y25700000D02*
X22400000Y25700000D01*
X22400000Y25700000D02*
X22400000Y19700000D01*
X18000000Y25700000D02*
X18000000Y26500000D01*
X18000000Y19700000D02*
X18000000Y18900000D01*
X16600000Y25700000D02*
X19400000Y25700000D01*
X19400000Y25700000D02*
X19400000Y19700000D01*
X19400000Y19700000D02*
X16600000Y19700000D01*
X16600000Y19700000D02*
X16600000Y25700000D01*
X23300000Y60700000D02*
X24100000Y60700000D01*
X17300000Y60700000D02*
X16500000Y60700000D01*
X23300000Y62100000D02*
X23300000Y59300000D01*
X23300000Y59300000D02*
X17300000Y59300000D01*
X17300000Y59300000D02*
X17300000Y62100000D01*
X17300000Y62100000D02*
X23300000Y62100000D01*
X10200000Y52600000D02*
X11000000Y52600000D01*
X4200000Y52600000D02*
X3400000Y52600000D01*
X10200000Y54000000D02*
X10200000Y51200000D01*
X10200000Y51200000D02*
X4200000Y51200000D01*
X4200000Y51200000D02*
X4200000Y54000000D01*
X4200000Y54000000D02*
X10200000Y54000000D01*
X31200000Y54500000D02*
X31200000Y53700000D01*
X31200000Y60500000D02*
X31200000Y61300000D01*
X32600000Y54500000D02*
X29800000Y54500000D01*
X29800000Y54500000D02*
X29800000Y60500000D01*
X29800000Y60500000D02*
X32600000Y60500000D01*
X32600000Y60500000D02*
X32600000Y54500000D01*
X16500000Y45400000D02*
X16500000Y46200000D01*
X16500000Y39400000D02*
X16500000Y38600000D01*
X15100000Y45400000D02*
X17900000Y45400000D01*
X17900000Y45400000D02*
X17900000Y39400000D01*
X17900000Y39400000D02*
X15100000Y39400000D01*
X15100000Y39400000D02*
X15100000Y45400000D01*
X19500000Y45400000D02*
X19500000Y46200000D01*
X19500000Y39400000D02*
X19500000Y38600000D01*
X18100000Y45400000D02*
X20900000Y45400000D01*
X20900000Y45400000D02*
X20900000Y39400000D01*
X20900000Y39400000D02*
X18100000Y39400000D01*
X18100000Y39400000D02*
X18100000Y45400000D01*
X24000000Y20500000D02*
X24000000Y19700000D01*
X24000000Y26500000D02*
X24000000Y27300000D01*
X25400000Y20500000D02*
X22600000Y20500000D01*
X22600000Y20500000D02*
X22600000Y26500000D01*
X22600000Y26500000D02*
X25400000Y26500000D01*
X25400000Y26500000D02*
X25400000Y20500000D01*
X15000000Y20600000D02*
X15000000Y19800000D01*
X15000000Y26600000D02*
X15000000Y27400000D01*
X16400000Y20600000D02*
X13600000Y20600000D01*
X13600000Y20600000D02*
X13600000Y26600000D01*
X13600000Y26600000D02*
X16400000Y26600000D01*
X16400000Y26600000D02*
X16400000Y20600000D01*
X28100000Y60500000D02*
X28100000Y61300000D01*
X28100000Y54500000D02*
X28100000Y53700000D01*
X26700000Y60500000D02*
X29500000Y60500000D01*
X29500000Y60500000D02*
X29500000Y54500000D01*
X29500000Y54500000D02*
X26700000Y54500000D01*
X26700000Y54500000D02*
X26700000Y60500000D01*
X4200000Y55700000D02*
X3400000Y55700000D01*
X10200000Y55700000D02*
X11000000Y55700000D01*
X4200000Y54300000D02*
X4200000Y57100000D01*
X4200000Y57100000D02*
X10200000Y57100000D01*
X10200000Y57100000D02*
X10200000Y54300000D01*
X10200000Y54300000D02*
X4200000Y54300000D01*
X31600000Y49300000D02*
X32400000Y49300000D01*
X25600000Y49300000D02*
X24800000Y49300000D01*
X31600000Y50700000D02*
X31600000Y47900000D01*
X31600000Y47900000D02*
X25600000Y47900000D01*
X25600000Y47900000D02*
X25600000Y50700000D01*
X25600000Y50700000D02*
X31600000Y50700000D01*
X34100000Y69300000D02*
X34100000Y68500000D01*
X34100000Y75300000D02*
X34100000Y76100000D01*
X35500000Y69300000D02*
X32700000Y69300000D01*
X32700000Y69300000D02*
X32700000Y75300000D01*
X32700000Y75300000D02*
X35500000Y75300000D01*
X35500000Y75300000D02*
X35500000Y69300000D01*
X14800000Y77300000D02*
X15600000Y77300000D01*
X8800000Y77300000D02*
X8000000Y77300000D01*
X14800000Y78700000D02*
X14800000Y75900000D01*
X14800000Y75900000D02*
X8800000Y75900000D01*
X8800000Y75900000D02*
X8800000Y78700000D01*
X8800000Y78700000D02*
X14800000Y78700000D01*
X10970000Y67252500D02*
X10970000Y65347500D01*
X11287500Y67252500D02*
X11287500Y65347500D01*
X7477500Y66300000D02*
X6800000Y66300000D01*
X11922500Y66300000D02*
X12600000Y66300000D01*
X7477500Y67252500D02*
X11922500Y67252500D01*
X11922500Y67252500D02*
X11922500Y65347500D01*
X11922500Y65347500D02*
X7477500Y65347500D01*
X7477500Y65347500D02*
X7477500Y67252500D01*
X8430000Y63247500D02*
X8430000Y65152500D01*
X8112500Y63247500D02*
X8112500Y65152500D01*
X11922500Y64200000D02*
X12600000Y64200000D01*
X7477500Y64200000D02*
X6800000Y64200000D01*
X11922500Y63247500D02*
X7477500Y63247500D01*
X7477500Y63247500D02*
X7477500Y65152500D01*
X7477500Y65152500D02*
X11922500Y65152500D01*
X11922500Y65152500D02*
X11922500Y63247500D01*
X18730000Y57147500D02*
X18730000Y59052500D01*
X18412500Y57147500D02*
X18412500Y59052500D01*
X22222500Y58100000D02*
X22900000Y58100000D01*
X17777500Y58100000D02*
X17100000Y58100000D01*
X22222500Y57147500D02*
X17777500Y57147500D01*
X17777500Y57147500D02*
X17777500Y59052500D01*
X17777500Y59052500D02*
X22222500Y59052500D01*
X22222500Y59052500D02*
X22222500Y57147500D01*
X21270000Y56952500D02*
X21270000Y55047500D01*
X21587500Y56952500D02*
X21587500Y55047500D01*
X17777500Y56000000D02*
X17100000Y56000000D01*
X22222500Y56000000D02*
X22900000Y56000000D01*
X17777500Y56952500D02*
X22222500Y56952500D01*
X22222500Y56952500D02*
X22222500Y55047500D01*
X22222500Y55047500D02*
X17777500Y55047500D01*
X17777500Y55047500D02*
X17777500Y56952500D01*
X21270000Y54852500D02*
X21270000Y52947500D01*
X21587500Y54852500D02*
X21587500Y52947500D01*
X17777500Y53900000D02*
X17100000Y53900000D01*
X22222500Y53900000D02*
X22900000Y53900000D01*
X17777500Y54852500D02*
X22222500Y54852500D01*
X22222500Y54852500D02*
X22222500Y52947500D01*
X22222500Y52947500D02*
X17777500Y52947500D01*
X17777500Y52947500D02*
X17777500Y54852500D01*
X10970000Y75652500D02*
X10970000Y73747500D01*
X11287500Y75652500D02*
X11287500Y73747500D01*
X7477500Y74700000D02*
X6800000Y74700000D01*
X11922500Y74700000D02*
X12600000Y74700000D01*
X7477500Y75652500D02*
X11922500Y75652500D01*
X11922500Y75652500D02*
X11922500Y73747500D01*
X11922500Y73747500D02*
X7477500Y73747500D01*
X7477500Y73747500D02*
X7477500Y75652500D01*
X8430000Y71647500D02*
X8430000Y73552500D01*
X8112500Y71647500D02*
X8112500Y73552500D01*
X11922500Y72600000D02*
X12600000Y72600000D01*
X7477500Y72600000D02*
X6800000Y72600000D01*
X11922500Y71647500D02*
X7477500Y71647500D01*
X7477500Y71647500D02*
X7477500Y73552500D01*
X7477500Y73552500D02*
X11922500Y73552500D01*
X11922500Y73552500D02*
X11922500Y71647500D01*
X10970000Y69352500D02*
X10970000Y67447500D01*
X11287500Y69352500D02*
X11287500Y67447500D01*
X7477500Y68400000D02*
X6800000Y68400000D01*
X11922500Y68400000D02*
X12600000Y68400000D01*
X7477500Y69352500D02*
X11922500Y69352500D01*
X11922500Y69352500D02*
X11922500Y67447500D01*
X11922500Y67447500D02*
X7477500Y67447500D01*
X7477500Y67447500D02*
X7477500Y69352500D01*
X8430000Y69547500D02*
X8430000Y71452500D01*
X8112500Y69547500D02*
X8112500Y71452500D01*
X11922500Y70500000D02*
X12600000Y70500000D01*
X7477500Y70500000D02*
X6800000Y70500000D01*
X11922500Y69547500D02*
X7477500Y69547500D01*
X7477500Y69547500D02*
X7477500Y71452500D01*
X7477500Y71452500D02*
X11922500Y71452500D01*
X11922500Y71452500D02*
X11922500Y69547500D01*
X20830000Y64547500D02*
X20830000Y66452500D01*
X20512500Y64547500D02*
X20512500Y66452500D01*
X24322500Y65500000D02*
X25000000Y65500000D01*
X19877500Y65500000D02*
X19200000Y65500000D01*
X24322500Y64547500D02*
X19877500Y64547500D01*
X19877500Y64547500D02*
X19877500Y66452500D01*
X19877500Y66452500D02*
X24322500Y66452500D01*
X24322500Y66452500D02*
X24322500Y64547500D01*
X19352500Y70130000D02*
X17447500Y70130000D01*
X19352500Y69812500D02*
X17447500Y69812500D01*
X18400000Y73622500D02*
X18400000Y74300000D01*
X18400000Y69177500D02*
X18400000Y68500000D01*
X19352500Y73622500D02*
X19352500Y69177500D01*
X19352500Y69177500D02*
X17447500Y69177500D01*
X17447500Y69177500D02*
X17447500Y73622500D01*
X17447500Y73622500D02*
X19352500Y73622500D01*
X23370000Y64252500D02*
X23370000Y62347500D01*
X23687500Y64252500D02*
X23687500Y62347500D01*
X19877500Y63300000D02*
X19200000Y63300000D01*
X24322500Y63300000D02*
X25000000Y63300000D01*
X19877500Y64252500D02*
X24322500Y64252500D01*
X24322500Y64252500D02*
X24322500Y62347500D01*
X24322500Y62347500D02*
X19877500Y62347500D01*
X19877500Y62347500D02*
X19877500Y64252500D01*
X15347500Y72670000D02*
X17252500Y72670000D01*
X15347500Y72987500D02*
X17252500Y72987500D01*
X16300000Y69177500D02*
X16300000Y68500000D01*
X16300000Y73622500D02*
X16300000Y74300000D01*
X15347500Y69177500D02*
X15347500Y73622500D01*
X15347500Y73622500D02*
X17252500Y73622500D01*
X17252500Y73622500D02*
X17252500Y69177500D01*
X17252500Y69177500D02*
X15347500Y69177500D01*
X17900000Y49583334D02*
X17500000Y49583334D01*
X17700000Y49583334D02*
X17700000Y50283334D01*
X17633333Y50183334D01*
X17566666Y50116667D01*
X17500000Y50083334D01*
X18200000Y49583334D02*
X18200000Y50283334D01*
X18600000Y49583334D01*
X18600000Y50283334D01*
X19233333Y50050000D02*
X19233333Y49583334D01*
X19066666Y50316667D02*
X18900000Y49816667D01*
X19333333Y49816667D01*
X19966666Y49583334D02*
X19566666Y49583334D01*
X19766666Y49583334D02*
X19766666Y50283334D01*
X19700000Y50183334D01*
X19633333Y50116667D01*
X19566666Y50083334D01*
X20566666Y50050000D02*
X20566666Y49583334D01*
X20400000Y50316667D02*
X20233333Y49816667D01*
X20666666Y49816667D01*
X21033333Y49983334D02*
X20966666Y50016667D01*
X20933333Y50050000D01*
X20900000Y50116667D01*
X20900000Y50150000D01*
X20933333Y50216667D01*
X20966666Y50250000D01*
X21033333Y50283334D01*
X21166666Y50283334D01*
X21233333Y50250000D01*
X21266666Y50216667D01*
X21300000Y50150000D01*
X21300000Y50116667D01*
X21266666Y50050000D01*
X21233333Y50016667D01*
X21166666Y49983334D01*
X21033333Y49983334D01*
X20966666Y49950000D01*
X20933333Y49916667D01*
X20900000Y49850000D01*
X20900000Y49716667D01*
X20933333Y49650000D01*
X20966666Y49616667D01*
X21033333Y49583334D01*
X21166666Y49583334D01*
X21233333Y49616667D01*
X21266666Y49650000D01*
X21300000Y49716667D01*
X21300000Y49850000D01*
X21266666Y49916667D01*
X21233333Y49950000D01*
X21166666Y49983334D01*
X12850000Y51383334D02*
X13083333Y50683334D01*
X13316666Y51383334D01*
X13550000Y50683334D02*
X13550000Y51383334D01*
X13716666Y51383334D01*
X13816666Y51350000D01*
X13883333Y51283334D01*
X13916666Y51216667D01*
X13950000Y51083334D01*
X13950000Y50983334D01*
X13916666Y50850000D01*
X13883333Y50783334D01*
X13816666Y50716667D01*
X13716666Y50683334D01*
X13550000Y50683334D01*
X14616666Y50683334D02*
X14216666Y50683334D01*
X14416666Y50683334D02*
X14416666Y51383334D01*
X14350000Y51283334D01*
X14283333Y51216667D01*
X14216666Y51183334D01*
X14883333Y51316667D02*
X14916666Y51350000D01*
X14983333Y51383334D01*
X15150000Y51383334D01*
X15216666Y51350000D01*
X15250000Y51316667D01*
X15283333Y51250000D01*
X15283333Y51183334D01*
X15250000Y51083334D01*
X14850000Y50683334D01*
X15283333Y50683334D01*
X6650000Y58383334D02*
X6416666Y58716667D01*
X6250000Y58383334D02*
X6250000Y59083334D01*
X6516666Y59083334D01*
X6583333Y59050000D01*
X6616666Y59016667D01*
X6650000Y58950000D01*
X6650000Y58850000D01*
X6616666Y58783334D01*
X6583333Y58750000D01*
X6516666Y58716667D01*
X6250000Y58716667D01*
X7283333Y59083334D02*
X6950000Y59083334D01*
X6916666Y58750000D01*
X6950000Y58783334D01*
X7016666Y58816667D01*
X7183333Y58816667D01*
X7250000Y58783334D01*
X7283333Y58750000D01*
X7316666Y58683334D01*
X7316666Y58516667D01*
X7283333Y58450000D01*
X7250000Y58416667D01*
X7183333Y58383334D01*
X7016666Y58383334D01*
X6950000Y58416667D01*
X6916666Y58450000D01*
X7716666Y58783334D02*
X7650000Y58816667D01*
X7616666Y58850000D01*
X7583333Y58916667D01*
X7583333Y58950000D01*
X7616666Y59016667D01*
X7650000Y59050000D01*
X7716666Y59083334D01*
X7850000Y59083334D01*
X7916666Y59050000D01*
X7950000Y59016667D01*
X7983333Y58950000D01*
X7983333Y58916667D01*
X7950000Y58850000D01*
X7916666Y58816667D01*
X7850000Y58783334D01*
X7716666Y58783334D01*
X7650000Y58750000D01*
X7616666Y58716667D01*
X7583333Y58650000D01*
X7583333Y58516667D01*
X7616666Y58450000D01*
X7650000Y58416667D01*
X7716666Y58383334D01*
X7850000Y58383334D01*
X7916666Y58416667D01*
X7950000Y58450000D01*
X7983333Y58516667D01*
X7983333Y58650000D01*
X7950000Y58716667D01*
X7916666Y58750000D01*
X7850000Y58783334D01*
X6783333Y60383334D02*
X6383333Y60383334D01*
X6583333Y60383334D02*
X6583333Y61083334D01*
X6516666Y60983334D01*
X6450000Y60916667D01*
X6383333Y60883334D01*
X7216666Y61083334D02*
X7283333Y61083334D01*
X7350000Y61050000D01*
X7383333Y61016667D01*
X7416666Y60950000D01*
X7450000Y60816667D01*
X7450000Y60650000D01*
X7416666Y60516667D01*
X7383333Y60450000D01*
X7350000Y60416667D01*
X7283333Y60383334D01*
X7216666Y60383334D01*
X7150000Y60416667D01*
X7116666Y60450000D01*
X7083333Y60516667D01*
X7050000Y60650000D01*
X7050000Y60816667D01*
X7083333Y60950000D01*
X7116666Y61016667D01*
X7150000Y61050000D01*
X7216666Y61083334D01*
X7750000Y60383334D02*
X7750000Y61083334D01*
X7816666Y60650000D02*
X8016666Y60383334D01*
X8016666Y60850000D02*
X7750000Y60583334D01*
X17850000Y89883334D02*
X17916666Y89883334D01*
X17983333Y89850000D01*
X18016666Y89816667D01*
X18050000Y89750000D01*
X18083333Y89616667D01*
X18083333Y89450000D01*
X18050000Y89316667D01*
X18016666Y89250000D01*
X17983333Y89216667D01*
X17916666Y89183334D01*
X17850000Y89183334D01*
X17783333Y89216667D01*
X17750000Y89250000D01*
X17716666Y89316667D01*
X17683333Y89450000D01*
X17683333Y89616667D01*
X17716666Y89750000D01*
X17750000Y89816667D01*
X17783333Y89850000D01*
X17850000Y89883334D01*
X18383333Y89250000D02*
X18416666Y89216667D01*
X18383333Y89183334D01*
X18350000Y89216667D01*
X18383333Y89250000D01*
X18383333Y89183334D01*
X19083333Y89183334D02*
X18683333Y89183334D01*
X18883333Y89183334D02*
X18883333Y89883334D01*
X18816666Y89783334D01*
X18750000Y89716667D01*
X18683333Y89683334D01*
X19683333Y89650000D02*
X19683333Y89183334D01*
X19383333Y89650000D02*
X19383333Y89283334D01*
X19416666Y89216667D01*
X19483333Y89183334D01*
X19583333Y89183334D01*
X19650000Y89216667D01*
X19683333Y89250000D01*
X20250000Y89550000D02*
X20016666Y89550000D01*
X20016666Y89183334D02*
X20016666Y89883334D01*
X20350000Y89883334D01*
X14683333Y89250000D02*
X14650000Y89216667D01*
X14550000Y89183334D01*
X14483333Y89183334D01*
X14383333Y89216667D01*
X14316666Y89283334D01*
X14283333Y89350000D01*
X14250000Y89483334D01*
X14250000Y89583334D01*
X14283333Y89716667D01*
X14316666Y89783334D01*
X14383333Y89850000D01*
X14483333Y89883334D01*
X14550000Y89883334D01*
X14650000Y89850000D01*
X14683333Y89816667D01*
X15316666Y89883334D02*
X14983333Y89883334D01*
X14950000Y89550000D01*
X14983333Y89583334D01*
X15050000Y89616667D01*
X15216666Y89616667D01*
X15283333Y89583334D01*
X15316666Y89550000D01*
X15350000Y89483334D01*
X15350000Y89316667D01*
X15316666Y89250000D01*
X15283333Y89216667D01*
X15216666Y89183334D01*
X15050000Y89183334D01*
X14983333Y89216667D01*
X14950000Y89250000D01*
X10250000Y97183334D02*
X10316666Y97183334D01*
X10383333Y97150000D01*
X10416666Y97116667D01*
X10450000Y97050000D01*
X10483333Y96916667D01*
X10483333Y96750000D01*
X10450000Y96616667D01*
X10416666Y96550000D01*
X10383333Y96516667D01*
X10316666Y96483334D01*
X10250000Y96483334D01*
X10183333Y96516667D01*
X10150000Y96550000D01*
X10116666Y96616667D01*
X10083333Y96750000D01*
X10083333Y96916667D01*
X10116666Y97050000D01*
X10150000Y97116667D01*
X10183333Y97150000D01*
X10250000Y97183334D01*
X10783333Y96550000D02*
X10816666Y96516667D01*
X10783333Y96483334D01*
X10750000Y96516667D01*
X10783333Y96550000D01*
X10783333Y96483334D01*
X11483333Y96483334D02*
X11083333Y96483334D01*
X11283333Y96483334D02*
X11283333Y97183334D01*
X11216666Y97083334D01*
X11150000Y97016667D01*
X11083333Y96983334D01*
X12083333Y96950000D02*
X12083333Y96483334D01*
X11783333Y96950000D02*
X11783333Y96583334D01*
X11816666Y96516667D01*
X11883333Y96483334D01*
X11983333Y96483334D01*
X12050000Y96516667D01*
X12083333Y96550000D01*
X12650000Y96850000D02*
X12416666Y96850000D01*
X12416666Y96483334D02*
X12416666Y97183334D01*
X12750000Y97183334D01*
X7683333Y96450000D02*
X7650000Y96416667D01*
X7550000Y96383334D01*
X7483333Y96383334D01*
X7383333Y96416667D01*
X7316666Y96483334D01*
X7283333Y96550000D01*
X7250000Y96683334D01*
X7250000Y96783334D01*
X7283333Y96916667D01*
X7316666Y96983334D01*
X7383333Y97050000D01*
X7483333Y97083334D01*
X7550000Y97083334D01*
X7650000Y97050000D01*
X7683333Y97016667D01*
X8283333Y97083334D02*
X8150000Y97083334D01*
X8083333Y97050000D01*
X8050000Y97016667D01*
X7983333Y96916667D01*
X7950000Y96783334D01*
X7950000Y96516667D01*
X7983333Y96450000D01*
X8016666Y96416667D01*
X8083333Y96383334D01*
X8216666Y96383334D01*
X8283333Y96416667D01*
X8316666Y96450000D01*
X8350000Y96516667D01*
X8350000Y96683334D01*
X8316666Y96750000D01*
X8283333Y96783334D01*
X8216666Y96816667D01*
X8083333Y96816667D01*
X8016666Y96783334D01*
X7983333Y96750000D01*
X7950000Y96683334D01*
X32950000Y53583334D02*
X33016666Y53583334D01*
X33083333Y53550000D01*
X33116666Y53516667D01*
X33150000Y53450000D01*
X33183333Y53316667D01*
X33183333Y53150000D01*
X33150000Y53016667D01*
X33116666Y52950000D01*
X33083333Y52916667D01*
X33016666Y52883334D01*
X32950000Y52883334D01*
X32883333Y52916667D01*
X32850000Y52950000D01*
X32816666Y53016667D01*
X32783333Y53150000D01*
X32783333Y53316667D01*
X32816666Y53450000D01*
X32850000Y53516667D01*
X32883333Y53550000D01*
X32950000Y53583334D01*
X33483333Y52950000D02*
X33516666Y52916667D01*
X33483333Y52883334D01*
X33450000Y52916667D01*
X33483333Y52950000D01*
X33483333Y52883334D01*
X34183333Y52883334D02*
X33783333Y52883334D01*
X33983333Y52883334D02*
X33983333Y53583334D01*
X33916666Y53483334D01*
X33850000Y53416667D01*
X33783333Y53383334D01*
X34783333Y53350000D02*
X34783333Y52883334D01*
X34483333Y53350000D02*
X34483333Y52983334D01*
X34516666Y52916667D01*
X34583333Y52883334D01*
X34683333Y52883334D01*
X34750000Y52916667D01*
X34783333Y52950000D01*
X35350000Y53250000D02*
X35116666Y53250000D01*
X35116666Y52883334D02*
X35116666Y53583334D01*
X35450000Y53583334D01*
X36050000Y53950000D02*
X36016666Y53916667D01*
X35916666Y53883334D01*
X35850000Y53883334D01*
X35750000Y53916667D01*
X35683333Y53983334D01*
X35650000Y54050000D01*
X35616666Y54183334D01*
X35616666Y54283334D01*
X35650000Y54416667D01*
X35683333Y54483334D01*
X35750000Y54550000D01*
X35850000Y54583334D01*
X35916666Y54583334D01*
X36016666Y54550000D01*
X36050000Y54516667D01*
X36716666Y53883334D02*
X36316666Y53883334D01*
X36516666Y53883334D02*
X36516666Y54583334D01*
X36450000Y54483334D01*
X36383333Y54416667D01*
X36316666Y54383334D01*
X37116666Y54283334D02*
X37050000Y54316667D01*
X37016666Y54350000D01*
X36983333Y54416667D01*
X36983333Y54450000D01*
X37016666Y54516667D01*
X37050000Y54550000D01*
X37116666Y54583334D01*
X37250000Y54583334D01*
X37316666Y54550000D01*
X37350000Y54516667D01*
X37383333Y54450000D01*
X37383333Y54416667D01*
X37350000Y54350000D01*
X37316666Y54316667D01*
X37250000Y54283334D01*
X37116666Y54283334D01*
X37050000Y54250000D01*
X37016666Y54216667D01*
X36983333Y54150000D01*
X36983333Y54016667D01*
X37016666Y53950000D01*
X37050000Y53916667D01*
X37116666Y53883334D01*
X37250000Y53883334D01*
X37316666Y53916667D01*
X37350000Y53950000D01*
X37383333Y54016667D01*
X37383333Y54150000D01*
X37350000Y54216667D01*
X37316666Y54250000D01*
X37250000Y54283334D01*
X15416666Y97450000D02*
X15416666Y97050000D01*
X15416666Y97250000D02*
X14716666Y97250000D01*
X14816666Y97183334D01*
X14883333Y97116667D01*
X14916666Y97050000D01*
X14716666Y97883334D02*
X14716666Y97950000D01*
X14750000Y98016667D01*
X14783333Y98050000D01*
X14850000Y98083334D01*
X14983333Y98116667D01*
X15150000Y98116667D01*
X15283333Y98083334D01*
X15350000Y98050000D01*
X15383333Y98016667D01*
X15416666Y97950000D01*
X15416666Y97883334D01*
X15383333Y97816667D01*
X15350000Y97783334D01*
X15283333Y97750000D01*
X15150000Y97716667D01*
X14983333Y97716667D01*
X14850000Y97750000D01*
X14783333Y97783334D01*
X14750000Y97816667D01*
X14716666Y97883334D01*
X14716666Y98550000D02*
X14716666Y98616667D01*
X14750000Y98683334D01*
X14783333Y98716667D01*
X14850000Y98750000D01*
X14983333Y98783334D01*
X15150000Y98783334D01*
X15283333Y98750000D01*
X15350000Y98716667D01*
X15383333Y98683334D01*
X15416666Y98616667D01*
X15416666Y98550000D01*
X15383333Y98483334D01*
X15350000Y98450000D01*
X15283333Y98416667D01*
X15150000Y98383334D01*
X14983333Y98383334D01*
X14850000Y98416667D01*
X14783333Y98450000D01*
X14750000Y98483334D01*
X14716666Y98550000D01*
X14950000Y99383334D02*
X15416666Y99383334D01*
X14950000Y99083334D02*
X15316666Y99083334D01*
X15383333Y99116667D01*
X15416666Y99183334D01*
X15416666Y99283334D01*
X15383333Y99350000D01*
X15350000Y99383334D01*
X15416666Y99716667D02*
X14716666Y99716667D01*
X15050000Y99716667D02*
X15050000Y100116667D01*
X15416666Y100116667D02*
X14716666Y100116667D01*
X13183333Y92283334D02*
X12850000Y92283334D01*
X12850000Y92983334D01*
X13783333Y92283334D02*
X13383333Y92283334D01*
X13583333Y92283334D02*
X13583333Y92983334D01*
X13516666Y92883334D01*
X13450000Y92816667D01*
X13383333Y92783334D01*
X18416666Y97450000D02*
X18416666Y97050000D01*
X18416666Y97250000D02*
X17716666Y97250000D01*
X17816666Y97183334D01*
X17883333Y97116667D01*
X17916666Y97050000D01*
X17716666Y97883334D02*
X17716666Y97950000D01*
X17750000Y98016667D01*
X17783333Y98050000D01*
X17850000Y98083334D01*
X17983333Y98116667D01*
X18150000Y98116667D01*
X18283333Y98083334D01*
X18350000Y98050000D01*
X18383333Y98016667D01*
X18416666Y97950000D01*
X18416666Y97883334D01*
X18383333Y97816667D01*
X18350000Y97783334D01*
X18283333Y97750000D01*
X18150000Y97716667D01*
X17983333Y97716667D01*
X17850000Y97750000D01*
X17783333Y97783334D01*
X17750000Y97816667D01*
X17716666Y97883334D01*
X17716666Y98550000D02*
X17716666Y98616667D01*
X17750000Y98683334D01*
X17783333Y98716667D01*
X17850000Y98750000D01*
X17983333Y98783334D01*
X18150000Y98783334D01*
X18283333Y98750000D01*
X18350000Y98716667D01*
X18383333Y98683334D01*
X18416666Y98616667D01*
X18416666Y98550000D01*
X18383333Y98483334D01*
X18350000Y98450000D01*
X18283333Y98416667D01*
X18150000Y98383334D01*
X17983333Y98383334D01*
X17850000Y98416667D01*
X17783333Y98450000D01*
X17750000Y98483334D01*
X17716666Y98550000D01*
X17950000Y99383334D02*
X18416666Y99383334D01*
X17950000Y99083334D02*
X18316666Y99083334D01*
X18383333Y99116667D01*
X18416666Y99183334D01*
X18416666Y99283334D01*
X18383333Y99350000D01*
X18350000Y99383334D01*
X18416666Y99716667D02*
X17716666Y99716667D01*
X18050000Y99716667D02*
X18050000Y100116667D01*
X18416666Y100116667D02*
X17716666Y100116667D01*
X19883333Y102783334D02*
X19550000Y102783334D01*
X19550000Y103483334D01*
X20083333Y103416667D02*
X20116666Y103450000D01*
X20183333Y103483334D01*
X20350000Y103483334D01*
X20416666Y103450000D01*
X20450000Y103416667D01*
X20483333Y103350000D01*
X20483333Y103283334D01*
X20450000Y103183334D01*
X20050000Y102783334D01*
X20483333Y102783334D01*
X32983333Y97483334D02*
X32750000Y97816667D01*
X32583333Y97483334D02*
X32583333Y98183334D01*
X32850000Y98183334D01*
X32916666Y98150000D01*
X32950000Y98116667D01*
X32983333Y98050000D01*
X32983333Y97950000D01*
X32950000Y97883334D01*
X32916666Y97850000D01*
X32850000Y97816667D01*
X32583333Y97816667D01*
X33650000Y97483334D02*
X33250000Y97483334D01*
X33450000Y97483334D02*
X33450000Y98183334D01*
X33383333Y98083334D01*
X33316666Y98016667D01*
X33250000Y97983334D01*
X31783333Y77483334D02*
X31550000Y77816667D01*
X31383333Y77483334D02*
X31383333Y78183334D01*
X31650000Y78183334D01*
X31716666Y78150000D01*
X31750000Y78116667D01*
X31783333Y78050000D01*
X31783333Y77950000D01*
X31750000Y77883334D01*
X31716666Y77850000D01*
X31650000Y77816667D01*
X31383333Y77816667D01*
X32050000Y78116667D02*
X32083333Y78150000D01*
X32150000Y78183334D01*
X32316666Y78183334D01*
X32383333Y78150000D01*
X32416666Y78116667D01*
X32450000Y78050000D01*
X32450000Y77983334D01*
X32416666Y77883334D01*
X32016666Y77483334D01*
X32450000Y77483334D01*
X9400000Y18883334D02*
X9866666Y18183334D01*
X9866666Y18883334D02*
X9400000Y18183334D01*
X10100000Y18216667D02*
X10200000Y18183334D01*
X10366666Y18183334D01*
X10433333Y18216667D01*
X10466666Y18250000D01*
X10500000Y18316667D01*
X10500000Y18383334D01*
X10466666Y18450000D01*
X10433333Y18483334D01*
X10366666Y18516667D01*
X10233333Y18550000D01*
X10166666Y18583334D01*
X10133333Y18616667D01*
X10100000Y18683334D01*
X10100000Y18750000D01*
X10133333Y18816667D01*
X10166666Y18850000D01*
X10233333Y18883334D01*
X10400000Y18883334D01*
X10500000Y18850000D01*
X11166666Y18183334D02*
X10766666Y18183334D01*
X10966666Y18183334D02*
X10966666Y18883334D01*
X10900000Y18783334D01*
X10833333Y18716667D01*
X10766666Y18683334D01*
X33902000Y19049334D02*
X34368666Y18349334D01*
X34368666Y19049334D02*
X33902000Y18349334D01*
X34602000Y18382667D02*
X34702000Y18349334D01*
X34868666Y18349334D01*
X34935333Y18382667D01*
X34968666Y18416000D01*
X35002000Y18482667D01*
X35002000Y18549334D01*
X34968666Y18616000D01*
X34935333Y18649334D01*
X34868666Y18682667D01*
X34735333Y18716000D01*
X34668666Y18749334D01*
X34635333Y18782667D01*
X34602000Y18849334D01*
X34602000Y18916000D01*
X34635333Y18982667D01*
X34668666Y19016000D01*
X34735333Y19049334D01*
X34902000Y19049334D01*
X35002000Y19016000D01*
X35268666Y18982667D02*
X35302000Y19016000D01*
X35368666Y19049334D01*
X35535333Y19049334D01*
X35602000Y19016000D01*
X35635333Y18982667D01*
X35668666Y18916000D01*
X35668666Y18849334D01*
X35635333Y18749334D01*
X35235333Y18349334D01*
X35668666Y18349334D01*
X8600000Y34083334D02*
X9066666Y33383334D01*
X9066666Y34083334D02*
X8600000Y33383334D01*
X9300000Y33416667D02*
X9400000Y33383334D01*
X9566666Y33383334D01*
X9633333Y33416667D01*
X9666666Y33450000D01*
X9700000Y33516667D01*
X9700000Y33583334D01*
X9666666Y33650000D01*
X9633333Y33683334D01*
X9566666Y33716667D01*
X9433333Y33750000D01*
X9366666Y33783334D01*
X9333333Y33816667D01*
X9300000Y33883334D01*
X9300000Y33950000D01*
X9333333Y34016667D01*
X9366666Y34050000D01*
X9433333Y34083334D01*
X9600000Y34083334D01*
X9700000Y34050000D01*
X9933333Y34083334D02*
X10366666Y34083334D01*
X10133333Y33816667D01*
X10233333Y33816667D01*
X10300000Y33783334D01*
X10333333Y33750000D01*
X10366666Y33683334D01*
X10366666Y33516667D01*
X10333333Y33450000D01*
X10300000Y33416667D01*
X10233333Y33383334D01*
X10033333Y33383334D01*
X9966666Y33416667D01*
X9933333Y33450000D01*
X33902000Y34049334D02*
X34368666Y33349334D01*
X34368666Y34049334D02*
X33902000Y33349334D01*
X34602000Y33382667D02*
X34702000Y33349334D01*
X34868666Y33349334D01*
X34935333Y33382667D01*
X34968666Y33416000D01*
X35002000Y33482667D01*
X35002000Y33549334D01*
X34968666Y33616000D01*
X34935333Y33649334D01*
X34868666Y33682667D01*
X34735333Y33716000D01*
X34668666Y33749334D01*
X34635333Y33782667D01*
X34602000Y33849334D01*
X34602000Y33916000D01*
X34635333Y33982667D01*
X34668666Y34016000D01*
X34735333Y34049334D01*
X34902000Y34049334D01*
X35002000Y34016000D01*
X35602000Y33816000D02*
X35602000Y33349334D01*
X35435333Y34082667D02*
X35268666Y33582667D01*
X35702000Y33582667D01*
X9902000Y4049334D02*
X10368666Y3349334D01*
X10368666Y4049334D02*
X9902000Y3349334D01*
X10602000Y3382667D02*
X10702000Y3349334D01*
X10868666Y3349334D01*
X10935333Y3382667D01*
X10968666Y3416000D01*
X11002000Y3482667D01*
X11002000Y3549334D01*
X10968666Y3616000D01*
X10935333Y3649334D01*
X10868666Y3682667D01*
X10735333Y3716000D01*
X10668666Y3749334D01*
X10635333Y3782667D01*
X10602000Y3849334D01*
X10602000Y3916000D01*
X10635333Y3982667D01*
X10668666Y4016000D01*
X10735333Y4049334D01*
X10902000Y4049334D01*
X11002000Y4016000D01*
X11635333Y4049334D02*
X11302000Y4049334D01*
X11268666Y3716000D01*
X11302000Y3749334D01*
X11368666Y3782667D01*
X11535333Y3782667D01*
X11602000Y3749334D01*
X11635333Y3716000D01*
X11668666Y3649334D01*
X11668666Y3482667D01*
X11635333Y3416000D01*
X11602000Y3382667D01*
X11535333Y3349334D01*
X11368666Y3349334D01*
X11302000Y3382667D01*
X11268666Y3416000D01*
X21902000Y4049334D02*
X22368666Y3349334D01*
X22368666Y4049334D02*
X21902000Y3349334D01*
X22602000Y3382667D02*
X22702000Y3349334D01*
X22868666Y3349334D01*
X22935333Y3382667D01*
X22968666Y3416000D01*
X23002000Y3482667D01*
X23002000Y3549334D01*
X22968666Y3616000D01*
X22935333Y3649334D01*
X22868666Y3682667D01*
X22735333Y3716000D01*
X22668666Y3749334D01*
X22635333Y3782667D01*
X22602000Y3849334D01*
X22602000Y3916000D01*
X22635333Y3982667D01*
X22668666Y4016000D01*
X22735333Y4049334D01*
X22902000Y4049334D01*
X23002000Y4016000D01*
X23602000Y4049334D02*
X23468666Y4049334D01*
X23402000Y4016000D01*
X23368666Y3982667D01*
X23302000Y3882667D01*
X23268666Y3749334D01*
X23268666Y3482667D01*
X23302000Y3416000D01*
X23335333Y3382667D01*
X23402000Y3349334D01*
X23535333Y3349334D01*
X23602000Y3382667D01*
X23635333Y3416000D01*
X23668666Y3482667D01*
X23668666Y3649334D01*
X23635333Y3716000D01*
X23602000Y3749334D01*
X23535333Y3782667D01*
X23402000Y3782667D01*
X23335333Y3749334D01*
X23302000Y3716000D01*
X23268666Y3649334D01*
X30350000Y66783334D02*
X30416666Y66783334D01*
X30483333Y66750000D01*
X30516666Y66716667D01*
X30550000Y66650000D01*
X30583333Y66516667D01*
X30583333Y66350000D01*
X30550000Y66216667D01*
X30516666Y66150000D01*
X30483333Y66116667D01*
X30416666Y66083334D01*
X30350000Y66083334D01*
X30283333Y66116667D01*
X30250000Y66150000D01*
X30216666Y66216667D01*
X30183333Y66350000D01*
X30183333Y66516667D01*
X30216666Y66650000D01*
X30250000Y66716667D01*
X30283333Y66750000D01*
X30350000Y66783334D01*
X30883333Y66150000D02*
X30916666Y66116667D01*
X30883333Y66083334D01*
X30850000Y66116667D01*
X30883333Y66150000D01*
X30883333Y66083334D01*
X31583333Y66083334D02*
X31183333Y66083334D01*
X31383333Y66083334D02*
X31383333Y66783334D01*
X31316666Y66683334D01*
X31250000Y66616667D01*
X31183333Y66583334D01*
X32183333Y66550000D02*
X32183333Y66083334D01*
X31883333Y66550000D02*
X31883333Y66183334D01*
X31916666Y66116667D01*
X31983333Y66083334D01*
X32083333Y66083334D01*
X32150000Y66116667D01*
X32183333Y66150000D01*
X32750000Y66450000D02*
X32516666Y66450000D01*
X32516666Y66083334D02*
X32516666Y66783334D01*
X32850000Y66783334D01*
X36650000Y66150000D02*
X36616666Y66116667D01*
X36516666Y66083334D01*
X36450000Y66083334D01*
X36350000Y66116667D01*
X36283333Y66183334D01*
X36250000Y66250000D01*
X36216666Y66383334D01*
X36216666Y66483334D01*
X36250000Y66616667D01*
X36283333Y66683334D01*
X36350000Y66750000D01*
X36450000Y66783334D01*
X36516666Y66783334D01*
X36616666Y66750000D01*
X36650000Y66716667D01*
X36916666Y66716667D02*
X36950000Y66750000D01*
X37016666Y66783334D01*
X37183333Y66783334D01*
X37250000Y66750000D01*
X37283333Y66716667D01*
X37316666Y66650000D01*
X37316666Y66583334D01*
X37283333Y66483334D01*
X36883333Y66083334D01*
X37316666Y66083334D01*
X37583333Y66716667D02*
X37616666Y66750000D01*
X37683333Y66783334D01*
X37850000Y66783334D01*
X37916666Y66750000D01*
X37950000Y66716667D01*
X37983333Y66650000D01*
X37983333Y66583334D01*
X37950000Y66483334D01*
X37550000Y66083334D01*
X37983333Y66083334D01*
X5400000Y103483334D02*
X5000000Y103483334D01*
X5200000Y103483334D02*
X5200000Y104183334D01*
X5133333Y104083334D01*
X5066666Y104016667D01*
X5000000Y103983334D01*
X5700000Y103483334D02*
X5700000Y104183334D01*
X6100000Y103483334D01*
X6100000Y104183334D01*
X6733333Y103950000D02*
X6733333Y103483334D01*
X6566666Y104216667D02*
X6400000Y103716667D01*
X6833333Y103716667D01*
X7233333Y104183334D02*
X7300000Y104183334D01*
X7366666Y104150000D01*
X7400000Y104116667D01*
X7433333Y104050000D01*
X7466666Y103916667D01*
X7466666Y103750000D01*
X7433333Y103616667D01*
X7400000Y103550000D01*
X7366666Y103516667D01*
X7300000Y103483334D01*
X7233333Y103483334D01*
X7166666Y103516667D01*
X7133333Y103550000D01*
X7100000Y103616667D01*
X7066666Y103750000D01*
X7066666Y103916667D01*
X7100000Y104050000D01*
X7133333Y104116667D01*
X7166666Y104150000D01*
X7233333Y104183334D01*
X7900000Y104183334D02*
X7966666Y104183334D01*
X8033333Y104150000D01*
X8066666Y104116667D01*
X8100000Y104050000D01*
X8133333Y103916667D01*
X8133333Y103750000D01*
X8100000Y103616667D01*
X8066666Y103550000D01*
X8033333Y103516667D01*
X7966666Y103483334D01*
X7900000Y103483334D01*
X7833333Y103516667D01*
X7800000Y103550000D01*
X7766666Y103616667D01*
X7733333Y103750000D01*
X7733333Y103916667D01*
X7766666Y104050000D01*
X7800000Y104116667D01*
X7833333Y104150000D01*
X7900000Y104183334D01*
X8800000Y103483334D02*
X8400000Y103483334D01*
X8600000Y103483334D02*
X8600000Y104183334D01*
X8533333Y104083334D01*
X8466666Y104016667D01*
X8400000Y103983334D01*
X2483333Y102683334D02*
X2716666Y101983334D01*
X2950000Y102683334D01*
X3183333Y101983334D02*
X3183333Y102683334D01*
X3350000Y102683334D01*
X3450000Y102650000D01*
X3516666Y102583334D01*
X3550000Y102516667D01*
X3583333Y102383334D01*
X3583333Y102283334D01*
X3550000Y102150000D01*
X3516666Y102083334D01*
X3450000Y102016667D01*
X3350000Y101983334D01*
X3183333Y101983334D01*
X4250000Y101983334D02*
X3850000Y101983334D01*
X4050000Y101983334D02*
X4050000Y102683334D01*
X3983333Y102583334D01*
X3916666Y102516667D01*
X3850000Y102483334D01*
X6100000Y100483334D02*
X5700000Y100483334D01*
X5900000Y100483334D02*
X5900000Y101183334D01*
X5833333Y101083334D01*
X5766666Y101016667D01*
X5700000Y100983334D01*
X6400000Y100483334D02*
X6400000Y101183334D01*
X6800000Y100483334D01*
X6800000Y101183334D01*
X7433333Y100950000D02*
X7433333Y100483334D01*
X7266666Y101216667D02*
X7100000Y100716667D01*
X7533333Y100716667D01*
X7933333Y101183334D02*
X8000000Y101183334D01*
X8066666Y101150000D01*
X8100000Y101116667D01*
X8133333Y101050000D01*
X8166666Y100916667D01*
X8166666Y100750000D01*
X8133333Y100616667D01*
X8100000Y100550000D01*
X8066666Y100516667D01*
X8000000Y100483334D01*
X7933333Y100483334D01*
X7866666Y100516667D01*
X7833333Y100550000D01*
X7800000Y100616667D01*
X7766666Y100750000D01*
X7766666Y100916667D01*
X7800000Y101050000D01*
X7833333Y101116667D01*
X7866666Y101150000D01*
X7933333Y101183334D01*
X8600000Y101183334D02*
X8666666Y101183334D01*
X8733333Y101150000D01*
X8766666Y101116667D01*
X8800000Y101050000D01*
X8833333Y100916667D01*
X8833333Y100750000D01*
X8800000Y100616667D01*
X8766666Y100550000D01*
X8733333Y100516667D01*
X8666666Y100483334D01*
X8600000Y100483334D01*
X8533333Y100516667D01*
X8500000Y100550000D01*
X8466666Y100616667D01*
X8433333Y100750000D01*
X8433333Y100916667D01*
X8466666Y101050000D01*
X8500000Y101116667D01*
X8533333Y101150000D01*
X8600000Y101183334D01*
X9500000Y100483334D02*
X9100000Y100483334D01*
X9300000Y100483334D02*
X9300000Y101183334D01*
X9233333Y101083334D01*
X9166666Y101016667D01*
X9100000Y100983334D01*
X4283333Y99083334D02*
X4516666Y98383334D01*
X4750000Y99083334D01*
X4983333Y98383334D02*
X4983333Y99083334D01*
X5150000Y99083334D01*
X5250000Y99050000D01*
X5316666Y98983334D01*
X5350000Y98916667D01*
X5383333Y98783334D01*
X5383333Y98683334D01*
X5350000Y98550000D01*
X5316666Y98483334D01*
X5250000Y98416667D01*
X5150000Y98383334D01*
X4983333Y98383334D01*
X5650000Y99016667D02*
X5683333Y99050000D01*
X5750000Y99083334D01*
X5916666Y99083334D01*
X5983333Y99050000D01*
X6016666Y99016667D01*
X6050000Y98950000D01*
X6050000Y98883334D01*
X6016666Y98783334D01*
X5616666Y98383334D01*
X6050000Y98383334D01*
X12166666Y85716667D02*
X12266666Y85683334D01*
X12433333Y85683334D01*
X12500000Y85716667D01*
X12533333Y85750000D01*
X12566666Y85816667D01*
X12566666Y85883334D01*
X12533333Y85950000D01*
X12500000Y85983334D01*
X12433333Y86016667D01*
X12300000Y86050000D01*
X12233333Y86083334D01*
X12200000Y86116667D01*
X12166666Y86183334D01*
X12166666Y86250000D01*
X12200000Y86316667D01*
X12233333Y86350000D01*
X12300000Y86383334D01*
X12466666Y86383334D01*
X12566666Y86350000D01*
X12800000Y86383334D02*
X12966666Y85683334D01*
X13100000Y86183334D01*
X13233333Y85683334D01*
X13400000Y86383334D01*
X14033333Y85683334D02*
X13633333Y85683334D01*
X13833333Y85683334D02*
X13833333Y86383334D01*
X13766666Y86283334D01*
X13700000Y86216667D01*
X13633333Y86183334D01*
X33568666Y4049334D02*
X34035333Y3349334D01*
X34035333Y4049334D02*
X33568666Y3349334D01*
X34268666Y3382667D02*
X34368666Y3349334D01*
X34535333Y3349334D01*
X34602000Y3382667D01*
X34635333Y3416000D01*
X34668666Y3482667D01*
X34668666Y3549334D01*
X34635333Y3616000D01*
X34602000Y3649334D01*
X34535333Y3682667D01*
X34402000Y3716000D01*
X34335333Y3749334D01*
X34302000Y3782667D01*
X34268666Y3849334D01*
X34268666Y3916000D01*
X34302000Y3982667D01*
X34335333Y4016000D01*
X34402000Y4049334D01*
X34568666Y4049334D01*
X34668666Y4016000D01*
X35335333Y3349334D02*
X34935333Y3349334D01*
X35135333Y3349334D02*
X35135333Y4049334D01*
X35068666Y3949334D01*
X35002000Y3882667D01*
X34935333Y3849334D01*
X36002000Y3349334D02*
X35602000Y3349334D01*
X35802000Y3349334D02*
X35802000Y4049334D01*
X35735333Y3949334D01*
X35668666Y3882667D01*
X35602000Y3849334D01*
X20550000Y15583334D02*
X20316666Y15916667D01*
X20150000Y15583334D02*
X20150000Y16283334D01*
X20416666Y16283334D01*
X20483333Y16250000D01*
X20516666Y16216667D01*
X20550000Y16150000D01*
X20550000Y16050000D01*
X20516666Y15983334D01*
X20483333Y15950000D01*
X20416666Y15916667D01*
X20150000Y15916667D01*
X21150000Y16283334D02*
X21016666Y16283334D01*
X20950000Y16250000D01*
X20916666Y16216667D01*
X20850000Y16116667D01*
X20816666Y15983334D01*
X20816666Y15716667D01*
X20850000Y15650000D01*
X20883333Y15616667D01*
X20950000Y15583334D01*
X21083333Y15583334D01*
X21150000Y15616667D01*
X21183333Y15650000D01*
X21216666Y15716667D01*
X21216666Y15883334D01*
X21183333Y15950000D01*
X21150000Y15983334D01*
X21083333Y16016667D01*
X20950000Y16016667D01*
X20883333Y15983334D01*
X20850000Y15950000D01*
X20816666Y15883334D01*
X21650000Y16283334D02*
X21716666Y16283334D01*
X21783333Y16250000D01*
X21816666Y16216667D01*
X21850000Y16150000D01*
X21883333Y16016667D01*
X21883333Y15850000D01*
X21850000Y15716667D01*
X21816666Y15650000D01*
X21783333Y15616667D01*
X21716666Y15583334D01*
X21650000Y15583334D01*
X21583333Y15616667D01*
X21550000Y15650000D01*
X21516666Y15716667D01*
X21483333Y15850000D01*
X21483333Y16016667D01*
X21516666Y16150000D01*
X21550000Y16216667D01*
X21583333Y16250000D01*
X21650000Y16283334D01*
X20850000Y22166667D02*
X21316666Y22166667D01*
X20583333Y22000000D02*
X21083333Y21833334D01*
X21083333Y22266667D01*
X20616666Y22466667D02*
X20616666Y22933334D01*
X21316666Y22633334D01*
X20616666Y23333334D02*
X20616666Y23400000D01*
X20650000Y23466667D01*
X20683333Y23500000D01*
X20750000Y23533334D01*
X20883333Y23566667D01*
X21050000Y23566667D01*
X21183333Y23533334D01*
X21250000Y23500000D01*
X21283333Y23466667D01*
X21316666Y23400000D01*
X21316666Y23333334D01*
X21283333Y23266667D01*
X21250000Y23233334D01*
X21183333Y23200000D01*
X21050000Y23166667D01*
X20883333Y23166667D01*
X20750000Y23200000D01*
X20683333Y23233334D01*
X20650000Y23266667D01*
X20616666Y23333334D01*
X17550000Y15583334D02*
X17316666Y15916667D01*
X17150000Y15583334D02*
X17150000Y16283334D01*
X17416666Y16283334D01*
X17483333Y16250000D01*
X17516666Y16216667D01*
X17550000Y16150000D01*
X17550000Y16050000D01*
X17516666Y15983334D01*
X17483333Y15950000D01*
X17416666Y15916667D01*
X17150000Y15916667D01*
X18183333Y16283334D02*
X17850000Y16283334D01*
X17816666Y15950000D01*
X17850000Y15983334D01*
X17916666Y16016667D01*
X18083333Y16016667D01*
X18150000Y15983334D01*
X18183333Y15950000D01*
X18216666Y15883334D01*
X18216666Y15716667D01*
X18183333Y15650000D01*
X18150000Y15616667D01*
X18083333Y15583334D01*
X17916666Y15583334D01*
X17850000Y15616667D01*
X17816666Y15650000D01*
X18550000Y15583334D02*
X18683333Y15583334D01*
X18750000Y15616667D01*
X18783333Y15650000D01*
X18850000Y15750000D01*
X18883333Y15883334D01*
X18883333Y16150000D01*
X18850000Y16216667D01*
X18816666Y16250000D01*
X18750000Y16283334D01*
X18616666Y16283334D01*
X18550000Y16250000D01*
X18516666Y16216667D01*
X18483333Y16150000D01*
X18483333Y15983334D01*
X18516666Y15916667D01*
X18550000Y15883334D01*
X18616666Y15850000D01*
X18750000Y15850000D01*
X18816666Y15883334D01*
X18850000Y15916667D01*
X18883333Y15983334D01*
X18316666Y21950000D02*
X18316666Y21550000D01*
X18316666Y21750000D02*
X17616666Y21750000D01*
X17716666Y21683334D01*
X17783333Y21616667D01*
X17816666Y21550000D01*
X17616666Y22383334D02*
X17616666Y22450000D01*
X17650000Y22516667D01*
X17683333Y22550000D01*
X17750000Y22583334D01*
X17883333Y22616667D01*
X18050000Y22616667D01*
X18183333Y22583334D01*
X18250000Y22550000D01*
X18283333Y22516667D01*
X18316666Y22450000D01*
X18316666Y22383334D01*
X18283333Y22316667D01*
X18250000Y22283334D01*
X18183333Y22250000D01*
X18050000Y22216667D01*
X17883333Y22216667D01*
X17750000Y22250000D01*
X17683333Y22283334D01*
X17650000Y22316667D01*
X17616666Y22383334D01*
X17616666Y23050000D02*
X17616666Y23116667D01*
X17650000Y23183334D01*
X17683333Y23216667D01*
X17750000Y23250000D01*
X17883333Y23283334D01*
X18050000Y23283334D01*
X18183333Y23250000D01*
X18250000Y23216667D01*
X18283333Y23183334D01*
X18316666Y23116667D01*
X18316666Y23050000D01*
X18283333Y22983334D01*
X18250000Y22950000D01*
X18183333Y22916667D01*
X18050000Y22883334D01*
X17883333Y22883334D01*
X17750000Y22916667D01*
X17683333Y22950000D01*
X17650000Y22983334D01*
X17616666Y23050000D01*
X18316666Y23583334D02*
X17616666Y23583334D01*
X18050000Y23650000D02*
X18316666Y23850000D01*
X17850000Y23850000D02*
X18116666Y23583334D01*
X15250000Y61983334D02*
X15016666Y62316667D01*
X14850000Y61983334D02*
X14850000Y62683334D01*
X15116666Y62683334D01*
X15183333Y62650000D01*
X15216666Y62616667D01*
X15250000Y62550000D01*
X15250000Y62450000D01*
X15216666Y62383334D01*
X15183333Y62350000D01*
X15116666Y62316667D01*
X14850000Y62316667D01*
X15883333Y62683334D02*
X15550000Y62683334D01*
X15516666Y62350000D01*
X15550000Y62383334D01*
X15616666Y62416667D01*
X15783333Y62416667D01*
X15850000Y62383334D01*
X15883333Y62350000D01*
X15916666Y62283334D01*
X15916666Y62116667D01*
X15883333Y62050000D01*
X15850000Y62016667D01*
X15783333Y61983334D01*
X15616666Y61983334D01*
X15550000Y62016667D01*
X15516666Y62050000D01*
X16150000Y62683334D02*
X16616666Y62683334D01*
X16316666Y61983334D01*
X19883333Y60383334D02*
X19483333Y60383334D01*
X19683333Y60383334D02*
X19683333Y61083334D01*
X19616666Y60983334D01*
X19550000Y60916667D01*
X19483333Y60883334D01*
X20316666Y61083334D02*
X20383333Y61083334D01*
X20450000Y61050000D01*
X20483333Y61016667D01*
X20516666Y60950000D01*
X20550000Y60816667D01*
X20550000Y60650000D01*
X20516666Y60516667D01*
X20483333Y60450000D01*
X20450000Y60416667D01*
X20383333Y60383334D01*
X20316666Y60383334D01*
X20250000Y60416667D01*
X20216666Y60450000D01*
X20183333Y60516667D01*
X20150000Y60650000D01*
X20150000Y60816667D01*
X20183333Y60950000D01*
X20216666Y61016667D01*
X20250000Y61050000D01*
X20316666Y61083334D01*
X20850000Y60383334D02*
X20850000Y61083334D01*
X20916666Y60650000D02*
X21116666Y60383334D01*
X21116666Y60850000D02*
X20850000Y60583334D01*
X6750000Y50183334D02*
X6516666Y50516667D01*
X6350000Y50183334D02*
X6350000Y50883334D01*
X6616666Y50883334D01*
X6683333Y50850000D01*
X6716666Y50816667D01*
X6750000Y50750000D01*
X6750000Y50650000D01*
X6716666Y50583334D01*
X6683333Y50550000D01*
X6616666Y50516667D01*
X6350000Y50516667D01*
X7383333Y50883334D02*
X7050000Y50883334D01*
X7016666Y50550000D01*
X7050000Y50583334D01*
X7116666Y50616667D01*
X7283333Y50616667D01*
X7350000Y50583334D01*
X7383333Y50550000D01*
X7416666Y50483334D01*
X7416666Y50316667D01*
X7383333Y50250000D01*
X7350000Y50216667D01*
X7283333Y50183334D01*
X7116666Y50183334D01*
X7050000Y50216667D01*
X7016666Y50250000D01*
X8016666Y50883334D02*
X7883333Y50883334D01*
X7816666Y50850000D01*
X7783333Y50816667D01*
X7716666Y50716667D01*
X7683333Y50583334D01*
X7683333Y50316667D01*
X7716666Y50250000D01*
X7750000Y50216667D01*
X7816666Y50183334D01*
X7950000Y50183334D01*
X8016666Y50216667D01*
X8050000Y50250000D01*
X8083333Y50316667D01*
X8083333Y50483334D01*
X8050000Y50550000D01*
X8016666Y50583334D01*
X7950000Y50616667D01*
X7816666Y50616667D01*
X7750000Y50583334D01*
X7716666Y50550000D01*
X7683333Y50483334D01*
X6450000Y52283334D02*
X6050000Y52283334D01*
X6250000Y52283334D02*
X6250000Y52983334D01*
X6183333Y52883334D01*
X6116666Y52816667D01*
X6050000Y52783334D01*
X6883333Y52983334D02*
X6950000Y52983334D01*
X7016666Y52950000D01*
X7050000Y52916667D01*
X7083333Y52850000D01*
X7116666Y52716667D01*
X7116666Y52550000D01*
X7083333Y52416667D01*
X7050000Y52350000D01*
X7016666Y52316667D01*
X6950000Y52283334D01*
X6883333Y52283334D01*
X6816666Y52316667D01*
X6783333Y52350000D01*
X6750000Y52416667D01*
X6716666Y52550000D01*
X6716666Y52716667D01*
X6750000Y52850000D01*
X6783333Y52916667D01*
X6816666Y52950000D01*
X6883333Y52983334D01*
X7550000Y52983334D02*
X7616666Y52983334D01*
X7683333Y52950000D01*
X7716666Y52916667D01*
X7750000Y52850000D01*
X7783333Y52716667D01*
X7783333Y52550000D01*
X7750000Y52416667D01*
X7716666Y52350000D01*
X7683333Y52316667D01*
X7616666Y52283334D01*
X7550000Y52283334D01*
X7483333Y52316667D01*
X7450000Y52350000D01*
X7416666Y52416667D01*
X7383333Y52550000D01*
X7383333Y52716667D01*
X7416666Y52850000D01*
X7450000Y52916667D01*
X7483333Y52950000D01*
X7550000Y52983334D01*
X8083333Y52283334D02*
X8083333Y52983334D01*
X8150000Y52550000D02*
X8350000Y52283334D01*
X8350000Y52750000D02*
X8083333Y52483334D01*
X30350000Y63883334D02*
X30116666Y64216667D01*
X29950000Y63883334D02*
X29950000Y64583334D01*
X30216666Y64583334D01*
X30283333Y64550000D01*
X30316666Y64516667D01*
X30350000Y64450000D01*
X30350000Y64350000D01*
X30316666Y64283334D01*
X30283333Y64250000D01*
X30216666Y64216667D01*
X29950000Y64216667D01*
X30983333Y64583334D02*
X30650000Y64583334D01*
X30616666Y64250000D01*
X30650000Y64283334D01*
X30716666Y64316667D01*
X30883333Y64316667D01*
X30950000Y64283334D01*
X30983333Y64250000D01*
X31016666Y64183334D01*
X31016666Y64016667D01*
X30983333Y63950000D01*
X30950000Y63916667D01*
X30883333Y63883334D01*
X30716666Y63883334D01*
X30650000Y63916667D01*
X30616666Y63950000D01*
X31650000Y64583334D02*
X31316666Y64583334D01*
X31283333Y64250000D01*
X31316666Y64283334D01*
X31383333Y64316667D01*
X31550000Y64316667D01*
X31616666Y64283334D01*
X31650000Y64250000D01*
X31683333Y64183334D01*
X31683333Y64016667D01*
X31650000Y63950000D01*
X31616666Y63916667D01*
X31550000Y63883334D01*
X31383333Y63883334D01*
X31316666Y63916667D01*
X31283333Y63950000D01*
X31516666Y56750000D02*
X31516666Y56350000D01*
X31516666Y56550000D02*
X30816666Y56550000D01*
X30916666Y56483334D01*
X30983333Y56416667D01*
X31016666Y56350000D01*
X30816666Y57183334D02*
X30816666Y57250000D01*
X30850000Y57316667D01*
X30883333Y57350000D01*
X30950000Y57383334D01*
X31083333Y57416667D01*
X31250000Y57416667D01*
X31383333Y57383334D01*
X31450000Y57350000D01*
X31483333Y57316667D01*
X31516666Y57250000D01*
X31516666Y57183334D01*
X31483333Y57116667D01*
X31450000Y57083334D01*
X31383333Y57050000D01*
X31250000Y57016667D01*
X31083333Y57016667D01*
X30950000Y57050000D01*
X30883333Y57083334D01*
X30850000Y57116667D01*
X30816666Y57183334D01*
X30816666Y57850000D02*
X30816666Y57916667D01*
X30850000Y57983334D01*
X30883333Y58016667D01*
X30950000Y58050000D01*
X31083333Y58083334D01*
X31250000Y58083334D01*
X31383333Y58050000D01*
X31450000Y58016667D01*
X31483333Y57983334D01*
X31516666Y57916667D01*
X31516666Y57850000D01*
X31483333Y57783334D01*
X31450000Y57750000D01*
X31383333Y57716667D01*
X31250000Y57683334D01*
X31083333Y57683334D01*
X30950000Y57716667D01*
X30883333Y57750000D01*
X30850000Y57783334D01*
X30816666Y57850000D01*
X31516666Y58383334D02*
X30816666Y58383334D01*
X31250000Y58450000D02*
X31516666Y58650000D01*
X31050000Y58650000D02*
X31316666Y58383334D01*
X13550000Y42783334D02*
X13316666Y43116667D01*
X13150000Y42783334D02*
X13150000Y43483334D01*
X13416666Y43483334D01*
X13483333Y43450000D01*
X13516666Y43416667D01*
X13550000Y43350000D01*
X13550000Y43250000D01*
X13516666Y43183334D01*
X13483333Y43150000D01*
X13416666Y43116667D01*
X13150000Y43116667D01*
X14183333Y43483334D02*
X13850000Y43483334D01*
X13816666Y43150000D01*
X13850000Y43183334D01*
X13916666Y43216667D01*
X14083333Y43216667D01*
X14150000Y43183334D01*
X14183333Y43150000D01*
X14216666Y43083334D01*
X14216666Y42916667D01*
X14183333Y42850000D01*
X14150000Y42816667D01*
X14083333Y42783334D01*
X13916666Y42783334D01*
X13850000Y42816667D01*
X13816666Y42850000D01*
X14450000Y43483334D02*
X14883333Y43483334D01*
X14650000Y43216667D01*
X14750000Y43216667D01*
X14816666Y43183334D01*
X14850000Y43150000D01*
X14883333Y43083334D01*
X14883333Y42916667D01*
X14850000Y42850000D01*
X14816666Y42816667D01*
X14750000Y42783334D01*
X14550000Y42783334D01*
X14483333Y42816667D01*
X14450000Y42850000D01*
X16816666Y41650000D02*
X16816666Y41250000D01*
X16816666Y41450000D02*
X16116666Y41450000D01*
X16216666Y41383334D01*
X16283333Y41316667D01*
X16316666Y41250000D01*
X16116666Y42083334D02*
X16116666Y42150000D01*
X16150000Y42216667D01*
X16183333Y42250000D01*
X16250000Y42283334D01*
X16383333Y42316667D01*
X16550000Y42316667D01*
X16683333Y42283334D01*
X16750000Y42250000D01*
X16783333Y42216667D01*
X16816666Y42150000D01*
X16816666Y42083334D01*
X16783333Y42016667D01*
X16750000Y41983334D01*
X16683333Y41950000D01*
X16550000Y41916667D01*
X16383333Y41916667D01*
X16250000Y41950000D01*
X16183333Y41983334D01*
X16150000Y42016667D01*
X16116666Y42083334D01*
X16116666Y42750000D02*
X16116666Y42816667D01*
X16150000Y42883334D01*
X16183333Y42916667D01*
X16250000Y42950000D01*
X16383333Y42983334D01*
X16550000Y42983334D01*
X16683333Y42950000D01*
X16750000Y42916667D01*
X16783333Y42883334D01*
X16816666Y42816667D01*
X16816666Y42750000D01*
X16783333Y42683334D01*
X16750000Y42650000D01*
X16683333Y42616667D01*
X16550000Y42583334D01*
X16383333Y42583334D01*
X16250000Y42616667D01*
X16183333Y42650000D01*
X16150000Y42683334D01*
X16116666Y42750000D01*
X16816666Y43283334D02*
X16116666Y43283334D01*
X16550000Y43350000D02*
X16816666Y43550000D01*
X16350000Y43550000D02*
X16616666Y43283334D01*
X21550000Y42783334D02*
X21316666Y43116667D01*
X21150000Y42783334D02*
X21150000Y43483334D01*
X21416666Y43483334D01*
X21483333Y43450000D01*
X21516666Y43416667D01*
X21550000Y43350000D01*
X21550000Y43250000D01*
X21516666Y43183334D01*
X21483333Y43150000D01*
X21416666Y43116667D01*
X21150000Y43116667D01*
X22183333Y43483334D02*
X21850000Y43483334D01*
X21816666Y43150000D01*
X21850000Y43183334D01*
X21916666Y43216667D01*
X22083333Y43216667D01*
X22150000Y43183334D01*
X22183333Y43150000D01*
X22216666Y43083334D01*
X22216666Y42916667D01*
X22183333Y42850000D01*
X22150000Y42816667D01*
X22083333Y42783334D01*
X21916666Y42783334D01*
X21850000Y42816667D01*
X21816666Y42850000D01*
X22483333Y43416667D02*
X22516666Y43450000D01*
X22583333Y43483334D01*
X22750000Y43483334D01*
X22816666Y43450000D01*
X22850000Y43416667D01*
X22883333Y43350000D01*
X22883333Y43283334D01*
X22850000Y43183334D01*
X22450000Y42783334D01*
X22883333Y42783334D01*
X19816666Y41650000D02*
X19816666Y41250000D01*
X19816666Y41450000D02*
X19116666Y41450000D01*
X19216666Y41383334D01*
X19283333Y41316667D01*
X19316666Y41250000D01*
X19116666Y42083334D02*
X19116666Y42150000D01*
X19150000Y42216667D01*
X19183333Y42250000D01*
X19250000Y42283334D01*
X19383333Y42316667D01*
X19550000Y42316667D01*
X19683333Y42283334D01*
X19750000Y42250000D01*
X19783333Y42216667D01*
X19816666Y42150000D01*
X19816666Y42083334D01*
X19783333Y42016667D01*
X19750000Y41983334D01*
X19683333Y41950000D01*
X19550000Y41916667D01*
X19383333Y41916667D01*
X19250000Y41950000D01*
X19183333Y41983334D01*
X19150000Y42016667D01*
X19116666Y42083334D01*
X19116666Y42750000D02*
X19116666Y42816667D01*
X19150000Y42883334D01*
X19183333Y42916667D01*
X19250000Y42950000D01*
X19383333Y42983334D01*
X19550000Y42983334D01*
X19683333Y42950000D01*
X19750000Y42916667D01*
X19783333Y42883334D01*
X19816666Y42816667D01*
X19816666Y42750000D01*
X19783333Y42683334D01*
X19750000Y42650000D01*
X19683333Y42616667D01*
X19550000Y42583334D01*
X19383333Y42583334D01*
X19250000Y42616667D01*
X19183333Y42650000D01*
X19150000Y42683334D01*
X19116666Y42750000D01*
X19816666Y43283334D02*
X19116666Y43283334D01*
X19550000Y43350000D02*
X19816666Y43550000D01*
X19350000Y43550000D02*
X19616666Y43283334D01*
X22950000Y16183334D02*
X22716666Y16516667D01*
X22550000Y16183334D02*
X22550000Y16883334D01*
X22816666Y16883334D01*
X22883333Y16850000D01*
X22916666Y16816667D01*
X22950000Y16750000D01*
X22950000Y16650000D01*
X22916666Y16583334D01*
X22883333Y16550000D01*
X22816666Y16516667D01*
X22550000Y16516667D01*
X23550000Y16650000D02*
X23550000Y16183334D01*
X23383333Y16916667D02*
X23216666Y16416667D01*
X23650000Y16416667D01*
X24016666Y16583334D02*
X23950000Y16616667D01*
X23916666Y16650000D01*
X23883333Y16716667D01*
X23883333Y16750000D01*
X23916666Y16816667D01*
X23950000Y16850000D01*
X24016666Y16883334D01*
X24150000Y16883334D01*
X24216666Y16850000D01*
X24250000Y16816667D01*
X24283333Y16750000D01*
X24283333Y16716667D01*
X24250000Y16650000D01*
X24216666Y16616667D01*
X24150000Y16583334D01*
X24016666Y16583334D01*
X23950000Y16550000D01*
X23916666Y16516667D01*
X23883333Y16450000D01*
X23883333Y16316667D01*
X23916666Y16250000D01*
X23950000Y16216667D01*
X24016666Y16183334D01*
X24150000Y16183334D01*
X24216666Y16216667D01*
X24250000Y16250000D01*
X24283333Y16316667D01*
X24283333Y16450000D01*
X24250000Y16516667D01*
X24216666Y16550000D01*
X24150000Y16583334D01*
X24316666Y22750000D02*
X24316666Y22350000D01*
X24316666Y22550000D02*
X23616666Y22550000D01*
X23716666Y22483334D01*
X23783333Y22416667D01*
X23816666Y22350000D01*
X23616666Y23183334D02*
X23616666Y23250000D01*
X23650000Y23316667D01*
X23683333Y23350000D01*
X23750000Y23383334D01*
X23883333Y23416667D01*
X24050000Y23416667D01*
X24183333Y23383334D01*
X24250000Y23350000D01*
X24283333Y23316667D01*
X24316666Y23250000D01*
X24316666Y23183334D01*
X24283333Y23116667D01*
X24250000Y23083334D01*
X24183333Y23050000D01*
X24050000Y23016667D01*
X23883333Y23016667D01*
X23750000Y23050000D01*
X23683333Y23083334D01*
X23650000Y23116667D01*
X23616666Y23183334D01*
X23616666Y23850000D02*
X23616666Y23916667D01*
X23650000Y23983334D01*
X23683333Y24016667D01*
X23750000Y24050000D01*
X23883333Y24083334D01*
X24050000Y24083334D01*
X24183333Y24050000D01*
X24250000Y24016667D01*
X24283333Y23983334D01*
X24316666Y23916667D01*
X24316666Y23850000D01*
X24283333Y23783334D01*
X24250000Y23750000D01*
X24183333Y23716667D01*
X24050000Y23683334D01*
X23883333Y23683334D01*
X23750000Y23716667D01*
X23683333Y23750000D01*
X23650000Y23783334D01*
X23616666Y23850000D01*
X24316666Y24383334D02*
X23616666Y24383334D01*
X24050000Y24450000D02*
X24316666Y24650000D01*
X23850000Y24650000D02*
X24116666Y24383334D01*
X14950000Y16383334D02*
X14716666Y16716667D01*
X14550000Y16383334D02*
X14550000Y17083334D01*
X14816666Y17083334D01*
X14883333Y17050000D01*
X14916666Y17016667D01*
X14950000Y16950000D01*
X14950000Y16850000D01*
X14916666Y16783334D01*
X14883333Y16750000D01*
X14816666Y16716667D01*
X14550000Y16716667D01*
X15183333Y17083334D02*
X15616666Y17083334D01*
X15383333Y16816667D01*
X15483333Y16816667D01*
X15550000Y16783334D01*
X15583333Y16750000D01*
X15616666Y16683334D01*
X15616666Y16516667D01*
X15583333Y16450000D01*
X15550000Y16416667D01*
X15483333Y16383334D01*
X15283333Y16383334D01*
X15216666Y16416667D01*
X15183333Y16450000D01*
X16016666Y16783334D02*
X15950000Y16816667D01*
X15916666Y16850000D01*
X15883333Y16916667D01*
X15883333Y16950000D01*
X15916666Y17016667D01*
X15950000Y17050000D01*
X16016666Y17083334D01*
X16150000Y17083334D01*
X16216666Y17050000D01*
X16250000Y17016667D01*
X16283333Y16950000D01*
X16283333Y16916667D01*
X16250000Y16850000D01*
X16216666Y16816667D01*
X16150000Y16783334D01*
X16016666Y16783334D01*
X15950000Y16750000D01*
X15916666Y16716667D01*
X15883333Y16650000D01*
X15883333Y16516667D01*
X15916666Y16450000D01*
X15950000Y16416667D01*
X16016666Y16383334D01*
X16150000Y16383334D01*
X16216666Y16416667D01*
X16250000Y16450000D01*
X16283333Y16516667D01*
X16283333Y16650000D01*
X16250000Y16716667D01*
X16216666Y16750000D01*
X16150000Y16783334D01*
X15316666Y22850000D02*
X15316666Y22450000D01*
X15316666Y22650000D02*
X14616666Y22650000D01*
X14716666Y22583334D01*
X14783333Y22516667D01*
X14816666Y22450000D01*
X14616666Y23283334D02*
X14616666Y23350000D01*
X14650000Y23416667D01*
X14683333Y23450000D01*
X14750000Y23483334D01*
X14883333Y23516667D01*
X15050000Y23516667D01*
X15183333Y23483334D01*
X15250000Y23450000D01*
X15283333Y23416667D01*
X15316666Y23350000D01*
X15316666Y23283334D01*
X15283333Y23216667D01*
X15250000Y23183334D01*
X15183333Y23150000D01*
X15050000Y23116667D01*
X14883333Y23116667D01*
X14750000Y23150000D01*
X14683333Y23183334D01*
X14650000Y23216667D01*
X14616666Y23283334D01*
X14616666Y23950000D02*
X14616666Y24016667D01*
X14650000Y24083334D01*
X14683333Y24116667D01*
X14750000Y24150000D01*
X14883333Y24183334D01*
X15050000Y24183334D01*
X15183333Y24150000D01*
X15250000Y24116667D01*
X15283333Y24083334D01*
X15316666Y24016667D01*
X15316666Y23950000D01*
X15283333Y23883334D01*
X15250000Y23850000D01*
X15183333Y23816667D01*
X15050000Y23783334D01*
X14883333Y23783334D01*
X14750000Y23816667D01*
X14683333Y23850000D01*
X14650000Y23883334D01*
X14616666Y23950000D01*
X15316666Y24483334D02*
X14616666Y24483334D01*
X15050000Y24550000D02*
X15316666Y24750000D01*
X14850000Y24750000D02*
X15116666Y24483334D01*
X27883333Y63883334D02*
X27650000Y64216667D01*
X27483333Y63883334D02*
X27483333Y64583334D01*
X27750000Y64583334D01*
X27816666Y64550000D01*
X27850000Y64516667D01*
X27883333Y64450000D01*
X27883333Y64350000D01*
X27850000Y64283334D01*
X27816666Y64250000D01*
X27750000Y64216667D01*
X27483333Y64216667D01*
X28483333Y64583334D02*
X28350000Y64583334D01*
X28283333Y64550000D01*
X28250000Y64516667D01*
X28183333Y64416667D01*
X28150000Y64283334D01*
X28150000Y64016667D01*
X28183333Y63950000D01*
X28216666Y63916667D01*
X28283333Y63883334D01*
X28416666Y63883334D01*
X28483333Y63916667D01*
X28516666Y63950000D01*
X28550000Y64016667D01*
X28550000Y64183334D01*
X28516666Y64250000D01*
X28483333Y64283334D01*
X28416666Y64316667D01*
X28283333Y64316667D01*
X28216666Y64283334D01*
X28183333Y64250000D01*
X28150000Y64183334D01*
X28416666Y57083334D02*
X28416666Y56683334D01*
X28416666Y56883334D02*
X27716666Y56883334D01*
X27816666Y56816667D01*
X27883333Y56750000D01*
X27916666Y56683334D01*
X27716666Y57516667D02*
X27716666Y57583334D01*
X27750000Y57650000D01*
X27783333Y57683334D01*
X27850000Y57716667D01*
X27983333Y57750000D01*
X28150000Y57750000D01*
X28283333Y57716667D01*
X28350000Y57683334D01*
X28383333Y57650000D01*
X28416666Y57583334D01*
X28416666Y57516667D01*
X28383333Y57450000D01*
X28350000Y57416667D01*
X28283333Y57383334D01*
X28150000Y57350000D01*
X27983333Y57350000D01*
X27850000Y57383334D01*
X27783333Y57416667D01*
X27750000Y57450000D01*
X27716666Y57516667D01*
X28416666Y58050000D02*
X27716666Y58050000D01*
X28150000Y58116667D02*
X28416666Y58316667D01*
X27950000Y58316667D02*
X28216666Y58050000D01*
X6983333Y57283334D02*
X6750000Y57616667D01*
X6583333Y57283334D02*
X6583333Y57983334D01*
X6850000Y57983334D01*
X6916666Y57950000D01*
X6950000Y57916667D01*
X6983333Y57850000D01*
X6983333Y57750000D01*
X6950000Y57683334D01*
X6916666Y57650000D01*
X6850000Y57616667D01*
X6583333Y57616667D01*
X7616666Y57983334D02*
X7283333Y57983334D01*
X7250000Y57650000D01*
X7283333Y57683334D01*
X7350000Y57716667D01*
X7516666Y57716667D01*
X7583333Y57683334D01*
X7616666Y57650000D01*
X7650000Y57583334D01*
X7650000Y57416667D01*
X7616666Y57350000D01*
X7583333Y57316667D01*
X7516666Y57283334D01*
X7350000Y57283334D01*
X7283333Y57316667D01*
X7250000Y57350000D01*
X6783333Y55383334D02*
X6383333Y55383334D01*
X6583333Y55383334D02*
X6583333Y56083334D01*
X6516666Y55983334D01*
X6450000Y55916667D01*
X6383333Y55883334D01*
X7216666Y56083334D02*
X7283333Y56083334D01*
X7350000Y56050000D01*
X7383333Y56016667D01*
X7416666Y55950000D01*
X7450000Y55816667D01*
X7450000Y55650000D01*
X7416666Y55516667D01*
X7383333Y55450000D01*
X7350000Y55416667D01*
X7283333Y55383334D01*
X7216666Y55383334D01*
X7150000Y55416667D01*
X7116666Y55450000D01*
X7083333Y55516667D01*
X7050000Y55650000D01*
X7050000Y55816667D01*
X7083333Y55950000D01*
X7116666Y56016667D01*
X7150000Y56050000D01*
X7216666Y56083334D01*
X7750000Y55383334D02*
X7750000Y56083334D01*
X7816666Y55650000D02*
X8016666Y55383334D01*
X8016666Y55850000D02*
X7750000Y55583334D01*
X25450000Y50983334D02*
X25216666Y51316667D01*
X25050000Y50983334D02*
X25050000Y51683334D01*
X25316666Y51683334D01*
X25383333Y51650000D01*
X25416666Y51616667D01*
X25450000Y51550000D01*
X25450000Y51450000D01*
X25416666Y51383334D01*
X25383333Y51350000D01*
X25316666Y51316667D01*
X25050000Y51316667D01*
X26083333Y51683334D02*
X25750000Y51683334D01*
X25716666Y51350000D01*
X25750000Y51383334D01*
X25816666Y51416667D01*
X25983333Y51416667D01*
X26050000Y51383334D01*
X26083333Y51350000D01*
X26116666Y51283334D01*
X26116666Y51116667D01*
X26083333Y51050000D01*
X26050000Y51016667D01*
X25983333Y50983334D01*
X25816666Y50983334D01*
X25750000Y51016667D01*
X25716666Y51050000D01*
X26716666Y51450000D02*
X26716666Y50983334D01*
X26550000Y51716667D02*
X26383333Y51216667D01*
X26816666Y51216667D01*
X27850000Y48983334D02*
X27450000Y48983334D01*
X27650000Y48983334D02*
X27650000Y49683334D01*
X27583333Y49583334D01*
X27516666Y49516667D01*
X27450000Y49483334D01*
X28283333Y49683334D02*
X28350000Y49683334D01*
X28416666Y49650000D01*
X28450000Y49616667D01*
X28483333Y49550000D01*
X28516666Y49416667D01*
X28516666Y49250000D01*
X28483333Y49116667D01*
X28450000Y49050000D01*
X28416666Y49016667D01*
X28350000Y48983334D01*
X28283333Y48983334D01*
X28216666Y49016667D01*
X28183333Y49050000D01*
X28150000Y49116667D01*
X28116666Y49250000D01*
X28116666Y49416667D01*
X28150000Y49550000D01*
X28183333Y49616667D01*
X28216666Y49650000D01*
X28283333Y49683334D01*
X28950000Y49683334D02*
X29016666Y49683334D01*
X29083333Y49650000D01*
X29116666Y49616667D01*
X29150000Y49550000D01*
X29183333Y49416667D01*
X29183333Y49250000D01*
X29150000Y49116667D01*
X29116666Y49050000D01*
X29083333Y49016667D01*
X29016666Y48983334D01*
X28950000Y48983334D01*
X28883333Y49016667D01*
X28850000Y49050000D01*
X28816666Y49116667D01*
X28783333Y49250000D01*
X28783333Y49416667D01*
X28816666Y49550000D01*
X28850000Y49616667D01*
X28883333Y49650000D01*
X28950000Y49683334D01*
X29483333Y48983334D02*
X29483333Y49683334D01*
X29550000Y49250000D02*
X29750000Y48983334D01*
X29750000Y49450000D02*
X29483333Y49183334D01*
X32283333Y67883334D02*
X32050000Y68216667D01*
X31883333Y67883334D02*
X31883333Y68583334D01*
X32150000Y68583334D01*
X32216666Y68550000D01*
X32250000Y68516667D01*
X32283333Y68450000D01*
X32283333Y68350000D01*
X32250000Y68283334D01*
X32216666Y68250000D01*
X32150000Y68216667D01*
X31883333Y68216667D01*
X32883333Y68350000D02*
X32883333Y67883334D01*
X32716666Y68616667D02*
X32550000Y68116667D01*
X32983333Y68116667D01*
X34416666Y71883334D02*
X34416666Y71483334D01*
X34416666Y71683334D02*
X33716666Y71683334D01*
X33816666Y71616667D01*
X33883333Y71550000D01*
X33916666Y71483334D01*
X33716666Y72316667D02*
X33716666Y72383334D01*
X33750000Y72450000D01*
X33783333Y72483334D01*
X33850000Y72516667D01*
X33983333Y72550000D01*
X34150000Y72550000D01*
X34283333Y72516667D01*
X34350000Y72483334D01*
X34383333Y72450000D01*
X34416666Y72383334D01*
X34416666Y72316667D01*
X34383333Y72250000D01*
X34350000Y72216667D01*
X34283333Y72183334D01*
X34150000Y72150000D01*
X33983333Y72150000D01*
X33850000Y72183334D01*
X33783333Y72216667D01*
X33750000Y72250000D01*
X33716666Y72316667D01*
X34416666Y72850000D02*
X33716666Y72850000D01*
X34150000Y72916667D02*
X34416666Y73116667D01*
X33950000Y73116667D02*
X34216666Y72850000D01*
X14383333Y78983334D02*
X14150000Y79316667D01*
X13983333Y78983334D02*
X13983333Y79683334D01*
X14250000Y79683334D01*
X14316666Y79650000D01*
X14350000Y79616667D01*
X14383333Y79550000D01*
X14383333Y79450000D01*
X14350000Y79383334D01*
X14316666Y79350000D01*
X14250000Y79316667D01*
X13983333Y79316667D01*
X14616666Y79683334D02*
X15050000Y79683334D01*
X14816666Y79416667D01*
X14916666Y79416667D01*
X14983333Y79383334D01*
X15016666Y79350000D01*
X15050000Y79283334D01*
X15050000Y79116667D01*
X15016666Y79050000D01*
X14983333Y79016667D01*
X14916666Y78983334D01*
X14716666Y78983334D01*
X14650000Y79016667D01*
X14616666Y79050000D01*
X11383333Y76983334D02*
X10983333Y76983334D01*
X11183333Y76983334D02*
X11183333Y77683334D01*
X11116666Y77583334D01*
X11050000Y77516667D01*
X10983333Y77483334D01*
X11816666Y77683334D02*
X11883333Y77683334D01*
X11950000Y77650000D01*
X11983333Y77616667D01*
X12016666Y77550000D01*
X12050000Y77416667D01*
X12050000Y77250000D01*
X12016666Y77116667D01*
X11983333Y77050000D01*
X11950000Y77016667D01*
X11883333Y76983334D01*
X11816666Y76983334D01*
X11750000Y77016667D01*
X11716666Y77050000D01*
X11683333Y77116667D01*
X11650000Y77250000D01*
X11650000Y77416667D01*
X11683333Y77550000D01*
X11716666Y77616667D01*
X11750000Y77650000D01*
X11816666Y77683334D01*
X12350000Y76983334D02*
X12350000Y77683334D01*
X12416666Y77250000D02*
X12616666Y76983334D01*
X12616666Y77450000D02*
X12350000Y77183334D01*
X2250000Y66783334D02*
X2483333Y66083334D01*
X2716666Y66783334D01*
X2950000Y66083334D02*
X2950000Y66783334D01*
X3116666Y66783334D01*
X3216666Y66750000D01*
X3283333Y66683334D01*
X3316666Y66616667D01*
X3350000Y66483334D01*
X3350000Y66383334D01*
X3316666Y66250000D01*
X3283333Y66183334D01*
X3216666Y66116667D01*
X3116666Y66083334D01*
X2950000Y66083334D01*
X4016666Y66083334D02*
X3616666Y66083334D01*
X3816666Y66083334D02*
X3816666Y66783334D01*
X3750000Y66683334D01*
X3683333Y66616667D01*
X3616666Y66583334D01*
X4616666Y66783334D02*
X4483333Y66783334D01*
X4416666Y66750000D01*
X4383333Y66716667D01*
X4316666Y66616667D01*
X4283333Y66483334D01*
X4283333Y66216667D01*
X4316666Y66150000D01*
X4350000Y66116667D01*
X4416666Y66083334D01*
X4550000Y66083334D01*
X4616666Y66116667D01*
X4650000Y66150000D01*
X4683333Y66216667D01*
X4683333Y66383334D01*
X4650000Y66450000D01*
X4616666Y66483334D01*
X4550000Y66516667D01*
X4416666Y66516667D01*
X4350000Y66483334D01*
X4316666Y66450000D01*
X4283333Y66383334D01*
X2250000Y64483334D02*
X2483333Y63783334D01*
X2716666Y64483334D01*
X2950000Y63783334D02*
X2950000Y64483334D01*
X3116666Y64483334D01*
X3216666Y64450000D01*
X3283333Y64383334D01*
X3316666Y64316667D01*
X3350000Y64183334D01*
X3350000Y64083334D01*
X3316666Y63950000D01*
X3283333Y63883334D01*
X3216666Y63816667D01*
X3116666Y63783334D01*
X2950000Y63783334D01*
X4016666Y63783334D02*
X3616666Y63783334D01*
X3816666Y63783334D02*
X3816666Y64483334D01*
X3750000Y64383334D01*
X3683333Y64316667D01*
X3616666Y64283334D01*
X4650000Y64483334D02*
X4316666Y64483334D01*
X4283333Y64150000D01*
X4316666Y64183334D01*
X4383333Y64216667D01*
X4550000Y64216667D01*
X4616666Y64183334D01*
X4650000Y64150000D01*
X4683333Y64083334D01*
X4683333Y63916667D01*
X4650000Y63850000D01*
X4616666Y63816667D01*
X4550000Y63783334D01*
X4383333Y63783334D01*
X4316666Y63816667D01*
X4283333Y63850000D01*
X12650000Y58783334D02*
X12883333Y58083334D01*
X13116666Y58783334D01*
X13350000Y58083334D02*
X13350000Y58783334D01*
X13516666Y58783334D01*
X13616666Y58750000D01*
X13683333Y58683334D01*
X13716666Y58616667D01*
X13750000Y58483334D01*
X13750000Y58383334D01*
X13716666Y58250000D01*
X13683333Y58183334D01*
X13616666Y58116667D01*
X13516666Y58083334D01*
X13350000Y58083334D01*
X14416666Y58083334D02*
X14016666Y58083334D01*
X14216666Y58083334D02*
X14216666Y58783334D01*
X14150000Y58683334D01*
X14083333Y58616667D01*
X14016666Y58583334D01*
X15016666Y58550000D02*
X15016666Y58083334D01*
X14850000Y58816667D02*
X14683333Y58316667D01*
X15116666Y58316667D01*
X12950000Y57283334D02*
X13183333Y56583334D01*
X13416666Y57283334D01*
X13650000Y56583334D02*
X13650000Y57283334D01*
X13816666Y57283334D01*
X13916666Y57250000D01*
X13983333Y57183334D01*
X14016666Y57116667D01*
X14050000Y56983334D01*
X14050000Y56883334D01*
X14016666Y56750000D01*
X13983333Y56683334D01*
X13916666Y56616667D01*
X13816666Y56583334D01*
X13650000Y56583334D01*
X14716666Y56583334D02*
X14316666Y56583334D01*
X14516666Y56583334D02*
X14516666Y57283334D01*
X14450000Y57183334D01*
X14383333Y57116667D01*
X14316666Y57083334D01*
X14950000Y57283334D02*
X15383333Y57283334D01*
X15150000Y57016667D01*
X15250000Y57016667D01*
X15316666Y56983334D01*
X15350000Y56950000D01*
X15383333Y56883334D01*
X15383333Y56716667D01*
X15350000Y56650000D01*
X15316666Y56616667D01*
X15250000Y56583334D01*
X15050000Y56583334D01*
X14983333Y56616667D01*
X14950000Y56650000D01*
X12750000Y54383334D02*
X12983333Y53683334D01*
X13216666Y54383334D01*
X13450000Y53683334D02*
X13450000Y54383334D01*
X13616666Y54383334D01*
X13716666Y54350000D01*
X13783333Y54283334D01*
X13816666Y54216667D01*
X13850000Y54083334D01*
X13850000Y53983334D01*
X13816666Y53850000D01*
X13783333Y53783334D01*
X13716666Y53716667D01*
X13616666Y53683334D01*
X13450000Y53683334D01*
X14516666Y53683334D02*
X14116666Y53683334D01*
X14316666Y53683334D02*
X14316666Y54383334D01*
X14250000Y54283334D01*
X14183333Y54216667D01*
X14116666Y54183334D01*
X15183333Y53683334D02*
X14783333Y53683334D01*
X14983333Y53683334D02*
X14983333Y54383334D01*
X14916666Y54283334D01*
X14850000Y54216667D01*
X14783333Y54183334D01*
X2250000Y75283334D02*
X2483333Y74583334D01*
X2716666Y75283334D01*
X2950000Y74583334D02*
X2950000Y75283334D01*
X3116666Y75283334D01*
X3216666Y75250000D01*
X3283333Y75183334D01*
X3316666Y75116667D01*
X3350000Y74983334D01*
X3350000Y74883334D01*
X3316666Y74750000D01*
X3283333Y74683334D01*
X3216666Y74616667D01*
X3116666Y74583334D01*
X2950000Y74583334D01*
X4016666Y74583334D02*
X3616666Y74583334D01*
X3816666Y74583334D02*
X3816666Y75283334D01*
X3750000Y75183334D01*
X3683333Y75116667D01*
X3616666Y75083334D01*
X4450000Y75283334D02*
X4516666Y75283334D01*
X4583333Y75250000D01*
X4616666Y75216667D01*
X4650000Y75150000D01*
X4683333Y75016667D01*
X4683333Y74850000D01*
X4650000Y74716667D01*
X4616666Y74650000D01*
X4583333Y74616667D01*
X4516666Y74583334D01*
X4450000Y74583334D01*
X4383333Y74616667D01*
X4350000Y74650000D01*
X4316666Y74716667D01*
X4283333Y74850000D01*
X4283333Y75016667D01*
X4316666Y75150000D01*
X4350000Y75216667D01*
X4383333Y75250000D01*
X4450000Y75283334D01*
X2983333Y72983334D02*
X3216666Y72283334D01*
X3450000Y72983334D01*
X3683333Y72283334D02*
X3683333Y72983334D01*
X3850000Y72983334D01*
X3950000Y72950000D01*
X4016666Y72883334D01*
X4050000Y72816667D01*
X4083333Y72683334D01*
X4083333Y72583334D01*
X4050000Y72450000D01*
X4016666Y72383334D01*
X3950000Y72316667D01*
X3850000Y72283334D01*
X3683333Y72283334D01*
X4416666Y72283334D02*
X4550000Y72283334D01*
X4616666Y72316667D01*
X4650000Y72350000D01*
X4716666Y72450000D01*
X4750000Y72583334D01*
X4750000Y72850000D01*
X4716666Y72916667D01*
X4683333Y72950000D01*
X4616666Y72983334D01*
X4483333Y72983334D01*
X4416666Y72950000D01*
X4383333Y72916667D01*
X4350000Y72850000D01*
X4350000Y72683334D01*
X4383333Y72616667D01*
X4416666Y72583334D01*
X4483333Y72550000D01*
X4616666Y72550000D01*
X4683333Y72583334D01*
X4716666Y72616667D01*
X4750000Y72683334D01*
X2983333Y68783334D02*
X3216666Y68083334D01*
X3450000Y68783334D01*
X3683333Y68083334D02*
X3683333Y68783334D01*
X3850000Y68783334D01*
X3950000Y68750000D01*
X4016666Y68683334D01*
X4050000Y68616667D01*
X4083333Y68483334D01*
X4083333Y68383334D01*
X4050000Y68250000D01*
X4016666Y68183334D01*
X3950000Y68116667D01*
X3850000Y68083334D01*
X3683333Y68083334D01*
X4483333Y68483334D02*
X4416666Y68516667D01*
X4383333Y68550000D01*
X4350000Y68616667D01*
X4350000Y68650000D01*
X4383333Y68716667D01*
X4416666Y68750000D01*
X4483333Y68783334D01*
X4616666Y68783334D01*
X4683333Y68750000D01*
X4716666Y68716667D01*
X4750000Y68650000D01*
X4750000Y68616667D01*
X4716666Y68550000D01*
X4683333Y68516667D01*
X4616666Y68483334D01*
X4483333Y68483334D01*
X4416666Y68450000D01*
X4383333Y68416667D01*
X4350000Y68350000D01*
X4350000Y68216667D01*
X4383333Y68150000D01*
X4416666Y68116667D01*
X4483333Y68083334D01*
X4616666Y68083334D01*
X4683333Y68116667D01*
X4716666Y68150000D01*
X4750000Y68216667D01*
X4750000Y68350000D01*
X4716666Y68416667D01*
X4683333Y68450000D01*
X4616666Y68483334D01*
X3083333Y70883334D02*
X3316666Y70183334D01*
X3550000Y70883334D01*
X3783333Y70183334D02*
X3783333Y70883334D01*
X3950000Y70883334D01*
X4050000Y70850000D01*
X4116666Y70783334D01*
X4150000Y70716667D01*
X4183333Y70583334D01*
X4183333Y70483334D01*
X4150000Y70350000D01*
X4116666Y70283334D01*
X4050000Y70216667D01*
X3950000Y70183334D01*
X3783333Y70183334D01*
X4416666Y70883334D02*
X4883333Y70883334D01*
X4583333Y70183334D01*
X15083333Y65483334D02*
X15316666Y64783334D01*
X15550000Y65483334D01*
X15783333Y64783334D02*
X15783333Y65483334D01*
X15950000Y65483334D01*
X16050000Y65450000D01*
X16116666Y65383334D01*
X16150000Y65316667D01*
X16183333Y65183334D01*
X16183333Y65083334D01*
X16150000Y64950000D01*
X16116666Y64883334D01*
X16050000Y64816667D01*
X15950000Y64783334D01*
X15783333Y64783334D01*
X16783333Y65483334D02*
X16650000Y65483334D01*
X16583333Y65450000D01*
X16550000Y65416667D01*
X16483333Y65316667D01*
X16450000Y65183334D01*
X16450000Y64916667D01*
X16483333Y64850000D01*
X16516666Y64816667D01*
X16583333Y64783334D01*
X16716666Y64783334D01*
X16783333Y64816667D01*
X16816666Y64850000D01*
X16850000Y64916667D01*
X16850000Y65083334D01*
X16816666Y65150000D01*
X16783333Y65183334D01*
X16716666Y65216667D01*
X16583333Y65216667D01*
X16516666Y65183334D01*
X16483333Y65150000D01*
X16450000Y65083334D01*
X19583333Y67883334D02*
X19816666Y67183334D01*
X20050000Y67883334D01*
X20283333Y67183334D02*
X20283333Y67883334D01*
X20450000Y67883334D01*
X20550000Y67850000D01*
X20616666Y67783334D01*
X20650000Y67716667D01*
X20683333Y67583334D01*
X20683333Y67483334D01*
X20650000Y67350000D01*
X20616666Y67283334D01*
X20550000Y67216667D01*
X20450000Y67183334D01*
X20283333Y67183334D01*
X21316666Y67883334D02*
X20983333Y67883334D01*
X20950000Y67550000D01*
X20983333Y67583334D01*
X21050000Y67616667D01*
X21216666Y67616667D01*
X21283333Y67583334D01*
X21316666Y67550000D01*
X21350000Y67483334D01*
X21350000Y67316667D01*
X21316666Y67250000D01*
X21283333Y67216667D01*
X21216666Y67183334D01*
X21050000Y67183334D01*
X20983333Y67216667D01*
X20950000Y67250000D01*
X15283333Y63683334D02*
X15516666Y62983334D01*
X15750000Y63683334D01*
X15983333Y62983334D02*
X15983333Y63683334D01*
X16150000Y63683334D01*
X16250000Y63650000D01*
X16316666Y63583334D01*
X16350000Y63516667D01*
X16383333Y63383334D01*
X16383333Y63283334D01*
X16350000Y63150000D01*
X16316666Y63083334D01*
X16250000Y63016667D01*
X16150000Y62983334D01*
X15983333Y62983334D01*
X16983333Y63450000D02*
X16983333Y62983334D01*
X16816666Y63716667D02*
X16650000Y63216667D01*
X17083333Y63216667D01*
X15083333Y66483334D02*
X15316666Y65783334D01*
X15550000Y66483334D01*
X15783333Y65783334D02*
X15783333Y66483334D01*
X15950000Y66483334D01*
X16050000Y66450000D01*
X16116666Y66383334D01*
X16150000Y66316667D01*
X16183333Y66183334D01*
X16183333Y66083334D01*
X16150000Y65950000D01*
X16116666Y65883334D01*
X16050000Y65816667D01*
X15950000Y65783334D01*
X15783333Y65783334D01*
X16416666Y66483334D02*
X16850000Y66483334D01*
X16616666Y66216667D01*
X16716666Y66216667D01*
X16783333Y66183334D01*
X16816666Y66150000D01*
X16850000Y66083334D01*
X16850000Y65916667D01*
X16816666Y65850000D01*
X16783333Y65816667D01*
X16716666Y65783334D01*
X16516666Y65783334D01*
X16450000Y65816667D01*
X16416666Y65850000D01*
M02*
