M48
;DRILL file {KiCad (2016-08-20 BZR 7083)-product} date Thu Jan 26 00:07:03 2017
;FORMAT={3:3/ absolute / metric / suppress leading zeros}
FMAT,2
METRIC,TZ
T1C0.500
T2C0.700
T3C0.800
T4C0.900
T5C1.000
T6C1.100
T7C1.400
T8C3.200
%
G90
G05
M71
T1
X900Y37500
X1100Y62400
X1100Y43800
X1700Y1600
X1800Y38900
X2600Y90800
X2700Y49800
X2700Y39800
X2700Y37500
X2700Y31900
X3200Y66100
X3200Y62400
X3800Y58400
X3900Y56700
X4400Y69400
X4500Y50600
X4500Y39800
X4500Y37900
X4500Y31900
X4900Y77100
X5300Y26500
X5700Y62400
X5800Y79700
X5800Y9400
X5900Y58000
X6300Y38900
X6400Y41500
X7400Y39700
X7500Y103800
X7900Y71200
X7900Y65500
X8100Y56600
X8400Y37500
X9100Y62900
X9400Y29100
X9500Y51800
X9600Y76200
X9700Y61400
X10000Y43500
X10300Y55400
X10500Y70300
X10500Y64000
X10600Y35300
X11000Y74800
X11200Y41900
X11400Y44900
X11400Y40000
X11500Y28100
X11800Y13900
X12300Y80200
X12700Y19000
X12800Y40900
X12800Y39700
X12800Y38100
X13300Y87700
X13300Y57700
X13600Y6700
X13900Y77500
X14200Y42400
X14300Y50900
X14300Y48400
X14300Y35800
X14500Y98900
X14700Y82300
X15000Y71600
X15000Y40900
X15000Y39700
X15300Y46300
X15700Y83400
X15700Y79300
X16100Y73200
X16500Y33300
X16900Y88600
X17300Y79900
X17600Y59300
X17700Y69300
X17900Y9400
X18400Y49600
X19100Y77400
X19100Y53200
X19300Y29900
X19500Y22700
X19700Y105000
X19800Y102500
X20000Y45300
X21400Y58700
X22000Y54800
X22200Y14800
X22800Y32200
X23800Y62900
X25000Y9400
X25400Y30800
X25600Y23700
X25700Y52900
X25900Y47400
X26000Y5700
X26400Y74800
X26500Y99500
X26500Y92100
X26600Y73600
X27000Y34600
X27100Y42600
X27300Y58400
X27300Y30800
X27400Y18700
X27500Y64400
X27500Y29000
X27700Y13800
X28500Y59900
X28600Y43900
X29100Y88100
X29100Y50200
X29200Y40000
X29200Y35000
X29400Y105000
X30100Y24300
X30300Y45600
X30400Y34000
X30800Y54700
X31200Y40100
X32100Y50800
X32200Y85900
X32200Y81400
X32400Y69500
X32700Y26100
X32800Y102000
X32800Y9900
X33300Y39000
X35000Y70000
X35100Y92100
X35300Y63300
X36900Y104400
X36900Y39000
X36900Y4300
X37300Y33500
X37800Y63400
X37800Y58600
T2
X7560Y98300
X12640Y98300
X14760Y91000
X19840Y91000
X32660Y65000
X33930Y62335
X35200Y61065
X36470Y62335
X36700Y52640
X36700Y47560
X37740Y65000
T3
X5900Y74700
X5900Y72600
X5900Y70500
X5900Y68400
X5900Y66300
X5900Y64200
X13500Y74700
X13500Y72600
X13500Y70500
X13500Y68400
X13500Y66300
X13500Y64200
X16200Y58100
X16200Y56000
X16200Y53900
X16200Y51800
X16300Y75200
X16300Y67600
X18300Y65500
X18300Y63300
X18400Y75200
X18400Y67600
X23800Y58100
X23800Y56000
X23800Y53900
X23800Y51800
X25900Y65500
X25900Y63300
X33350Y94750
X34250Y89650
X36750Y94750
X37650Y89650
T4
X2750Y95800
X5250Y95800
X9350Y93700
X10150Y47200
X11250Y32700
X11850Y93700
X12650Y47200
X13750Y32700
X18250Y32700
X20750Y32700
X25250Y32700
X25400Y45650
X25400Y43150
X27750Y32700
X34150Y56900
X36650Y56900
T5
X1500Y86390
X1500Y83850
X1500Y81310
X1500Y78770
X1500Y76230
X1500Y73690
X1500Y71150
X1500Y68610
X1500Y28890
X1500Y26350
X1500Y23810
X1500Y21270
X1500Y18730
X1500Y16190
X1500Y13650
X1500Y11110
X2120Y103800
X2120Y100800
X2200Y60700
X2200Y55700
X2200Y52600
X6800Y77300
X10200Y16900
X12200Y60700
X12200Y55700
X12200Y52600
X12280Y103800
X12280Y100800
X13200Y16900
X15000Y28600
X15000Y18600
X15100Y103680
X15100Y93520
X15300Y60700
X16500Y47400
X16500Y37400
X16800Y77300
X18000Y27700
X18000Y17700
X18100Y103680
X18100Y93520
X18920Y84770
X18920Y82230
X19500Y47400
X19500Y37400
X21000Y27700
X21000Y17700
X21460Y84770
X21460Y82230
X23500Y90000
X23500Y68000
X23600Y49300
X24000Y84770
X24000Y82230
X24000Y28500
X24000Y18500
X25300Y60700
X25800Y16900
X26000Y90000
X26000Y68000
X26540Y84770
X26540Y82230
X28100Y62500
X28100Y52500
X28500Y90000
X28500Y68000
X28800Y16900
X29080Y84770
X29080Y82230
X31200Y62500
X31200Y52500
X33600Y49300
X34100Y77300
X34100Y67300
X37500Y86390
X37500Y83850
X37500Y81310
X37500Y78770
X37500Y76230
X37500Y73690
X37500Y71150
X37500Y68610
X37500Y28890
X37500Y26350
X37500Y23810
X37500Y21270
X37500Y18730
X37500Y16190
X37500Y13650
X37500Y11110
T6
X7500Y43826
X7500Y35698
X7500Y32650
X7500Y28826
X7500Y20698
X7500Y17650
X7500Y13826
X7500Y5698
X7500Y2650
X19500Y13826
X19500Y5698
X19500Y2650
X31500Y43826
X31500Y35698
X31500Y32650
X31500Y28826
X31500Y20698
X31500Y17650
X31500Y13826
X31500Y5698
X31500Y2650
T7
X21000Y97000
X21000Y75000
X31000Y97000
X31000Y75000
T8
X23600Y38600
T4
X9400Y88540G85X8600Y88540
G05
X9400Y86000G85X8600Y86000
G05
X9400Y83460G85X8600Y83460
G05
T0
M30
