G04 #@! TF.GenerationSoftware,KiCad,Pcbnew,(5.0.0-rc2)*
G04 #@! TF.CreationDate,2020-07-08T20:50:26+03:00*
G04 #@! TF.ProjectId,VCAPNL2,564341504E4C322E6B696361645F7063,rev?*
G04 #@! TF.SameCoordinates,PX2e28680PY88601c0*
G04 #@! TF.FileFunction,Copper,L2,Bot,Signal*
G04 #@! TF.FilePolarity,Positive*
%FSLAX46Y46*%
G04 Gerber Fmt 4.6, Leading zero omitted, Abs format (unit mm)*
G04 Created by KiCad (PCBNEW (5.0.0-rc2)) date Wed Jul  8 20:50:26 2020*
%MOMM*%
%LPD*%
G01*
G04 APERTURE LIST*
G04 #@! TA.AperFunction,NonConductor*
%ADD10C,0.254000*%
G04 #@! TD*
G04 APERTURE END LIST*
D10*
G36*
X39723000Y477000D02*
X477000Y477000D01*
X477000Y3068362D01*
X4568380Y3068362D01*
X4568380Y2931638D01*
X4646690Y2437212D01*
X4646690Y2437211D01*
X4688940Y2307179D01*
X4916203Y1861150D01*
X4996567Y1750538D01*
X5350539Y1396567D01*
X5461150Y1316203D01*
X5907179Y1088940D01*
X6037211Y1046690D01*
X6523174Y969721D01*
X6556961Y963000D01*
X8443039Y963000D01*
X8476826Y969721D01*
X8962789Y1046690D01*
X9092821Y1088940D01*
X9538850Y1316203D01*
X9649462Y1396567D01*
X10003433Y1750539D01*
X10083797Y1861150D01*
X10311060Y2307179D01*
X10353310Y2437211D01*
X10353310Y2437212D01*
X10431620Y2931638D01*
X10431620Y3068362D01*
X10353310Y3562789D01*
X10311060Y3692821D01*
X10083797Y4138850D01*
X10003433Y4249461D01*
X10003432Y4249462D01*
X9649462Y4603433D01*
X9538850Y4683797D01*
X9092821Y4911060D01*
X8962789Y4953310D01*
X8476826Y5030279D01*
X8443039Y5037000D01*
X6556961Y5037000D01*
X6523174Y5030279D01*
X6037211Y4953310D01*
X5907179Y4911060D01*
X5461150Y4683797D01*
X5350539Y4603433D01*
X4996567Y4249462D01*
X4937658Y4168380D01*
X4916203Y4138850D01*
X4688940Y3692821D01*
X4646690Y3562789D01*
X4568380Y3068362D01*
X477000Y3068362D01*
X477000Y18948242D01*
X4393361Y18948242D01*
X4473000Y18317839D01*
X4473000Y18278545D01*
X4480142Y18261302D01*
X4496941Y18128328D01*
X4779597Y17351737D01*
X4995962Y17016005D01*
X5025178Y16945470D01*
X5070855Y16899793D01*
X5227281Y16657067D01*
X5817743Y16078844D01*
X6010211Y15960437D01*
X6045470Y15925178D01*
X6112973Y15897218D01*
X6521636Y15645806D01*
X7303976Y15379476D01*
X8125880Y15293090D01*
X8796023Y15373000D01*
X8821455Y15373000D01*
X8831736Y15377259D01*
X8946497Y15390943D01*
X9725042Y15668170D01*
X10083961Y15895948D01*
X10154530Y15925178D01*
X10197099Y15967747D01*
X10422820Y16110994D01*
X11005152Y16697405D01*
X11135737Y16906385D01*
X11174822Y16945470D01*
X11203652Y17015072D01*
X11443093Y17398258D01*
X11714879Y18178720D01*
X11725733Y18275486D01*
X11727000Y18278545D01*
X11727000Y18286782D01*
X11801194Y18948242D01*
X16393361Y18948242D01*
X16473000Y18317839D01*
X16473000Y18278545D01*
X16480142Y18261302D01*
X16496941Y18128328D01*
X16779597Y17351737D01*
X16995962Y17016005D01*
X17025178Y16945470D01*
X17070855Y16899793D01*
X17227281Y16657067D01*
X17817743Y16078844D01*
X18010211Y15960437D01*
X18045470Y15925178D01*
X18112973Y15897218D01*
X18521636Y15645806D01*
X19303976Y15379476D01*
X20125880Y15293090D01*
X20796023Y15373000D01*
X20821455Y15373000D01*
X20831736Y15377259D01*
X20946497Y15390943D01*
X21725042Y15668170D01*
X22083961Y15895948D01*
X22154530Y15925178D01*
X22197099Y15967747D01*
X22422820Y16110994D01*
X23005152Y16697405D01*
X23135737Y16906385D01*
X23174822Y16945470D01*
X23203652Y17015072D01*
X23443093Y17398258D01*
X23714879Y18178720D01*
X23725733Y18275486D01*
X23727000Y18278545D01*
X23727000Y18286782D01*
X23801194Y18948242D01*
X28393361Y18948242D01*
X28473000Y18317839D01*
X28473000Y18278545D01*
X28480142Y18261302D01*
X28496941Y18128328D01*
X28779597Y17351737D01*
X28995962Y17016005D01*
X29025178Y16945470D01*
X29070855Y16899793D01*
X29227281Y16657067D01*
X29817743Y16078844D01*
X30010211Y15960437D01*
X30045470Y15925178D01*
X30112973Y15897218D01*
X30521636Y15645806D01*
X31303976Y15379476D01*
X32125880Y15293090D01*
X32796023Y15373000D01*
X32821455Y15373000D01*
X32831736Y15377259D01*
X32946497Y15390943D01*
X33725042Y15668170D01*
X34083961Y15895948D01*
X34154530Y15925178D01*
X34197099Y15967747D01*
X34422820Y16110994D01*
X35005152Y16697405D01*
X35135737Y16906385D01*
X35174822Y16945470D01*
X35203652Y17015072D01*
X35443093Y17398258D01*
X35714879Y18178720D01*
X35725733Y18275486D01*
X35727000Y18278545D01*
X35727000Y18286782D01*
X35807000Y19000000D01*
X35805555Y19103506D01*
X35727000Y19662453D01*
X35727000Y19721455D01*
X35714449Y19751755D01*
X35690538Y19921893D01*
X35397066Y20694462D01*
X35202942Y20986643D01*
X35174822Y21054530D01*
X35124214Y21105138D01*
X34939727Y21382814D01*
X34341249Y21952736D01*
X34181219Y22048133D01*
X34154530Y22074822D01*
X34095273Y22099367D01*
X33631378Y22375904D01*
X32845396Y22631285D01*
X32022366Y22706187D01*
X31428889Y22627000D01*
X31378545Y22627000D01*
X31354621Y22617091D01*
X31203196Y22596886D01*
X30428597Y22308816D01*
X30115076Y22103654D01*
X30045470Y22074822D01*
X29997101Y22026453D01*
X29737069Y21856293D01*
X29162982Y21261808D01*
X29056295Y21085647D01*
X29025178Y21054530D01*
X28998621Y20990415D01*
X28734869Y20554909D01*
X28474007Y19770729D01*
X28393361Y18948242D01*
X23801194Y18948242D01*
X23807000Y19000000D01*
X23805555Y19103506D01*
X23727000Y19662453D01*
X23727000Y19721455D01*
X23714449Y19751755D01*
X23690538Y19921893D01*
X23397066Y20694462D01*
X23202942Y20986643D01*
X23174822Y21054530D01*
X23124214Y21105138D01*
X22939727Y21382814D01*
X22341249Y21952736D01*
X22181219Y22048133D01*
X22154530Y22074822D01*
X22095273Y22099367D01*
X21631378Y22375904D01*
X20845396Y22631285D01*
X20022366Y22706187D01*
X19428889Y22627000D01*
X19378545Y22627000D01*
X19354621Y22617091D01*
X19203196Y22596886D01*
X18428597Y22308816D01*
X18115076Y22103654D01*
X18045470Y22074822D01*
X17997101Y22026453D01*
X17737069Y21856293D01*
X17162982Y21261808D01*
X17056295Y21085647D01*
X17025178Y21054530D01*
X16998621Y20990415D01*
X16734869Y20554909D01*
X16474007Y19770729D01*
X16393361Y18948242D01*
X11801194Y18948242D01*
X11807000Y19000000D01*
X11805555Y19103506D01*
X11727000Y19662453D01*
X11727000Y19721455D01*
X11714449Y19751755D01*
X11690538Y19921893D01*
X11397066Y20694462D01*
X11202942Y20986643D01*
X11174822Y21054530D01*
X11124214Y21105138D01*
X10939727Y21382814D01*
X10341249Y21952736D01*
X10181219Y22048133D01*
X10154530Y22074822D01*
X10095273Y22099367D01*
X9631378Y22375904D01*
X8845396Y22631285D01*
X8022366Y22706187D01*
X7428889Y22627000D01*
X7378545Y22627000D01*
X7354621Y22617091D01*
X7203196Y22596886D01*
X6428597Y22308816D01*
X6115076Y22103654D01*
X6045470Y22074822D01*
X5997101Y22026453D01*
X5737069Y21856293D01*
X5162982Y21261808D01*
X5056295Y21085647D01*
X5025178Y21054530D01*
X4998621Y20990415D01*
X4734869Y20554909D01*
X4474007Y19770729D01*
X4393361Y18948242D01*
X477000Y18948242D01*
X477000Y33948242D01*
X4393361Y33948242D01*
X4473000Y33317839D01*
X4473000Y33278545D01*
X4480142Y33261302D01*
X4496941Y33128328D01*
X4779597Y32351737D01*
X4995962Y32016005D01*
X5025178Y31945470D01*
X5070855Y31899793D01*
X5227281Y31657067D01*
X5817743Y31078844D01*
X6010211Y30960437D01*
X6045470Y30925178D01*
X6112973Y30897218D01*
X6521636Y30645806D01*
X7303976Y30379476D01*
X8125880Y30293090D01*
X8796023Y30373000D01*
X8821455Y30373000D01*
X8831736Y30377259D01*
X8946497Y30390943D01*
X9725042Y30668170D01*
X10083961Y30895948D01*
X10154530Y30925178D01*
X10197099Y30967747D01*
X10422820Y31110994D01*
X11005152Y31697405D01*
X11135737Y31906385D01*
X11174822Y31945470D01*
X11203652Y32015072D01*
X11443093Y32398258D01*
X11714879Y33178720D01*
X11725733Y33275486D01*
X11727000Y33278545D01*
X11727000Y33286782D01*
X11801194Y33948242D01*
X28393361Y33948242D01*
X28473000Y33317839D01*
X28473000Y33278545D01*
X28480142Y33261302D01*
X28496941Y33128328D01*
X28779597Y32351737D01*
X28995962Y32016005D01*
X29025178Y31945470D01*
X29070855Y31899793D01*
X29227281Y31657067D01*
X29817743Y31078844D01*
X30010211Y30960437D01*
X30045470Y30925178D01*
X30112973Y30897218D01*
X30521636Y30645806D01*
X31303976Y30379476D01*
X32125880Y30293090D01*
X32796023Y30373000D01*
X32821455Y30373000D01*
X32831736Y30377259D01*
X32946497Y30390943D01*
X33725042Y30668170D01*
X34083961Y30895948D01*
X34154530Y30925178D01*
X34197099Y30967747D01*
X34422820Y31110994D01*
X35005152Y31697405D01*
X35135737Y31906385D01*
X35174822Y31945470D01*
X35203652Y32015072D01*
X35443093Y32398258D01*
X35714879Y33178720D01*
X35725733Y33275486D01*
X35727000Y33278545D01*
X35727000Y33286782D01*
X35807000Y34000000D01*
X35805555Y34103506D01*
X35727000Y34662453D01*
X35727000Y34721455D01*
X35714449Y34751755D01*
X35690538Y34921893D01*
X35397066Y35694462D01*
X35202942Y35986643D01*
X35174822Y36054530D01*
X35124214Y36105138D01*
X34939727Y36382814D01*
X34341249Y36952736D01*
X34181219Y37048133D01*
X34154530Y37074822D01*
X34095273Y37099367D01*
X33631378Y37375904D01*
X32845396Y37631285D01*
X32022366Y37706187D01*
X31428889Y37627000D01*
X31378545Y37627000D01*
X31354621Y37617091D01*
X31203196Y37596886D01*
X30428597Y37308816D01*
X30115076Y37103654D01*
X30045470Y37074822D01*
X29997101Y37026453D01*
X29737069Y36856293D01*
X29162982Y36261808D01*
X29056295Y36085647D01*
X29025178Y36054530D01*
X28998621Y35990415D01*
X28734869Y35554909D01*
X28474007Y34770729D01*
X28393361Y33948242D01*
X11801194Y33948242D01*
X11807000Y34000000D01*
X11805555Y34103506D01*
X11727000Y34662453D01*
X11727000Y34721455D01*
X11714449Y34751755D01*
X11690538Y34921893D01*
X11397066Y35694462D01*
X11202942Y35986643D01*
X11174822Y36054530D01*
X11124214Y36105138D01*
X10939727Y36382814D01*
X10341249Y36952736D01*
X10181219Y37048133D01*
X10154530Y37074822D01*
X10095273Y37099367D01*
X9631378Y37375904D01*
X8845396Y37631285D01*
X8022366Y37706187D01*
X7428889Y37627000D01*
X7378545Y37627000D01*
X7354621Y37617091D01*
X7203196Y37596886D01*
X6428597Y37308816D01*
X6115076Y37103654D01*
X6045470Y37074822D01*
X5997101Y37026453D01*
X5737069Y36856293D01*
X5162982Y36261808D01*
X5056295Y36085647D01*
X5025178Y36054530D01*
X4998621Y35990415D01*
X4734869Y35554909D01*
X4474007Y34770729D01*
X4393361Y33948242D01*
X477000Y33948242D01*
X477000Y48948242D01*
X4393361Y48948242D01*
X4473000Y48317839D01*
X4473000Y48278545D01*
X4480142Y48261302D01*
X4496941Y48128328D01*
X4779597Y47351737D01*
X4995962Y47016005D01*
X5025178Y46945470D01*
X5070855Y46899793D01*
X5227281Y46657067D01*
X5817743Y46078844D01*
X6010211Y45960437D01*
X6045470Y45925178D01*
X6112973Y45897218D01*
X6521636Y45645806D01*
X7303976Y45379476D01*
X8125880Y45293090D01*
X8796023Y45373000D01*
X8821455Y45373000D01*
X8831736Y45377259D01*
X8946497Y45390943D01*
X9725042Y45668170D01*
X10083961Y45895948D01*
X10154530Y45925178D01*
X10197099Y45967747D01*
X10422820Y46110994D01*
X11005152Y46697405D01*
X11135737Y46906385D01*
X11174822Y46945470D01*
X11203652Y47015072D01*
X11443093Y47398258D01*
X11714879Y48178720D01*
X11725733Y48275486D01*
X11727000Y48278545D01*
X11727000Y48286782D01*
X11801194Y48948242D01*
X28393361Y48948242D01*
X28473000Y48317839D01*
X28473000Y48278545D01*
X28480142Y48261302D01*
X28496941Y48128328D01*
X28779597Y47351737D01*
X28995962Y47016005D01*
X29025178Y46945470D01*
X29070855Y46899793D01*
X29227281Y46657067D01*
X29817743Y46078844D01*
X30010211Y45960437D01*
X30045470Y45925178D01*
X30112973Y45897218D01*
X30521636Y45645806D01*
X31303976Y45379476D01*
X32125880Y45293090D01*
X32796023Y45373000D01*
X32821455Y45373000D01*
X32831736Y45377259D01*
X32946497Y45390943D01*
X33725042Y45668170D01*
X34083961Y45895948D01*
X34154530Y45925178D01*
X34197099Y45967747D01*
X34422820Y46110994D01*
X35005152Y46697405D01*
X35135737Y46906385D01*
X35174822Y46945470D01*
X35203652Y47015072D01*
X35443093Y47398258D01*
X35714879Y48178720D01*
X35725733Y48275486D01*
X35727000Y48278545D01*
X35727000Y48286782D01*
X35807000Y49000000D01*
X35805555Y49103506D01*
X35727000Y49662453D01*
X35727000Y49721455D01*
X35714449Y49751755D01*
X35690538Y49921893D01*
X35397066Y50694462D01*
X35202942Y50986643D01*
X35174822Y51054530D01*
X35124214Y51105138D01*
X34939727Y51382814D01*
X34341249Y51952736D01*
X34181219Y52048133D01*
X34154530Y52074822D01*
X34095273Y52099367D01*
X33631378Y52375904D01*
X32845396Y52631285D01*
X32022366Y52706187D01*
X31428889Y52627000D01*
X31378545Y52627000D01*
X31354621Y52617091D01*
X31203196Y52596886D01*
X30428597Y52308816D01*
X30115076Y52103654D01*
X30045470Y52074822D01*
X29997101Y52026453D01*
X29737069Y51856293D01*
X29162982Y51261808D01*
X29056295Y51085647D01*
X29025178Y51054530D01*
X28998621Y50990415D01*
X28734869Y50554909D01*
X28474007Y49770729D01*
X28393361Y48948242D01*
X11801194Y48948242D01*
X11807000Y49000000D01*
X11805555Y49103506D01*
X11727000Y49662453D01*
X11727000Y49721455D01*
X11714449Y49751755D01*
X11690538Y49921893D01*
X11397066Y50694462D01*
X11202942Y50986643D01*
X11174822Y51054530D01*
X11124214Y51105138D01*
X10939727Y51382814D01*
X10341249Y51952736D01*
X10181219Y52048133D01*
X10154530Y52074822D01*
X10095273Y52099367D01*
X9631378Y52375904D01*
X8845396Y52631285D01*
X8022366Y52706187D01*
X7428889Y52627000D01*
X7378545Y52627000D01*
X7354621Y52617091D01*
X7203196Y52596886D01*
X6428597Y52308816D01*
X6115076Y52103654D01*
X6045470Y52074822D01*
X5997101Y52026453D01*
X5737069Y51856293D01*
X5162982Y51261808D01*
X5056295Y51085647D01*
X5025178Y51054530D01*
X4998621Y50990415D01*
X4734869Y50554909D01*
X4474007Y49770729D01*
X4393361Y48948242D01*
X477000Y48948242D01*
X477000Y85000000D01*
X22393000Y85000000D01*
X22473000Y84238851D01*
X22473000Y84179089D01*
X22481417Y84158769D01*
X22484933Y84125316D01*
X22756714Y83288859D01*
X23057642Y82767637D01*
X23101298Y82662242D01*
X23141979Y82621561D01*
X23196466Y82527187D01*
X23784968Y81873590D01*
X24168876Y81594664D01*
X24262242Y81501298D01*
X24343988Y81467438D01*
X24496500Y81356631D01*
X25299966Y80998905D01*
X25659757Y80922429D01*
X25779089Y80873000D01*
X25892302Y80873000D01*
X26160249Y80816046D01*
X27039751Y80816046D01*
X27307698Y80873000D01*
X27420911Y80873000D01*
X27540243Y80922429D01*
X27900034Y80998905D01*
X28703500Y81356631D01*
X28856012Y81467438D01*
X28937758Y81501298D01*
X29031124Y81594664D01*
X29415032Y81873590D01*
X30003534Y82527187D01*
X30058021Y82621561D01*
X30098702Y82662242D01*
X30142358Y82767637D01*
X30443286Y83288859D01*
X30715067Y84125316D01*
X30718583Y84158769D01*
X30727000Y84179089D01*
X30727000Y84238851D01*
X30807000Y85000000D01*
X30727000Y85761149D01*
X30727000Y85820911D01*
X30718583Y85841231D01*
X30715067Y85874684D01*
X30443286Y86711141D01*
X30142358Y87232363D01*
X30098702Y87337758D01*
X30058021Y87378439D01*
X30003534Y87472813D01*
X29415032Y88126410D01*
X29031124Y88405336D01*
X28937758Y88498702D01*
X28856012Y88532562D01*
X28703500Y88643369D01*
X27900034Y89001095D01*
X27540243Y89077571D01*
X27420911Y89127000D01*
X27307698Y89127000D01*
X27039751Y89183954D01*
X26160249Y89183954D01*
X25892302Y89127000D01*
X25779089Y89127000D01*
X25659757Y89077571D01*
X25299966Y89001095D01*
X24496500Y88643369D01*
X24343988Y88532562D01*
X24262242Y88498702D01*
X24168876Y88405336D01*
X23784968Y88126410D01*
X23196466Y87472813D01*
X23141979Y87378439D01*
X23101298Y87337758D01*
X23057642Y87232363D01*
X22756714Y86711141D01*
X22484933Y85874684D01*
X22481417Y85841231D01*
X22473000Y85820911D01*
X22473000Y85761149D01*
X22393000Y85000000D01*
X477000Y85000000D01*
X477000Y95948242D01*
X5893361Y95948242D01*
X5973000Y95317839D01*
X5973000Y95278545D01*
X5980142Y95261302D01*
X5996941Y95128328D01*
X6279597Y94351737D01*
X6495962Y94016005D01*
X6525178Y93945470D01*
X6570855Y93899793D01*
X6727281Y93657067D01*
X7317743Y93078844D01*
X7510211Y92960437D01*
X7545470Y92925178D01*
X7612973Y92897218D01*
X8021636Y92645806D01*
X8803976Y92379476D01*
X9625880Y92293090D01*
X10296023Y92373000D01*
X10321455Y92373000D01*
X10331736Y92377259D01*
X10446497Y92390943D01*
X11225042Y92668170D01*
X11583961Y92895948D01*
X11654530Y92925178D01*
X11697099Y92967747D01*
X11922820Y93110994D01*
X12505152Y93697405D01*
X12635737Y93906385D01*
X12674822Y93945470D01*
X12703652Y94015072D01*
X12943093Y94398258D01*
X13214879Y95178720D01*
X13225733Y95275486D01*
X13227000Y95278545D01*
X13227000Y95286782D01*
X13307000Y96000000D01*
X13305555Y96103506D01*
X13227000Y96662453D01*
X13227000Y96721455D01*
X13214449Y96751755D01*
X13190538Y96921893D01*
X12897066Y97694462D01*
X12702942Y97986643D01*
X12674822Y98054530D01*
X12624214Y98105138D01*
X12439727Y98382814D01*
X11841249Y98952736D01*
X11681219Y99048133D01*
X11654530Y99074822D01*
X11595273Y99099367D01*
X11131378Y99375904D01*
X10345396Y99631285D01*
X9522366Y99706187D01*
X8928889Y99627000D01*
X8878545Y99627000D01*
X8854621Y99617091D01*
X8703196Y99596886D01*
X7928597Y99308816D01*
X7615076Y99103654D01*
X7545470Y99074822D01*
X7497101Y99026453D01*
X7237069Y98856293D01*
X6662982Y98261808D01*
X6556295Y98085647D01*
X6525178Y98054530D01*
X6498621Y97990415D01*
X6234869Y97554909D01*
X5974007Y96770729D01*
X5893361Y95948242D01*
X477000Y95948242D01*
X477000Y107000000D01*
X22393000Y107000000D01*
X22473000Y106238851D01*
X22473000Y106179089D01*
X22481417Y106158769D01*
X22484933Y106125316D01*
X22756714Y105288859D01*
X23057642Y104767637D01*
X23101298Y104662242D01*
X23141979Y104621561D01*
X23196466Y104527187D01*
X23784968Y103873590D01*
X24168876Y103594664D01*
X24262242Y103501298D01*
X24343988Y103467438D01*
X24496500Y103356631D01*
X25299966Y102998905D01*
X25659757Y102922429D01*
X25779089Y102873000D01*
X25892302Y102873000D01*
X26160249Y102816046D01*
X27039751Y102816046D01*
X27307698Y102873000D01*
X27420911Y102873000D01*
X27540243Y102922429D01*
X27900034Y102998905D01*
X28703500Y103356631D01*
X28856012Y103467438D01*
X28937758Y103501298D01*
X29031124Y103594664D01*
X29415032Y103873590D01*
X30003534Y104527187D01*
X30058021Y104621561D01*
X30098702Y104662242D01*
X30142358Y104767637D01*
X30443286Y105288859D01*
X30715067Y106125316D01*
X30718583Y106158769D01*
X30727000Y106179089D01*
X30727000Y106238851D01*
X30807000Y107000000D01*
X30727000Y107761149D01*
X30727000Y107820911D01*
X30718583Y107841231D01*
X30715067Y107874684D01*
X30443286Y108711141D01*
X30142358Y109232363D01*
X30098702Y109337758D01*
X30058021Y109378439D01*
X30003534Y109472813D01*
X29415032Y110126410D01*
X29031124Y110405336D01*
X28937758Y110498702D01*
X28856012Y110532562D01*
X28703500Y110643369D01*
X27900034Y111001095D01*
X27540243Y111077571D01*
X27420911Y111127000D01*
X27307698Y111127000D01*
X27039751Y111183954D01*
X26160249Y111183954D01*
X25892302Y111127000D01*
X25779089Y111127000D01*
X25659757Y111077571D01*
X25299966Y111001095D01*
X24496500Y110643369D01*
X24343988Y110532562D01*
X24262242Y110498702D01*
X24168876Y110405336D01*
X23784968Y110126410D01*
X23196466Y109472813D01*
X23141979Y109378439D01*
X23101298Y109337758D01*
X23057642Y109232363D01*
X22756714Y108711141D01*
X22484933Y107874684D01*
X22481417Y107841231D01*
X22473000Y107820911D01*
X22473000Y107761149D01*
X22393000Y107000000D01*
X477000Y107000000D01*
X477000Y125568362D01*
X4568380Y125568362D01*
X4568380Y125431638D01*
X4646690Y124937212D01*
X4646690Y124937211D01*
X4688940Y124807179D01*
X4916203Y124361150D01*
X4996567Y124250538D01*
X5350539Y123896567D01*
X5461150Y123816203D01*
X5907179Y123588940D01*
X6037211Y123546690D01*
X6523174Y123469721D01*
X6556961Y123463000D01*
X8443039Y123463000D01*
X8476826Y123469721D01*
X8962789Y123546690D01*
X9092821Y123588940D01*
X9538850Y123816203D01*
X9649462Y123896567D01*
X10003433Y124250539D01*
X10083797Y124361150D01*
X10311060Y124807179D01*
X10353310Y124937211D01*
X10353310Y124937212D01*
X10431620Y125431638D01*
X10431620Y125568362D01*
X10353310Y126062789D01*
X10311060Y126192821D01*
X10083797Y126638850D01*
X10003433Y126749461D01*
X10003432Y126749462D01*
X9649462Y127103433D01*
X9538850Y127183797D01*
X9092821Y127411060D01*
X8962789Y127453310D01*
X8476826Y127530279D01*
X8443039Y127537000D01*
X6556961Y127537000D01*
X6523174Y127530279D01*
X6037211Y127453310D01*
X5907179Y127411060D01*
X5461150Y127183797D01*
X5350539Y127103433D01*
X4996567Y126749462D01*
X4937658Y126668380D01*
X4916203Y126638850D01*
X4688940Y126192821D01*
X4646690Y126062789D01*
X4568380Y125568362D01*
X477000Y125568362D01*
X476999Y128023000D01*
X39723001Y128023000D01*
X39723000Y477000D01*
X39723000Y477000D01*
G37*
X39723000Y477000D02*
X477000Y477000D01*
X477000Y3068362D01*
X4568380Y3068362D01*
X4568380Y2931638D01*
X4646690Y2437212D01*
X4646690Y2437211D01*
X4688940Y2307179D01*
X4916203Y1861150D01*
X4996567Y1750538D01*
X5350539Y1396567D01*
X5461150Y1316203D01*
X5907179Y1088940D01*
X6037211Y1046690D01*
X6523174Y969721D01*
X6556961Y963000D01*
X8443039Y963000D01*
X8476826Y969721D01*
X8962789Y1046690D01*
X9092821Y1088940D01*
X9538850Y1316203D01*
X9649462Y1396567D01*
X10003433Y1750539D01*
X10083797Y1861150D01*
X10311060Y2307179D01*
X10353310Y2437211D01*
X10353310Y2437212D01*
X10431620Y2931638D01*
X10431620Y3068362D01*
X10353310Y3562789D01*
X10311060Y3692821D01*
X10083797Y4138850D01*
X10003433Y4249461D01*
X10003432Y4249462D01*
X9649462Y4603433D01*
X9538850Y4683797D01*
X9092821Y4911060D01*
X8962789Y4953310D01*
X8476826Y5030279D01*
X8443039Y5037000D01*
X6556961Y5037000D01*
X6523174Y5030279D01*
X6037211Y4953310D01*
X5907179Y4911060D01*
X5461150Y4683797D01*
X5350539Y4603433D01*
X4996567Y4249462D01*
X4937658Y4168380D01*
X4916203Y4138850D01*
X4688940Y3692821D01*
X4646690Y3562789D01*
X4568380Y3068362D01*
X477000Y3068362D01*
X477000Y18948242D01*
X4393361Y18948242D01*
X4473000Y18317839D01*
X4473000Y18278545D01*
X4480142Y18261302D01*
X4496941Y18128328D01*
X4779597Y17351737D01*
X4995962Y17016005D01*
X5025178Y16945470D01*
X5070855Y16899793D01*
X5227281Y16657067D01*
X5817743Y16078844D01*
X6010211Y15960437D01*
X6045470Y15925178D01*
X6112973Y15897218D01*
X6521636Y15645806D01*
X7303976Y15379476D01*
X8125880Y15293090D01*
X8796023Y15373000D01*
X8821455Y15373000D01*
X8831736Y15377259D01*
X8946497Y15390943D01*
X9725042Y15668170D01*
X10083961Y15895948D01*
X10154530Y15925178D01*
X10197099Y15967747D01*
X10422820Y16110994D01*
X11005152Y16697405D01*
X11135737Y16906385D01*
X11174822Y16945470D01*
X11203652Y17015072D01*
X11443093Y17398258D01*
X11714879Y18178720D01*
X11725733Y18275486D01*
X11727000Y18278545D01*
X11727000Y18286782D01*
X11801194Y18948242D01*
X16393361Y18948242D01*
X16473000Y18317839D01*
X16473000Y18278545D01*
X16480142Y18261302D01*
X16496941Y18128328D01*
X16779597Y17351737D01*
X16995962Y17016005D01*
X17025178Y16945470D01*
X17070855Y16899793D01*
X17227281Y16657067D01*
X17817743Y16078844D01*
X18010211Y15960437D01*
X18045470Y15925178D01*
X18112973Y15897218D01*
X18521636Y15645806D01*
X19303976Y15379476D01*
X20125880Y15293090D01*
X20796023Y15373000D01*
X20821455Y15373000D01*
X20831736Y15377259D01*
X20946497Y15390943D01*
X21725042Y15668170D01*
X22083961Y15895948D01*
X22154530Y15925178D01*
X22197099Y15967747D01*
X22422820Y16110994D01*
X23005152Y16697405D01*
X23135737Y16906385D01*
X23174822Y16945470D01*
X23203652Y17015072D01*
X23443093Y17398258D01*
X23714879Y18178720D01*
X23725733Y18275486D01*
X23727000Y18278545D01*
X23727000Y18286782D01*
X23801194Y18948242D01*
X28393361Y18948242D01*
X28473000Y18317839D01*
X28473000Y18278545D01*
X28480142Y18261302D01*
X28496941Y18128328D01*
X28779597Y17351737D01*
X28995962Y17016005D01*
X29025178Y16945470D01*
X29070855Y16899793D01*
X29227281Y16657067D01*
X29817743Y16078844D01*
X30010211Y15960437D01*
X30045470Y15925178D01*
X30112973Y15897218D01*
X30521636Y15645806D01*
X31303976Y15379476D01*
X32125880Y15293090D01*
X32796023Y15373000D01*
X32821455Y15373000D01*
X32831736Y15377259D01*
X32946497Y15390943D01*
X33725042Y15668170D01*
X34083961Y15895948D01*
X34154530Y15925178D01*
X34197099Y15967747D01*
X34422820Y16110994D01*
X35005152Y16697405D01*
X35135737Y16906385D01*
X35174822Y16945470D01*
X35203652Y17015072D01*
X35443093Y17398258D01*
X35714879Y18178720D01*
X35725733Y18275486D01*
X35727000Y18278545D01*
X35727000Y18286782D01*
X35807000Y19000000D01*
X35805555Y19103506D01*
X35727000Y19662453D01*
X35727000Y19721455D01*
X35714449Y19751755D01*
X35690538Y19921893D01*
X35397066Y20694462D01*
X35202942Y20986643D01*
X35174822Y21054530D01*
X35124214Y21105138D01*
X34939727Y21382814D01*
X34341249Y21952736D01*
X34181219Y22048133D01*
X34154530Y22074822D01*
X34095273Y22099367D01*
X33631378Y22375904D01*
X32845396Y22631285D01*
X32022366Y22706187D01*
X31428889Y22627000D01*
X31378545Y22627000D01*
X31354621Y22617091D01*
X31203196Y22596886D01*
X30428597Y22308816D01*
X30115076Y22103654D01*
X30045470Y22074822D01*
X29997101Y22026453D01*
X29737069Y21856293D01*
X29162982Y21261808D01*
X29056295Y21085647D01*
X29025178Y21054530D01*
X28998621Y20990415D01*
X28734869Y20554909D01*
X28474007Y19770729D01*
X28393361Y18948242D01*
X23801194Y18948242D01*
X23807000Y19000000D01*
X23805555Y19103506D01*
X23727000Y19662453D01*
X23727000Y19721455D01*
X23714449Y19751755D01*
X23690538Y19921893D01*
X23397066Y20694462D01*
X23202942Y20986643D01*
X23174822Y21054530D01*
X23124214Y21105138D01*
X22939727Y21382814D01*
X22341249Y21952736D01*
X22181219Y22048133D01*
X22154530Y22074822D01*
X22095273Y22099367D01*
X21631378Y22375904D01*
X20845396Y22631285D01*
X20022366Y22706187D01*
X19428889Y22627000D01*
X19378545Y22627000D01*
X19354621Y22617091D01*
X19203196Y22596886D01*
X18428597Y22308816D01*
X18115076Y22103654D01*
X18045470Y22074822D01*
X17997101Y22026453D01*
X17737069Y21856293D01*
X17162982Y21261808D01*
X17056295Y21085647D01*
X17025178Y21054530D01*
X16998621Y20990415D01*
X16734869Y20554909D01*
X16474007Y19770729D01*
X16393361Y18948242D01*
X11801194Y18948242D01*
X11807000Y19000000D01*
X11805555Y19103506D01*
X11727000Y19662453D01*
X11727000Y19721455D01*
X11714449Y19751755D01*
X11690538Y19921893D01*
X11397066Y20694462D01*
X11202942Y20986643D01*
X11174822Y21054530D01*
X11124214Y21105138D01*
X10939727Y21382814D01*
X10341249Y21952736D01*
X10181219Y22048133D01*
X10154530Y22074822D01*
X10095273Y22099367D01*
X9631378Y22375904D01*
X8845396Y22631285D01*
X8022366Y22706187D01*
X7428889Y22627000D01*
X7378545Y22627000D01*
X7354621Y22617091D01*
X7203196Y22596886D01*
X6428597Y22308816D01*
X6115076Y22103654D01*
X6045470Y22074822D01*
X5997101Y22026453D01*
X5737069Y21856293D01*
X5162982Y21261808D01*
X5056295Y21085647D01*
X5025178Y21054530D01*
X4998621Y20990415D01*
X4734869Y20554909D01*
X4474007Y19770729D01*
X4393361Y18948242D01*
X477000Y18948242D01*
X477000Y33948242D01*
X4393361Y33948242D01*
X4473000Y33317839D01*
X4473000Y33278545D01*
X4480142Y33261302D01*
X4496941Y33128328D01*
X4779597Y32351737D01*
X4995962Y32016005D01*
X5025178Y31945470D01*
X5070855Y31899793D01*
X5227281Y31657067D01*
X5817743Y31078844D01*
X6010211Y30960437D01*
X6045470Y30925178D01*
X6112973Y30897218D01*
X6521636Y30645806D01*
X7303976Y30379476D01*
X8125880Y30293090D01*
X8796023Y30373000D01*
X8821455Y30373000D01*
X8831736Y30377259D01*
X8946497Y30390943D01*
X9725042Y30668170D01*
X10083961Y30895948D01*
X10154530Y30925178D01*
X10197099Y30967747D01*
X10422820Y31110994D01*
X11005152Y31697405D01*
X11135737Y31906385D01*
X11174822Y31945470D01*
X11203652Y32015072D01*
X11443093Y32398258D01*
X11714879Y33178720D01*
X11725733Y33275486D01*
X11727000Y33278545D01*
X11727000Y33286782D01*
X11801194Y33948242D01*
X28393361Y33948242D01*
X28473000Y33317839D01*
X28473000Y33278545D01*
X28480142Y33261302D01*
X28496941Y33128328D01*
X28779597Y32351737D01*
X28995962Y32016005D01*
X29025178Y31945470D01*
X29070855Y31899793D01*
X29227281Y31657067D01*
X29817743Y31078844D01*
X30010211Y30960437D01*
X30045470Y30925178D01*
X30112973Y30897218D01*
X30521636Y30645806D01*
X31303976Y30379476D01*
X32125880Y30293090D01*
X32796023Y30373000D01*
X32821455Y30373000D01*
X32831736Y30377259D01*
X32946497Y30390943D01*
X33725042Y30668170D01*
X34083961Y30895948D01*
X34154530Y30925178D01*
X34197099Y30967747D01*
X34422820Y31110994D01*
X35005152Y31697405D01*
X35135737Y31906385D01*
X35174822Y31945470D01*
X35203652Y32015072D01*
X35443093Y32398258D01*
X35714879Y33178720D01*
X35725733Y33275486D01*
X35727000Y33278545D01*
X35727000Y33286782D01*
X35807000Y34000000D01*
X35805555Y34103506D01*
X35727000Y34662453D01*
X35727000Y34721455D01*
X35714449Y34751755D01*
X35690538Y34921893D01*
X35397066Y35694462D01*
X35202942Y35986643D01*
X35174822Y36054530D01*
X35124214Y36105138D01*
X34939727Y36382814D01*
X34341249Y36952736D01*
X34181219Y37048133D01*
X34154530Y37074822D01*
X34095273Y37099367D01*
X33631378Y37375904D01*
X32845396Y37631285D01*
X32022366Y37706187D01*
X31428889Y37627000D01*
X31378545Y37627000D01*
X31354621Y37617091D01*
X31203196Y37596886D01*
X30428597Y37308816D01*
X30115076Y37103654D01*
X30045470Y37074822D01*
X29997101Y37026453D01*
X29737069Y36856293D01*
X29162982Y36261808D01*
X29056295Y36085647D01*
X29025178Y36054530D01*
X28998621Y35990415D01*
X28734869Y35554909D01*
X28474007Y34770729D01*
X28393361Y33948242D01*
X11801194Y33948242D01*
X11807000Y34000000D01*
X11805555Y34103506D01*
X11727000Y34662453D01*
X11727000Y34721455D01*
X11714449Y34751755D01*
X11690538Y34921893D01*
X11397066Y35694462D01*
X11202942Y35986643D01*
X11174822Y36054530D01*
X11124214Y36105138D01*
X10939727Y36382814D01*
X10341249Y36952736D01*
X10181219Y37048133D01*
X10154530Y37074822D01*
X10095273Y37099367D01*
X9631378Y37375904D01*
X8845396Y37631285D01*
X8022366Y37706187D01*
X7428889Y37627000D01*
X7378545Y37627000D01*
X7354621Y37617091D01*
X7203196Y37596886D01*
X6428597Y37308816D01*
X6115076Y37103654D01*
X6045470Y37074822D01*
X5997101Y37026453D01*
X5737069Y36856293D01*
X5162982Y36261808D01*
X5056295Y36085647D01*
X5025178Y36054530D01*
X4998621Y35990415D01*
X4734869Y35554909D01*
X4474007Y34770729D01*
X4393361Y33948242D01*
X477000Y33948242D01*
X477000Y48948242D01*
X4393361Y48948242D01*
X4473000Y48317839D01*
X4473000Y48278545D01*
X4480142Y48261302D01*
X4496941Y48128328D01*
X4779597Y47351737D01*
X4995962Y47016005D01*
X5025178Y46945470D01*
X5070855Y46899793D01*
X5227281Y46657067D01*
X5817743Y46078844D01*
X6010211Y45960437D01*
X6045470Y45925178D01*
X6112973Y45897218D01*
X6521636Y45645806D01*
X7303976Y45379476D01*
X8125880Y45293090D01*
X8796023Y45373000D01*
X8821455Y45373000D01*
X8831736Y45377259D01*
X8946497Y45390943D01*
X9725042Y45668170D01*
X10083961Y45895948D01*
X10154530Y45925178D01*
X10197099Y45967747D01*
X10422820Y46110994D01*
X11005152Y46697405D01*
X11135737Y46906385D01*
X11174822Y46945470D01*
X11203652Y47015072D01*
X11443093Y47398258D01*
X11714879Y48178720D01*
X11725733Y48275486D01*
X11727000Y48278545D01*
X11727000Y48286782D01*
X11801194Y48948242D01*
X28393361Y48948242D01*
X28473000Y48317839D01*
X28473000Y48278545D01*
X28480142Y48261302D01*
X28496941Y48128328D01*
X28779597Y47351737D01*
X28995962Y47016005D01*
X29025178Y46945470D01*
X29070855Y46899793D01*
X29227281Y46657067D01*
X29817743Y46078844D01*
X30010211Y45960437D01*
X30045470Y45925178D01*
X30112973Y45897218D01*
X30521636Y45645806D01*
X31303976Y45379476D01*
X32125880Y45293090D01*
X32796023Y45373000D01*
X32821455Y45373000D01*
X32831736Y45377259D01*
X32946497Y45390943D01*
X33725042Y45668170D01*
X34083961Y45895948D01*
X34154530Y45925178D01*
X34197099Y45967747D01*
X34422820Y46110994D01*
X35005152Y46697405D01*
X35135737Y46906385D01*
X35174822Y46945470D01*
X35203652Y47015072D01*
X35443093Y47398258D01*
X35714879Y48178720D01*
X35725733Y48275486D01*
X35727000Y48278545D01*
X35727000Y48286782D01*
X35807000Y49000000D01*
X35805555Y49103506D01*
X35727000Y49662453D01*
X35727000Y49721455D01*
X35714449Y49751755D01*
X35690538Y49921893D01*
X35397066Y50694462D01*
X35202942Y50986643D01*
X35174822Y51054530D01*
X35124214Y51105138D01*
X34939727Y51382814D01*
X34341249Y51952736D01*
X34181219Y52048133D01*
X34154530Y52074822D01*
X34095273Y52099367D01*
X33631378Y52375904D01*
X32845396Y52631285D01*
X32022366Y52706187D01*
X31428889Y52627000D01*
X31378545Y52627000D01*
X31354621Y52617091D01*
X31203196Y52596886D01*
X30428597Y52308816D01*
X30115076Y52103654D01*
X30045470Y52074822D01*
X29997101Y52026453D01*
X29737069Y51856293D01*
X29162982Y51261808D01*
X29056295Y51085647D01*
X29025178Y51054530D01*
X28998621Y50990415D01*
X28734869Y50554909D01*
X28474007Y49770729D01*
X28393361Y48948242D01*
X11801194Y48948242D01*
X11807000Y49000000D01*
X11805555Y49103506D01*
X11727000Y49662453D01*
X11727000Y49721455D01*
X11714449Y49751755D01*
X11690538Y49921893D01*
X11397066Y50694462D01*
X11202942Y50986643D01*
X11174822Y51054530D01*
X11124214Y51105138D01*
X10939727Y51382814D01*
X10341249Y51952736D01*
X10181219Y52048133D01*
X10154530Y52074822D01*
X10095273Y52099367D01*
X9631378Y52375904D01*
X8845396Y52631285D01*
X8022366Y52706187D01*
X7428889Y52627000D01*
X7378545Y52627000D01*
X7354621Y52617091D01*
X7203196Y52596886D01*
X6428597Y52308816D01*
X6115076Y52103654D01*
X6045470Y52074822D01*
X5997101Y52026453D01*
X5737069Y51856293D01*
X5162982Y51261808D01*
X5056295Y51085647D01*
X5025178Y51054530D01*
X4998621Y50990415D01*
X4734869Y50554909D01*
X4474007Y49770729D01*
X4393361Y48948242D01*
X477000Y48948242D01*
X477000Y85000000D01*
X22393000Y85000000D01*
X22473000Y84238851D01*
X22473000Y84179089D01*
X22481417Y84158769D01*
X22484933Y84125316D01*
X22756714Y83288859D01*
X23057642Y82767637D01*
X23101298Y82662242D01*
X23141979Y82621561D01*
X23196466Y82527187D01*
X23784968Y81873590D01*
X24168876Y81594664D01*
X24262242Y81501298D01*
X24343988Y81467438D01*
X24496500Y81356631D01*
X25299966Y80998905D01*
X25659757Y80922429D01*
X25779089Y80873000D01*
X25892302Y80873000D01*
X26160249Y80816046D01*
X27039751Y80816046D01*
X27307698Y80873000D01*
X27420911Y80873000D01*
X27540243Y80922429D01*
X27900034Y80998905D01*
X28703500Y81356631D01*
X28856012Y81467438D01*
X28937758Y81501298D01*
X29031124Y81594664D01*
X29415032Y81873590D01*
X30003534Y82527187D01*
X30058021Y82621561D01*
X30098702Y82662242D01*
X30142358Y82767637D01*
X30443286Y83288859D01*
X30715067Y84125316D01*
X30718583Y84158769D01*
X30727000Y84179089D01*
X30727000Y84238851D01*
X30807000Y85000000D01*
X30727000Y85761149D01*
X30727000Y85820911D01*
X30718583Y85841231D01*
X30715067Y85874684D01*
X30443286Y86711141D01*
X30142358Y87232363D01*
X30098702Y87337758D01*
X30058021Y87378439D01*
X30003534Y87472813D01*
X29415032Y88126410D01*
X29031124Y88405336D01*
X28937758Y88498702D01*
X28856012Y88532562D01*
X28703500Y88643369D01*
X27900034Y89001095D01*
X27540243Y89077571D01*
X27420911Y89127000D01*
X27307698Y89127000D01*
X27039751Y89183954D01*
X26160249Y89183954D01*
X25892302Y89127000D01*
X25779089Y89127000D01*
X25659757Y89077571D01*
X25299966Y89001095D01*
X24496500Y88643369D01*
X24343988Y88532562D01*
X24262242Y88498702D01*
X24168876Y88405336D01*
X23784968Y88126410D01*
X23196466Y87472813D01*
X23141979Y87378439D01*
X23101298Y87337758D01*
X23057642Y87232363D01*
X22756714Y86711141D01*
X22484933Y85874684D01*
X22481417Y85841231D01*
X22473000Y85820911D01*
X22473000Y85761149D01*
X22393000Y85000000D01*
X477000Y85000000D01*
X477000Y95948242D01*
X5893361Y95948242D01*
X5973000Y95317839D01*
X5973000Y95278545D01*
X5980142Y95261302D01*
X5996941Y95128328D01*
X6279597Y94351737D01*
X6495962Y94016005D01*
X6525178Y93945470D01*
X6570855Y93899793D01*
X6727281Y93657067D01*
X7317743Y93078844D01*
X7510211Y92960437D01*
X7545470Y92925178D01*
X7612973Y92897218D01*
X8021636Y92645806D01*
X8803976Y92379476D01*
X9625880Y92293090D01*
X10296023Y92373000D01*
X10321455Y92373000D01*
X10331736Y92377259D01*
X10446497Y92390943D01*
X11225042Y92668170D01*
X11583961Y92895948D01*
X11654530Y92925178D01*
X11697099Y92967747D01*
X11922820Y93110994D01*
X12505152Y93697405D01*
X12635737Y93906385D01*
X12674822Y93945470D01*
X12703652Y94015072D01*
X12943093Y94398258D01*
X13214879Y95178720D01*
X13225733Y95275486D01*
X13227000Y95278545D01*
X13227000Y95286782D01*
X13307000Y96000000D01*
X13305555Y96103506D01*
X13227000Y96662453D01*
X13227000Y96721455D01*
X13214449Y96751755D01*
X13190538Y96921893D01*
X12897066Y97694462D01*
X12702942Y97986643D01*
X12674822Y98054530D01*
X12624214Y98105138D01*
X12439727Y98382814D01*
X11841249Y98952736D01*
X11681219Y99048133D01*
X11654530Y99074822D01*
X11595273Y99099367D01*
X11131378Y99375904D01*
X10345396Y99631285D01*
X9522366Y99706187D01*
X8928889Y99627000D01*
X8878545Y99627000D01*
X8854621Y99617091D01*
X8703196Y99596886D01*
X7928597Y99308816D01*
X7615076Y99103654D01*
X7545470Y99074822D01*
X7497101Y99026453D01*
X7237069Y98856293D01*
X6662982Y98261808D01*
X6556295Y98085647D01*
X6525178Y98054530D01*
X6498621Y97990415D01*
X6234869Y97554909D01*
X5974007Y96770729D01*
X5893361Y95948242D01*
X477000Y95948242D01*
X477000Y107000000D01*
X22393000Y107000000D01*
X22473000Y106238851D01*
X22473000Y106179089D01*
X22481417Y106158769D01*
X22484933Y106125316D01*
X22756714Y105288859D01*
X23057642Y104767637D01*
X23101298Y104662242D01*
X23141979Y104621561D01*
X23196466Y104527187D01*
X23784968Y103873590D01*
X24168876Y103594664D01*
X24262242Y103501298D01*
X24343988Y103467438D01*
X24496500Y103356631D01*
X25299966Y102998905D01*
X25659757Y102922429D01*
X25779089Y102873000D01*
X25892302Y102873000D01*
X26160249Y102816046D01*
X27039751Y102816046D01*
X27307698Y102873000D01*
X27420911Y102873000D01*
X27540243Y102922429D01*
X27900034Y102998905D01*
X28703500Y103356631D01*
X28856012Y103467438D01*
X28937758Y103501298D01*
X29031124Y103594664D01*
X29415032Y103873590D01*
X30003534Y104527187D01*
X30058021Y104621561D01*
X30098702Y104662242D01*
X30142358Y104767637D01*
X30443286Y105288859D01*
X30715067Y106125316D01*
X30718583Y106158769D01*
X30727000Y106179089D01*
X30727000Y106238851D01*
X30807000Y107000000D01*
X30727000Y107761149D01*
X30727000Y107820911D01*
X30718583Y107841231D01*
X30715067Y107874684D01*
X30443286Y108711141D01*
X30142358Y109232363D01*
X30098702Y109337758D01*
X30058021Y109378439D01*
X30003534Y109472813D01*
X29415032Y110126410D01*
X29031124Y110405336D01*
X28937758Y110498702D01*
X28856012Y110532562D01*
X28703500Y110643369D01*
X27900034Y111001095D01*
X27540243Y111077571D01*
X27420911Y111127000D01*
X27307698Y111127000D01*
X27039751Y111183954D01*
X26160249Y111183954D01*
X25892302Y111127000D01*
X25779089Y111127000D01*
X25659757Y111077571D01*
X25299966Y111001095D01*
X24496500Y110643369D01*
X24343988Y110532562D01*
X24262242Y110498702D01*
X24168876Y110405336D01*
X23784968Y110126410D01*
X23196466Y109472813D01*
X23141979Y109378439D01*
X23101298Y109337758D01*
X23057642Y109232363D01*
X22756714Y108711141D01*
X22484933Y107874684D01*
X22481417Y107841231D01*
X22473000Y107820911D01*
X22473000Y107761149D01*
X22393000Y107000000D01*
X477000Y107000000D01*
X477000Y125568362D01*
X4568380Y125568362D01*
X4568380Y125431638D01*
X4646690Y124937212D01*
X4646690Y124937211D01*
X4688940Y124807179D01*
X4916203Y124361150D01*
X4996567Y124250538D01*
X5350539Y123896567D01*
X5461150Y123816203D01*
X5907179Y123588940D01*
X6037211Y123546690D01*
X6523174Y123469721D01*
X6556961Y123463000D01*
X8443039Y123463000D01*
X8476826Y123469721D01*
X8962789Y123546690D01*
X9092821Y123588940D01*
X9538850Y123816203D01*
X9649462Y123896567D01*
X10003433Y124250539D01*
X10083797Y124361150D01*
X10311060Y124807179D01*
X10353310Y124937211D01*
X10353310Y124937212D01*
X10431620Y125431638D01*
X10431620Y125568362D01*
X10353310Y126062789D01*
X10311060Y126192821D01*
X10083797Y126638850D01*
X10003433Y126749461D01*
X10003432Y126749462D01*
X9649462Y127103433D01*
X9538850Y127183797D01*
X9092821Y127411060D01*
X8962789Y127453310D01*
X8476826Y127530279D01*
X8443039Y127537000D01*
X6556961Y127537000D01*
X6523174Y127530279D01*
X6037211Y127453310D01*
X5907179Y127411060D01*
X5461150Y127183797D01*
X5350539Y127103433D01*
X4996567Y126749462D01*
X4937658Y126668380D01*
X4916203Y126638850D01*
X4688940Y126192821D01*
X4646690Y126062789D01*
X4568380Y125568362D01*
X477000Y125568362D01*
X476999Y128023000D01*
X39723001Y128023000D01*
X39723000Y477000D01*
M02*
