G04 #@! TF.FileFunction,Soldermask,Top*
%FSLAX46Y46*%
G04 Gerber Fmt 4.6, Leading zero omitted, Abs format (unit mm)*
G04 Created by KiCad (PCBNEW (2016-08-20 BZR 7083)-product) date Wed Apr 22 08:43:57 2020*
%MOMM*%
%LPD*%
G01*
G04 APERTURE LIST*
%ADD10C,0.100000*%
%ADD11C,1.400000*%
%ADD12R,2.400000X1.800000*%
%ADD13O,2.400000X1.800000*%
%ADD14C,1.800000*%
%ADD15R,1.800000X1.800000*%
%ADD16C,1.700000*%
%ADD17C,2.200000*%
%ADD18R,1.800000X2.400000*%
%ADD19O,1.800000X2.400000*%
%ADD20C,2.700000*%
%ADD21C,6.200000*%
G04 APERTURE END LIST*
D10*
D11*
X17000000Y31260000D03*
X17000000Y36340000D03*
X4600000Y26240000D03*
X4600000Y21160000D03*
X26440000Y64100000D03*
X21360000Y64100000D03*
X11260000Y75000000D03*
X16340000Y75000000D03*
X19100000Y33760000D03*
X19100000Y38840000D03*
X22660000Y15900000D03*
X27740000Y15900000D03*
D12*
X22690000Y18480000D03*
D13*
X22690000Y21020000D03*
X22690000Y23560000D03*
X22690000Y26100000D03*
X22690000Y28640000D03*
X22690000Y31180000D03*
X22690000Y33720000D03*
X30310000Y33720000D03*
X30310000Y31180000D03*
X30310000Y28640000D03*
X30310000Y26100000D03*
X30310000Y23560000D03*
X30310000Y21020000D03*
X30310000Y18480000D03*
D14*
X17200000Y21100000D03*
X15300000Y14200000D03*
X18800000Y64100000D03*
X35300000Y59200000D03*
X28100000Y13700000D03*
X13700000Y39500000D03*
X30000000Y39500000D03*
X1500000Y68610000D03*
X1500000Y71150000D03*
X1500000Y73690000D03*
X1500000Y76230000D03*
X1500000Y78770000D03*
X1500000Y81310000D03*
D15*
X1500000Y86390000D03*
D14*
X1500000Y83850000D03*
X1500000Y11110000D03*
X1500000Y13650000D03*
X1500000Y16190000D03*
X1500000Y18730000D03*
X1500000Y21270000D03*
X1500000Y23810000D03*
D15*
X1500000Y28890000D03*
D14*
X1500000Y26350000D03*
X37500000Y68610000D03*
X37500000Y71150000D03*
X37500000Y73690000D03*
X37500000Y76230000D03*
X37500000Y78770000D03*
X37500000Y81310000D03*
D15*
X37500000Y86390000D03*
D14*
X37500000Y83850000D03*
X37500000Y11110000D03*
X37500000Y13650000D03*
X37500000Y16190000D03*
X37500000Y18730000D03*
X37500000Y21270000D03*
X37500000Y23810000D03*
D15*
X37500000Y28890000D03*
D14*
X37500000Y26350000D03*
D11*
X17960000Y12700000D03*
X23040000Y12700000D03*
X32940000Y2500000D03*
X27860000Y2500000D03*
D12*
X18840000Y66640000D03*
D13*
X18840000Y69180000D03*
X18840000Y71720000D03*
X18840000Y74260000D03*
X26460000Y74260000D03*
X26460000Y71720000D03*
X26460000Y69180000D03*
X26460000Y66640000D03*
D12*
X25510000Y10110000D03*
D13*
X25510000Y7570000D03*
X25510000Y5030000D03*
X25510000Y2490000D03*
X17890000Y2490000D03*
X17890000Y5030000D03*
X17890000Y7570000D03*
X17890000Y10110000D03*
D14*
X6000000Y46800000D03*
X22100000Y46800000D03*
D16*
X15300000Y5160000D03*
X15300000Y10240000D03*
X32900000Y33760000D03*
X32900000Y38840000D03*
X28100000Y4960000D03*
X28100000Y10040000D03*
D17*
X12400000Y62100000D03*
X12400000Y72100000D03*
X32600000Y64500000D03*
X32600000Y74500000D03*
X15400000Y72100000D03*
X15400000Y62100000D03*
X29500000Y74500000D03*
X29500000Y64500000D03*
X19900000Y59200000D03*
X9900000Y59200000D03*
X22500000Y59200000D03*
X32500000Y59200000D03*
X19100000Y56700000D03*
X19100000Y46700000D03*
X35300000Y56700000D03*
X35300000Y46700000D03*
X9500000Y18000000D03*
X19500000Y18000000D03*
X8500000Y55100000D03*
X8500000Y45100000D03*
X24800000Y55100000D03*
X24800000Y45100000D03*
X19500000Y21100000D03*
X19500000Y31100000D03*
X35500000Y31500000D03*
X35500000Y41500000D03*
X33800000Y14900000D03*
X33800000Y4900000D03*
X30700000Y4900000D03*
X30700000Y14900000D03*
X4700000Y31800000D03*
X14700000Y31800000D03*
D18*
X14810000Y21090000D03*
D19*
X12270000Y21090000D03*
X9730000Y21090000D03*
X7190000Y21090000D03*
X7190000Y28710000D03*
X9730000Y28710000D03*
X12270000Y28710000D03*
X14810000Y28710000D03*
D17*
X12700000Y5200000D03*
X12700000Y15200000D03*
X5000000Y2500000D03*
X15000000Y2500000D03*
D14*
X30000000Y50100000D03*
X27500000Y55100000D03*
X32500000Y55100000D03*
D20*
X30000000Y52600000D03*
D14*
X30000000Y41700000D03*
X27500000Y46700000D03*
X32500000Y46700000D03*
D20*
X30000000Y44200000D03*
D14*
X13700000Y50100000D03*
X11200000Y55100000D03*
X16200000Y55100000D03*
D20*
X13700000Y52600000D03*
D14*
X13700000Y41700000D03*
X11200000Y46700000D03*
X16200000Y46700000D03*
D20*
X13700000Y44200000D03*
D21*
X23600000Y38600000D03*
M02*
