G04 #@! TF.FileFunction,Legend,Top*
%FSLAX46Y46*%
G04 Gerber Fmt 4.6, Leading zero omitted, Abs format (unit mm)*
G04 Created by KiCad (PCBNEW (2016-08-20 BZR 7083)-product) date Wed Apr 22 08:43:57 2020*
%MOMM*%
%LPD*%
G01*
G04 APERTURE LIST*
%ADD10C,0.100000*%
%ADD11C,0.150000*%
%ADD12C,0.200000*%
G04 APERTURE END LIST*
D10*
D11*
X37528571Y39471429D02*
X38061904Y39623810D01*
X37680952Y39776191D01*
X38061904Y39928572D01*
X37528571Y40080953D01*
X37528571Y40309524D02*
X38061904Y40461905D01*
X37680952Y40614286D01*
X38061904Y40766667D01*
X37528571Y40919048D01*
X37528571Y41147620D02*
X38061904Y41300000D01*
X37680952Y41452381D01*
X38061904Y41604762D01*
X37528571Y41757143D01*
X37985714Y42061905D02*
X38023809Y42100000D01*
X38061904Y42061905D01*
X38023809Y42023810D01*
X37985714Y42061905D01*
X38061904Y42061905D01*
X38023809Y42747620D02*
X38061904Y42671429D01*
X38061904Y42519048D01*
X38023809Y42442858D01*
X37947619Y42404762D01*
X37642857Y42404762D01*
X37566666Y42442858D01*
X37528571Y42519048D01*
X37528571Y42671429D01*
X37566666Y42747620D01*
X37642857Y42785715D01*
X37719047Y42785715D01*
X37795238Y42404762D01*
X38061904Y43128572D02*
X37528571Y43128572D01*
X37680952Y43128572D02*
X37604761Y43166667D01*
X37566666Y43204762D01*
X37528571Y43280953D01*
X37528571Y43357143D01*
X38061904Y43623810D02*
X37528571Y43623810D01*
X37261904Y43623810D02*
X37300000Y43585715D01*
X37338095Y43623810D01*
X37300000Y43661905D01*
X37261904Y43623810D01*
X37338095Y43623810D01*
X38023809Y44347620D02*
X38061904Y44271429D01*
X38061904Y44119048D01*
X38023809Y44042858D01*
X37985714Y44004762D01*
X37909523Y43966667D01*
X37680952Y43966667D01*
X37604761Y44004762D01*
X37566666Y44042858D01*
X37528571Y44119048D01*
X37528571Y44271429D01*
X37566666Y44347620D01*
X38061904Y45033334D02*
X37642857Y45033334D01*
X37566666Y44995239D01*
X37528571Y44919048D01*
X37528571Y44766667D01*
X37566666Y44690477D01*
X38023809Y45033334D02*
X38061904Y44957143D01*
X38061904Y44766667D01*
X38023809Y44690477D01*
X37947619Y44652381D01*
X37871428Y44652381D01*
X37795238Y44690477D01*
X37757142Y44766667D01*
X37757142Y44957143D01*
X37719047Y45033334D01*
X38023809Y45376191D02*
X38061904Y45452381D01*
X38061904Y45604762D01*
X38023809Y45680953D01*
X37947619Y45719048D01*
X37909523Y45719048D01*
X37833333Y45680953D01*
X37795238Y45604762D01*
X37795238Y45490477D01*
X37757142Y45414286D01*
X37680952Y45376191D01*
X37642857Y45376191D01*
X37566666Y45414286D01*
X37528571Y45490477D01*
X37528571Y45604762D01*
X37566666Y45680953D01*
X37528571Y45985715D02*
X38061904Y46176191D01*
X37528571Y46366667D02*
X38061904Y46176191D01*
X38252380Y46100000D01*
X38290476Y46061905D01*
X38328571Y45985715D01*
X37528571Y46671429D02*
X38061904Y46671429D01*
X37604761Y46671429D02*
X37566666Y46709524D01*
X37528571Y46785715D01*
X37528571Y46900000D01*
X37566666Y46976191D01*
X37642857Y47014286D01*
X38061904Y47014286D01*
X37528571Y47280953D02*
X37528571Y47585715D01*
X37261904Y47395239D02*
X37947619Y47395239D01*
X38023809Y47433334D01*
X38061904Y47509524D01*
X38061904Y47585715D01*
X38061904Y47852381D02*
X37261904Y47852381D01*
X38061904Y48195239D02*
X37642857Y48195239D01*
X37566666Y48157143D01*
X37528571Y48080953D01*
X37528571Y47966667D01*
X37566666Y47890477D01*
X37604761Y47852381D01*
X38023809Y48538096D02*
X38061904Y48614286D01*
X38061904Y48766667D01*
X38023809Y48842858D01*
X37947619Y48880953D01*
X37909523Y48880953D01*
X37833333Y48842858D01*
X37795238Y48766667D01*
X37795238Y48652381D01*
X37757142Y48576191D01*
X37680952Y48538096D01*
X37642857Y48538096D01*
X37566666Y48576191D01*
X37528571Y48652381D01*
X37528571Y48766667D01*
X37566666Y48842858D01*
X37985714Y49223810D02*
X38023809Y49261905D01*
X38061904Y49223810D01*
X38023809Y49185715D01*
X37985714Y49223810D01*
X38061904Y49223810D01*
X38061904Y49719048D02*
X38023809Y49642858D01*
X37947619Y49604762D01*
X37261904Y49604762D01*
X37528571Y49947620D02*
X38061904Y50138096D01*
X37528571Y50328572D01*
D12*
X5523809Y68585715D02*
X5857142Y68585715D01*
X6000000Y67957143D02*
X5523809Y67957143D01*
X5523809Y69157143D01*
X6000000Y69157143D01*
X6428571Y67957143D02*
X6428571Y68757143D01*
X6428571Y68528572D02*
X6476190Y68642858D01*
X6523809Y68700000D01*
X6619047Y68757143D01*
X6714285Y68757143D01*
X7047619Y67957143D02*
X7047619Y68757143D01*
X7047619Y69157143D02*
X7000000Y69100000D01*
X7047619Y69042858D01*
X7095238Y69100000D01*
X7047619Y69157143D01*
X7047619Y69042858D01*
X7952380Y68014286D02*
X7857142Y67957143D01*
X7666666Y67957143D01*
X7571428Y68014286D01*
X7523809Y68071429D01*
X7476190Y68185715D01*
X7476190Y68528572D01*
X7523809Y68642858D01*
X7571428Y68700000D01*
X7666666Y68757143D01*
X7857142Y68757143D01*
X7952380Y68700000D01*
X8809523Y67957143D02*
X8809523Y68585715D01*
X8761904Y68700000D01*
X8666666Y68757143D01*
X8476190Y68757143D01*
X8380952Y68700000D01*
X8809523Y68014286D02*
X8714285Y67957143D01*
X8476190Y67957143D01*
X8380952Y68014286D01*
X8333333Y68128572D01*
X8333333Y68242858D01*
X8380952Y68357143D01*
X8476190Y68414286D01*
X8714285Y68414286D01*
X8809523Y68471429D01*
X10000000Y68014286D02*
X10142857Y67957143D01*
X10380952Y67957143D01*
X10476190Y68014286D01*
X10523809Y68071429D01*
X10571428Y68185715D01*
X10571428Y68300000D01*
X10523809Y68414286D01*
X10476190Y68471429D01*
X10380952Y68528572D01*
X10190476Y68585715D01*
X10095238Y68642858D01*
X10047619Y68700000D01*
X10000000Y68814286D01*
X10000000Y68928572D01*
X10047619Y69042858D01*
X10095238Y69100000D01*
X10190476Y69157143D01*
X10428571Y69157143D01*
X10571428Y69100000D01*
X10904761Y68757143D02*
X11142857Y67957143D01*
X11380952Y68757143D02*
X11142857Y67957143D01*
X11047619Y67671429D01*
X11000000Y67614286D01*
X10904761Y67557143D01*
X11761904Y68757143D02*
X11761904Y67957143D01*
X11761904Y68642858D02*
X11809523Y68700000D01*
X11904761Y68757143D01*
X12047619Y68757143D01*
X12142857Y68700000D01*
X12190476Y68585715D01*
X12190476Y67957143D01*
X12523809Y68757143D02*
X12904761Y68757143D01*
X12666666Y69157143D02*
X12666666Y68128572D01*
X12714285Y68014286D01*
X12809523Y67957143D01*
X12904761Y67957143D01*
X13238095Y67957143D02*
X13238095Y69157143D01*
X13666666Y67957143D02*
X13666666Y68585715D01*
X13619047Y68700000D01*
X13523809Y68757143D01*
X13380952Y68757143D01*
X13285714Y68700000D01*
X13238095Y68642858D01*
X14095238Y68014286D02*
X14190476Y67957143D01*
X14380952Y67957143D01*
X14476190Y68014286D01*
X14523809Y68128572D01*
X14523809Y68185715D01*
X14476190Y68300000D01*
X14380952Y68357143D01*
X14238095Y68357143D01*
X14142857Y68414286D01*
X14095238Y68528572D01*
X14095238Y68585715D01*
X14142857Y68700000D01*
X14238095Y68757143D01*
X14380952Y68757143D01*
X14476190Y68700000D01*
X3452380Y65957143D02*
X3452380Y67157143D01*
X3833333Y67157143D01*
X3928571Y67100000D01*
X3976190Y67042858D01*
X4023809Y66928572D01*
X4023809Y66757143D01*
X3976190Y66642858D01*
X3928571Y66585715D01*
X3833333Y66528572D01*
X3452380Y66528572D01*
X4595238Y65957143D02*
X4500000Y66014286D01*
X4452380Y66071429D01*
X4404761Y66185715D01*
X4404761Y66528572D01*
X4452380Y66642858D01*
X4500000Y66700000D01*
X4595238Y66757143D01*
X4738095Y66757143D01*
X4833333Y66700000D01*
X4880952Y66642858D01*
X4928571Y66528572D01*
X4928571Y66185715D01*
X4880952Y66071429D01*
X4833333Y66014286D01*
X4738095Y65957143D01*
X4595238Y65957143D01*
X5500000Y65957143D02*
X5404761Y66014286D01*
X5357142Y66128572D01*
X5357142Y67157143D01*
X5880952Y65957143D02*
X5880952Y66757143D01*
X5880952Y67157143D02*
X5833333Y67100000D01*
X5880952Y67042858D01*
X5928571Y67100000D01*
X5880952Y67157143D01*
X5880952Y67042858D01*
X6261904Y66757143D02*
X6500000Y65957143D01*
X6738095Y66757143D01*
X7261904Y65957143D02*
X7166666Y66014286D01*
X7119047Y66071429D01*
X7071428Y66185715D01*
X7071428Y66528572D01*
X7119047Y66642858D01*
X7166666Y66700000D01*
X7261904Y66757143D01*
X7404761Y66757143D01*
X7500000Y66700000D01*
X7547619Y66642858D01*
X7595238Y66528572D01*
X7595238Y66185715D01*
X7547619Y66071429D01*
X7500000Y66014286D01*
X7404761Y65957143D01*
X7261904Y65957143D01*
X8023809Y65957143D02*
X8023809Y67157143D01*
X8119047Y66414286D02*
X8404761Y65957143D01*
X8404761Y66757143D02*
X8023809Y66300000D01*
X8785714Y66014286D02*
X8880952Y65957143D01*
X9071428Y65957143D01*
X9166666Y66014286D01*
X9214285Y66128572D01*
X9214285Y66185715D01*
X9166666Y66300000D01*
X9071428Y66357143D01*
X8928571Y66357143D01*
X8833333Y66414286D01*
X8785714Y66528572D01*
X8785714Y66585715D01*
X8833333Y66700000D01*
X8928571Y66757143D01*
X9071428Y66757143D01*
X9166666Y66700000D01*
X10261904Y67157143D02*
X10595238Y65957143D01*
X10928571Y67157143D01*
X11833333Y66071429D02*
X11785714Y66014286D01*
X11642857Y65957143D01*
X11547619Y65957143D01*
X11404761Y66014286D01*
X11309523Y66128572D01*
X11261904Y66242858D01*
X11214285Y66471429D01*
X11214285Y66642858D01*
X11261904Y66871429D01*
X11309523Y66985715D01*
X11404761Y67100000D01*
X11547619Y67157143D01*
X11642857Y67157143D01*
X11785714Y67100000D01*
X11833333Y67042858D01*
X12214285Y66300000D02*
X12690476Y66300000D01*
X12119047Y65957143D02*
X12452380Y67157143D01*
X12785714Y65957143D01*
X13785714Y66757143D02*
X14023809Y65957143D01*
X14261904Y66757143D01*
X14547619Y67157143D02*
X15166666Y67157143D01*
X14833333Y66700000D01*
X14976190Y66700000D01*
X15071428Y66642858D01*
X15119047Y66585715D01*
X15166666Y66471429D01*
X15166666Y66185715D01*
X15119047Y66071429D01*
X15071428Y66014286D01*
X14976190Y65957143D01*
X14690476Y65957143D01*
X14595238Y66014286D01*
X14547619Y66071429D01*
X15595238Y66071429D02*
X15642857Y66014286D01*
X15595238Y65957143D01*
X15547619Y66014286D01*
X15595238Y66071429D01*
X15595238Y65957143D01*
X16261904Y67157143D02*
X16357142Y67157143D01*
X16452380Y67100000D01*
X16500000Y67042858D01*
X16547619Y66928572D01*
X16595238Y66700000D01*
X16595238Y66414286D01*
X16547619Y66185715D01*
X16500000Y66071429D01*
X16452380Y66014286D01*
X16357142Y65957143D01*
X16261904Y65957143D01*
X16166666Y66014286D01*
X16119047Y66071429D01*
X16071428Y66185715D01*
X16023809Y66414286D01*
X16023809Y66700000D01*
X16071428Y66928572D01*
X16119047Y67042858D01*
X16166666Y67100000D01*
X16261904Y67157143D01*
X6476190Y64300000D02*
X6952380Y64300000D01*
X6380952Y63957143D02*
X6714285Y65157143D01*
X7047619Y63957143D01*
X7380952Y64757143D02*
X7380952Y63557143D01*
X7380952Y64700000D02*
X7476190Y64757143D01*
X7666666Y64757143D01*
X7761904Y64700000D01*
X7809523Y64642858D01*
X7857142Y64528572D01*
X7857142Y64185715D01*
X7809523Y64071429D01*
X7761904Y64014286D01*
X7666666Y63957143D01*
X7476190Y63957143D01*
X7380952Y64014286D01*
X8285714Y63957143D02*
X8285714Y64757143D01*
X8285714Y64528572D02*
X8333333Y64642858D01*
X8380952Y64700000D01*
X8476190Y64757143D01*
X8571428Y64757143D01*
X8904761Y64071429D02*
X8952380Y64014286D01*
X8904761Y63957143D01*
X8857142Y64014286D01*
X8904761Y64071429D01*
X8904761Y63957143D01*
X10095238Y65042858D02*
X10142857Y65100000D01*
X10238095Y65157143D01*
X10476190Y65157143D01*
X10571428Y65100000D01*
X10619047Y65042858D01*
X10666666Y64928572D01*
X10666666Y64814286D01*
X10619047Y64642858D01*
X10047619Y63957143D01*
X10666666Y63957143D01*
X11285714Y65157143D02*
X11380952Y65157143D01*
X11476190Y65100000D01*
X11523809Y65042858D01*
X11571428Y64928572D01*
X11619047Y64700000D01*
X11619047Y64414286D01*
X11571428Y64185715D01*
X11523809Y64071429D01*
X11476190Y64014286D01*
X11380952Y63957143D01*
X11285714Y63957143D01*
X11190476Y64014286D01*
X11142857Y64071429D01*
X11095238Y64185715D01*
X11047619Y64414286D01*
X11047619Y64700000D01*
X11095238Y64928572D01*
X11142857Y65042858D01*
X11190476Y65100000D01*
X11285714Y65157143D01*
X12000000Y65042858D02*
X12047619Y65100000D01*
X12142857Y65157143D01*
X12380952Y65157143D01*
X12476190Y65100000D01*
X12523809Y65042858D01*
X12571428Y64928572D01*
X12571428Y64814286D01*
X12523809Y64642858D01*
X11952380Y63957143D01*
X12571428Y63957143D01*
X13190476Y65157143D02*
X13285714Y65157143D01*
X13380952Y65100000D01*
X13428571Y65042858D01*
X13476190Y64928572D01*
X13523809Y64700000D01*
X13523809Y64414286D01*
X13476190Y64185715D01*
X13428571Y64071429D01*
X13380952Y64014286D01*
X13285714Y63957143D01*
X13190476Y63957143D01*
X13095238Y64014286D01*
X13047619Y64071429D01*
X13000000Y64185715D01*
X12952380Y64414286D01*
X12952380Y64700000D01*
X13000000Y64928572D01*
X13047619Y65042858D01*
X13095238Y65100000D01*
X13190476Y65157143D01*
D10*
X37800000Y31683334D02*
X37400000Y31683334D01*
X37600000Y31683334D02*
X37600000Y32383334D01*
X37533333Y32283334D01*
X37466666Y32216667D01*
X37400000Y32183334D01*
X1700000Y30683334D02*
X1300000Y30683334D01*
X1500000Y30683334D02*
X1500000Y31383334D01*
X1433333Y31283334D01*
X1366666Y31216667D01*
X1300000Y31183334D01*
X37800000Y88083334D02*
X37400000Y88083334D01*
X37600000Y88083334D02*
X37600000Y88783334D01*
X37533333Y88683334D01*
X37466666Y88616667D01*
X37400000Y88583334D01*
X1200000Y88083334D02*
X800000Y88083334D01*
X1000000Y88083334D02*
X1000000Y88783334D01*
X933333Y88683334D01*
X866666Y88616667D01*
X800000Y88583334D01*
D11*
X18100000Y21100000D02*
G75*
G03X18100000Y21100000I-900000J0D01*
G01*
X16200000Y14200000D02*
G75*
G03X16200000Y14200000I-900000J0D01*
G01*
X19700000Y64100000D02*
G75*
G03X19700000Y64100000I-900000J0D01*
G01*
X36200000Y59200000D02*
G75*
G03X36200000Y59200000I-900000J0D01*
G01*
X29000000Y13700000D02*
G75*
G03X29000000Y13700000I-900000J0D01*
G01*
X14600000Y39500000D02*
G75*
G03X14600000Y39500000I-900000J0D01*
G01*
X30900000Y39500000D02*
G75*
G03X30900000Y39500000I-900000J0D01*
G01*
X2897000Y67213000D02*
X2897000Y87787000D01*
X2897000Y87787000D02*
X738000Y87787000D01*
X738000Y87787000D02*
X103000Y87152000D01*
X103000Y87152000D02*
X103000Y67213000D01*
X103000Y67213000D02*
X2897000Y67213000D01*
X2897000Y9713000D02*
X2897000Y30287000D01*
X2897000Y30287000D02*
X738000Y30287000D01*
X738000Y30287000D02*
X103000Y29652000D01*
X103000Y29652000D02*
X103000Y9713000D01*
X103000Y9713000D02*
X2897000Y9713000D01*
X38897000Y67213000D02*
X38897000Y87787000D01*
X38897000Y87787000D02*
X36738000Y87787000D01*
X36738000Y87787000D02*
X36103000Y87152000D01*
X36103000Y87152000D02*
X36103000Y67213000D01*
X36103000Y67213000D02*
X38897000Y67213000D01*
X38897000Y9713000D02*
X38897000Y30287000D01*
X38897000Y30287000D02*
X36738000Y30287000D01*
X36738000Y30287000D02*
X36103000Y29652000D01*
X36103000Y29652000D02*
X36103000Y9713000D01*
X36103000Y9713000D02*
X38897000Y9713000D01*
X6950000Y46800000D02*
G75*
G03X6950000Y46800000I-950000J0D01*
G01*
X23050000Y46800000D02*
G75*
G03X23050000Y46800000I-950000J0D01*
G01*
D10*
X16316666Y23083334D02*
X16716666Y23083334D01*
X16516666Y22383334D02*
X16516666Y23083334D01*
X16950000Y22383334D02*
X16950000Y23083334D01*
X17216666Y23083334D01*
X17283333Y23050000D01*
X17316666Y23016667D01*
X17350000Y22950000D01*
X17350000Y22850000D01*
X17316666Y22783334D01*
X17283333Y22750000D01*
X17216666Y22716667D01*
X16950000Y22716667D01*
X18016666Y22383334D02*
X17616666Y22383334D01*
X17816666Y22383334D02*
X17816666Y23083334D01*
X17750000Y22983334D01*
X17683333Y22916667D01*
X17616666Y22883334D01*
X14516666Y16183334D02*
X14916666Y16183334D01*
X14716666Y15483334D02*
X14716666Y16183334D01*
X15150000Y15483334D02*
X15150000Y16183334D01*
X15416666Y16183334D01*
X15483333Y16150000D01*
X15516666Y16116667D01*
X15550000Y16050000D01*
X15550000Y15950000D01*
X15516666Y15883334D01*
X15483333Y15850000D01*
X15416666Y15816667D01*
X15150000Y15816667D01*
X15783333Y16183334D02*
X16216666Y16183334D01*
X15983333Y15916667D01*
X16083333Y15916667D01*
X16150000Y15883334D01*
X16183333Y15850000D01*
X16216666Y15783334D01*
X16216666Y15616667D01*
X16183333Y15550000D01*
X16150000Y15516667D01*
X16083333Y15483334D01*
X15883333Y15483334D01*
X15816666Y15516667D01*
X15783333Y15550000D01*
X18016666Y62883334D02*
X18416666Y62883334D01*
X18216666Y62183334D02*
X18216666Y62883334D01*
X18650000Y62183334D02*
X18650000Y62883334D01*
X18916666Y62883334D01*
X18983333Y62850000D01*
X19016666Y62816667D01*
X19050000Y62750000D01*
X19050000Y62650000D01*
X19016666Y62583334D01*
X18983333Y62550000D01*
X18916666Y62516667D01*
X18650000Y62516667D01*
X19683333Y62883334D02*
X19350000Y62883334D01*
X19316666Y62550000D01*
X19350000Y62583334D01*
X19416666Y62616667D01*
X19583333Y62616667D01*
X19650000Y62583334D01*
X19683333Y62550000D01*
X19716666Y62483334D01*
X19716666Y62316667D01*
X19683333Y62250000D01*
X19650000Y62216667D01*
X19583333Y62183334D01*
X19416666Y62183334D01*
X19350000Y62216667D01*
X19316666Y62250000D01*
X34416666Y61083334D02*
X34816666Y61083334D01*
X34616666Y60383334D02*
X34616666Y61083334D01*
X35050000Y60383334D02*
X35050000Y61083334D01*
X35316666Y61083334D01*
X35383333Y61050000D01*
X35416666Y61016667D01*
X35450000Y60950000D01*
X35450000Y60850000D01*
X35416666Y60783334D01*
X35383333Y60750000D01*
X35316666Y60716667D01*
X35050000Y60716667D01*
X36050000Y61083334D02*
X35916666Y61083334D01*
X35850000Y61050000D01*
X35816666Y61016667D01*
X35750000Y60916667D01*
X35716666Y60783334D01*
X35716666Y60516667D01*
X35750000Y60450000D01*
X35783333Y60416667D01*
X35850000Y60383334D01*
X35983333Y60383334D01*
X36050000Y60416667D01*
X36083333Y60450000D01*
X36116666Y60516667D01*
X36116666Y60683334D01*
X36083333Y60750000D01*
X36050000Y60783334D01*
X35983333Y60816667D01*
X35850000Y60816667D01*
X35783333Y60783334D01*
X35750000Y60750000D01*
X35716666Y60683334D01*
X27116666Y12483334D02*
X27516666Y12483334D01*
X27316666Y11783334D02*
X27316666Y12483334D01*
X27750000Y11783334D02*
X27750000Y12483334D01*
X28016666Y12483334D01*
X28083333Y12450000D01*
X28116666Y12416667D01*
X28150000Y12350000D01*
X28150000Y12250000D01*
X28116666Y12183334D01*
X28083333Y12150000D01*
X28016666Y12116667D01*
X27750000Y12116667D01*
X28383333Y12483334D02*
X28850000Y12483334D01*
X28550000Y11783334D01*
X12816666Y38483334D02*
X13216666Y38483334D01*
X13016666Y37783334D02*
X13016666Y38483334D01*
X13450000Y37783334D02*
X13450000Y38483334D01*
X13716666Y38483334D01*
X13783333Y38450000D01*
X13816666Y38416667D01*
X13850000Y38350000D01*
X13850000Y38250000D01*
X13816666Y38183334D01*
X13783333Y38150000D01*
X13716666Y38116667D01*
X13450000Y38116667D01*
X14250000Y38183334D02*
X14183333Y38216667D01*
X14150000Y38250000D01*
X14116666Y38316667D01*
X14116666Y38350000D01*
X14150000Y38416667D01*
X14183333Y38450000D01*
X14250000Y38483334D01*
X14383333Y38483334D01*
X14450000Y38450000D01*
X14483333Y38416667D01*
X14516666Y38350000D01*
X14516666Y38316667D01*
X14483333Y38250000D01*
X14450000Y38216667D01*
X14383333Y38183334D01*
X14250000Y38183334D01*
X14183333Y38150000D01*
X14150000Y38116667D01*
X14116666Y38050000D01*
X14116666Y37916667D01*
X14150000Y37850000D01*
X14183333Y37816667D01*
X14250000Y37783334D01*
X14383333Y37783334D01*
X14450000Y37816667D01*
X14483333Y37850000D01*
X14516666Y37916667D01*
X14516666Y38050000D01*
X14483333Y38116667D01*
X14450000Y38150000D01*
X14383333Y38183334D01*
X29016666Y38283334D02*
X29416666Y38283334D01*
X29216666Y37583334D02*
X29216666Y38283334D01*
X29650000Y37583334D02*
X29650000Y38283334D01*
X29916666Y38283334D01*
X29983333Y38250000D01*
X30016666Y38216667D01*
X30050000Y38150000D01*
X30050000Y38050000D01*
X30016666Y37983334D01*
X29983333Y37950000D01*
X29916666Y37916667D01*
X29650000Y37916667D01*
X30383333Y37583334D02*
X30516666Y37583334D01*
X30583333Y37616667D01*
X30616666Y37650000D01*
X30683333Y37750000D01*
X30716666Y37883334D01*
X30716666Y38150000D01*
X30683333Y38216667D01*
X30650000Y38250000D01*
X30583333Y38283334D01*
X30450000Y38283334D01*
X30383333Y38250000D01*
X30350000Y38216667D01*
X30316666Y38150000D01*
X30316666Y37983334D01*
X30350000Y37916667D01*
X30383333Y37883334D01*
X30450000Y37850000D01*
X30583333Y37850000D01*
X30650000Y37883334D01*
X30683333Y37916667D01*
X30716666Y37983334D01*
X3283333Y70383334D02*
X3750000Y69683334D01*
X3750000Y70383334D02*
X3283333Y69683334D01*
X4016666Y69683334D02*
X4016666Y70383334D01*
X4283333Y70383334D01*
X4350000Y70350000D01*
X4383333Y70316667D01*
X4416666Y70250000D01*
X4416666Y70150000D01*
X4383333Y70083334D01*
X4350000Y70050000D01*
X4283333Y70016667D01*
X4016666Y70016667D01*
X4683333Y70316667D02*
X4716666Y70350000D01*
X4783333Y70383334D01*
X4950000Y70383334D01*
X5016666Y70350000D01*
X5050000Y70316667D01*
X5083333Y70250000D01*
X5083333Y70183334D01*
X5050000Y70083334D01*
X4650000Y69683334D01*
X5083333Y69683334D01*
X783333Y9383334D02*
X1250000Y8683334D01*
X1250000Y9383334D02*
X783333Y8683334D01*
X1516666Y8683334D02*
X1516666Y9383334D01*
X1783333Y9383334D01*
X1850000Y9350000D01*
X1883333Y9316667D01*
X1916666Y9250000D01*
X1916666Y9150000D01*
X1883333Y9083334D01*
X1850000Y9050000D01*
X1783333Y9016667D01*
X1516666Y9016667D01*
X2150000Y9383334D02*
X2583333Y9383334D01*
X2350000Y9116667D01*
X2450000Y9116667D01*
X2516666Y9083334D01*
X2550000Y9050000D01*
X2583333Y8983334D01*
X2583333Y8816667D01*
X2550000Y8750000D01*
X2516666Y8716667D01*
X2450000Y8683334D01*
X2250000Y8683334D01*
X2183333Y8716667D01*
X2150000Y8750000D01*
X36583333Y66883334D02*
X37050000Y66183334D01*
X37050000Y66883334D02*
X36583333Y66183334D01*
X37316666Y66183334D02*
X37316666Y66883334D01*
X37583333Y66883334D01*
X37650000Y66850000D01*
X37683333Y66816667D01*
X37716666Y66750000D01*
X37716666Y66650000D01*
X37683333Y66583334D01*
X37650000Y66550000D01*
X37583333Y66516667D01*
X37316666Y66516667D01*
X38316666Y66650000D02*
X38316666Y66183334D01*
X38150000Y66916667D02*
X37983333Y66416667D01*
X38416666Y66416667D01*
X36383333Y9483334D02*
X36850000Y8783334D01*
X36850000Y9483334D02*
X36383333Y8783334D01*
X37116666Y8783334D02*
X37116666Y9483334D01*
X37383333Y9483334D01*
X37450000Y9450000D01*
X37483333Y9416667D01*
X37516666Y9350000D01*
X37516666Y9250000D01*
X37483333Y9183334D01*
X37450000Y9150000D01*
X37383333Y9116667D01*
X37116666Y9116667D01*
X38150000Y9483334D02*
X37816666Y9483334D01*
X37783333Y9150000D01*
X37816666Y9183334D01*
X37883333Y9216667D01*
X38050000Y9216667D01*
X38116666Y9183334D01*
X38150000Y9150000D01*
X38183333Y9083334D01*
X38183333Y8916667D01*
X38150000Y8850000D01*
X38116666Y8816667D01*
X38050000Y8783334D01*
X37883333Y8783334D01*
X37816666Y8816667D01*
X37783333Y8850000D01*
X2383333Y47083334D02*
X2783333Y47083334D01*
X2583333Y46383334D02*
X2583333Y47083334D01*
X3016666Y46383334D02*
X3016666Y47083334D01*
X3283333Y47083334D01*
X3350000Y47050000D01*
X3383333Y47016667D01*
X3416666Y46950000D01*
X3416666Y46850000D01*
X3383333Y46783334D01*
X3350000Y46750000D01*
X3283333Y46716667D01*
X3016666Y46716667D01*
X4083333Y46383334D02*
X3683333Y46383334D01*
X3883333Y46383334D02*
X3883333Y47083334D01*
X3816666Y46983334D01*
X3750000Y46916667D01*
X3683333Y46883334D01*
X4516666Y47083334D02*
X4583333Y47083334D01*
X4650000Y47050000D01*
X4683333Y47016667D01*
X4716666Y46950000D01*
X4750000Y46816667D01*
X4750000Y46650000D01*
X4716666Y46516667D01*
X4683333Y46450000D01*
X4650000Y46416667D01*
X4583333Y46383334D01*
X4516666Y46383334D01*
X4450000Y46416667D01*
X4416666Y46450000D01*
X4383333Y46516667D01*
X4350000Y46650000D01*
X4350000Y46816667D01*
X4383333Y46950000D01*
X4416666Y47016667D01*
X4450000Y47050000D01*
X4516666Y47083334D01*
X21283333Y48683334D02*
X21683333Y48683334D01*
X21483333Y47983334D02*
X21483333Y48683334D01*
X21916666Y47983334D02*
X21916666Y48683334D01*
X22183333Y48683334D01*
X22250000Y48650000D01*
X22283333Y48616667D01*
X22316666Y48550000D01*
X22316666Y48450000D01*
X22283333Y48383334D01*
X22250000Y48350000D01*
X22183333Y48316667D01*
X21916666Y48316667D01*
X22983333Y47983334D02*
X22583333Y47983334D01*
X22783333Y47983334D02*
X22783333Y48683334D01*
X22716666Y48583334D01*
X22650000Y48516667D01*
X22583333Y48483334D01*
X23650000Y47983334D02*
X23250000Y47983334D01*
X23450000Y47983334D02*
X23450000Y48683334D01*
X23383333Y48583334D01*
X23316666Y48516667D01*
X23250000Y48483334D01*
M02*
