G04 #@! TF.FileFunction,Legend,Bot*
%FSLAX46Y46*%
G04 Gerber Fmt 4.6, Leading zero omitted, Abs format (unit mm)*
G04 Created by KiCad (PCBNEW (2016-08-20 BZR 7083)-product) date Wed Apr 22 08:43:57 2020*
%MOMM*%
%LPD*%
G01*
G04 APERTURE LIST*
%ADD10C,0.100000*%
%ADD11C,0.500000*%
%ADD12C,0.150000*%
%ADD13C,0.200000*%
G04 APERTURE END LIST*
D10*
D11*
X36000000Y88500000D02*
X38500000Y88500000D01*
X500000Y88500000D02*
X12000000Y88500000D01*
D10*
X19150000Y43883334D02*
X19483333Y43883334D01*
X19483333Y44583334D01*
X18683333Y44250000D02*
X18916666Y44250000D01*
X18916666Y43883334D02*
X18916666Y44583334D01*
X18583333Y44583334D01*
X18183333Y44583334D02*
X18050000Y44583334D01*
X17983333Y44550000D01*
X17916666Y44483334D01*
X17883333Y44350000D01*
X17883333Y44116667D01*
X17916666Y43983334D01*
X17983333Y43916667D01*
X18050000Y43883334D01*
X18183333Y43883334D01*
X18250000Y43916667D01*
X18316666Y43983334D01*
X18350000Y44116667D01*
X18350000Y44350000D01*
X18316666Y44483334D01*
X18250000Y44550000D01*
X18183333Y44583334D01*
X35100000Y43950000D02*
X34866666Y43950000D01*
X34766666Y43583334D02*
X35100000Y43583334D01*
X35100000Y44283334D01*
X34766666Y44283334D01*
X34100000Y44250000D02*
X34166666Y44283334D01*
X34266666Y44283334D01*
X34366666Y44250000D01*
X34433333Y44183334D01*
X34466666Y44116667D01*
X34500000Y43983334D01*
X34500000Y43883334D01*
X34466666Y43750000D01*
X34433333Y43683334D01*
X34366666Y43616667D01*
X34266666Y43583334D01*
X34200000Y43583334D01*
X34100000Y43616667D01*
X34066666Y43650000D01*
X34066666Y43883334D01*
X34200000Y43883334D01*
D12*
X37628571Y50328572D02*
X38161904Y50176191D01*
X37780952Y50023810D01*
X38161904Y49871429D01*
X37628571Y49719048D01*
X37628571Y49490477D02*
X38161904Y49338096D01*
X37780952Y49185715D01*
X38161904Y49033334D01*
X37628571Y48880953D01*
X37628571Y48652381D02*
X38161904Y48500000D01*
X37780952Y48347620D01*
X38161904Y48195239D01*
X37628571Y48042858D01*
X38085714Y47738096D02*
X38123809Y47700000D01*
X38161904Y47738096D01*
X38123809Y47776191D01*
X38085714Y47738096D01*
X38161904Y47738096D01*
X38123809Y47052381D02*
X38161904Y47128572D01*
X38161904Y47280953D01*
X38123809Y47357143D01*
X38047619Y47395239D01*
X37742857Y47395239D01*
X37666666Y47357143D01*
X37628571Y47280953D01*
X37628571Y47128572D01*
X37666666Y47052381D01*
X37742857Y47014286D01*
X37819047Y47014286D01*
X37895238Y47395239D01*
X38161904Y46671429D02*
X37628571Y46671429D01*
X37780952Y46671429D02*
X37704761Y46633334D01*
X37666666Y46595239D01*
X37628571Y46519048D01*
X37628571Y46442858D01*
X38161904Y46176191D02*
X37628571Y46176191D01*
X37361904Y46176191D02*
X37400000Y46214286D01*
X37438095Y46176191D01*
X37400000Y46138096D01*
X37361904Y46176191D01*
X37438095Y46176191D01*
X38123809Y45452381D02*
X38161904Y45528572D01*
X38161904Y45680953D01*
X38123809Y45757143D01*
X38085714Y45795239D01*
X38009523Y45833334D01*
X37780952Y45833334D01*
X37704761Y45795239D01*
X37666666Y45757143D01*
X37628571Y45680953D01*
X37628571Y45528572D01*
X37666666Y45452381D01*
X38161904Y44766667D02*
X37742857Y44766667D01*
X37666666Y44804762D01*
X37628571Y44880953D01*
X37628571Y45033334D01*
X37666666Y45109524D01*
X38123809Y44766667D02*
X38161904Y44842858D01*
X38161904Y45033334D01*
X38123809Y45109524D01*
X38047619Y45147620D01*
X37971428Y45147620D01*
X37895238Y45109524D01*
X37857142Y45033334D01*
X37857142Y44842858D01*
X37819047Y44766667D01*
X38123809Y44423810D02*
X38161904Y44347620D01*
X38161904Y44195239D01*
X38123809Y44119048D01*
X38047619Y44080953D01*
X38009523Y44080953D01*
X37933333Y44119048D01*
X37895238Y44195239D01*
X37895238Y44309524D01*
X37857142Y44385715D01*
X37780952Y44423810D01*
X37742857Y44423810D01*
X37666666Y44385715D01*
X37628571Y44309524D01*
X37628571Y44195239D01*
X37666666Y44119048D01*
X37628571Y43814286D02*
X38161904Y43623810D01*
X37628571Y43433334D02*
X38161904Y43623810D01*
X38352380Y43700000D01*
X38390476Y43738096D01*
X38428571Y43814286D01*
X37628571Y43128572D02*
X38161904Y43128572D01*
X37704761Y43128572D02*
X37666666Y43090477D01*
X37628571Y43014286D01*
X37628571Y42900000D01*
X37666666Y42823810D01*
X37742857Y42785715D01*
X38161904Y42785715D01*
X37628571Y42519048D02*
X37628571Y42214286D01*
X37361904Y42404762D02*
X38047619Y42404762D01*
X38123809Y42366667D01*
X38161904Y42290477D01*
X38161904Y42214286D01*
X38161904Y41947620D02*
X37361904Y41947620D01*
X38161904Y41604762D02*
X37742857Y41604762D01*
X37666666Y41642858D01*
X37628571Y41719048D01*
X37628571Y41833334D01*
X37666666Y41909524D01*
X37704761Y41947620D01*
X38123809Y41261905D02*
X38161904Y41185715D01*
X38161904Y41033334D01*
X38123809Y40957143D01*
X38047619Y40919048D01*
X38009523Y40919048D01*
X37933333Y40957143D01*
X37895238Y41033334D01*
X37895238Y41147620D01*
X37857142Y41223810D01*
X37780952Y41261905D01*
X37742857Y41261905D01*
X37666666Y41223810D01*
X37628571Y41147620D01*
X37628571Y41033334D01*
X37666666Y40957143D01*
X38085714Y40576191D02*
X38123809Y40538096D01*
X38161904Y40576191D01*
X38123809Y40614286D01*
X38085714Y40576191D01*
X38161904Y40576191D01*
X38161904Y40080953D02*
X38123809Y40157143D01*
X38047619Y40195239D01*
X37361904Y40195239D01*
X37628571Y39852381D02*
X38161904Y39661905D01*
X37628571Y39471429D01*
D13*
X5614285Y72576191D02*
X5614285Y72242858D01*
X6242857Y72100000D02*
X6242857Y72576191D01*
X5042857Y72576191D01*
X5042857Y72100000D01*
X6242857Y71671429D02*
X5442857Y71671429D01*
X5671428Y71671429D02*
X5557142Y71623810D01*
X5500000Y71576191D01*
X5442857Y71480953D01*
X5442857Y71385715D01*
X6242857Y71052381D02*
X5442857Y71052381D01*
X5042857Y71052381D02*
X5100000Y71100000D01*
X5157142Y71052381D01*
X5100000Y71004762D01*
X5042857Y71052381D01*
X5157142Y71052381D01*
X6185714Y70147620D02*
X6242857Y70242858D01*
X6242857Y70433334D01*
X6185714Y70528572D01*
X6128571Y70576191D01*
X6014285Y70623810D01*
X5671428Y70623810D01*
X5557142Y70576191D01*
X5500000Y70528572D01*
X5442857Y70433334D01*
X5442857Y70242858D01*
X5500000Y70147620D01*
X6242857Y69290477D02*
X5614285Y69290477D01*
X5500000Y69338096D01*
X5442857Y69433334D01*
X5442857Y69623810D01*
X5500000Y69719048D01*
X6185714Y69290477D02*
X6242857Y69385715D01*
X6242857Y69623810D01*
X6185714Y69719048D01*
X6071428Y69766667D01*
X5957142Y69766667D01*
X5842857Y69719048D01*
X5785714Y69623810D01*
X5785714Y69385715D01*
X5728571Y69290477D01*
X6185714Y68100000D02*
X6242857Y67957143D01*
X6242857Y67719048D01*
X6185714Y67623810D01*
X6128571Y67576191D01*
X6014285Y67528572D01*
X5900000Y67528572D01*
X5785714Y67576191D01*
X5728571Y67623810D01*
X5671428Y67719048D01*
X5614285Y67909524D01*
X5557142Y68004762D01*
X5500000Y68052381D01*
X5385714Y68100000D01*
X5271428Y68100000D01*
X5157142Y68052381D01*
X5100000Y68004762D01*
X5042857Y67909524D01*
X5042857Y67671429D01*
X5100000Y67528572D01*
X5442857Y67195239D02*
X6242857Y66957143D01*
X5442857Y66719048D02*
X6242857Y66957143D01*
X6528571Y67052381D01*
X6585714Y67100000D01*
X6642857Y67195239D01*
X5442857Y66338096D02*
X6242857Y66338096D01*
X5557142Y66338096D02*
X5500000Y66290477D01*
X5442857Y66195239D01*
X5442857Y66052381D01*
X5500000Y65957143D01*
X5614285Y65909524D01*
X6242857Y65909524D01*
X5442857Y65576191D02*
X5442857Y65195239D01*
X5042857Y65433334D02*
X6071428Y65433334D01*
X6185714Y65385715D01*
X6242857Y65290477D01*
X6242857Y65195239D01*
X6242857Y64861905D02*
X5042857Y64861905D01*
X6242857Y64433334D02*
X5614285Y64433334D01*
X5500000Y64480953D01*
X5442857Y64576191D01*
X5442857Y64719048D01*
X5500000Y64814286D01*
X5557142Y64861905D01*
X6185714Y64004762D02*
X6242857Y63909524D01*
X6242857Y63719048D01*
X6185714Y63623810D01*
X6071428Y63576191D01*
X6014285Y63576191D01*
X5900000Y63623810D01*
X5842857Y63719048D01*
X5842857Y63861905D01*
X5785714Y63957143D01*
X5671428Y64004762D01*
X5614285Y64004762D01*
X5500000Y63957143D01*
X5442857Y63861905D01*
X5442857Y63719048D01*
X5500000Y63623810D01*
X8242857Y74647620D02*
X7042857Y74647620D01*
X7042857Y74266667D01*
X7100000Y74171429D01*
X7157142Y74123810D01*
X7271428Y74076191D01*
X7442857Y74076191D01*
X7557142Y74123810D01*
X7614285Y74171429D01*
X7671428Y74266667D01*
X7671428Y74647620D01*
X8242857Y73504762D02*
X8185714Y73600000D01*
X8128571Y73647620D01*
X8014285Y73695239D01*
X7671428Y73695239D01*
X7557142Y73647620D01*
X7500000Y73600000D01*
X7442857Y73504762D01*
X7442857Y73361905D01*
X7500000Y73266667D01*
X7557142Y73219048D01*
X7671428Y73171429D01*
X8014285Y73171429D01*
X8128571Y73219048D01*
X8185714Y73266667D01*
X8242857Y73361905D01*
X8242857Y73504762D01*
X8242857Y72600000D02*
X8185714Y72695239D01*
X8071428Y72742858D01*
X7042857Y72742858D01*
X8242857Y72219048D02*
X7442857Y72219048D01*
X7042857Y72219048D02*
X7100000Y72266667D01*
X7157142Y72219048D01*
X7100000Y72171429D01*
X7042857Y72219048D01*
X7157142Y72219048D01*
X7442857Y71838096D02*
X8242857Y71600000D01*
X7442857Y71361905D01*
X8242857Y70838096D02*
X8185714Y70933334D01*
X8128571Y70980953D01*
X8014285Y71028572D01*
X7671428Y71028572D01*
X7557142Y70980953D01*
X7500000Y70933334D01*
X7442857Y70838096D01*
X7442857Y70695239D01*
X7500000Y70600000D01*
X7557142Y70552381D01*
X7671428Y70504762D01*
X8014285Y70504762D01*
X8128571Y70552381D01*
X8185714Y70600000D01*
X8242857Y70695239D01*
X8242857Y70838096D01*
X8242857Y70076191D02*
X7042857Y70076191D01*
X7785714Y69980953D02*
X8242857Y69695239D01*
X7442857Y69695239D02*
X7900000Y70076191D01*
X8185714Y69314286D02*
X8242857Y69219048D01*
X8242857Y69028572D01*
X8185714Y68933334D01*
X8071428Y68885715D01*
X8014285Y68885715D01*
X7900000Y68933334D01*
X7842857Y69028572D01*
X7842857Y69171429D01*
X7785714Y69266667D01*
X7671428Y69314286D01*
X7614285Y69314286D01*
X7500000Y69266667D01*
X7442857Y69171429D01*
X7442857Y69028572D01*
X7500000Y68933334D01*
X7042857Y67838096D02*
X8242857Y67504762D01*
X7042857Y67171429D01*
X8128571Y66266667D02*
X8185714Y66314286D01*
X8242857Y66457143D01*
X8242857Y66552381D01*
X8185714Y66695239D01*
X8071428Y66790477D01*
X7957142Y66838096D01*
X7728571Y66885715D01*
X7557142Y66885715D01*
X7328571Y66838096D01*
X7214285Y66790477D01*
X7100000Y66695239D01*
X7042857Y66552381D01*
X7042857Y66457143D01*
X7100000Y66314286D01*
X7157142Y66266667D01*
X7900000Y65885715D02*
X7900000Y65409524D01*
X8242857Y65980953D02*
X7042857Y65647620D01*
X8242857Y65314286D01*
X7442857Y64314286D02*
X8242857Y64076191D01*
X7442857Y63838096D01*
X7042857Y63552381D02*
X7042857Y62933334D01*
X7500000Y63266667D01*
X7500000Y63123810D01*
X7557142Y63028572D01*
X7614285Y62980953D01*
X7728571Y62933334D01*
X8014285Y62933334D01*
X8128571Y62980953D01*
X8185714Y63028572D01*
X8242857Y63123810D01*
X8242857Y63409524D01*
X8185714Y63504762D01*
X8128571Y63552381D01*
X8128571Y62504762D02*
X8185714Y62457143D01*
X8242857Y62504762D01*
X8185714Y62552381D01*
X8128571Y62504762D01*
X8242857Y62504762D01*
X7042857Y61838096D02*
X7042857Y61742858D01*
X7100000Y61647620D01*
X7157142Y61600000D01*
X7271428Y61552381D01*
X7500000Y61504762D01*
X7785714Y61504762D01*
X8014285Y61552381D01*
X8128571Y61600000D01*
X8185714Y61647620D01*
X8242857Y61742858D01*
X8242857Y61838096D01*
X8185714Y61933334D01*
X8128571Y61980953D01*
X8014285Y62028572D01*
X7785714Y62076191D01*
X7500000Y62076191D01*
X7271428Y62028572D01*
X7157142Y61980953D01*
X7100000Y61933334D01*
X7042857Y61838096D01*
X9900000Y71623810D02*
X9900000Y71147620D01*
X10242857Y71719048D02*
X9042857Y71385715D01*
X10242857Y71052381D01*
X9442857Y70719048D02*
X10642857Y70719048D01*
X9500000Y70719048D02*
X9442857Y70623810D01*
X9442857Y70433334D01*
X9500000Y70338096D01*
X9557142Y70290477D01*
X9671428Y70242858D01*
X10014285Y70242858D01*
X10128571Y70290477D01*
X10185714Y70338096D01*
X10242857Y70433334D01*
X10242857Y70623810D01*
X10185714Y70719048D01*
X10242857Y69814286D02*
X9442857Y69814286D01*
X9671428Y69814286D02*
X9557142Y69766667D01*
X9500000Y69719048D01*
X9442857Y69623810D01*
X9442857Y69528572D01*
X10128571Y69195239D02*
X10185714Y69147620D01*
X10242857Y69195239D01*
X10185714Y69242858D01*
X10128571Y69195239D01*
X10242857Y69195239D01*
X9157142Y68004762D02*
X9100000Y67957143D01*
X9042857Y67861905D01*
X9042857Y67623810D01*
X9100000Y67528572D01*
X9157142Y67480953D01*
X9271428Y67433334D01*
X9385714Y67433334D01*
X9557142Y67480953D01*
X10242857Y68052381D01*
X10242857Y67433334D01*
X9042857Y66814286D02*
X9042857Y66719048D01*
X9100000Y66623810D01*
X9157142Y66576191D01*
X9271428Y66528572D01*
X9500000Y66480953D01*
X9785714Y66480953D01*
X10014285Y66528572D01*
X10128571Y66576191D01*
X10185714Y66623810D01*
X10242857Y66719048D01*
X10242857Y66814286D01*
X10185714Y66909524D01*
X10128571Y66957143D01*
X10014285Y67004762D01*
X9785714Y67052381D01*
X9500000Y67052381D01*
X9271428Y67004762D01*
X9157142Y66957143D01*
X9100000Y66909524D01*
X9042857Y66814286D01*
X9157142Y66100000D02*
X9100000Y66052381D01*
X9042857Y65957143D01*
X9042857Y65719048D01*
X9100000Y65623810D01*
X9157142Y65576191D01*
X9271428Y65528572D01*
X9385714Y65528572D01*
X9557142Y65576191D01*
X10242857Y66147620D01*
X10242857Y65528572D01*
X9042857Y64909524D02*
X9042857Y64814286D01*
X9100000Y64719048D01*
X9157142Y64671429D01*
X9271428Y64623810D01*
X9500000Y64576191D01*
X9785714Y64576191D01*
X10014285Y64623810D01*
X10128571Y64671429D01*
X10185714Y64719048D01*
X10242857Y64814286D01*
X10242857Y64909524D01*
X10185714Y65004762D01*
X10128571Y65052381D01*
X10014285Y65100000D01*
X9785714Y65147620D01*
X9500000Y65147620D01*
X9271428Y65100000D01*
X9157142Y65052381D01*
X9100000Y65004762D01*
X9042857Y64909524D01*
X32361904Y76314286D02*
X31600000Y76314286D01*
X30600000Y75857143D02*
X31171428Y75857143D01*
X30885714Y75857143D02*
X30885714Y77057143D01*
X30980952Y76885715D01*
X31076190Y76771429D01*
X31171428Y76714286D01*
X30219047Y76942858D02*
X30171428Y77000000D01*
X30076190Y77057143D01*
X29838095Y77057143D01*
X29742857Y77000000D01*
X29695238Y76942858D01*
X29647619Y76828572D01*
X29647619Y76714286D01*
X29695238Y76542858D01*
X30266666Y75857143D01*
X29647619Y75857143D01*
X29361904Y77057143D02*
X29028571Y75857143D01*
X28695238Y77057143D01*
X16361904Y76614286D02*
X15600000Y76614286D01*
X15980952Y76157143D02*
X15980952Y77071429D01*
X14600000Y76157143D02*
X15171428Y76157143D01*
X14885714Y76157143D02*
X14885714Y77357143D01*
X14980952Y77185715D01*
X15076190Y77071429D01*
X15171428Y77014286D01*
X14219047Y77242858D02*
X14171428Y77300000D01*
X14076190Y77357143D01*
X13838095Y77357143D01*
X13742857Y77300000D01*
X13695238Y77242858D01*
X13647619Y77128572D01*
X13647619Y77014286D01*
X13695238Y76842858D01*
X14266666Y76157143D01*
X13647619Y76157143D01*
X13361904Y77357143D02*
X13028571Y76157143D01*
X12695238Y77357143D01*
D10*
X17000000Y33600000D02*
X17000000Y32100000D01*
X17000000Y34000000D02*
X17000000Y35500000D01*
X17600000Y34000000D02*
X16400000Y34000000D01*
X17600000Y33600000D02*
X16400000Y33600000D01*
X17900000Y30500000D02*
X17900000Y37100000D01*
X17900000Y37100000D02*
X16100000Y37100000D01*
X16100000Y37100000D02*
X16100000Y30500000D01*
X16100000Y30500000D02*
X17900000Y30500000D01*
X4600000Y23900000D02*
X4600000Y25400000D01*
X4600000Y23500000D02*
X4600000Y22000000D01*
X4000000Y23500000D02*
X5200000Y23500000D01*
X4000000Y23900000D02*
X5200000Y23900000D01*
X3700000Y27000000D02*
X3700000Y20400000D01*
X3700000Y20400000D02*
X5500000Y20400000D01*
X5500000Y20400000D02*
X5500000Y27000000D01*
X5500000Y27000000D02*
X3700000Y27000000D01*
X24100000Y64100000D02*
X25600000Y64100000D01*
X23700000Y64100000D02*
X22200000Y64100000D01*
X23700000Y64700000D02*
X23700000Y63500000D01*
X24100000Y64700000D02*
X24100000Y63500000D01*
X27200000Y65000000D02*
X20600000Y65000000D01*
X20600000Y65000000D02*
X20600000Y63200000D01*
X20600000Y63200000D02*
X27200000Y63200000D01*
X27200000Y63200000D02*
X27200000Y65000000D01*
X13600000Y75000000D02*
X12100000Y75000000D01*
X14000000Y75000000D02*
X15500000Y75000000D01*
X14000000Y74400000D02*
X14000000Y75600000D01*
X13600000Y74400000D02*
X13600000Y75600000D01*
X10500000Y74100000D02*
X17100000Y74100000D01*
X17100000Y74100000D02*
X17100000Y75900000D01*
X17100000Y75900000D02*
X10500000Y75900000D01*
X10500000Y75900000D02*
X10500000Y74100000D01*
X19100000Y36100000D02*
X19100000Y34600000D01*
X19100000Y36500000D02*
X19100000Y38000000D01*
X19700000Y36500000D02*
X18500000Y36500000D01*
X19700000Y36100000D02*
X18500000Y36100000D01*
X20000000Y33000000D02*
X20000000Y39600000D01*
X20000000Y39600000D02*
X18200000Y39600000D01*
X18200000Y39600000D02*
X18200000Y33000000D01*
X18200000Y33000000D02*
X20000000Y33000000D01*
X25000000Y15900000D02*
X23500000Y15900000D01*
X25400000Y15900000D02*
X26900000Y15900000D01*
X25400000Y15300000D02*
X25400000Y16500000D01*
X25000000Y15300000D02*
X25000000Y16500000D01*
X21900000Y15000000D02*
X28500000Y15000000D01*
X28500000Y15000000D02*
X28500000Y16800000D01*
X28500000Y16800000D02*
X21900000Y16800000D01*
X21900000Y16800000D02*
X21900000Y15000000D01*
X25801500Y17083000D02*
X21928000Y17083000D01*
X21928000Y17083000D02*
X21293000Y17718000D01*
X21293000Y17718000D02*
X21293000Y35117000D01*
X27198500Y17083000D02*
X31707000Y17083000D01*
X25801500Y17083000D02*
G75*
G02X26500000Y17781500I698500J0D01*
G01*
X26500000Y17781500D02*
G75*
G02X27198500Y17083000I0J-698500D01*
G01*
X31707000Y35117000D02*
X21293000Y35117000D01*
X31707000Y35117000D02*
X31707000Y17083000D01*
D12*
X18100000Y21100000D02*
G75*
G03X18100000Y21100000I-900000J0D01*
G01*
X16200000Y14200000D02*
G75*
G03X16200000Y14200000I-900000J0D01*
G01*
X19700000Y64100000D02*
G75*
G03X19700000Y64100000I-900000J0D01*
G01*
X36200000Y59200000D02*
G75*
G03X36200000Y59200000I-900000J0D01*
G01*
X29000000Y13700000D02*
G75*
G03X29000000Y13700000I-900000J0D01*
G01*
X14600000Y39500000D02*
G75*
G03X14600000Y39500000I-900000J0D01*
G01*
X30900000Y39500000D02*
G75*
G03X30900000Y39500000I-900000J0D01*
G01*
D10*
X20300000Y12700000D02*
X18800000Y12700000D01*
X20700000Y12700000D02*
X22200000Y12700000D01*
X20700000Y12100000D02*
X20700000Y13300000D01*
X20300000Y12100000D02*
X20300000Y13300000D01*
X17200000Y11800000D02*
X23800000Y11800000D01*
X23800000Y11800000D02*
X23800000Y13600000D01*
X23800000Y13600000D02*
X17200000Y13600000D01*
X17200000Y13600000D02*
X17200000Y11800000D01*
X30600000Y2500000D02*
X32100000Y2500000D01*
X30200000Y2500000D02*
X28700000Y2500000D01*
X30200000Y3100000D02*
X30200000Y1900000D01*
X30600000Y3100000D02*
X30600000Y1900000D01*
X33700000Y3400000D02*
X27100000Y3400000D01*
X27100000Y3400000D02*
X27100000Y1600000D01*
X27100000Y1600000D02*
X33700000Y1600000D01*
X33700000Y1600000D02*
X33700000Y3400000D01*
X18141500Y65306500D02*
X17506500Y65941500D01*
X17506500Y65941500D02*
X17506500Y75593500D01*
X21951500Y65306500D02*
X18141500Y65306500D01*
X23348500Y65306500D02*
X27793500Y65306500D01*
X22650000Y66005000D02*
G75*
G02X23348500Y65306500I0J-698500D01*
G01*
X21951500Y65306500D02*
G75*
G02X22650000Y66005000I698500J0D01*
G01*
X27793500Y75593500D02*
X17506500Y75593500D01*
X27793500Y75593500D02*
X27793500Y65306500D01*
X26208500Y11443500D02*
X26843500Y10808500D01*
X26843500Y10808500D02*
X26843500Y1156500D01*
X22398500Y11443500D02*
X26208500Y11443500D01*
X21001500Y11443500D02*
X16556500Y11443500D01*
X21700000Y10745000D02*
G75*
G02X21001500Y11443500I0J698500D01*
G01*
X22398500Y11443500D02*
G75*
G02X21700000Y10745000I-698500J0D01*
G01*
X16556500Y1156500D02*
X26843500Y1156500D01*
X16556500Y1156500D02*
X16556500Y11443500D01*
D12*
X6950000Y46800000D02*
G75*
G03X6950000Y46800000I-950000J0D01*
G01*
X23050000Y46800000D02*
G75*
G03X23050000Y46800000I-950000J0D01*
G01*
D10*
X15300000Y7500000D02*
X15300000Y6000000D01*
X15300000Y7900000D02*
X15300000Y9400000D01*
X15900000Y7900000D02*
X14700000Y7900000D01*
X15900000Y7500000D02*
X14700000Y7500000D01*
X16200000Y4400000D02*
X16200000Y11000000D01*
X16200000Y11000000D02*
X14400000Y11000000D01*
X14400000Y11000000D02*
X14400000Y4400000D01*
X14400000Y4400000D02*
X16200000Y4400000D01*
X32900000Y36100000D02*
X32900000Y34600000D01*
X32900000Y36500000D02*
X32900000Y38000000D01*
X33500000Y36500000D02*
X32300000Y36500000D01*
X33500000Y36100000D02*
X32300000Y36100000D01*
X33800000Y33000000D02*
X33800000Y39600000D01*
X33800000Y39600000D02*
X32000000Y39600000D01*
X32000000Y39600000D02*
X32000000Y33000000D01*
X32000000Y33000000D02*
X33800000Y33000000D01*
X28100000Y7300000D02*
X28100000Y5800000D01*
X28100000Y7700000D02*
X28100000Y9200000D01*
X28700000Y7700000D02*
X27500000Y7700000D01*
X28700000Y7300000D02*
X27500000Y7300000D01*
X29000000Y4200000D02*
X29000000Y10800000D01*
X29000000Y10800000D02*
X27200000Y10800000D01*
X27200000Y10800000D02*
X27200000Y4200000D01*
X27200000Y4200000D02*
X29000000Y4200000D01*
X12400000Y70100000D02*
X12400000Y70900000D01*
X12400000Y64100000D02*
X12400000Y63300000D01*
X13800000Y70100000D02*
X11000000Y70100000D01*
X11000000Y70100000D02*
X11000000Y64100000D01*
X11000000Y64100000D02*
X13800000Y64100000D01*
X13800000Y64100000D02*
X13800000Y70100000D01*
X32600000Y72500000D02*
X32600000Y73300000D01*
X32600000Y66500000D02*
X32600000Y65700000D01*
X34000000Y72500000D02*
X31200000Y72500000D01*
X31200000Y72500000D02*
X31200000Y66500000D01*
X31200000Y66500000D02*
X34000000Y66500000D01*
X34000000Y66500000D02*
X34000000Y72500000D01*
X15400000Y64100000D02*
X15400000Y63300000D01*
X15400000Y70100000D02*
X15400000Y70900000D01*
X14000000Y64100000D02*
X16800000Y64100000D01*
X16800000Y64100000D02*
X16800000Y70100000D01*
X16800000Y70100000D02*
X14000000Y70100000D01*
X14000000Y70100000D02*
X14000000Y64100000D01*
X29500000Y66500000D02*
X29500000Y65700000D01*
X29500000Y72500000D02*
X29500000Y73300000D01*
X28100000Y66500000D02*
X30900000Y66500000D01*
X30900000Y66500000D02*
X30900000Y72500000D01*
X30900000Y72500000D02*
X28100000Y72500000D01*
X28100000Y72500000D02*
X28100000Y66500000D01*
X11900000Y59200000D02*
X11100000Y59200000D01*
X17900000Y59200000D02*
X18700000Y59200000D01*
X11900000Y60600000D02*
X11900000Y57800000D01*
X11900000Y57800000D02*
X17900000Y57800000D01*
X17900000Y57800000D02*
X17900000Y60600000D01*
X17900000Y60600000D02*
X11900000Y60600000D01*
X30500000Y59200000D02*
X31300000Y59200000D01*
X24500000Y59200000D02*
X23700000Y59200000D01*
X30500000Y57800000D02*
X30500000Y60600000D01*
X30500000Y60600000D02*
X24500000Y60600000D01*
X24500000Y60600000D02*
X24500000Y57800000D01*
X24500000Y57800000D02*
X30500000Y57800000D01*
X19100000Y48700000D02*
X19100000Y47900000D01*
X19100000Y54700000D02*
X19100000Y55500000D01*
X17700000Y48700000D02*
X20500000Y48700000D01*
X20500000Y48700000D02*
X20500000Y54700000D01*
X20500000Y54700000D02*
X17700000Y54700000D01*
X17700000Y54700000D02*
X17700000Y48700000D01*
X35300000Y48700000D02*
X35300000Y47900000D01*
X35300000Y54700000D02*
X35300000Y55500000D01*
X33900000Y48700000D02*
X36700000Y48700000D01*
X36700000Y48700000D02*
X36700000Y54700000D01*
X36700000Y54700000D02*
X33900000Y54700000D01*
X33900000Y54700000D02*
X33900000Y48700000D01*
X17500000Y18000000D02*
X18300000Y18000000D01*
X11500000Y18000000D02*
X10700000Y18000000D01*
X17500000Y16600000D02*
X17500000Y19400000D01*
X17500000Y19400000D02*
X11500000Y19400000D01*
X11500000Y19400000D02*
X11500000Y16600000D01*
X11500000Y16600000D02*
X17500000Y16600000D01*
X8500000Y47100000D02*
X8500000Y46300000D01*
X8500000Y53100000D02*
X8500000Y53900000D01*
X7100000Y47100000D02*
X9900000Y47100000D01*
X9900000Y47100000D02*
X9900000Y53100000D01*
X9900000Y53100000D02*
X7100000Y53100000D01*
X7100000Y53100000D02*
X7100000Y47100000D01*
X24800000Y47100000D02*
X24800000Y46300000D01*
X24800000Y53100000D02*
X24800000Y53900000D01*
X23400000Y47100000D02*
X26200000Y47100000D01*
X26200000Y47100000D02*
X26200000Y53100000D01*
X26200000Y53100000D02*
X23400000Y53100000D01*
X23400000Y53100000D02*
X23400000Y47100000D01*
X19500000Y29100000D02*
X19500000Y29900000D01*
X19500000Y23100000D02*
X19500000Y22300000D01*
X20900000Y29100000D02*
X18100000Y29100000D01*
X18100000Y29100000D02*
X18100000Y23100000D01*
X18100000Y23100000D02*
X20900000Y23100000D01*
X20900000Y23100000D02*
X20900000Y29100000D01*
X35500000Y39500000D02*
X35500000Y40300000D01*
X35500000Y33500000D02*
X35500000Y32700000D01*
X36900000Y39500000D02*
X34100000Y39500000D01*
X34100000Y39500000D02*
X34100000Y33500000D01*
X34100000Y33500000D02*
X36900000Y33500000D01*
X36900000Y33500000D02*
X36900000Y39500000D01*
X33800000Y6900000D02*
X33800000Y6100000D01*
X33800000Y12900000D02*
X33800000Y13700000D01*
X32400000Y6900000D02*
X35200000Y6900000D01*
X35200000Y6900000D02*
X35200000Y12900000D01*
X35200000Y12900000D02*
X32400000Y12900000D01*
X32400000Y12900000D02*
X32400000Y6900000D01*
X30700000Y12900000D02*
X30700000Y13700000D01*
X30700000Y6900000D02*
X30700000Y6100000D01*
X32100000Y12900000D02*
X29300000Y12900000D01*
X29300000Y12900000D02*
X29300000Y6900000D01*
X29300000Y6900000D02*
X32100000Y6900000D01*
X32100000Y6900000D02*
X32100000Y12900000D01*
X12700000Y31800000D02*
X13500000Y31800000D01*
X6700000Y31800000D02*
X5900000Y31800000D01*
X12700000Y30400000D02*
X12700000Y33200000D01*
X12700000Y33200000D02*
X6700000Y33200000D01*
X6700000Y33200000D02*
X6700000Y30400000D01*
X6700000Y30400000D02*
X12700000Y30400000D01*
X16143500Y20391500D02*
X15508500Y19756500D01*
X15508500Y19756500D02*
X5856500Y19756500D01*
X16143500Y24201500D02*
X16143500Y20391500D01*
X16143500Y25598500D02*
X16143500Y30043500D01*
X15445000Y24900000D02*
G75*
G02X16143500Y25598500I698500J0D01*
G01*
X16143500Y24201500D02*
G75*
G02X15445000Y24900000I0J698500D01*
G01*
X5856500Y30043500D02*
X5856500Y19756500D01*
X5856500Y30043500D02*
X16143500Y30043500D01*
X12700000Y13200000D02*
X12700000Y14000000D01*
X12700000Y7200000D02*
X12700000Y6400000D01*
X14100000Y13200000D02*
X11300000Y13200000D01*
X11300000Y13200000D02*
X11300000Y7200000D01*
X11300000Y7200000D02*
X14100000Y7200000D01*
X14100000Y7200000D02*
X14100000Y13200000D01*
X13000000Y2500000D02*
X13800000Y2500000D01*
X7000000Y2500000D02*
X6200000Y2500000D01*
X13000000Y1100000D02*
X13000000Y3900000D01*
X13000000Y3900000D02*
X7000000Y3900000D01*
X7000000Y3900000D02*
X7000000Y1100000D01*
X7000000Y1100000D02*
X13000000Y1100000D01*
X27968000Y49234500D02*
X32032000Y49234500D01*
X26634500Y56981500D02*
X26634500Y50568000D01*
X33365500Y50568000D02*
X33365500Y56981500D01*
X27968000Y49234500D02*
G75*
G02X26634500Y50568000I0J1333500D01*
G01*
X33365500Y50568000D02*
G75*
G02X32032000Y49234500I-1333500J0D01*
G01*
X26634500Y56981500D02*
X33365500Y56981500D01*
X27968000Y40834500D02*
X32032000Y40834500D01*
X26634500Y48581500D02*
X26634500Y42168000D01*
X33365500Y42168000D02*
X33365500Y48581500D01*
X27968000Y40834500D02*
G75*
G02X26634500Y42168000I0J1333500D01*
G01*
X33365500Y42168000D02*
G75*
G02X32032000Y40834500I-1333500J0D01*
G01*
X26634500Y48581500D02*
X33365500Y48581500D01*
X11668000Y49234500D02*
X15732000Y49234500D01*
X10334500Y56981500D02*
X10334500Y50568000D01*
X17065500Y50568000D02*
X17065500Y56981500D01*
X11668000Y49234500D02*
G75*
G02X10334500Y50568000I0J1333500D01*
G01*
X17065500Y50568000D02*
G75*
G02X15732000Y49234500I-1333500J0D01*
G01*
X10334500Y56981500D02*
X17065500Y56981500D01*
X11668000Y40834500D02*
X15732000Y40834500D01*
X10334500Y48581500D02*
X10334500Y42168000D01*
X17065500Y42168000D02*
X17065500Y48581500D01*
X11668000Y40834500D02*
G75*
G02X10334500Y42168000I0J1333500D01*
G01*
X17065500Y42168000D02*
G75*
G02X15732000Y40834500I-1333500J0D01*
G01*
X10334500Y48581500D02*
X17065500Y48581500D01*
X15750000Y35583334D02*
X15683333Y35583334D01*
X15616666Y35550000D01*
X15583333Y35516667D01*
X15550000Y35450000D01*
X15516666Y35316667D01*
X15516666Y35150000D01*
X15550000Y35016667D01*
X15583333Y34950000D01*
X15616666Y34916667D01*
X15683333Y34883334D01*
X15750000Y34883334D01*
X15816666Y34916667D01*
X15850000Y34950000D01*
X15883333Y35016667D01*
X15916666Y35150000D01*
X15916666Y35316667D01*
X15883333Y35450000D01*
X15850000Y35516667D01*
X15816666Y35550000D01*
X15750000Y35583334D01*
X15216666Y34950000D02*
X15183333Y34916667D01*
X15216666Y34883334D01*
X15250000Y34916667D01*
X15216666Y34950000D01*
X15216666Y34883334D01*
X14516666Y34883334D02*
X14916666Y34883334D01*
X14716666Y34883334D02*
X14716666Y35583334D01*
X14783333Y35483334D01*
X14850000Y35416667D01*
X14916666Y35383334D01*
X13916666Y35350000D02*
X13916666Y34883334D01*
X14216666Y35350000D02*
X14216666Y34983334D01*
X14183333Y34916667D01*
X14116666Y34883334D01*
X14016666Y34883334D01*
X13950000Y34916667D01*
X13916666Y34950000D01*
X13350000Y35250000D02*
X13583333Y35250000D01*
X13583333Y34883334D02*
X13583333Y35583334D01*
X13250000Y35583334D01*
X15416666Y35850000D02*
X15450000Y35816667D01*
X15550000Y35783334D01*
X15616666Y35783334D01*
X15716666Y35816667D01*
X15783333Y35883334D01*
X15816666Y35950000D01*
X15850000Y36083334D01*
X15850000Y36183334D01*
X15816666Y36316667D01*
X15783333Y36383334D01*
X15716666Y36450000D01*
X15616666Y36483334D01*
X15550000Y36483334D01*
X15450000Y36450000D01*
X15416666Y36416667D01*
X15183333Y36483334D02*
X14716666Y36483334D01*
X15016666Y35783334D01*
X5450000Y27883334D02*
X5383333Y27883334D01*
X5316666Y27850000D01*
X5283333Y27816667D01*
X5250000Y27750000D01*
X5216666Y27616667D01*
X5216666Y27450000D01*
X5250000Y27316667D01*
X5283333Y27250000D01*
X5316666Y27216667D01*
X5383333Y27183334D01*
X5450000Y27183334D01*
X5516666Y27216667D01*
X5550000Y27250000D01*
X5583333Y27316667D01*
X5616666Y27450000D01*
X5616666Y27616667D01*
X5583333Y27750000D01*
X5550000Y27816667D01*
X5516666Y27850000D01*
X5450000Y27883334D01*
X4916666Y27250000D02*
X4883333Y27216667D01*
X4916666Y27183334D01*
X4950000Y27216667D01*
X4916666Y27250000D01*
X4916666Y27183334D01*
X4216666Y27183334D02*
X4616666Y27183334D01*
X4416666Y27183334D02*
X4416666Y27883334D01*
X4483333Y27783334D01*
X4550000Y27716667D01*
X4616666Y27683334D01*
X3616666Y27650000D02*
X3616666Y27183334D01*
X3916666Y27650000D02*
X3916666Y27283334D01*
X3883333Y27216667D01*
X3816666Y27183334D01*
X3716666Y27183334D01*
X3650000Y27216667D01*
X3616666Y27250000D01*
X3050000Y27550000D02*
X3283333Y27550000D01*
X3283333Y27183334D02*
X3283333Y27883334D01*
X2950000Y27883334D01*
X4516666Y28150000D02*
X4550000Y28116667D01*
X4650000Y28083334D01*
X4716666Y28083334D01*
X4816666Y28116667D01*
X4883333Y28183334D01*
X4916666Y28250000D01*
X4950000Y28383334D01*
X4950000Y28483334D01*
X4916666Y28616667D01*
X4883333Y28683334D01*
X4816666Y28750000D01*
X4716666Y28783334D01*
X4650000Y28783334D01*
X4550000Y28750000D01*
X4516666Y28716667D01*
X4116666Y28483334D02*
X4183333Y28516667D01*
X4216666Y28550000D01*
X4250000Y28616667D01*
X4250000Y28650000D01*
X4216666Y28716667D01*
X4183333Y28750000D01*
X4116666Y28783334D01*
X3983333Y28783334D01*
X3916666Y28750000D01*
X3883333Y28716667D01*
X3850000Y28650000D01*
X3850000Y28616667D01*
X3883333Y28550000D01*
X3916666Y28516667D01*
X3983333Y28483334D01*
X4116666Y28483334D01*
X4183333Y28450000D01*
X4216666Y28416667D01*
X4250000Y28350000D01*
X4250000Y28216667D01*
X4216666Y28150000D01*
X4183333Y28116667D01*
X4116666Y28083334D01*
X3983333Y28083334D01*
X3916666Y28116667D01*
X3883333Y28150000D01*
X3850000Y28216667D01*
X3850000Y28350000D01*
X3883333Y28416667D01*
X3916666Y28450000D01*
X3983333Y28483334D01*
X24950000Y62083334D02*
X24883333Y62083334D01*
X24816666Y62050000D01*
X24783333Y62016667D01*
X24750000Y61950000D01*
X24716666Y61816667D01*
X24716666Y61650000D01*
X24750000Y61516667D01*
X24783333Y61450000D01*
X24816666Y61416667D01*
X24883333Y61383334D01*
X24950000Y61383334D01*
X25016666Y61416667D01*
X25050000Y61450000D01*
X25083333Y61516667D01*
X25116666Y61650000D01*
X25116666Y61816667D01*
X25083333Y61950000D01*
X25050000Y62016667D01*
X25016666Y62050000D01*
X24950000Y62083334D01*
X24416666Y61450000D02*
X24383333Y61416667D01*
X24416666Y61383334D01*
X24450000Y61416667D01*
X24416666Y61450000D01*
X24416666Y61383334D01*
X23716666Y61383334D02*
X24116666Y61383334D01*
X23916666Y61383334D02*
X23916666Y62083334D01*
X23983333Y61983334D01*
X24050000Y61916667D01*
X24116666Y61883334D01*
X23116666Y61850000D02*
X23116666Y61383334D01*
X23416666Y61850000D02*
X23416666Y61483334D01*
X23383333Y61416667D01*
X23316666Y61383334D01*
X23216666Y61383334D01*
X23150000Y61416667D01*
X23116666Y61450000D01*
X22550000Y61750000D02*
X22783333Y61750000D01*
X22783333Y61383334D02*
X22783333Y62083334D01*
X22450000Y62083334D01*
X24016666Y62350000D02*
X24050000Y62316667D01*
X24150000Y62283334D01*
X24216666Y62283334D01*
X24316666Y62316667D01*
X24383333Y62383334D01*
X24416666Y62450000D01*
X24450000Y62583334D01*
X24450000Y62683334D01*
X24416666Y62816667D01*
X24383333Y62883334D01*
X24316666Y62950000D01*
X24216666Y62983334D01*
X24150000Y62983334D01*
X24050000Y62950000D01*
X24016666Y62916667D01*
X23683333Y62283334D02*
X23550000Y62283334D01*
X23483333Y62316667D01*
X23450000Y62350000D01*
X23383333Y62450000D01*
X23350000Y62583334D01*
X23350000Y62850000D01*
X23383333Y62916667D01*
X23416666Y62950000D01*
X23483333Y62983334D01*
X23616666Y62983334D01*
X23683333Y62950000D01*
X23716666Y62916667D01*
X23750000Y62850000D01*
X23750000Y62683334D01*
X23716666Y62616667D01*
X23683333Y62583334D01*
X23616666Y62550000D01*
X23483333Y62550000D01*
X23416666Y62583334D01*
X23383333Y62616667D01*
X23350000Y62683334D01*
X10050000Y75883334D02*
X9983333Y75883334D01*
X9916666Y75850000D01*
X9883333Y75816667D01*
X9850000Y75750000D01*
X9816666Y75616667D01*
X9816666Y75450000D01*
X9850000Y75316667D01*
X9883333Y75250000D01*
X9916666Y75216667D01*
X9983333Y75183334D01*
X10050000Y75183334D01*
X10116666Y75216667D01*
X10150000Y75250000D01*
X10183333Y75316667D01*
X10216666Y75450000D01*
X10216666Y75616667D01*
X10183333Y75750000D01*
X10150000Y75816667D01*
X10116666Y75850000D01*
X10050000Y75883334D01*
X9516666Y75250000D02*
X9483333Y75216667D01*
X9516666Y75183334D01*
X9550000Y75216667D01*
X9516666Y75250000D01*
X9516666Y75183334D01*
X8816666Y75183334D02*
X9216666Y75183334D01*
X9016666Y75183334D02*
X9016666Y75883334D01*
X9083333Y75783334D01*
X9150000Y75716667D01*
X9216666Y75683334D01*
X8216666Y75650000D02*
X8216666Y75183334D01*
X8516666Y75650000D02*
X8516666Y75283334D01*
X8483333Y75216667D01*
X8416666Y75183334D01*
X8316666Y75183334D01*
X8250000Y75216667D01*
X8216666Y75250000D01*
X7650000Y75550000D02*
X7883333Y75550000D01*
X7883333Y75183334D02*
X7883333Y75883334D01*
X7550000Y75883334D01*
X9850000Y76150000D02*
X9883333Y76116667D01*
X9983333Y76083334D01*
X10050000Y76083334D01*
X10150000Y76116667D01*
X10216666Y76183334D01*
X10250000Y76250000D01*
X10283333Y76383334D01*
X10283333Y76483334D01*
X10250000Y76616667D01*
X10216666Y76683334D01*
X10150000Y76750000D01*
X10050000Y76783334D01*
X9983333Y76783334D01*
X9883333Y76750000D01*
X9850000Y76716667D01*
X9183333Y76083334D02*
X9583333Y76083334D01*
X9383333Y76083334D02*
X9383333Y76783334D01*
X9450000Y76683334D01*
X9516666Y76616667D01*
X9583333Y76583334D01*
X8750000Y76783334D02*
X8683333Y76783334D01*
X8616666Y76750000D01*
X8583333Y76716667D01*
X8550000Y76650000D01*
X8516666Y76516667D01*
X8516666Y76350000D01*
X8550000Y76216667D01*
X8583333Y76150000D01*
X8616666Y76116667D01*
X8683333Y76083334D01*
X8750000Y76083334D01*
X8816666Y76116667D01*
X8850000Y76150000D01*
X8883333Y76216667D01*
X8916666Y76350000D01*
X8916666Y76516667D01*
X8883333Y76650000D01*
X8850000Y76716667D01*
X8816666Y76750000D01*
X8750000Y76783334D01*
X17850000Y38783334D02*
X17783333Y38783334D01*
X17716666Y38750000D01*
X17683333Y38716667D01*
X17650000Y38650000D01*
X17616666Y38516667D01*
X17616666Y38350000D01*
X17650000Y38216667D01*
X17683333Y38150000D01*
X17716666Y38116667D01*
X17783333Y38083334D01*
X17850000Y38083334D01*
X17916666Y38116667D01*
X17950000Y38150000D01*
X17983333Y38216667D01*
X18016666Y38350000D01*
X18016666Y38516667D01*
X17983333Y38650000D01*
X17950000Y38716667D01*
X17916666Y38750000D01*
X17850000Y38783334D01*
X17316666Y38150000D02*
X17283333Y38116667D01*
X17316666Y38083334D01*
X17350000Y38116667D01*
X17316666Y38150000D01*
X17316666Y38083334D01*
X16616666Y38083334D02*
X17016666Y38083334D01*
X16816666Y38083334D02*
X16816666Y38783334D01*
X16883333Y38683334D01*
X16950000Y38616667D01*
X17016666Y38583334D01*
X16016666Y38550000D02*
X16016666Y38083334D01*
X16316666Y38550000D02*
X16316666Y38183334D01*
X16283333Y38116667D01*
X16216666Y38083334D01*
X16116666Y38083334D01*
X16050000Y38116667D01*
X16016666Y38150000D01*
X15450000Y38450000D02*
X15683333Y38450000D01*
X15683333Y38083334D02*
X15683333Y38783334D01*
X15350000Y38783334D01*
X17650000Y39050000D02*
X17683333Y39016667D01*
X17783333Y38983334D01*
X17850000Y38983334D01*
X17950000Y39016667D01*
X18016666Y39083334D01*
X18050000Y39150000D01*
X18083333Y39283334D01*
X18083333Y39383334D01*
X18050000Y39516667D01*
X18016666Y39583334D01*
X17950000Y39650000D01*
X17850000Y39683334D01*
X17783333Y39683334D01*
X17683333Y39650000D01*
X17650000Y39616667D01*
X17383333Y39616667D02*
X17350000Y39650000D01*
X17283333Y39683334D01*
X17116666Y39683334D01*
X17050000Y39650000D01*
X17016666Y39616667D01*
X16983333Y39550000D01*
X16983333Y39483334D01*
X17016666Y39383334D01*
X17416666Y38983334D01*
X16983333Y38983334D01*
X16550000Y39683334D02*
X16483333Y39683334D01*
X16416666Y39650000D01*
X16383333Y39616667D01*
X16350000Y39550000D01*
X16316666Y39416667D01*
X16316666Y39250000D01*
X16350000Y39116667D01*
X16383333Y39050000D01*
X16416666Y39016667D01*
X16483333Y38983334D01*
X16550000Y38983334D01*
X16616666Y39016667D01*
X16650000Y39050000D01*
X16683333Y39116667D01*
X16716666Y39250000D01*
X16716666Y39416667D01*
X16683333Y39550000D01*
X16650000Y39616667D01*
X16616666Y39650000D01*
X16550000Y39683334D01*
X24250000Y14883334D02*
X24183333Y14883334D01*
X24116666Y14850000D01*
X24083333Y14816667D01*
X24050000Y14750000D01*
X24016666Y14616667D01*
X24016666Y14450000D01*
X24050000Y14316667D01*
X24083333Y14250000D01*
X24116666Y14216667D01*
X24183333Y14183334D01*
X24250000Y14183334D01*
X24316666Y14216667D01*
X24350000Y14250000D01*
X24383333Y14316667D01*
X24416666Y14450000D01*
X24416666Y14616667D01*
X24383333Y14750000D01*
X24350000Y14816667D01*
X24316666Y14850000D01*
X24250000Y14883334D01*
X23716666Y14250000D02*
X23683333Y14216667D01*
X23716666Y14183334D01*
X23750000Y14216667D01*
X23716666Y14250000D01*
X23716666Y14183334D01*
X23016666Y14183334D02*
X23416666Y14183334D01*
X23216666Y14183334D02*
X23216666Y14883334D01*
X23283333Y14783334D01*
X23350000Y14716667D01*
X23416666Y14683334D01*
X22416666Y14650000D02*
X22416666Y14183334D01*
X22716666Y14650000D02*
X22716666Y14283334D01*
X22683333Y14216667D01*
X22616666Y14183334D01*
X22516666Y14183334D01*
X22450000Y14216667D01*
X22416666Y14250000D01*
X21850000Y14550000D02*
X22083333Y14550000D01*
X22083333Y14183334D02*
X22083333Y14883334D01*
X21750000Y14883334D01*
X26450000Y14250000D02*
X26483333Y14216667D01*
X26583333Y14183334D01*
X26650000Y14183334D01*
X26750000Y14216667D01*
X26816666Y14283334D01*
X26850000Y14350000D01*
X26883333Y14483334D01*
X26883333Y14583334D01*
X26850000Y14716667D01*
X26816666Y14783334D01*
X26750000Y14850000D01*
X26650000Y14883334D01*
X26583333Y14883334D01*
X26483333Y14850000D01*
X26450000Y14816667D01*
X26183333Y14816667D02*
X26150000Y14850000D01*
X26083333Y14883334D01*
X25916666Y14883334D01*
X25850000Y14850000D01*
X25816666Y14816667D01*
X25783333Y14750000D01*
X25783333Y14683334D01*
X25816666Y14583334D01*
X26216666Y14183334D01*
X25783333Y14183334D01*
X25116666Y14183334D02*
X25516666Y14183334D01*
X25316666Y14183334D02*
X25316666Y14883334D01*
X25383333Y14783334D01*
X25450000Y14716667D01*
X25516666Y14683334D01*
X26616666Y28060334D02*
X26616666Y27727000D01*
X26816666Y28127000D02*
X26116666Y27893667D01*
X26816666Y27660334D01*
X26783333Y27460334D02*
X26816666Y27360334D01*
X26816666Y27193667D01*
X26783333Y27127000D01*
X26750000Y27093667D01*
X26683333Y27060334D01*
X26616666Y27060334D01*
X26550000Y27093667D01*
X26516666Y27127000D01*
X26483333Y27193667D01*
X26450000Y27327000D01*
X26416666Y27393667D01*
X26383333Y27427000D01*
X26316666Y27460334D01*
X26250000Y27460334D01*
X26183333Y27427000D01*
X26150000Y27393667D01*
X26116666Y27327000D01*
X26116666Y27160334D01*
X26150000Y27060334D01*
X26116666Y26827000D02*
X26116666Y26393667D01*
X26383333Y26627000D01*
X26383333Y26527000D01*
X26416666Y26460334D01*
X26450000Y26427000D01*
X26516666Y26393667D01*
X26683333Y26393667D01*
X26750000Y26427000D01*
X26783333Y26460334D01*
X26816666Y26527000D01*
X26816666Y26727000D01*
X26783333Y26793667D01*
X26750000Y26827000D01*
X26116666Y26160334D02*
X26116666Y25727000D01*
X26383333Y25960334D01*
X26383333Y25860334D01*
X26416666Y25793667D01*
X26450000Y25760334D01*
X26516666Y25727000D01*
X26683333Y25727000D01*
X26750000Y25760334D01*
X26783333Y25793667D01*
X26816666Y25860334D01*
X26816666Y26060334D01*
X26783333Y26127000D01*
X26750000Y26160334D01*
X26116666Y25127000D02*
X26116666Y25260334D01*
X26150000Y25327000D01*
X26183333Y25360334D01*
X26283333Y25427000D01*
X26416666Y25460334D01*
X26683333Y25460334D01*
X26750000Y25427000D01*
X26783333Y25393667D01*
X26816666Y25327000D01*
X26816666Y25193667D01*
X26783333Y25127000D01*
X26750000Y25093667D01*
X26683333Y25060334D01*
X26516666Y25060334D01*
X26450000Y25093667D01*
X26416666Y25127000D01*
X26383333Y25193667D01*
X26383333Y25327000D01*
X26416666Y25393667D01*
X26450000Y25427000D01*
X26516666Y25460334D01*
X26116666Y24627000D02*
X26116666Y24560334D01*
X26150000Y24493667D01*
X26183333Y24460334D01*
X26250000Y24427000D01*
X26383333Y24393667D01*
X26550000Y24393667D01*
X26683333Y24427000D01*
X26750000Y24460334D01*
X26783333Y24493667D01*
X26816666Y24560334D01*
X26816666Y24627000D01*
X26783333Y24693667D01*
X26750000Y24727000D01*
X26683333Y24760334D01*
X26550000Y24793667D01*
X26383333Y24793667D01*
X26250000Y24760334D01*
X26183333Y24727000D01*
X26150000Y24693667D01*
X26116666Y24627000D01*
X33816666Y25883334D02*
X33816666Y26583334D01*
X33650000Y26583334D01*
X33550000Y26550000D01*
X33483333Y26483334D01*
X33450000Y26416667D01*
X33416666Y26283334D01*
X33416666Y26183334D01*
X33450000Y26050000D01*
X33483333Y25983334D01*
X33550000Y25916667D01*
X33650000Y25883334D01*
X33816666Y25883334D01*
X33150000Y26083334D02*
X32816666Y26083334D01*
X33216666Y25883334D02*
X32983333Y26583334D01*
X32750000Y25883334D01*
X32583333Y26583334D02*
X32150000Y26583334D01*
X32383333Y26316667D01*
X32283333Y26316667D01*
X32216666Y26283334D01*
X32183333Y26250000D01*
X32150000Y26183334D01*
X32150000Y26016667D01*
X32183333Y25950000D01*
X32216666Y25916667D01*
X32283333Y25883334D01*
X32483333Y25883334D01*
X32550000Y25916667D01*
X32583333Y25950000D01*
X17983333Y22983334D02*
X17583333Y22983334D01*
X17783333Y22283334D02*
X17783333Y22983334D01*
X17350000Y22283334D02*
X17350000Y22983334D01*
X17083333Y22983334D01*
X17016666Y22950000D01*
X16983333Y22916667D01*
X16950000Y22850000D01*
X16950000Y22750000D01*
X16983333Y22683334D01*
X17016666Y22650000D01*
X17083333Y22616667D01*
X17350000Y22616667D01*
X16283333Y22283334D02*
X16683333Y22283334D01*
X16483333Y22283334D02*
X16483333Y22983334D01*
X16550000Y22883334D01*
X16616666Y22816667D01*
X16683333Y22783334D01*
X16416666Y15283334D02*
X16416666Y14883334D01*
X17116666Y15083334D02*
X16416666Y15083334D01*
X17116666Y14650000D02*
X16416666Y14650000D01*
X16416666Y14383334D01*
X16450000Y14316667D01*
X16483333Y14283334D01*
X16550000Y14250000D01*
X16650000Y14250000D01*
X16716666Y14283334D01*
X16750000Y14316667D01*
X16783333Y14383334D01*
X16783333Y14650000D01*
X16416666Y14016667D02*
X16416666Y13583334D01*
X16683333Y13816667D01*
X16683333Y13716667D01*
X16716666Y13650000D01*
X16750000Y13616667D01*
X16816666Y13583334D01*
X16983333Y13583334D01*
X17050000Y13616667D01*
X17083333Y13650000D01*
X17116666Y13716667D01*
X17116666Y13916667D01*
X17083333Y13983334D01*
X17050000Y14016667D01*
X19783333Y62983334D02*
X19383333Y62983334D01*
X19583333Y62283334D02*
X19583333Y62983334D01*
X19150000Y62283334D02*
X19150000Y62983334D01*
X18883333Y62983334D01*
X18816666Y62950000D01*
X18783333Y62916667D01*
X18750000Y62850000D01*
X18750000Y62750000D01*
X18783333Y62683334D01*
X18816666Y62650000D01*
X18883333Y62616667D01*
X19150000Y62616667D01*
X18116666Y62983334D02*
X18450000Y62983334D01*
X18483333Y62650000D01*
X18450000Y62683334D01*
X18383333Y62716667D01*
X18216666Y62716667D01*
X18150000Y62683334D01*
X18116666Y62650000D01*
X18083333Y62583334D01*
X18083333Y62416667D01*
X18116666Y62350000D01*
X18150000Y62316667D01*
X18216666Y62283334D01*
X18383333Y62283334D01*
X18450000Y62316667D01*
X18483333Y62350000D01*
X36183333Y61083334D02*
X35783333Y61083334D01*
X35983333Y60383334D02*
X35983333Y61083334D01*
X35550000Y60383334D02*
X35550000Y61083334D01*
X35283333Y61083334D01*
X35216666Y61050000D01*
X35183333Y61016667D01*
X35150000Y60950000D01*
X35150000Y60850000D01*
X35183333Y60783334D01*
X35216666Y60750000D01*
X35283333Y60716667D01*
X35550000Y60716667D01*
X34550000Y61083334D02*
X34683333Y61083334D01*
X34750000Y61050000D01*
X34783333Y61016667D01*
X34850000Y60916667D01*
X34883333Y60783334D01*
X34883333Y60516667D01*
X34850000Y60450000D01*
X34816666Y60416667D01*
X34750000Y60383334D01*
X34616666Y60383334D01*
X34550000Y60416667D01*
X34516666Y60450000D01*
X34483333Y60516667D01*
X34483333Y60683334D01*
X34516666Y60750000D01*
X34550000Y60783334D01*
X34616666Y60816667D01*
X34750000Y60816667D01*
X34816666Y60783334D01*
X34850000Y60750000D01*
X34883333Y60683334D01*
X26983333Y13783334D02*
X26583333Y13783334D01*
X26783333Y13083334D02*
X26783333Y13783334D01*
X26350000Y13083334D02*
X26350000Y13783334D01*
X26083333Y13783334D01*
X26016666Y13750000D01*
X25983333Y13716667D01*
X25950000Y13650000D01*
X25950000Y13550000D01*
X25983333Y13483334D01*
X26016666Y13450000D01*
X26083333Y13416667D01*
X26350000Y13416667D01*
X25716666Y13783334D02*
X25250000Y13783334D01*
X25550000Y13083334D01*
X14583333Y38383334D02*
X14183333Y38383334D01*
X14383333Y37683334D02*
X14383333Y38383334D01*
X13950000Y37683334D02*
X13950000Y38383334D01*
X13683333Y38383334D01*
X13616666Y38350000D01*
X13583333Y38316667D01*
X13550000Y38250000D01*
X13550000Y38150000D01*
X13583333Y38083334D01*
X13616666Y38050000D01*
X13683333Y38016667D01*
X13950000Y38016667D01*
X13150000Y38083334D02*
X13216666Y38116667D01*
X13250000Y38150000D01*
X13283333Y38216667D01*
X13283333Y38250000D01*
X13250000Y38316667D01*
X13216666Y38350000D01*
X13150000Y38383334D01*
X13016666Y38383334D01*
X12950000Y38350000D01*
X12916666Y38316667D01*
X12883333Y38250000D01*
X12883333Y38216667D01*
X12916666Y38150000D01*
X12950000Y38116667D01*
X13016666Y38083334D01*
X13150000Y38083334D01*
X13216666Y38050000D01*
X13250000Y38016667D01*
X13283333Y37950000D01*
X13283333Y37816667D01*
X13250000Y37750000D01*
X13216666Y37716667D01*
X13150000Y37683334D01*
X13016666Y37683334D01*
X12950000Y37716667D01*
X12916666Y37750000D01*
X12883333Y37816667D01*
X12883333Y37950000D01*
X12916666Y38016667D01*
X12950000Y38050000D01*
X13016666Y38083334D01*
X30883333Y38283334D02*
X30483333Y38283334D01*
X30683333Y37583334D02*
X30683333Y38283334D01*
X30250000Y37583334D02*
X30250000Y38283334D01*
X29983333Y38283334D01*
X29916666Y38250000D01*
X29883333Y38216667D01*
X29850000Y38150000D01*
X29850000Y38050000D01*
X29883333Y37983334D01*
X29916666Y37950000D01*
X29983333Y37916667D01*
X30250000Y37916667D01*
X29516666Y37583334D02*
X29383333Y37583334D01*
X29316666Y37616667D01*
X29283333Y37650000D01*
X29216666Y37750000D01*
X29183333Y37883334D01*
X29183333Y38150000D01*
X29216666Y38216667D01*
X29250000Y38250000D01*
X29316666Y38283334D01*
X29450000Y38283334D01*
X29516666Y38250000D01*
X29550000Y38216667D01*
X29583333Y38150000D01*
X29583333Y37983334D01*
X29550000Y37916667D01*
X29516666Y37883334D01*
X29450000Y37850000D01*
X29316666Y37850000D01*
X29250000Y37883334D01*
X29216666Y37916667D01*
X29183333Y37983334D01*
X20050000Y14483334D02*
X19983333Y14483334D01*
X19916666Y14450000D01*
X19883333Y14416667D01*
X19850000Y14350000D01*
X19816666Y14216667D01*
X19816666Y14050000D01*
X19850000Y13916667D01*
X19883333Y13850000D01*
X19916666Y13816667D01*
X19983333Y13783334D01*
X20050000Y13783334D01*
X20116666Y13816667D01*
X20150000Y13850000D01*
X20183333Y13916667D01*
X20216666Y14050000D01*
X20216666Y14216667D01*
X20183333Y14350000D01*
X20150000Y14416667D01*
X20116666Y14450000D01*
X20050000Y14483334D01*
X19516666Y13850000D02*
X19483333Y13816667D01*
X19516666Y13783334D01*
X19550000Y13816667D01*
X19516666Y13850000D01*
X19516666Y13783334D01*
X18816666Y13783334D02*
X19216666Y13783334D01*
X19016666Y13783334D02*
X19016666Y14483334D01*
X19083333Y14383334D01*
X19150000Y14316667D01*
X19216666Y14283334D01*
X18216666Y14250000D02*
X18216666Y13783334D01*
X18516666Y14250000D02*
X18516666Y13883334D01*
X18483333Y13816667D01*
X18416666Y13783334D01*
X18316666Y13783334D01*
X18250000Y13816667D01*
X18216666Y13850000D01*
X17650000Y14150000D02*
X17883333Y14150000D01*
X17883333Y13783334D02*
X17883333Y14483334D01*
X17550000Y14483334D01*
X18750000Y14750000D02*
X18783333Y14716667D01*
X18883333Y14683334D01*
X18950000Y14683334D01*
X19050000Y14716667D01*
X19116666Y14783334D01*
X19150000Y14850000D01*
X19183333Y14983334D01*
X19183333Y15083334D01*
X19150000Y15216667D01*
X19116666Y15283334D01*
X19050000Y15350000D01*
X18950000Y15383334D01*
X18883333Y15383334D01*
X18783333Y15350000D01*
X18750000Y15316667D01*
X18083333Y14683334D02*
X18483333Y14683334D01*
X18283333Y14683334D02*
X18283333Y15383334D01*
X18350000Y15283334D01*
X18416666Y15216667D01*
X18483333Y15183334D01*
X17416666Y14683334D02*
X17816666Y14683334D01*
X17616666Y14683334D02*
X17616666Y15383334D01*
X17683333Y15283334D01*
X17750000Y15216667D01*
X17816666Y15183334D01*
X36450000Y2283334D02*
X36383333Y2283334D01*
X36316666Y2250000D01*
X36283333Y2216667D01*
X36250000Y2150000D01*
X36216666Y2016667D01*
X36216666Y1850000D01*
X36250000Y1716667D01*
X36283333Y1650000D01*
X36316666Y1616667D01*
X36383333Y1583334D01*
X36450000Y1583334D01*
X36516666Y1616667D01*
X36550000Y1650000D01*
X36583333Y1716667D01*
X36616666Y1850000D01*
X36616666Y2016667D01*
X36583333Y2150000D01*
X36550000Y2216667D01*
X36516666Y2250000D01*
X36450000Y2283334D01*
X35916666Y1650000D02*
X35883333Y1616667D01*
X35916666Y1583334D01*
X35950000Y1616667D01*
X35916666Y1650000D01*
X35916666Y1583334D01*
X35216666Y1583334D02*
X35616666Y1583334D01*
X35416666Y1583334D02*
X35416666Y2283334D01*
X35483333Y2183334D01*
X35550000Y2116667D01*
X35616666Y2083334D01*
X34616666Y2050000D02*
X34616666Y1583334D01*
X34916666Y2050000D02*
X34916666Y1683334D01*
X34883333Y1616667D01*
X34816666Y1583334D01*
X34716666Y1583334D01*
X34650000Y1616667D01*
X34616666Y1650000D01*
X34050000Y1950000D02*
X34283333Y1950000D01*
X34283333Y1583334D02*
X34283333Y2283334D01*
X33950000Y2283334D01*
X35250000Y2650000D02*
X35283333Y2616667D01*
X35383333Y2583334D01*
X35450000Y2583334D01*
X35550000Y2616667D01*
X35616666Y2683334D01*
X35650000Y2750000D01*
X35683333Y2883334D01*
X35683333Y2983334D01*
X35650000Y3116667D01*
X35616666Y3183334D01*
X35550000Y3250000D01*
X35450000Y3283334D01*
X35383333Y3283334D01*
X35283333Y3250000D01*
X35250000Y3216667D01*
X34583333Y2583334D02*
X34983333Y2583334D01*
X34783333Y2583334D02*
X34783333Y3283334D01*
X34850000Y3183334D01*
X34916666Y3116667D01*
X34983333Y3083334D01*
X34316666Y3216667D02*
X34283333Y3250000D01*
X34216666Y3283334D01*
X34050000Y3283334D01*
X33983333Y3250000D01*
X33950000Y3216667D01*
X33916666Y3150000D01*
X33916666Y3083334D01*
X33950000Y2983334D01*
X34350000Y2583334D01*
X33916666Y2583334D01*
X22266666Y72060334D02*
X22266666Y71660334D01*
X22966666Y71860334D02*
X22266666Y71860334D01*
X22966666Y71093667D02*
X22966666Y71427000D01*
X22266666Y71427000D01*
X22266666Y70727000D02*
X22266666Y70660334D01*
X22300000Y70593667D01*
X22333333Y70560334D01*
X22400000Y70527000D01*
X22533333Y70493667D01*
X22700000Y70493667D01*
X22833333Y70527000D01*
X22900000Y70560334D01*
X22933333Y70593667D01*
X22966666Y70660334D01*
X22966666Y70727000D01*
X22933333Y70793667D01*
X22900000Y70827000D01*
X22833333Y70860334D01*
X22700000Y70893667D01*
X22533333Y70893667D01*
X22400000Y70860334D01*
X22333333Y70827000D01*
X22300000Y70793667D01*
X22266666Y70727000D01*
X22266666Y70260334D02*
X22266666Y69793667D01*
X22966666Y70093667D01*
X22333333Y69560334D02*
X22300000Y69527000D01*
X22266666Y69460334D01*
X22266666Y69293667D01*
X22300000Y69227000D01*
X22333333Y69193667D01*
X22400000Y69160334D01*
X22466666Y69160334D01*
X22566666Y69193667D01*
X22966666Y69593667D01*
X22966666Y69160334D01*
X23516666Y75783334D02*
X23516666Y76483334D01*
X23350000Y76483334D01*
X23250000Y76450000D01*
X23183333Y76383334D01*
X23150000Y76316667D01*
X23116666Y76183334D01*
X23116666Y76083334D01*
X23150000Y75950000D01*
X23183333Y75883334D01*
X23250000Y75816667D01*
X23350000Y75783334D01*
X23516666Y75783334D01*
X22850000Y75983334D02*
X22516666Y75983334D01*
X22916666Y75783334D02*
X22683333Y76483334D01*
X22450000Y75783334D01*
X22250000Y76416667D02*
X22216666Y76450000D01*
X22150000Y76483334D01*
X21983333Y76483334D01*
X21916666Y76450000D01*
X21883333Y76416667D01*
X21850000Y76350000D01*
X21850000Y76283334D01*
X21883333Y76183334D01*
X22283333Y75783334D01*
X21850000Y75783334D01*
X21316666Y7656334D02*
X21316666Y7256334D01*
X22016666Y7456334D02*
X21316666Y7456334D01*
X22016666Y6689667D02*
X22016666Y7023000D01*
X21316666Y7023000D01*
X21316666Y6323000D02*
X21316666Y6256334D01*
X21350000Y6189667D01*
X21383333Y6156334D01*
X21450000Y6123000D01*
X21583333Y6089667D01*
X21750000Y6089667D01*
X21883333Y6123000D01*
X21950000Y6156334D01*
X21983333Y6189667D01*
X22016666Y6256334D01*
X22016666Y6323000D01*
X21983333Y6389667D01*
X21950000Y6423000D01*
X21883333Y6456334D01*
X21750000Y6489667D01*
X21583333Y6489667D01*
X21450000Y6456334D01*
X21383333Y6423000D01*
X21350000Y6389667D01*
X21316666Y6323000D01*
X21316666Y5856334D02*
X21316666Y5389667D01*
X22016666Y5689667D01*
X21383333Y5156334D02*
X21350000Y5123000D01*
X21316666Y5056334D01*
X21316666Y4889667D01*
X21350000Y4823000D01*
X21383333Y4789667D01*
X21450000Y4756334D01*
X21516666Y4756334D01*
X21616666Y4789667D01*
X22016666Y5189667D01*
X22016666Y4756334D01*
X25716666Y11583334D02*
X25716666Y12283334D01*
X25550000Y12283334D01*
X25450000Y12250000D01*
X25383333Y12183334D01*
X25350000Y12116667D01*
X25316666Y11983334D01*
X25316666Y11883334D01*
X25350000Y11750000D01*
X25383333Y11683334D01*
X25450000Y11616667D01*
X25550000Y11583334D01*
X25716666Y11583334D01*
X25050000Y11783334D02*
X24716666Y11783334D01*
X25116666Y11583334D02*
X24883333Y12283334D01*
X24650000Y11583334D01*
X24116666Y12283334D02*
X24250000Y12283334D01*
X24316666Y12250000D01*
X24350000Y12216667D01*
X24416666Y12116667D01*
X24450000Y11983334D01*
X24450000Y11716667D01*
X24416666Y11650000D01*
X24383333Y11616667D01*
X24316666Y11583334D01*
X24183333Y11583334D01*
X24116666Y11616667D01*
X24083333Y11650000D01*
X24050000Y11716667D01*
X24050000Y11883334D01*
X24083333Y11950000D01*
X24116666Y11983334D01*
X24183333Y12016667D01*
X24316666Y12016667D01*
X24383333Y11983334D01*
X24416666Y11950000D01*
X24450000Y11883334D01*
X4816666Y47083334D02*
X4416666Y47083334D01*
X4616666Y46383334D02*
X4616666Y47083334D01*
X4183333Y46383334D02*
X4183333Y47083334D01*
X3916666Y47083334D01*
X3850000Y47050000D01*
X3816666Y47016667D01*
X3783333Y46950000D01*
X3783333Y46850000D01*
X3816666Y46783334D01*
X3850000Y46750000D01*
X3916666Y46716667D01*
X4183333Y46716667D01*
X3116666Y46383334D02*
X3516666Y46383334D01*
X3316666Y46383334D02*
X3316666Y47083334D01*
X3383333Y46983334D01*
X3450000Y46916667D01*
X3516666Y46883334D01*
X2683333Y47083334D02*
X2616666Y47083334D01*
X2550000Y47050000D01*
X2516666Y47016667D01*
X2483333Y46950000D01*
X2450000Y46816667D01*
X2450000Y46650000D01*
X2483333Y46516667D01*
X2516666Y46450000D01*
X2550000Y46416667D01*
X2616666Y46383334D01*
X2683333Y46383334D01*
X2750000Y46416667D01*
X2783333Y46450000D01*
X2816666Y46516667D01*
X2850000Y46650000D01*
X2850000Y46816667D01*
X2816666Y46950000D01*
X2783333Y47016667D01*
X2750000Y47050000D01*
X2683333Y47083334D01*
X23116666Y45583334D02*
X22716666Y45583334D01*
X22916666Y44883334D02*
X22916666Y45583334D01*
X22483333Y44883334D02*
X22483333Y45583334D01*
X22216666Y45583334D01*
X22150000Y45550000D01*
X22116666Y45516667D01*
X22083333Y45450000D01*
X22083333Y45350000D01*
X22116666Y45283334D01*
X22150000Y45250000D01*
X22216666Y45216667D01*
X22483333Y45216667D01*
X21416666Y44883334D02*
X21816666Y44883334D01*
X21616666Y44883334D02*
X21616666Y45583334D01*
X21683333Y45483334D01*
X21750000Y45416667D01*
X21816666Y45383334D01*
X20750000Y44883334D02*
X21150000Y44883334D01*
X20950000Y44883334D02*
X20950000Y45583334D01*
X21016666Y45483334D01*
X21083333Y45416667D01*
X21150000Y45383334D01*
X16183333Y12083334D02*
X16516666Y12083334D01*
X16550000Y11750000D01*
X16516666Y11783334D01*
X16450000Y11816667D01*
X16283333Y11816667D01*
X16216666Y11783334D01*
X16183333Y11750000D01*
X16150000Y11683334D01*
X16150000Y11516667D01*
X16183333Y11450000D01*
X16216666Y11416667D01*
X16283333Y11383334D01*
X16450000Y11383334D01*
X16516666Y11416667D01*
X16550000Y11450000D01*
X15550000Y12083334D02*
X15683333Y12083334D01*
X15750000Y12050000D01*
X15783333Y12016667D01*
X15850000Y11916667D01*
X15883333Y11783334D01*
X15883333Y11516667D01*
X15850000Y11450000D01*
X15816666Y11416667D01*
X15750000Y11383334D01*
X15616666Y11383334D01*
X15550000Y11416667D01*
X15516666Y11450000D01*
X15483333Y11516667D01*
X15483333Y11683334D01*
X15516666Y11750000D01*
X15550000Y11783334D01*
X15616666Y11816667D01*
X15750000Y11816667D01*
X15816666Y11783334D01*
X15850000Y11750000D01*
X15883333Y11683334D01*
X15183333Y11850000D02*
X15183333Y11150000D01*
X15183333Y11816667D02*
X15116666Y11850000D01*
X14983333Y11850000D01*
X14916666Y11816667D01*
X14883333Y11783334D01*
X14850000Y11716667D01*
X14850000Y11516667D01*
X14883333Y11450000D01*
X14916666Y11416667D01*
X14983333Y11383334D01*
X15116666Y11383334D01*
X15183333Y11416667D01*
X14316666Y11750000D02*
X14550000Y11750000D01*
X14550000Y11383334D02*
X14550000Y12083334D01*
X14216666Y12083334D01*
X15750000Y12350000D02*
X15783333Y12316667D01*
X15883333Y12283334D01*
X15950000Y12283334D01*
X16050000Y12316667D01*
X16116666Y12383334D01*
X16150000Y12450000D01*
X16183333Y12583334D01*
X16183333Y12683334D01*
X16150000Y12816667D01*
X16116666Y12883334D01*
X16050000Y12950000D01*
X15950000Y12983334D01*
X15883333Y12983334D01*
X15783333Y12950000D01*
X15750000Y12916667D01*
X15083333Y12283334D02*
X15483333Y12283334D01*
X15283333Y12283334D02*
X15283333Y12983334D01*
X15350000Y12883334D01*
X15416666Y12816667D01*
X15483333Y12783334D01*
X14850000Y12983334D02*
X14416666Y12983334D01*
X14650000Y12716667D01*
X14550000Y12716667D01*
X14483333Y12683334D01*
X14450000Y12650000D01*
X14416666Y12583334D01*
X14416666Y12416667D01*
X14450000Y12350000D01*
X14483333Y12316667D01*
X14550000Y12283334D01*
X14750000Y12283334D01*
X14816666Y12316667D01*
X14850000Y12350000D01*
X31350000Y36383334D02*
X31683333Y36383334D01*
X31716666Y36050000D01*
X31683333Y36083334D01*
X31616666Y36116667D01*
X31450000Y36116667D01*
X31383333Y36083334D01*
X31350000Y36050000D01*
X31316666Y35983334D01*
X31316666Y35816667D01*
X31350000Y35750000D01*
X31383333Y35716667D01*
X31450000Y35683334D01*
X31616666Y35683334D01*
X31683333Y35716667D01*
X31716666Y35750000D01*
X31016666Y36150000D02*
X31016666Y35683334D01*
X31016666Y36083334D02*
X30983333Y36116667D01*
X30916666Y36150000D01*
X30816666Y36150000D01*
X30750000Y36116667D01*
X30716666Y36050000D01*
X30716666Y35683334D01*
X30150000Y36050000D02*
X30383333Y36050000D01*
X30383333Y35683334D02*
X30383333Y36383334D01*
X30050000Y36383334D01*
X31350000Y36650000D02*
X31383333Y36616667D01*
X31483333Y36583334D01*
X31550000Y36583334D01*
X31650000Y36616667D01*
X31716666Y36683334D01*
X31750000Y36750000D01*
X31783333Y36883334D01*
X31783333Y36983334D01*
X31750000Y37116667D01*
X31716666Y37183334D01*
X31650000Y37250000D01*
X31550000Y37283334D01*
X31483333Y37283334D01*
X31383333Y37250000D01*
X31350000Y37216667D01*
X30683333Y36583334D02*
X31083333Y36583334D01*
X30883333Y36583334D02*
X30883333Y37283334D01*
X30950000Y37183334D01*
X31016666Y37116667D01*
X31083333Y37083334D01*
X30083333Y37050000D02*
X30083333Y36583334D01*
X30250000Y37316667D02*
X30416666Y36816667D01*
X29983333Y36816667D01*
X28783333Y11783334D02*
X29116666Y11783334D01*
X29150000Y11450000D01*
X29116666Y11483334D01*
X29050000Y11516667D01*
X28883333Y11516667D01*
X28816666Y11483334D01*
X28783333Y11450000D01*
X28750000Y11383334D01*
X28750000Y11216667D01*
X28783333Y11150000D01*
X28816666Y11116667D01*
X28883333Y11083334D01*
X29050000Y11083334D01*
X29116666Y11116667D01*
X29150000Y11150000D01*
X28150000Y11783334D02*
X28283333Y11783334D01*
X28350000Y11750000D01*
X28383333Y11716667D01*
X28450000Y11616667D01*
X28483333Y11483334D01*
X28483333Y11216667D01*
X28450000Y11150000D01*
X28416666Y11116667D01*
X28350000Y11083334D01*
X28216666Y11083334D01*
X28150000Y11116667D01*
X28116666Y11150000D01*
X28083333Y11216667D01*
X28083333Y11383334D01*
X28116666Y11450000D01*
X28150000Y11483334D01*
X28216666Y11516667D01*
X28350000Y11516667D01*
X28416666Y11483334D01*
X28450000Y11450000D01*
X28483333Y11383334D01*
X27783333Y11550000D02*
X27783333Y10850000D01*
X27783333Y11516667D02*
X27716666Y11550000D01*
X27583333Y11550000D01*
X27516666Y11516667D01*
X27483333Y11483334D01*
X27450000Y11416667D01*
X27450000Y11216667D01*
X27483333Y11150000D01*
X27516666Y11116667D01*
X27583333Y11083334D01*
X27716666Y11083334D01*
X27783333Y11116667D01*
X26916666Y11450000D02*
X27150000Y11450000D01*
X27150000Y11083334D02*
X27150000Y11783334D01*
X26816666Y11783334D01*
X28550000Y11950000D02*
X28583333Y11916667D01*
X28683333Y11883334D01*
X28750000Y11883334D01*
X28850000Y11916667D01*
X28916666Y11983334D01*
X28950000Y12050000D01*
X28983333Y12183334D01*
X28983333Y12283334D01*
X28950000Y12416667D01*
X28916666Y12483334D01*
X28850000Y12550000D01*
X28750000Y12583334D01*
X28683333Y12583334D01*
X28583333Y12550000D01*
X28550000Y12516667D01*
X27883333Y11883334D02*
X28283333Y11883334D01*
X28083333Y11883334D02*
X28083333Y12583334D01*
X28150000Y12483334D01*
X28216666Y12416667D01*
X28283333Y12383334D01*
X27283333Y12583334D02*
X27416666Y12583334D01*
X27483333Y12550000D01*
X27516666Y12516667D01*
X27583333Y12416667D01*
X27616666Y12283334D01*
X27616666Y12016667D01*
X27583333Y11950000D01*
X27550000Y11916667D01*
X27483333Y11883334D01*
X27350000Y11883334D01*
X27283333Y11916667D01*
X27250000Y11950000D01*
X27216666Y12016667D01*
X27216666Y12183334D01*
X27250000Y12250000D01*
X27283333Y12283334D01*
X27350000Y12316667D01*
X27483333Y12316667D01*
X27550000Y12283334D01*
X27583333Y12250000D01*
X27616666Y12183334D01*
X10816666Y63083334D02*
X11050000Y63416667D01*
X11216666Y63083334D02*
X11216666Y63783334D01*
X10950000Y63783334D01*
X10883333Y63750000D01*
X10850000Y63716667D01*
X10816666Y63650000D01*
X10816666Y63550000D01*
X10850000Y63483334D01*
X10883333Y63450000D01*
X10950000Y63416667D01*
X11216666Y63416667D01*
X10583333Y63783334D02*
X10116666Y63783334D01*
X10416666Y63083334D01*
X12716666Y67666667D02*
X12016666Y67666667D01*
X12716666Y67266667D01*
X12016666Y67266667D01*
X12016666Y66933334D02*
X12583333Y66933334D01*
X12650000Y66900000D01*
X12683333Y66866667D01*
X12716666Y66800000D01*
X12716666Y66666667D01*
X12683333Y66600000D01*
X12650000Y66566667D01*
X12583333Y66533334D01*
X12016666Y66533334D01*
X34516666Y65483334D02*
X34750000Y65816667D01*
X34916666Y65483334D02*
X34916666Y66183334D01*
X34650000Y66183334D01*
X34583333Y66150000D01*
X34550000Y66116667D01*
X34516666Y66050000D01*
X34516666Y65950000D01*
X34550000Y65883334D01*
X34583333Y65850000D01*
X34650000Y65816667D01*
X34916666Y65816667D01*
X34116666Y65883334D02*
X34183333Y65916667D01*
X34216666Y65950000D01*
X34250000Y66016667D01*
X34250000Y66050000D01*
X34216666Y66116667D01*
X34183333Y66150000D01*
X34116666Y66183334D01*
X33983333Y66183334D01*
X33916666Y66150000D01*
X33883333Y66116667D01*
X33850000Y66050000D01*
X33850000Y66016667D01*
X33883333Y65950000D01*
X33916666Y65916667D01*
X33983333Y65883334D01*
X34116666Y65883334D01*
X34183333Y65850000D01*
X34216666Y65816667D01*
X34250000Y65750000D01*
X34250000Y65616667D01*
X34216666Y65550000D01*
X34183333Y65516667D01*
X34116666Y65483334D01*
X33983333Y65483334D01*
X33916666Y65516667D01*
X33883333Y65550000D01*
X33850000Y65616667D01*
X33850000Y65750000D01*
X33883333Y65816667D01*
X33916666Y65850000D01*
X33983333Y65883334D01*
X32916666Y70066667D02*
X32216666Y70066667D01*
X32916666Y69666667D01*
X32216666Y69666667D01*
X32216666Y69333334D02*
X32783333Y69333334D01*
X32850000Y69300000D01*
X32883333Y69266667D01*
X32916666Y69200000D01*
X32916666Y69066667D01*
X32883333Y69000000D01*
X32850000Y68966667D01*
X32783333Y68933334D01*
X32216666Y68933334D01*
X14316666Y63183334D02*
X14550000Y63516667D01*
X14716666Y63183334D02*
X14716666Y63883334D01*
X14450000Y63883334D01*
X14383333Y63850000D01*
X14350000Y63816667D01*
X14316666Y63750000D01*
X14316666Y63650000D01*
X14350000Y63583334D01*
X14383333Y63550000D01*
X14450000Y63516667D01*
X14716666Y63516667D01*
X13983333Y63183334D02*
X13850000Y63183334D01*
X13783333Y63216667D01*
X13750000Y63250000D01*
X13683333Y63350000D01*
X13650000Y63483334D01*
X13650000Y63750000D01*
X13683333Y63816667D01*
X13716666Y63850000D01*
X13783333Y63883334D01*
X13916666Y63883334D01*
X13983333Y63850000D01*
X14016666Y63816667D01*
X14050000Y63750000D01*
X14050000Y63583334D01*
X14016666Y63516667D01*
X13983333Y63483334D01*
X13916666Y63450000D01*
X13783333Y63450000D01*
X13716666Y63483334D01*
X13683333Y63516667D01*
X13650000Y63583334D01*
X15716666Y67183334D02*
X15716666Y67583334D01*
X15716666Y67383334D02*
X15016666Y67383334D01*
X15116666Y67450000D01*
X15183333Y67516667D01*
X15216666Y67583334D01*
X15716666Y66883334D02*
X15016666Y66883334D01*
X15450000Y66816667D02*
X15716666Y66616667D01*
X15250000Y66616667D02*
X15516666Y66883334D01*
X29950000Y62483334D02*
X30183333Y62816667D01*
X30350000Y62483334D02*
X30350000Y63183334D01*
X30083333Y63183334D01*
X30016666Y63150000D01*
X29983333Y63116667D01*
X29950000Y63050000D01*
X29950000Y62950000D01*
X29983333Y62883334D01*
X30016666Y62850000D01*
X30083333Y62816667D01*
X30350000Y62816667D01*
X29283333Y62483334D02*
X29683333Y62483334D01*
X29483333Y62483334D02*
X29483333Y63183334D01*
X29550000Y63083334D01*
X29616666Y63016667D01*
X29683333Y62983334D01*
X28850000Y63183334D02*
X28783333Y63183334D01*
X28716666Y63150000D01*
X28683333Y63116667D01*
X28650000Y63050000D01*
X28616666Y62916667D01*
X28616666Y62750000D01*
X28650000Y62616667D01*
X28683333Y62550000D01*
X28716666Y62516667D01*
X28783333Y62483334D01*
X28850000Y62483334D01*
X28916666Y62516667D01*
X28950000Y62550000D01*
X28983333Y62616667D01*
X29016666Y62750000D01*
X29016666Y62916667D01*
X28983333Y63050000D01*
X28950000Y63116667D01*
X28916666Y63150000D01*
X28850000Y63183334D01*
X29816666Y69583334D02*
X29816666Y69983334D01*
X29816666Y69783334D02*
X29116666Y69783334D01*
X29216666Y69850000D01*
X29283333Y69916667D01*
X29316666Y69983334D01*
X29816666Y69283334D02*
X29116666Y69283334D01*
X29550000Y69216667D02*
X29816666Y69016667D01*
X29350000Y69016667D02*
X29616666Y69283334D01*
X18050000Y60783334D02*
X18283333Y61116667D01*
X18450000Y60783334D02*
X18450000Y61483334D01*
X18183333Y61483334D01*
X18116666Y61450000D01*
X18083333Y61416667D01*
X18050000Y61350000D01*
X18050000Y61250000D01*
X18083333Y61183334D01*
X18116666Y61150000D01*
X18183333Y61116667D01*
X18450000Y61116667D01*
X17383333Y60783334D02*
X17783333Y60783334D01*
X17583333Y60783334D02*
X17583333Y61483334D01*
X17650000Y61383334D01*
X17716666Y61316667D01*
X17783333Y61283334D01*
X17116666Y61416667D02*
X17083333Y61450000D01*
X17016666Y61483334D01*
X16850000Y61483334D01*
X16783333Y61450000D01*
X16750000Y61416667D01*
X16716666Y61350000D01*
X16716666Y61283334D01*
X16750000Y61183334D01*
X17150000Y60783334D01*
X16716666Y60783334D01*
X15650000Y58883334D02*
X16050000Y58883334D01*
X15850000Y58883334D02*
X15850000Y59583334D01*
X15916666Y59483334D01*
X15983333Y59416667D01*
X16050000Y59383334D01*
X15216666Y59583334D02*
X15150000Y59583334D01*
X15083333Y59550000D01*
X15050000Y59516667D01*
X15016666Y59450000D01*
X14983333Y59316667D01*
X14983333Y59150000D01*
X15016666Y59016667D01*
X15050000Y58950000D01*
X15083333Y58916667D01*
X15150000Y58883334D01*
X15216666Y58883334D01*
X15283333Y58916667D01*
X15316666Y58950000D01*
X15350000Y59016667D01*
X15383333Y59150000D01*
X15383333Y59316667D01*
X15350000Y59450000D01*
X15316666Y59516667D01*
X15283333Y59550000D01*
X15216666Y59583334D01*
X14550000Y59583334D02*
X14483333Y59583334D01*
X14416666Y59550000D01*
X14383333Y59516667D01*
X14350000Y59450000D01*
X14316666Y59316667D01*
X14316666Y59150000D01*
X14350000Y59016667D01*
X14383333Y58950000D01*
X14416666Y58916667D01*
X14483333Y58883334D01*
X14550000Y58883334D01*
X14616666Y58916667D01*
X14650000Y58950000D01*
X14683333Y59016667D01*
X14716666Y59150000D01*
X14716666Y59316667D01*
X14683333Y59450000D01*
X14650000Y59516667D01*
X14616666Y59550000D01*
X14550000Y59583334D01*
X14016666Y58883334D02*
X14016666Y59583334D01*
X13950000Y59150000D02*
X13750000Y58883334D01*
X13750000Y59350000D02*
X14016666Y59083334D01*
X27950000Y60783334D02*
X28183333Y61116667D01*
X28350000Y60783334D02*
X28350000Y61483334D01*
X28083333Y61483334D01*
X28016666Y61450000D01*
X27983333Y61416667D01*
X27950000Y61350000D01*
X27950000Y61250000D01*
X27983333Y61183334D01*
X28016666Y61150000D01*
X28083333Y61116667D01*
X28350000Y61116667D01*
X27283333Y60783334D02*
X27683333Y60783334D01*
X27483333Y60783334D02*
X27483333Y61483334D01*
X27550000Y61383334D01*
X27616666Y61316667D01*
X27683333Y61283334D01*
X27050000Y61483334D02*
X26616666Y61483334D01*
X26850000Y61216667D01*
X26750000Y61216667D01*
X26683333Y61183334D01*
X26650000Y61150000D01*
X26616666Y61083334D01*
X26616666Y60916667D01*
X26650000Y60850000D01*
X26683333Y60816667D01*
X26750000Y60783334D01*
X26950000Y60783334D01*
X27016666Y60816667D01*
X27050000Y60850000D01*
X28250000Y58883334D02*
X28650000Y58883334D01*
X28450000Y58883334D02*
X28450000Y59583334D01*
X28516666Y59483334D01*
X28583333Y59416667D01*
X28650000Y59383334D01*
X27816666Y59583334D02*
X27750000Y59583334D01*
X27683333Y59550000D01*
X27650000Y59516667D01*
X27616666Y59450000D01*
X27583333Y59316667D01*
X27583333Y59150000D01*
X27616666Y59016667D01*
X27650000Y58950000D01*
X27683333Y58916667D01*
X27750000Y58883334D01*
X27816666Y58883334D01*
X27883333Y58916667D01*
X27916666Y58950000D01*
X27950000Y59016667D01*
X27983333Y59150000D01*
X27983333Y59316667D01*
X27950000Y59450000D01*
X27916666Y59516667D01*
X27883333Y59550000D01*
X27816666Y59583334D01*
X27150000Y59583334D02*
X27083333Y59583334D01*
X27016666Y59550000D01*
X26983333Y59516667D01*
X26950000Y59450000D01*
X26916666Y59316667D01*
X26916666Y59150000D01*
X26950000Y59016667D01*
X26983333Y58950000D01*
X27016666Y58916667D01*
X27083333Y58883334D01*
X27150000Y58883334D01*
X27216666Y58916667D01*
X27250000Y58950000D01*
X27283333Y59016667D01*
X27316666Y59150000D01*
X27316666Y59316667D01*
X27283333Y59450000D01*
X27250000Y59516667D01*
X27216666Y59550000D01*
X27150000Y59583334D01*
X26616666Y58883334D02*
X26616666Y59583334D01*
X26550000Y59150000D02*
X26350000Y58883334D01*
X26350000Y59350000D02*
X26616666Y59083334D01*
X22150000Y54283334D02*
X22383333Y54616667D01*
X22550000Y54283334D02*
X22550000Y54983334D01*
X22283333Y54983334D01*
X22216666Y54950000D01*
X22183333Y54916667D01*
X22150000Y54850000D01*
X22150000Y54750000D01*
X22183333Y54683334D01*
X22216666Y54650000D01*
X22283333Y54616667D01*
X22550000Y54616667D01*
X21483333Y54283334D02*
X21883333Y54283334D01*
X21683333Y54283334D02*
X21683333Y54983334D01*
X21750000Y54883334D01*
X21816666Y54816667D01*
X21883333Y54783334D01*
X20883333Y54750000D02*
X20883333Y54283334D01*
X21050000Y55016667D02*
X21216666Y54516667D01*
X20783333Y54516667D01*
X19416666Y52116667D02*
X19416666Y52516667D01*
X19416666Y52316667D02*
X18716666Y52316667D01*
X18816666Y52383334D01*
X18883333Y52450000D01*
X18916666Y52516667D01*
X18716666Y51483334D02*
X18716666Y51816667D01*
X19050000Y51850000D01*
X19016666Y51816667D01*
X18983333Y51750000D01*
X18983333Y51583334D01*
X19016666Y51516667D01*
X19050000Y51483334D01*
X19116666Y51450000D01*
X19283333Y51450000D01*
X19350000Y51483334D01*
X19383333Y51516667D01*
X19416666Y51583334D01*
X19416666Y51750000D01*
X19383333Y51816667D01*
X19350000Y51850000D01*
X19416666Y51150000D02*
X18716666Y51150000D01*
X19150000Y51083334D02*
X19416666Y50883334D01*
X18950000Y50883334D02*
X19216666Y51150000D01*
X37650000Y54883334D02*
X37883333Y55216667D01*
X38050000Y54883334D02*
X38050000Y55583334D01*
X37783333Y55583334D01*
X37716666Y55550000D01*
X37683333Y55516667D01*
X37650000Y55450000D01*
X37650000Y55350000D01*
X37683333Y55283334D01*
X37716666Y55250000D01*
X37783333Y55216667D01*
X38050000Y55216667D01*
X36983333Y54883334D02*
X37383333Y54883334D01*
X37183333Y54883334D02*
X37183333Y55583334D01*
X37250000Y55483334D01*
X37316666Y55416667D01*
X37383333Y55383334D01*
X36350000Y55583334D02*
X36683333Y55583334D01*
X36716666Y55250000D01*
X36683333Y55283334D01*
X36616666Y55316667D01*
X36450000Y55316667D01*
X36383333Y55283334D01*
X36350000Y55250000D01*
X36316666Y55183334D01*
X36316666Y55016667D01*
X36350000Y54950000D01*
X36383333Y54916667D01*
X36450000Y54883334D01*
X36616666Y54883334D01*
X36683333Y54916667D01*
X36716666Y54950000D01*
X34916666Y52550000D02*
X34916666Y52116667D01*
X35183333Y52350000D01*
X35183333Y52250000D01*
X35216666Y52183334D01*
X35250000Y52150000D01*
X35316666Y52116667D01*
X35483333Y52116667D01*
X35550000Y52150000D01*
X35583333Y52183334D01*
X35616666Y52250000D01*
X35616666Y52450000D01*
X35583333Y52516667D01*
X35550000Y52550000D01*
X35616666Y51783334D02*
X35616666Y51650000D01*
X35583333Y51583334D01*
X35550000Y51550000D01*
X35450000Y51483334D01*
X35316666Y51450000D01*
X35050000Y51450000D01*
X34983333Y51483334D01*
X34950000Y51516667D01*
X34916666Y51583334D01*
X34916666Y51716667D01*
X34950000Y51783334D01*
X34983333Y51816667D01*
X35050000Y51850000D01*
X35216666Y51850000D01*
X35283333Y51816667D01*
X35316666Y51783334D01*
X35350000Y51716667D01*
X35350000Y51583334D01*
X35316666Y51516667D01*
X35283333Y51483334D01*
X35216666Y51450000D01*
X35616666Y51150000D02*
X34916666Y51150000D01*
X35350000Y51083334D02*
X35616666Y50883334D01*
X35150000Y50883334D02*
X35416666Y51150000D01*
X15650000Y15783334D02*
X15883333Y16116667D01*
X16050000Y15783334D02*
X16050000Y16483334D01*
X15783333Y16483334D01*
X15716666Y16450000D01*
X15683333Y16416667D01*
X15650000Y16350000D01*
X15650000Y16250000D01*
X15683333Y16183334D01*
X15716666Y16150000D01*
X15783333Y16116667D01*
X16050000Y16116667D01*
X14983333Y15783334D02*
X15383333Y15783334D01*
X15183333Y15783334D02*
X15183333Y16483334D01*
X15250000Y16383334D01*
X15316666Y16316667D01*
X15383333Y16283334D01*
X14383333Y16483334D02*
X14516666Y16483334D01*
X14583333Y16450000D01*
X14616666Y16416667D01*
X14683333Y16316667D01*
X14716666Y16183334D01*
X14716666Y15916667D01*
X14683333Y15850000D01*
X14650000Y15816667D01*
X14583333Y15783334D01*
X14450000Y15783334D01*
X14383333Y15816667D01*
X14350000Y15850000D01*
X14316666Y15916667D01*
X14316666Y16083334D01*
X14350000Y16150000D01*
X14383333Y16183334D01*
X14450000Y16216667D01*
X14583333Y16216667D01*
X14650000Y16183334D01*
X14683333Y16150000D01*
X14716666Y16083334D01*
X14916666Y17683334D02*
X15316666Y17683334D01*
X15116666Y17683334D02*
X15116666Y18383334D01*
X15183333Y18283334D01*
X15250000Y18216667D01*
X15316666Y18183334D01*
X14483333Y18383334D02*
X14416666Y18383334D01*
X14350000Y18350000D01*
X14316666Y18316667D01*
X14283333Y18250000D01*
X14250000Y18116667D01*
X14250000Y17950000D01*
X14283333Y17816667D01*
X14316666Y17750000D01*
X14350000Y17716667D01*
X14416666Y17683334D01*
X14483333Y17683334D01*
X14550000Y17716667D01*
X14583333Y17750000D01*
X14616666Y17816667D01*
X14650000Y17950000D01*
X14650000Y18116667D01*
X14616666Y18250000D01*
X14583333Y18316667D01*
X14550000Y18350000D01*
X14483333Y18383334D01*
X13950000Y17683334D02*
X13950000Y18383334D01*
X13883333Y17950000D02*
X13683333Y17683334D01*
X13683333Y18150000D02*
X13950000Y17883334D01*
X6250000Y49883334D02*
X6483333Y50216667D01*
X6650000Y49883334D02*
X6650000Y50583334D01*
X6383333Y50583334D01*
X6316666Y50550000D01*
X6283333Y50516667D01*
X6250000Y50450000D01*
X6250000Y50350000D01*
X6283333Y50283334D01*
X6316666Y50250000D01*
X6383333Y50216667D01*
X6650000Y50216667D01*
X5983333Y50516667D02*
X5950000Y50550000D01*
X5883333Y50583334D01*
X5716666Y50583334D01*
X5650000Y50550000D01*
X5616666Y50516667D01*
X5583333Y50450000D01*
X5583333Y50383334D01*
X5616666Y50283334D01*
X6016666Y49883334D01*
X5583333Y49883334D01*
X5316666Y50516667D02*
X5283333Y50550000D01*
X5216666Y50583334D01*
X5050000Y50583334D01*
X4983333Y50550000D01*
X4950000Y50516667D01*
X4916666Y50450000D01*
X4916666Y50383334D01*
X4950000Y50283334D01*
X5350000Y49883334D01*
X4916666Y49883334D01*
X8116666Y50133334D02*
X8116666Y50066667D01*
X8150000Y50000000D01*
X8183333Y49966667D01*
X8250000Y49933334D01*
X8383333Y49900000D01*
X8550000Y49900000D01*
X8683333Y49933334D01*
X8750000Y49966667D01*
X8783333Y50000000D01*
X8816666Y50066667D01*
X8816666Y50133334D01*
X8783333Y50200000D01*
X8750000Y50233334D01*
X8683333Y50266667D01*
X8550000Y50300000D01*
X8383333Y50300000D01*
X8250000Y50266667D01*
X8183333Y50233334D01*
X8150000Y50200000D01*
X8116666Y50133334D01*
X22750000Y49983334D02*
X22983333Y50316667D01*
X23150000Y49983334D02*
X23150000Y50683334D01*
X22883333Y50683334D01*
X22816666Y50650000D01*
X22783333Y50616667D01*
X22750000Y50550000D01*
X22750000Y50450000D01*
X22783333Y50383334D01*
X22816666Y50350000D01*
X22883333Y50316667D01*
X23150000Y50316667D01*
X22483333Y50616667D02*
X22450000Y50650000D01*
X22383333Y50683334D01*
X22216666Y50683334D01*
X22150000Y50650000D01*
X22116666Y50616667D01*
X22083333Y50550000D01*
X22083333Y50483334D01*
X22116666Y50383334D01*
X22516666Y49983334D01*
X22083333Y49983334D01*
X21850000Y50683334D02*
X21416666Y50683334D01*
X21650000Y50416667D01*
X21550000Y50416667D01*
X21483333Y50383334D01*
X21450000Y50350000D01*
X21416666Y50283334D01*
X21416666Y50116667D01*
X21450000Y50050000D01*
X21483333Y50016667D01*
X21550000Y49983334D01*
X21750000Y49983334D01*
X21816666Y50016667D01*
X21850000Y50050000D01*
X24416666Y50133334D02*
X24416666Y50066667D01*
X24450000Y50000000D01*
X24483333Y49966667D01*
X24550000Y49933334D01*
X24683333Y49900000D01*
X24850000Y49900000D01*
X24983333Y49933334D01*
X25050000Y49966667D01*
X25083333Y50000000D01*
X25116666Y50066667D01*
X25116666Y50133334D01*
X25083333Y50200000D01*
X25050000Y50233334D01*
X24983333Y50266667D01*
X24850000Y50300000D01*
X24683333Y50300000D01*
X24550000Y50266667D01*
X24483333Y50233334D01*
X24450000Y50200000D01*
X24416666Y50133334D01*
X17450000Y24583334D02*
X17683333Y24916667D01*
X17850000Y24583334D02*
X17850000Y25283334D01*
X17583333Y25283334D01*
X17516666Y25250000D01*
X17483333Y25216667D01*
X17450000Y25150000D01*
X17450000Y25050000D01*
X17483333Y24983334D01*
X17516666Y24950000D01*
X17583333Y24916667D01*
X17850000Y24916667D01*
X17183333Y25216667D02*
X17150000Y25250000D01*
X17083333Y25283334D01*
X16916666Y25283334D01*
X16850000Y25250000D01*
X16816666Y25216667D01*
X16783333Y25150000D01*
X16783333Y25083334D01*
X16816666Y24983334D01*
X17216666Y24583334D01*
X16783333Y24583334D01*
X16183333Y25050000D02*
X16183333Y24583334D01*
X16350000Y25316667D02*
X16516666Y24816667D01*
X16083333Y24816667D01*
X19116666Y26550000D02*
X19116666Y26883334D01*
X19450000Y26916667D01*
X19416666Y26883334D01*
X19383333Y26816667D01*
X19383333Y26650000D01*
X19416666Y26583334D01*
X19450000Y26550000D01*
X19516666Y26516667D01*
X19683333Y26516667D01*
X19750000Y26550000D01*
X19783333Y26583334D01*
X19816666Y26650000D01*
X19816666Y26816667D01*
X19783333Y26883334D01*
X19750000Y26916667D01*
X19116666Y25916667D02*
X19116666Y26050000D01*
X19150000Y26116667D01*
X19183333Y26150000D01*
X19283333Y26216667D01*
X19416666Y26250000D01*
X19683333Y26250000D01*
X19750000Y26216667D01*
X19783333Y26183334D01*
X19816666Y26116667D01*
X19816666Y25983334D01*
X19783333Y25916667D01*
X19750000Y25883334D01*
X19683333Y25850000D01*
X19516666Y25850000D01*
X19450000Y25883334D01*
X19416666Y25916667D01*
X19383333Y25983334D01*
X19383333Y26116667D01*
X19416666Y26183334D01*
X19450000Y26216667D01*
X19516666Y26250000D01*
X19816666Y25550000D02*
X19116666Y25550000D01*
X19550000Y25483334D02*
X19816666Y25283334D01*
X19350000Y25283334D02*
X19616666Y25550000D01*
X37816666Y37050000D02*
X37483333Y37283334D01*
X37816666Y37450000D02*
X37116666Y37450000D01*
X37116666Y37183334D01*
X37150000Y37116667D01*
X37183333Y37083334D01*
X37250000Y37050000D01*
X37350000Y37050000D01*
X37416666Y37083334D01*
X37450000Y37116667D01*
X37483333Y37183334D01*
X37483333Y37450000D01*
X37116666Y36816667D02*
X37116666Y36383334D01*
X37383333Y36616667D01*
X37383333Y36516667D01*
X37416666Y36450000D01*
X37450000Y36416667D01*
X37516666Y36383334D01*
X37683333Y36383334D01*
X37750000Y36416667D01*
X37783333Y36450000D01*
X37816666Y36516667D01*
X37816666Y36716667D01*
X37783333Y36783334D01*
X37750000Y36816667D01*
X37116666Y35783334D02*
X37116666Y35916667D01*
X37150000Y35983334D01*
X37183333Y36016667D01*
X37283333Y36083334D01*
X37416666Y36116667D01*
X37683333Y36116667D01*
X37750000Y36083334D01*
X37783333Y36050000D01*
X37816666Y35983334D01*
X37816666Y35850000D01*
X37783333Y35783334D01*
X37750000Y35750000D01*
X37683333Y35716667D01*
X37516666Y35716667D01*
X37450000Y35750000D01*
X37416666Y35783334D01*
X37383333Y35850000D01*
X37383333Y35983334D01*
X37416666Y36050000D01*
X37450000Y36083334D01*
X37516666Y36116667D01*
X35116666Y36950000D02*
X35116666Y37283334D01*
X35450000Y37316667D01*
X35416666Y37283334D01*
X35383333Y37216667D01*
X35383333Y37050000D01*
X35416666Y36983334D01*
X35450000Y36950000D01*
X35516666Y36916667D01*
X35683333Y36916667D01*
X35750000Y36950000D01*
X35783333Y36983334D01*
X35816666Y37050000D01*
X35816666Y37216667D01*
X35783333Y37283334D01*
X35750000Y37316667D01*
X35116666Y36316667D02*
X35116666Y36450000D01*
X35150000Y36516667D01*
X35183333Y36550000D01*
X35283333Y36616667D01*
X35416666Y36650000D01*
X35683333Y36650000D01*
X35750000Y36616667D01*
X35783333Y36583334D01*
X35816666Y36516667D01*
X35816666Y36383334D01*
X35783333Y36316667D01*
X35750000Y36283334D01*
X35683333Y36250000D01*
X35516666Y36250000D01*
X35450000Y36283334D01*
X35416666Y36316667D01*
X35383333Y36383334D01*
X35383333Y36516667D01*
X35416666Y36583334D01*
X35450000Y36616667D01*
X35516666Y36650000D01*
X35816666Y35950000D02*
X35116666Y35950000D01*
X35550000Y35883334D02*
X35816666Y35683334D01*
X35350000Y35683334D02*
X35616666Y35950000D01*
X34250000Y16183334D02*
X34483333Y16516667D01*
X34650000Y16183334D02*
X34650000Y16883334D01*
X34383333Y16883334D01*
X34316666Y16850000D01*
X34283333Y16816667D01*
X34250000Y16750000D01*
X34250000Y16650000D01*
X34283333Y16583334D01*
X34316666Y16550000D01*
X34383333Y16516667D01*
X34650000Y16516667D01*
X33650000Y16650000D02*
X33650000Y16183334D01*
X33816666Y16916667D02*
X33983333Y16416667D01*
X33550000Y16416667D01*
X32983333Y16883334D02*
X33116666Y16883334D01*
X33183333Y16850000D01*
X33216666Y16816667D01*
X33283333Y16716667D01*
X33316666Y16583334D01*
X33316666Y16316667D01*
X33283333Y16250000D01*
X33250000Y16216667D01*
X33183333Y16183334D01*
X33050000Y16183334D01*
X32983333Y16216667D01*
X32950000Y16250000D01*
X32916666Y16316667D01*
X32916666Y16483334D01*
X32950000Y16550000D01*
X32983333Y16583334D01*
X33050000Y16616667D01*
X33183333Y16616667D01*
X33250000Y16583334D01*
X33283333Y16550000D01*
X33316666Y16483334D01*
X33416666Y10350000D02*
X33416666Y10683334D01*
X33750000Y10716667D01*
X33716666Y10683334D01*
X33683333Y10616667D01*
X33683333Y10450000D01*
X33716666Y10383334D01*
X33750000Y10350000D01*
X33816666Y10316667D01*
X33983333Y10316667D01*
X34050000Y10350000D01*
X34083333Y10383334D01*
X34116666Y10450000D01*
X34116666Y10616667D01*
X34083333Y10683334D01*
X34050000Y10716667D01*
X33416666Y9716667D02*
X33416666Y9850000D01*
X33450000Y9916667D01*
X33483333Y9950000D01*
X33583333Y10016667D01*
X33716666Y10050000D01*
X33983333Y10050000D01*
X34050000Y10016667D01*
X34083333Y9983334D01*
X34116666Y9916667D01*
X34116666Y9783334D01*
X34083333Y9716667D01*
X34050000Y9683334D01*
X33983333Y9650000D01*
X33816666Y9650000D01*
X33750000Y9683334D01*
X33716666Y9716667D01*
X33683333Y9783334D01*
X33683333Y9916667D01*
X33716666Y9983334D01*
X33750000Y10016667D01*
X33816666Y10050000D01*
X34116666Y9350000D02*
X33416666Y9350000D01*
X33850000Y9283334D02*
X34116666Y9083334D01*
X33650000Y9083334D02*
X33916666Y9350000D01*
X31050000Y16183334D02*
X31283333Y16516667D01*
X31450000Y16183334D02*
X31450000Y16883334D01*
X31183333Y16883334D01*
X31116666Y16850000D01*
X31083333Y16816667D01*
X31050000Y16750000D01*
X31050000Y16650000D01*
X31083333Y16583334D01*
X31116666Y16550000D01*
X31183333Y16516667D01*
X31450000Y16516667D01*
X30450000Y16650000D02*
X30450000Y16183334D01*
X30616666Y16916667D02*
X30783333Y16416667D01*
X30350000Y16416667D01*
X30150000Y16883334D02*
X29683333Y16883334D01*
X29983333Y16183334D01*
X30316666Y10350000D02*
X30316666Y10683334D01*
X30650000Y10716667D01*
X30616666Y10683334D01*
X30583333Y10616667D01*
X30583333Y10450000D01*
X30616666Y10383334D01*
X30650000Y10350000D01*
X30716666Y10316667D01*
X30883333Y10316667D01*
X30950000Y10350000D01*
X30983333Y10383334D01*
X31016666Y10450000D01*
X31016666Y10616667D01*
X30983333Y10683334D01*
X30950000Y10716667D01*
X30316666Y9716667D02*
X30316666Y9850000D01*
X30350000Y9916667D01*
X30383333Y9950000D01*
X30483333Y10016667D01*
X30616666Y10050000D01*
X30883333Y10050000D01*
X30950000Y10016667D01*
X30983333Y9983334D01*
X31016666Y9916667D01*
X31016666Y9783334D01*
X30983333Y9716667D01*
X30950000Y9683334D01*
X30883333Y9650000D01*
X30716666Y9650000D01*
X30650000Y9683334D01*
X30616666Y9716667D01*
X30583333Y9783334D01*
X30583333Y9916667D01*
X30616666Y9983334D01*
X30650000Y10016667D01*
X30716666Y10050000D01*
X31016666Y9350000D02*
X30316666Y9350000D01*
X30750000Y9283334D02*
X31016666Y9083334D01*
X30550000Y9083334D02*
X30816666Y9350000D01*
X10050000Y33383334D02*
X10283333Y33716667D01*
X10450000Y33383334D02*
X10450000Y34083334D01*
X10183333Y34083334D01*
X10116666Y34050000D01*
X10083333Y34016667D01*
X10050000Y33950000D01*
X10050000Y33850000D01*
X10083333Y33783334D01*
X10116666Y33750000D01*
X10183333Y33716667D01*
X10450000Y33716667D01*
X9416666Y34083334D02*
X9750000Y34083334D01*
X9783333Y33750000D01*
X9750000Y33783334D01*
X9683333Y33816667D01*
X9516666Y33816667D01*
X9450000Y33783334D01*
X9416666Y33750000D01*
X9383333Y33683334D01*
X9383333Y33516667D01*
X9416666Y33450000D01*
X9450000Y33416667D01*
X9516666Y33383334D01*
X9683333Y33383334D01*
X9750000Y33416667D01*
X9783333Y33450000D01*
X8950000Y34083334D02*
X8883333Y34083334D01*
X8816666Y34050000D01*
X8783333Y34016667D01*
X8750000Y33950000D01*
X8716666Y33816667D01*
X8716666Y33650000D01*
X8750000Y33516667D01*
X8783333Y33450000D01*
X8816666Y33416667D01*
X8883333Y33383334D01*
X8950000Y33383334D01*
X9016666Y33416667D01*
X9050000Y33450000D01*
X9083333Y33516667D01*
X9116666Y33650000D01*
X9116666Y33816667D01*
X9083333Y33950000D01*
X9050000Y34016667D01*
X9016666Y34050000D01*
X8950000Y34083334D01*
X10116666Y31483334D02*
X10516666Y31483334D01*
X10316666Y31483334D02*
X10316666Y32183334D01*
X10383333Y32083334D01*
X10450000Y32016667D01*
X10516666Y31983334D01*
X9683333Y32183334D02*
X9616666Y32183334D01*
X9550000Y32150000D01*
X9516666Y32116667D01*
X9483333Y32050000D01*
X9450000Y31916667D01*
X9450000Y31750000D01*
X9483333Y31616667D01*
X9516666Y31550000D01*
X9550000Y31516667D01*
X9616666Y31483334D01*
X9683333Y31483334D01*
X9750000Y31516667D01*
X9783333Y31550000D01*
X9816666Y31616667D01*
X9850000Y31750000D01*
X9850000Y31916667D01*
X9816666Y32050000D01*
X9783333Y32116667D01*
X9750000Y32150000D01*
X9683333Y32183334D01*
X9150000Y31483334D02*
X9150000Y32183334D01*
X9083333Y31750000D02*
X8883333Y31483334D01*
X8883333Y31950000D02*
X9150000Y31683334D01*
X12356333Y25283334D02*
X11956333Y25283334D01*
X12156333Y24583334D02*
X12156333Y25283334D01*
X11389666Y24583334D02*
X11723000Y24583334D01*
X11723000Y25283334D01*
X11023000Y25283334D02*
X10956333Y25283334D01*
X10889666Y25250000D01*
X10856333Y25216667D01*
X10823000Y25150000D01*
X10789666Y25016667D01*
X10789666Y24850000D01*
X10823000Y24716667D01*
X10856333Y24650000D01*
X10889666Y24616667D01*
X10956333Y24583334D01*
X11023000Y24583334D01*
X11089666Y24616667D01*
X11123000Y24650000D01*
X11156333Y24716667D01*
X11189666Y24850000D01*
X11189666Y25016667D01*
X11156333Y25150000D01*
X11123000Y25216667D01*
X11089666Y25250000D01*
X11023000Y25283334D01*
X10556333Y25283334D02*
X10089666Y25283334D01*
X10389666Y24583334D01*
X9856333Y25216667D02*
X9823000Y25250000D01*
X9756333Y25283334D01*
X9589666Y25283334D01*
X9523000Y25250000D01*
X9489666Y25216667D01*
X9456333Y25150000D01*
X9456333Y25083334D01*
X9489666Y24983334D01*
X9889666Y24583334D01*
X9456333Y24583334D01*
X5616666Y29183334D02*
X5616666Y29883334D01*
X5450000Y29883334D01*
X5350000Y29850000D01*
X5283333Y29783334D01*
X5250000Y29716667D01*
X5216666Y29583334D01*
X5216666Y29483334D01*
X5250000Y29350000D01*
X5283333Y29283334D01*
X5350000Y29216667D01*
X5450000Y29183334D01*
X5616666Y29183334D01*
X4950000Y29383334D02*
X4616666Y29383334D01*
X5016666Y29183334D02*
X4783333Y29883334D01*
X4550000Y29183334D01*
X3950000Y29183334D02*
X4350000Y29183334D01*
X4150000Y29183334D02*
X4150000Y29883334D01*
X4216666Y29783334D01*
X4283333Y29716667D01*
X4350000Y29683334D01*
X10750000Y9883334D02*
X10983333Y10216667D01*
X11150000Y9883334D02*
X11150000Y10583334D01*
X10883333Y10583334D01*
X10816666Y10550000D01*
X10783333Y10516667D01*
X10750000Y10450000D01*
X10750000Y10350000D01*
X10783333Y10283334D01*
X10816666Y10250000D01*
X10883333Y10216667D01*
X11150000Y10216667D01*
X10516666Y10583334D02*
X10083333Y10583334D01*
X10316666Y10316667D01*
X10216666Y10316667D01*
X10150000Y10283334D01*
X10116666Y10250000D01*
X10083333Y10183334D01*
X10083333Y10016667D01*
X10116666Y9950000D01*
X10150000Y9916667D01*
X10216666Y9883334D01*
X10416666Y9883334D01*
X10483333Y9916667D01*
X10516666Y9950000D01*
X9650000Y10583334D02*
X9583333Y10583334D01*
X9516666Y10550000D01*
X9483333Y10516667D01*
X9450000Y10450000D01*
X9416666Y10316667D01*
X9416666Y10150000D01*
X9450000Y10016667D01*
X9483333Y9950000D01*
X9516666Y9916667D01*
X9583333Y9883334D01*
X9650000Y9883334D01*
X9716666Y9916667D01*
X9750000Y9950000D01*
X9783333Y10016667D01*
X9816666Y10150000D01*
X9816666Y10316667D01*
X9783333Y10450000D01*
X9750000Y10516667D01*
X9716666Y10550000D01*
X9650000Y10583334D01*
X12316666Y10650000D02*
X12316666Y10983334D01*
X12650000Y11016667D01*
X12616666Y10983334D01*
X12583333Y10916667D01*
X12583333Y10750000D01*
X12616666Y10683334D01*
X12650000Y10650000D01*
X12716666Y10616667D01*
X12883333Y10616667D01*
X12950000Y10650000D01*
X12983333Y10683334D01*
X13016666Y10750000D01*
X13016666Y10916667D01*
X12983333Y10983334D01*
X12950000Y11016667D01*
X12316666Y10016667D02*
X12316666Y10150000D01*
X12350000Y10216667D01*
X12383333Y10250000D01*
X12483333Y10316667D01*
X12616666Y10350000D01*
X12883333Y10350000D01*
X12950000Y10316667D01*
X12983333Y10283334D01*
X13016666Y10216667D01*
X13016666Y10083334D01*
X12983333Y10016667D01*
X12950000Y9983334D01*
X12883333Y9950000D01*
X12716666Y9950000D01*
X12650000Y9983334D01*
X12616666Y10016667D01*
X12583333Y10083334D01*
X12583333Y10216667D01*
X12616666Y10283334D01*
X12650000Y10316667D01*
X12716666Y10350000D01*
X13016666Y9650000D02*
X12316666Y9650000D01*
X12750000Y9583334D02*
X13016666Y9383334D01*
X12550000Y9383334D02*
X12816666Y9650000D01*
X8150000Y4083334D02*
X8383333Y4416667D01*
X8550000Y4083334D02*
X8550000Y4783334D01*
X8283333Y4783334D01*
X8216666Y4750000D01*
X8183333Y4716667D01*
X8150000Y4650000D01*
X8150000Y4550000D01*
X8183333Y4483334D01*
X8216666Y4450000D01*
X8283333Y4416667D01*
X8550000Y4416667D01*
X7516666Y4783334D02*
X7850000Y4783334D01*
X7883333Y4450000D01*
X7850000Y4483334D01*
X7783333Y4516667D01*
X7616666Y4516667D01*
X7550000Y4483334D01*
X7516666Y4450000D01*
X7483333Y4383334D01*
X7483333Y4216667D01*
X7516666Y4150000D01*
X7550000Y4116667D01*
X7616666Y4083334D01*
X7783333Y4083334D01*
X7850000Y4116667D01*
X7883333Y4150000D01*
X6816666Y4083334D02*
X7216666Y4083334D01*
X7016666Y4083334D02*
X7016666Y4783334D01*
X7083333Y4683334D01*
X7150000Y4616667D01*
X7216666Y4583334D01*
X10450000Y2883334D02*
X10783333Y2883334D01*
X10816666Y2550000D01*
X10783333Y2583334D01*
X10716666Y2616667D01*
X10550000Y2616667D01*
X10483333Y2583334D01*
X10450000Y2550000D01*
X10416666Y2483334D01*
X10416666Y2316667D01*
X10450000Y2250000D01*
X10483333Y2216667D01*
X10550000Y2183334D01*
X10716666Y2183334D01*
X10783333Y2216667D01*
X10816666Y2250000D01*
X9816666Y2883334D02*
X9950000Y2883334D01*
X10016666Y2850000D01*
X10050000Y2816667D01*
X10116666Y2716667D01*
X10150000Y2583334D01*
X10150000Y2316667D01*
X10116666Y2250000D01*
X10083333Y2216667D01*
X10016666Y2183334D01*
X9883333Y2183334D01*
X9816666Y2216667D01*
X9783333Y2250000D01*
X9750000Y2316667D01*
X9750000Y2483334D01*
X9783333Y2550000D01*
X9816666Y2583334D01*
X9883333Y2616667D01*
X10016666Y2616667D01*
X10083333Y2583334D01*
X10116666Y2550000D01*
X10150000Y2483334D01*
X9450000Y2183334D02*
X9450000Y2883334D01*
X9383333Y2450000D02*
X9183333Y2183334D01*
X9183333Y2650000D02*
X9450000Y2383334D01*
X25850000Y56483334D02*
X26083333Y56816667D01*
X26250000Y56483334D02*
X26250000Y57183334D01*
X25983333Y57183334D01*
X25916666Y57150000D01*
X25883333Y57116667D01*
X25850000Y57050000D01*
X25850000Y56950000D01*
X25883333Y56883334D01*
X25916666Y56850000D01*
X25983333Y56816667D01*
X26250000Y56816667D01*
X25183333Y56483334D02*
X25583333Y56483334D01*
X25383333Y56483334D02*
X25383333Y57183334D01*
X25450000Y57083334D01*
X25516666Y57016667D01*
X25583333Y56983334D01*
X24850000Y56483334D02*
X24716666Y56483334D01*
X24650000Y56516667D01*
X24616666Y56550000D01*
X24550000Y56650000D01*
X24516666Y56783334D01*
X24516666Y57050000D01*
X24550000Y57116667D01*
X24583333Y57150000D01*
X24650000Y57183334D01*
X24783333Y57183334D01*
X24850000Y57150000D01*
X24883333Y57116667D01*
X24916666Y57050000D01*
X24916666Y56883334D01*
X24883333Y56816667D01*
X24850000Y56783334D01*
X24783333Y56750000D01*
X24650000Y56750000D01*
X24583333Y56783334D01*
X24550000Y56816667D01*
X24516666Y56883334D01*
X25850000Y42983334D02*
X26083333Y43316667D01*
X26250000Y42983334D02*
X26250000Y43683334D01*
X25983333Y43683334D01*
X25916666Y43650000D01*
X25883333Y43616667D01*
X25850000Y43550000D01*
X25850000Y43450000D01*
X25883333Y43383334D01*
X25916666Y43350000D01*
X25983333Y43316667D01*
X26250000Y43316667D01*
X25583333Y43616667D02*
X25550000Y43650000D01*
X25483333Y43683334D01*
X25316666Y43683334D01*
X25250000Y43650000D01*
X25216666Y43616667D01*
X25183333Y43550000D01*
X25183333Y43483334D01*
X25216666Y43383334D01*
X25616666Y42983334D01*
X25183333Y42983334D01*
X24516666Y42983334D02*
X24916666Y42983334D01*
X24716666Y42983334D02*
X24716666Y43683334D01*
X24783333Y43583334D01*
X24850000Y43516667D01*
X24916666Y43483334D01*
X9550000Y56983334D02*
X9783333Y57316667D01*
X9950000Y56983334D02*
X9950000Y57683334D01*
X9683333Y57683334D01*
X9616666Y57650000D01*
X9583333Y57616667D01*
X9550000Y57550000D01*
X9550000Y57450000D01*
X9583333Y57383334D01*
X9616666Y57350000D01*
X9683333Y57316667D01*
X9950000Y57316667D01*
X8883333Y56983334D02*
X9283333Y56983334D01*
X9083333Y56983334D02*
X9083333Y57683334D01*
X9150000Y57583334D01*
X9216666Y57516667D01*
X9283333Y57483334D01*
X8483333Y57383334D02*
X8550000Y57416667D01*
X8583333Y57450000D01*
X8616666Y57516667D01*
X8616666Y57550000D01*
X8583333Y57616667D01*
X8550000Y57650000D01*
X8483333Y57683334D01*
X8350000Y57683334D01*
X8283333Y57650000D01*
X8250000Y57616667D01*
X8216666Y57550000D01*
X8216666Y57516667D01*
X8250000Y57450000D01*
X8283333Y57416667D01*
X8350000Y57383334D01*
X8483333Y57383334D01*
X8550000Y57350000D01*
X8583333Y57316667D01*
X8616666Y57250000D01*
X8616666Y57116667D01*
X8583333Y57050000D01*
X8550000Y57016667D01*
X8483333Y56983334D01*
X8350000Y56983334D01*
X8283333Y57016667D01*
X8250000Y57050000D01*
X8216666Y57116667D01*
X8216666Y57250000D01*
X8250000Y57316667D01*
X8283333Y57350000D01*
X8350000Y57383334D01*
X9450000Y42383334D02*
X9683333Y42716667D01*
X9850000Y42383334D02*
X9850000Y43083334D01*
X9583333Y43083334D01*
X9516666Y43050000D01*
X9483333Y43016667D01*
X9450000Y42950000D01*
X9450000Y42850000D01*
X9483333Y42783334D01*
X9516666Y42750000D01*
X9583333Y42716667D01*
X9850000Y42716667D01*
X9183333Y43016667D02*
X9150000Y43050000D01*
X9083333Y43083334D01*
X8916666Y43083334D01*
X8850000Y43050000D01*
X8816666Y43016667D01*
X8783333Y42950000D01*
X8783333Y42883334D01*
X8816666Y42783334D01*
X9216666Y42383334D01*
X8783333Y42383334D01*
X8350000Y43083334D02*
X8283333Y43083334D01*
X8216666Y43050000D01*
X8183333Y43016667D01*
X8150000Y42950000D01*
X8116666Y42816667D01*
X8116666Y42650000D01*
X8150000Y42516667D01*
X8183333Y42450000D01*
X8216666Y42416667D01*
X8283333Y42383334D01*
X8350000Y42383334D01*
X8416666Y42416667D01*
X8450000Y42450000D01*
X8483333Y42516667D01*
X8516666Y42650000D01*
X8516666Y42816667D01*
X8483333Y42950000D01*
X8450000Y43016667D01*
X8416666Y43050000D01*
X8350000Y43083334D01*
M02*
