G04 #@! TF.FileFunction,Copper,L1,Top,Signal*
%FSLAX46Y46*%
G04 Gerber Fmt 4.6, Leading zero omitted, Abs format (unit mm)*
G04 Created by KiCad (PCBNEW (2016-08-20 BZR 7083)-product) date Wed Apr 22 08:43:57 2020*
%MOMM*%
%LPD*%
G01*
G04 APERTURE LIST*
%ADD10C,0.100000*%
%ADD11C,1.200000*%
%ADD12R,2.200000X1.600000*%
%ADD13O,2.200000X1.600000*%
%ADD14C,1.600000*%
%ADD15R,1.600000X1.600000*%
%ADD16C,1.500000*%
%ADD17C,2.000000*%
%ADD18R,1.600000X2.200000*%
%ADD19O,1.600000X2.200000*%
%ADD20C,6.000000*%
%ADD21C,0.900000*%
%ADD22C,0.300000*%
G04 APERTURE END LIST*
D10*
D11*
X17000000Y31260000D03*
X17000000Y36340000D03*
X4600000Y26240000D03*
X4600000Y21160000D03*
X26440000Y64100000D03*
X21360000Y64100000D03*
X11260000Y75000000D03*
X16340000Y75000000D03*
X19100000Y33760000D03*
X19100000Y38840000D03*
X22660000Y15900000D03*
X27740000Y15900000D03*
D12*
X22690000Y18480000D03*
D13*
X22690000Y21020000D03*
X22690000Y23560000D03*
X22690000Y26100000D03*
X22690000Y28640000D03*
X22690000Y31180000D03*
X22690000Y33720000D03*
X30310000Y33720000D03*
X30310000Y31180000D03*
X30310000Y28640000D03*
X30310000Y26100000D03*
X30310000Y23560000D03*
X30310000Y21020000D03*
X30310000Y18480000D03*
D14*
X17200000Y21100000D03*
X15300000Y14200000D03*
X18800000Y64100000D03*
X35300000Y59200000D03*
X28100000Y13700000D03*
X13700000Y39500000D03*
X30000000Y39500000D03*
X1500000Y68610000D03*
X1500000Y71150000D03*
X1500000Y73690000D03*
X1500000Y76230000D03*
X1500000Y78770000D03*
X1500000Y81310000D03*
D15*
X1500000Y86390000D03*
D14*
X1500000Y83850000D03*
X1500000Y11110000D03*
X1500000Y13650000D03*
X1500000Y16190000D03*
X1500000Y18730000D03*
X1500000Y21270000D03*
X1500000Y23810000D03*
D15*
X1500000Y28890000D03*
D14*
X1500000Y26350000D03*
X37500000Y68610000D03*
X37500000Y71150000D03*
X37500000Y73690000D03*
X37500000Y76230000D03*
X37500000Y78770000D03*
X37500000Y81310000D03*
D15*
X37500000Y86390000D03*
D14*
X37500000Y83850000D03*
X37500000Y11110000D03*
X37500000Y13650000D03*
X37500000Y16190000D03*
X37500000Y18730000D03*
X37500000Y21270000D03*
X37500000Y23810000D03*
D15*
X37500000Y28890000D03*
D14*
X37500000Y26350000D03*
D11*
X17960000Y12700000D03*
X23040000Y12700000D03*
X32940000Y2500000D03*
X27860000Y2500000D03*
D12*
X18840000Y66640000D03*
D13*
X18840000Y69180000D03*
X18840000Y71720000D03*
X18840000Y74260000D03*
X26460000Y74260000D03*
X26460000Y71720000D03*
X26460000Y69180000D03*
X26460000Y66640000D03*
D12*
X25510000Y10110000D03*
D13*
X25510000Y7570000D03*
X25510000Y5030000D03*
X25510000Y2490000D03*
X17890000Y2490000D03*
X17890000Y5030000D03*
X17890000Y7570000D03*
X17890000Y10110000D03*
D14*
X6000000Y46800000D03*
X22100000Y46800000D03*
D16*
X15300000Y5160000D03*
X15300000Y10240000D03*
X32900000Y33760000D03*
X32900000Y38840000D03*
X28100000Y4960000D03*
X28100000Y10040000D03*
D17*
X12400000Y62100000D03*
X12400000Y72100000D03*
X32600000Y64500000D03*
X32600000Y74500000D03*
X15400000Y72100000D03*
X15400000Y62100000D03*
X29500000Y74500000D03*
X29500000Y64500000D03*
X19900000Y59200000D03*
X9900000Y59200000D03*
X22500000Y59200000D03*
X32500000Y59200000D03*
X19100000Y56700000D03*
X19100000Y46700000D03*
X35300000Y56700000D03*
X35300000Y46700000D03*
X9500000Y18000000D03*
X19500000Y18000000D03*
X8500000Y55100000D03*
X8500000Y45100000D03*
X24800000Y55100000D03*
X24800000Y45100000D03*
X19500000Y21100000D03*
X19500000Y31100000D03*
X35500000Y31500000D03*
X35500000Y41500000D03*
X33800000Y14900000D03*
X33800000Y4900000D03*
X30700000Y4900000D03*
X30700000Y14900000D03*
X4700000Y31800000D03*
X14700000Y31800000D03*
D18*
X14810000Y21090000D03*
D19*
X12270000Y21090000D03*
X9730000Y21090000D03*
X7190000Y21090000D03*
X7190000Y28710000D03*
X9730000Y28710000D03*
X12270000Y28710000D03*
X14810000Y28710000D03*
D17*
X12700000Y5200000D03*
X12700000Y15200000D03*
X5000000Y2500000D03*
X15000000Y2500000D03*
D14*
X30000000Y50100000D03*
X27500000Y55100000D03*
X32500000Y55100000D03*
X30000000Y41700000D03*
X27500000Y46700000D03*
X32500000Y46700000D03*
X13700000Y50100000D03*
X11200000Y55100000D03*
X16200000Y55100000D03*
X13700000Y41700000D03*
X11200000Y46700000D03*
X16200000Y46700000D03*
D20*
X23600000Y38600000D03*
D21*
X33200000Y23600000D03*
X33200000Y21100000D03*
X17400000Y14000000D03*
X19600000Y15800000D03*
X29700000Y13300000D03*
X1600000Y32200000D03*
X1600000Y46600000D03*
X1600000Y61000000D03*
X37300000Y1100000D03*
X28800000Y1100000D03*
X37400000Y5100000D03*
X29300000Y6800000D03*
X30100000Y11000000D03*
X26300000Y12000000D03*
X12600000Y3000000D03*
X21300000Y2400000D03*
X21800000Y9900000D03*
X4800000Y15500000D03*
X9100000Y12600000D03*
X8800000Y5700000D03*
X14800000Y18700000D03*
X16100000Y6600000D03*
X12100000Y7300000D03*
X13500000Y13200000D03*
X10800000Y16100000D03*
X5700000Y19600000D03*
X18100000Y23100000D03*
X13100000Y26700000D03*
X11100000Y23000000D03*
X8200000Y26200000D03*
X32500000Y29600000D03*
X31100000Y35500000D03*
X15900000Y40500000D03*
X12700000Y33300000D03*
X5600000Y40600000D03*
X16200000Y44900000D03*
X18600000Y43000000D03*
X22200000Y57400000D03*
X25200000Y60400000D03*
X25300000Y58000000D03*
X6600000Y57100000D03*
X13800000Y57800000D03*
X27900000Y53100000D03*
X26100000Y48000000D03*
X21000000Y48400000D03*
X18500000Y53700000D03*
X16600000Y48900000D03*
X12100000Y48600000D03*
X5800000Y48500000D03*
X6700000Y67500000D03*
X7200000Y61600000D03*
X11900000Y69300000D03*
X6200000Y77400000D03*
X4000000Y72600000D03*
X15100000Y68600000D03*
X15300000Y65000000D03*
X17200000Y62900000D03*
X18000000Y59700000D03*
X24200000Y69200000D03*
X34000000Y60500000D03*
X31100000Y56600000D03*
X27700000Y62900000D03*
X28300000Y67800000D03*
X30200000Y69300000D03*
X34900000Y54500000D03*
X33900000Y48700000D03*
X34700000Y44600000D03*
X37600000Y34500000D03*
X37800000Y44200000D03*
X30800000Y72300000D03*
X24400000Y76800000D03*
X20900000Y73100000D03*
X18600000Y76900000D03*
X14600000Y75400000D03*
X11700000Y79000000D03*
X6600000Y80500000D03*
X12000000Y87800000D03*
X26100000Y26400000D03*
X26100000Y28400000D03*
X19300000Y26100000D03*
X19300000Y28500000D03*
X13900000Y70500000D03*
X7000000Y78800000D03*
X4000000Y71100000D03*
D22*
X33200000Y21100000D02*
X33200000Y23600000D01*
X13500000Y13200000D02*
X14400000Y12300000D01*
X19200000Y15800000D02*
X19600000Y15800000D01*
X15700000Y12300000D02*
X17400000Y14000000D01*
X17400000Y14000000D02*
X19200000Y15800000D01*
X14400000Y12300000D02*
X15700000Y12300000D01*
X30100000Y11000000D02*
X30100000Y12900000D01*
X30100000Y12900000D02*
X29700000Y13300000D01*
X7200000Y61600000D02*
X6600000Y61000000D01*
X1600000Y46600000D02*
X1600000Y32200000D01*
X6600000Y61000000D02*
X1600000Y61000000D01*
X30100000Y7600000D02*
X29300000Y6800000D01*
X30100000Y11000000D02*
X30100000Y7600000D01*
X23040000Y12700000D02*
X23740000Y13400000D01*
X24900000Y13400000D02*
X26300000Y12000000D01*
X23740000Y13400000D02*
X24900000Y13400000D01*
X5000000Y2500000D02*
X6400000Y3900000D01*
X11700000Y3900000D02*
X12600000Y3000000D01*
X6400000Y3900000D02*
X11700000Y3900000D01*
X23040000Y12700000D02*
X21800000Y11460000D01*
X21800000Y11460000D02*
X21800000Y9900000D01*
X8800000Y12300000D02*
X9100000Y12600000D01*
X8800000Y5700000D02*
X8800000Y12300000D01*
X19600000Y15800000D02*
X17700000Y15800000D01*
X17700000Y15800000D02*
X14800000Y18700000D01*
X1500000Y16190000D02*
X4910000Y19600000D01*
X15400000Y7300000D02*
X16100000Y6600000D01*
X12100000Y7300000D02*
X15400000Y7300000D01*
X12000000Y13200000D02*
X13500000Y13200000D01*
X10800000Y14400000D02*
X12000000Y13200000D01*
X10800000Y16100000D02*
X10800000Y14400000D01*
X4910000Y19600000D02*
X5700000Y19600000D01*
X4600000Y26240000D02*
X5440000Y25400000D01*
X11100000Y24700000D02*
X13100000Y26700000D01*
X11100000Y23000000D02*
X11100000Y24700000D01*
X7400000Y25400000D02*
X8200000Y26200000D01*
X5440000Y25400000D02*
X7400000Y25400000D01*
X32900000Y38840000D02*
X31100000Y37040000D01*
X31100000Y37040000D02*
X31100000Y35500000D01*
X5600000Y40400000D02*
X12700000Y33300000D01*
X5600000Y40600000D02*
X5600000Y40400000D01*
X18100000Y43000000D02*
X16200000Y44900000D01*
X18600000Y43000000D02*
X18100000Y43000000D01*
X25200000Y60400000D02*
X25200000Y58100000D01*
X25060000Y60400000D02*
X25200000Y60400000D01*
X21360000Y64100000D02*
X25060000Y60400000D01*
X25200000Y58100000D02*
X25300000Y58000000D01*
X6600000Y57100000D02*
X13100000Y57100000D01*
X13100000Y57100000D02*
X13800000Y57800000D01*
X21400000Y48000000D02*
X26100000Y48000000D01*
X21000000Y48400000D02*
X21400000Y48000000D01*
X18500000Y50800000D02*
X18500000Y53700000D01*
X16600000Y48900000D02*
X18500000Y50800000D01*
X5900000Y48600000D02*
X12100000Y48600000D01*
X5800000Y48500000D02*
X5900000Y48600000D01*
X11260000Y75000000D02*
X8860000Y77400000D01*
X11900000Y66300000D02*
X7200000Y61600000D01*
X11900000Y69300000D02*
X11900000Y66300000D01*
X8860000Y77400000D02*
X6200000Y77400000D01*
X12400000Y62100000D02*
X15300000Y65000000D01*
X21360000Y64100000D02*
X19760000Y62500000D01*
X17600000Y62500000D02*
X17200000Y62900000D01*
X19760000Y62500000D02*
X17600000Y62500000D01*
X32600000Y64500000D02*
X34000000Y63100000D01*
X34000000Y63100000D02*
X34000000Y60500000D01*
X32600000Y64500000D02*
X29300000Y67800000D01*
X27700000Y60000000D02*
X31100000Y56600000D01*
X27700000Y62900000D02*
X27700000Y60000000D01*
X29300000Y67800000D02*
X28300000Y67800000D01*
X32600000Y64500000D02*
X31300000Y65800000D01*
X31300000Y68200000D02*
X30200000Y69300000D01*
X31300000Y65800000D02*
X31300000Y68200000D01*
X37800000Y44200000D02*
X37800000Y46700000D01*
X35800000Y48700000D02*
X33900000Y48700000D01*
X37800000Y46700000D02*
X35800000Y48700000D01*
X37500000Y73690000D02*
X36110000Y72300000D01*
X37800000Y34700000D02*
X37600000Y34500000D01*
X37800000Y44200000D02*
X37800000Y34700000D01*
X36110000Y72300000D02*
X30800000Y72300000D01*
X36090000Y86390000D02*
X37500000Y86390000D01*
X35800000Y86100000D02*
X36090000Y86390000D01*
X35800000Y84900000D02*
X35800000Y86100000D01*
X36100000Y84600000D02*
X35800000Y84900000D01*
X36100000Y78100000D02*
X36100000Y84600000D01*
X35300000Y77300000D02*
X36100000Y78100000D01*
X24900000Y77300000D02*
X35300000Y77300000D01*
X24400000Y76800000D02*
X24900000Y77300000D01*
X20900000Y74600000D02*
X20900000Y73100000D01*
X18600000Y76900000D02*
X20900000Y74600000D01*
X14300000Y75400000D02*
X14600000Y75400000D01*
X11700000Y78000000D02*
X14300000Y75400000D01*
X11700000Y79000000D02*
X11700000Y78000000D01*
X6600000Y82400000D02*
X6600000Y80500000D01*
X12000000Y87800000D02*
X6600000Y82400000D01*
X26100000Y28400000D02*
X26100000Y26400000D01*
X19300000Y28500000D02*
X19300000Y26100000D01*
X16340000Y75000000D02*
X13900000Y72560000D01*
X13900000Y72560000D02*
X13900000Y70500000D01*
X6970000Y78770000D02*
X1500000Y78770000D01*
X3950000Y71150000D02*
X1500000Y71150000D01*
X4000000Y71100000D02*
X3950000Y71150000D01*
G36*
X12525000Y78000000D02*
X12561157Y77818225D01*
X12664124Y77664124D01*
X12818225Y77561157D01*
X13000000Y77525000D01*
X35000000Y77525000D01*
X35181775Y77561157D01*
X35335876Y77664124D01*
X35438843Y77818225D01*
X35475000Y78000000D01*
X35475000Y80472214D01*
X36674942Y80472214D01*
X36747386Y80258804D01*
X37206950Y80050809D01*
X37711129Y80034514D01*
X38183164Y80212401D01*
X38252614Y80258804D01*
X38325058Y80472214D01*
X37500000Y81297272D01*
X36674942Y80472214D01*
X35475000Y80472214D01*
X35475000Y81098871D01*
X36224514Y81098871D01*
X36402401Y80626836D01*
X36448804Y80557386D01*
X36662214Y80484942D01*
X37487272Y81310000D01*
X36662214Y82135058D01*
X36448804Y82062614D01*
X36240809Y81603050D01*
X36224514Y81098871D01*
X35475000Y81098871D01*
X35475000Y82147786D01*
X36674942Y82147786D01*
X37500000Y81322728D01*
X38325058Y82147786D01*
X38252614Y82361196D01*
X37793050Y82569191D01*
X37288871Y82585486D01*
X36816836Y82407599D01*
X36747386Y82361196D01*
X36674942Y82147786D01*
X35475000Y82147786D01*
X35475000Y86264000D01*
X36232000Y86264000D01*
X36232000Y85496909D01*
X36303249Y85324899D01*
X36434899Y85193249D01*
X36606909Y85122000D01*
X37374000Y85122000D01*
X37491000Y85239000D01*
X37491000Y86381000D01*
X36349000Y86381000D01*
X36232000Y86264000D01*
X35475000Y86264000D01*
X35475000Y87283091D01*
X36232000Y87283091D01*
X36232000Y86516000D01*
X36349000Y86399000D01*
X37491000Y86399000D01*
X37491000Y87541000D01*
X37374000Y87658000D01*
X36606909Y87658000D01*
X36434899Y87586751D01*
X36303249Y87455101D01*
X36232000Y87283091D01*
X35475000Y87283091D01*
X35475000Y88525000D01*
X38525000Y88525000D01*
X38525000Y87603361D01*
X38393091Y87658000D01*
X37626000Y87658000D01*
X37509000Y87541000D01*
X37509000Y86399000D01*
X37529000Y86399000D01*
X37529000Y86381000D01*
X37509000Y86381000D01*
X37509000Y85239000D01*
X37626000Y85122000D01*
X38393091Y85122000D01*
X38525000Y85176639D01*
X38525000Y84511681D01*
X38517903Y84528857D01*
X38180633Y84866717D01*
X37739742Y85049791D01*
X37262353Y85050207D01*
X36821143Y84867903D01*
X36483283Y84530633D01*
X36300209Y84089742D01*
X36299793Y83612353D01*
X36482097Y83171143D01*
X36819367Y82833283D01*
X37260258Y82650209D01*
X37737647Y82649793D01*
X38178857Y82832097D01*
X38516717Y83169367D01*
X38525000Y83189315D01*
X38525000Y82071506D01*
X38337786Y82135058D01*
X37512728Y81310000D01*
X38337786Y80484942D01*
X38525000Y80548494D01*
X38525000Y79431681D01*
X38517903Y79448857D01*
X38180633Y79786717D01*
X37739742Y79969791D01*
X37262353Y79970207D01*
X36821143Y79787903D01*
X36483283Y79450633D01*
X36300209Y79009742D01*
X36299793Y78532353D01*
X36482097Y78091143D01*
X36819367Y77753283D01*
X37260258Y77570209D01*
X37737647Y77569793D01*
X38178857Y77752097D01*
X38516717Y78089367D01*
X38525000Y78109315D01*
X38525000Y76991506D01*
X38337786Y77055058D01*
X37512728Y76230000D01*
X38337786Y75404942D01*
X38525000Y75468494D01*
X38525000Y74451506D01*
X38337786Y74515058D01*
X37512728Y73690000D01*
X38337786Y72864942D01*
X38525000Y72928494D01*
X38525000Y71811681D01*
X38517903Y71828857D01*
X38180633Y72166717D01*
X37739742Y72349791D01*
X37262353Y72350207D01*
X36821143Y72167903D01*
X36483283Y71830633D01*
X36300209Y71389742D01*
X36299793Y70912353D01*
X36482097Y70471143D01*
X36819367Y70133283D01*
X37260258Y69950209D01*
X37737647Y69949793D01*
X38178857Y70132097D01*
X38516717Y70469367D01*
X38525000Y70489315D01*
X38525000Y69371506D01*
X38337786Y69435058D01*
X37512728Y68610000D01*
X38337786Y67784942D01*
X38525000Y67848494D01*
X38525000Y30103361D01*
X38393091Y30158000D01*
X37626000Y30158000D01*
X37509000Y30041000D01*
X37509000Y28899000D01*
X37529000Y28899000D01*
X37529000Y28881000D01*
X37509000Y28881000D01*
X37509000Y27739000D01*
X37626000Y27622000D01*
X38393091Y27622000D01*
X38525000Y27676639D01*
X38525000Y27011681D01*
X38517903Y27028857D01*
X38180633Y27366717D01*
X37739742Y27549791D01*
X37262353Y27550207D01*
X36821143Y27367903D01*
X36483283Y27030633D01*
X36300209Y26589742D01*
X36299793Y26112353D01*
X36450000Y25748824D01*
X36450000Y24410479D01*
X36300209Y24049742D01*
X36299793Y23572353D01*
X36482097Y23131143D01*
X36819367Y22793283D01*
X37260258Y22610209D01*
X37737647Y22609793D01*
X38178857Y22792097D01*
X38516717Y23129367D01*
X38525000Y23149315D01*
X38525000Y22031506D01*
X38337786Y22095058D01*
X37512728Y21270000D01*
X38337786Y20444942D01*
X38525000Y20508494D01*
X38525000Y19491506D01*
X38337786Y19555058D01*
X37512728Y18730000D01*
X38337786Y17904942D01*
X38525000Y17968494D01*
X38525000Y16951506D01*
X38337786Y17015058D01*
X37512728Y16190000D01*
X38337786Y15364942D01*
X38525000Y15428494D01*
X38525000Y14311681D01*
X38517903Y14328857D01*
X38180633Y14666717D01*
X37739742Y14849791D01*
X37262353Y14850207D01*
X36821143Y14667903D01*
X36483283Y14330633D01*
X36300209Y13889742D01*
X36299793Y13412353D01*
X36482097Y12971143D01*
X36819367Y12633283D01*
X37260258Y12450209D01*
X37737647Y12449793D01*
X38178857Y12632097D01*
X38516717Y12969367D01*
X38525000Y12989315D01*
X38525000Y11871506D01*
X38337786Y11935058D01*
X37512728Y11110000D01*
X38337786Y10284942D01*
X38525000Y10348494D01*
X38525000Y475000D01*
X475000Y475000D01*
X475000Y1518019D01*
X4030747Y1518019D01*
X4127524Y1283827D01*
X4659346Y1042521D01*
X5243030Y1023102D01*
X5789715Y1228529D01*
X5872476Y1283827D01*
X5969253Y1518019D01*
X5000000Y2487272D01*
X4030747Y1518019D01*
X475000Y1518019D01*
X475000Y2256970D01*
X3523102Y2256970D01*
X3728529Y1710285D01*
X3783827Y1627524D01*
X4018019Y1530747D01*
X4987272Y2500000D01*
X5012728Y2500000D01*
X5981981Y1530747D01*
X6216173Y1627524D01*
X6457479Y2159346D01*
X6459588Y2222744D01*
X13599757Y2222744D01*
X13812445Y1708000D01*
X14205928Y1313830D01*
X14720301Y1100243D01*
X15277256Y1099757D01*
X15792000Y1312445D01*
X16186170Y1705928D01*
X16399757Y2220301D01*
X16399820Y2292892D01*
X16451958Y2030780D01*
X16712085Y1641472D01*
X17101393Y1381345D01*
X17560613Y1290000D01*
X18219387Y1290000D01*
X18678607Y1381345D01*
X19067915Y1641472D01*
X19328042Y2030780D01*
X19419387Y2490000D01*
X23980613Y2490000D01*
X24071958Y2030780D01*
X24332085Y1641472D01*
X24721393Y1381345D01*
X25180613Y1290000D01*
X25839387Y1290000D01*
X26298607Y1381345D01*
X26687915Y1641472D01*
X26948042Y2030780D01*
X26955787Y2069718D01*
X27011747Y1934286D01*
X27292806Y1652736D01*
X27660215Y1500174D01*
X28058040Y1499827D01*
X28425714Y1651747D01*
X28580649Y1806412D01*
X32259140Y1806412D01*
X32307250Y1613783D01*
X32694555Y1439099D01*
X33119228Y1425927D01*
X33516614Y1576274D01*
X33572750Y1613783D01*
X33620860Y1806412D01*
X32940000Y2487272D01*
X32259140Y1806412D01*
X28580649Y1806412D01*
X28707264Y1932806D01*
X28859826Y2300215D01*
X28859843Y2320772D01*
X31865927Y2320772D01*
X32016274Y1923386D01*
X32053783Y1867250D01*
X32246412Y1819140D01*
X32927272Y2500000D01*
X32952728Y2500000D01*
X33633588Y1819140D01*
X33826217Y1867250D01*
X34000901Y2254555D01*
X34014073Y2679228D01*
X33863726Y3076614D01*
X33826217Y3132750D01*
X33633588Y3180860D01*
X32952728Y2500000D01*
X32927272Y2500000D01*
X32246412Y3180860D01*
X32053783Y3132750D01*
X31879099Y2745445D01*
X31865927Y2320772D01*
X28859843Y2320772D01*
X28860173Y2698040D01*
X28708253Y3065714D01*
X28580603Y3193588D01*
X32259140Y3193588D01*
X32940000Y2512728D01*
X33620860Y3193588D01*
X33572750Y3386217D01*
X33185445Y3560901D01*
X32760772Y3574073D01*
X32363386Y3423726D01*
X32307250Y3386217D01*
X32259140Y3193588D01*
X28580603Y3193588D01*
X28427194Y3347264D01*
X28059785Y3499826D01*
X27661960Y3500173D01*
X27294286Y3348253D01*
X27012736Y3067194D01*
X26953129Y2923645D01*
X26948042Y2949220D01*
X26687915Y3338528D01*
X26298607Y3598655D01*
X25839387Y3690000D01*
X25180613Y3690000D01*
X24721393Y3598655D01*
X24332085Y3338528D01*
X24071958Y2949220D01*
X23980613Y2490000D01*
X19419387Y2490000D01*
X19328042Y2949220D01*
X19067915Y3338528D01*
X18678607Y3598655D01*
X18219387Y3690000D01*
X17560613Y3690000D01*
X17101393Y3598655D01*
X16712085Y3338528D01*
X16451958Y2949220D01*
X16400166Y2688845D01*
X16400243Y2777256D01*
X16187555Y3292000D01*
X15794072Y3686170D01*
X15279699Y3899757D01*
X14722744Y3900243D01*
X14208000Y3687555D01*
X13813830Y3294072D01*
X13600243Y2779699D01*
X13599757Y2222744D01*
X6459588Y2222744D01*
X6476898Y2743030D01*
X6271471Y3289715D01*
X6216173Y3372476D01*
X5981981Y3469253D01*
X5012728Y2500000D01*
X4987272Y2500000D01*
X4018019Y3469253D01*
X3783827Y3372476D01*
X3542521Y2840654D01*
X3523102Y2256970D01*
X475000Y2256970D01*
X475000Y3481981D01*
X4030747Y3481981D01*
X5000000Y2512728D01*
X5969253Y3481981D01*
X5872476Y3716173D01*
X5340654Y3957479D01*
X4756970Y3976898D01*
X4210285Y3771471D01*
X4127524Y3716173D01*
X4030747Y3481981D01*
X475000Y3481981D01*
X475000Y4922744D01*
X11299757Y4922744D01*
X11512445Y4408000D01*
X11905928Y4013830D01*
X12420301Y3800243D01*
X12977256Y3799757D01*
X13492000Y4012445D01*
X13886170Y4405928D01*
X14099757Y4920301D01*
X14099767Y4932254D01*
X14149801Y4932254D01*
X14324509Y4509428D01*
X14647727Y4185646D01*
X15070247Y4010200D01*
X15527746Y4009801D01*
X15950572Y4184509D01*
X16274354Y4507727D01*
X16402915Y4817335D01*
X16451958Y4570780D01*
X16712085Y4181472D01*
X17101393Y3921345D01*
X17560613Y3830000D01*
X18219387Y3830000D01*
X18678607Y3921345D01*
X19067915Y4181472D01*
X19328042Y4570780D01*
X19419387Y5030000D01*
X23980613Y5030000D01*
X24071958Y4570780D01*
X24332085Y4181472D01*
X24721393Y3921345D01*
X25180613Y3830000D01*
X25839387Y3830000D01*
X26298607Y3921345D01*
X26687915Y4181472D01*
X26948042Y4570780D01*
X26970295Y4682654D01*
X27124509Y4309428D01*
X27447727Y3985646D01*
X27870247Y3810200D01*
X28327746Y3809801D01*
X28750572Y3984509D01*
X29074354Y4307727D01*
X29205160Y4622744D01*
X29299757Y4622744D01*
X29512445Y4108000D01*
X29905928Y3713830D01*
X30420301Y3500243D01*
X30977256Y3499757D01*
X31492000Y3712445D01*
X31886170Y4105928D01*
X32099757Y4620301D01*
X32099759Y4622744D01*
X32399757Y4622744D01*
X32612445Y4108000D01*
X33005928Y3713830D01*
X33520301Y3500243D01*
X34077256Y3499757D01*
X34592000Y3712445D01*
X34986170Y4105928D01*
X35199757Y4620301D01*
X35200243Y5177256D01*
X34987555Y5692000D01*
X34594072Y6086170D01*
X34079699Y6299757D01*
X33522744Y6300243D01*
X33008000Y6087555D01*
X32613830Y5694072D01*
X32400243Y5179699D01*
X32399757Y4622744D01*
X32099759Y4622744D01*
X32100243Y5177256D01*
X31887555Y5692000D01*
X31494072Y6086170D01*
X30979699Y6299757D01*
X30422744Y6300243D01*
X29908000Y6087555D01*
X29513830Y5694072D01*
X29300243Y5179699D01*
X29299757Y4622744D01*
X29205160Y4622744D01*
X29249800Y4730247D01*
X29250199Y5187746D01*
X29075491Y5610572D01*
X28752273Y5934354D01*
X28329753Y6109800D01*
X27872254Y6110199D01*
X27449428Y5935491D01*
X27125646Y5612273D01*
X26989016Y5283232D01*
X26948042Y5489220D01*
X26687915Y5878528D01*
X26298607Y6138655D01*
X25839387Y6230000D01*
X25180613Y6230000D01*
X24721393Y6138655D01*
X24332085Y5878528D01*
X24071958Y5489220D01*
X23980613Y5030000D01*
X19419387Y5030000D01*
X19328042Y5489220D01*
X19067915Y5878528D01*
X18678607Y6138655D01*
X18219387Y6230000D01*
X17560613Y6230000D01*
X17101393Y6138655D01*
X16712085Y5878528D01*
X16451958Y5489220D01*
X16437761Y5417848D01*
X16275491Y5810572D01*
X15952273Y6134354D01*
X15529753Y6309800D01*
X15072254Y6310199D01*
X14649428Y6135491D01*
X14325646Y5812273D01*
X14150200Y5389753D01*
X14149801Y4932254D01*
X14099767Y4932254D01*
X14100243Y5477256D01*
X13887555Y5992000D01*
X13494072Y6386170D01*
X12979699Y6599757D01*
X12422744Y6600243D01*
X11908000Y6387555D01*
X11513830Y5994072D01*
X11300243Y5479699D01*
X11299757Y4922744D01*
X475000Y4922744D01*
X475000Y7570000D01*
X16360613Y7570000D01*
X16451958Y7110780D01*
X16712085Y6721472D01*
X17101393Y6461345D01*
X17560613Y6370000D01*
X18219387Y6370000D01*
X18678607Y6461345D01*
X19067915Y6721472D01*
X19328042Y7110780D01*
X19419387Y7570000D01*
X23980613Y7570000D01*
X24071958Y7110780D01*
X24332085Y6721472D01*
X24721393Y6461345D01*
X25180613Y6370000D01*
X25839387Y6370000D01*
X26298607Y6461345D01*
X26687915Y6721472D01*
X26948042Y7110780D01*
X27039387Y7570000D01*
X26948042Y8029220D01*
X26687915Y8418528D01*
X26298607Y8678655D01*
X25839387Y8770000D01*
X25180613Y8770000D01*
X24721393Y8678655D01*
X24332085Y8418528D01*
X24071958Y8029220D01*
X23980613Y7570000D01*
X19419387Y7570000D01*
X19328042Y8029220D01*
X19067915Y8418528D01*
X18678607Y8678655D01*
X18219387Y8770000D01*
X17560613Y8770000D01*
X17101393Y8678655D01*
X16712085Y8418528D01*
X16451958Y8029220D01*
X16360613Y7570000D01*
X475000Y7570000D01*
X475000Y10272214D01*
X674942Y10272214D01*
X747386Y10058804D01*
X1206950Y9850809D01*
X1711129Y9834514D01*
X2182773Y10012254D01*
X14149801Y10012254D01*
X14324509Y9589428D01*
X14647727Y9265646D01*
X15070247Y9090200D01*
X15527746Y9089801D01*
X15950572Y9264509D01*
X16274354Y9587727D01*
X16402915Y9897335D01*
X16451958Y9650780D01*
X16712085Y9261472D01*
X17101393Y9001345D01*
X17560613Y8910000D01*
X18219387Y8910000D01*
X18678607Y9001345D01*
X19067915Y9261472D01*
X19328042Y9650780D01*
X19419387Y10110000D01*
X19328042Y10569220D01*
X19100341Y10910000D01*
X24002164Y10910000D01*
X24002164Y9310000D01*
X24033209Y9153928D01*
X24121616Y9021616D01*
X24253928Y8933209D01*
X24410000Y8902164D01*
X26610000Y8902164D01*
X26766072Y8933209D01*
X26898384Y9021616D01*
X26986791Y9153928D01*
X27017836Y9310000D01*
X27017836Y9647597D01*
X27124509Y9389428D01*
X27447727Y9065646D01*
X27870247Y8890200D01*
X28327746Y8889801D01*
X28750572Y9064509D01*
X29074354Y9387727D01*
X29249800Y9810247D01*
X29250199Y10267746D01*
X29248353Y10272214D01*
X36674942Y10272214D01*
X36747386Y10058804D01*
X37206950Y9850809D01*
X37711129Y9834514D01*
X38183164Y10012401D01*
X38252614Y10058804D01*
X38325058Y10272214D01*
X37500000Y11097272D01*
X36674942Y10272214D01*
X29248353Y10272214D01*
X29075491Y10690572D01*
X28867555Y10898871D01*
X36224514Y10898871D01*
X36402401Y10426836D01*
X36448804Y10357386D01*
X36662214Y10284942D01*
X37487272Y11110000D01*
X36662214Y11935058D01*
X36448804Y11862614D01*
X36240809Y11403050D01*
X36224514Y10898871D01*
X28867555Y10898871D01*
X28752273Y11014354D01*
X28329753Y11189800D01*
X27872254Y11190199D01*
X27449428Y11015491D01*
X27125646Y10692273D01*
X27017836Y10432638D01*
X27017836Y10910000D01*
X26986791Y11066072D01*
X26898384Y11198384D01*
X26766072Y11286791D01*
X26610000Y11317836D01*
X24410000Y11317836D01*
X24253928Y11286791D01*
X24121616Y11198384D01*
X24033209Y11066072D01*
X24002164Y10910000D01*
X19100341Y10910000D01*
X19067915Y10958528D01*
X18678607Y11218655D01*
X18219387Y11310000D01*
X17560613Y11310000D01*
X17101393Y11218655D01*
X16712085Y10958528D01*
X16451958Y10569220D01*
X16437761Y10497848D01*
X16275491Y10890572D01*
X15952273Y11214354D01*
X15529753Y11389800D01*
X15072254Y11390199D01*
X14649428Y11215491D01*
X14325646Y10892273D01*
X14150200Y10469753D01*
X14149801Y10012254D01*
X2182773Y10012254D01*
X2183164Y10012401D01*
X2252614Y10058804D01*
X2325058Y10272214D01*
X1500000Y11097272D01*
X674942Y10272214D01*
X475000Y10272214D01*
X475000Y10348494D01*
X662214Y10284942D01*
X1487272Y11110000D01*
X1512728Y11110000D01*
X2337786Y10284942D01*
X2551196Y10357386D01*
X2759191Y10816950D01*
X2775486Y11321129D01*
X2597599Y11793164D01*
X2551196Y11862614D01*
X2337786Y11935058D01*
X1512728Y11110000D01*
X1487272Y11110000D01*
X662214Y11935058D01*
X475000Y11871506D01*
X475000Y11947786D01*
X674942Y11947786D01*
X1500000Y11122728D01*
X2325058Y11947786D01*
X2252614Y12161196D01*
X1793050Y12369191D01*
X1288871Y12385486D01*
X816836Y12207599D01*
X747386Y12161196D01*
X674942Y11947786D01*
X475000Y11947786D01*
X475000Y12812214D01*
X674942Y12812214D01*
X747386Y12598804D01*
X1206950Y12390809D01*
X1711129Y12374514D01*
X2049315Y12501960D01*
X16959827Y12501960D01*
X17111747Y12134286D01*
X17392806Y11852736D01*
X17760215Y11700174D01*
X18158040Y11699827D01*
X18525714Y11851747D01*
X18680649Y12006412D01*
X22359140Y12006412D01*
X22407250Y11813783D01*
X22794555Y11639099D01*
X23219228Y11625927D01*
X23616614Y11776274D01*
X23672750Y11813783D01*
X23706217Y11947786D01*
X36674942Y11947786D01*
X37500000Y11122728D01*
X38325058Y11947786D01*
X38252614Y12161196D01*
X37793050Y12369191D01*
X37288871Y12385486D01*
X36816836Y12207599D01*
X36747386Y12161196D01*
X36674942Y11947786D01*
X23706217Y11947786D01*
X23720860Y12006412D01*
X23040000Y12687272D01*
X22359140Y12006412D01*
X18680649Y12006412D01*
X18807264Y12132806D01*
X18959826Y12500215D01*
X18959843Y12520772D01*
X21965927Y12520772D01*
X22116274Y12123386D01*
X22153783Y12067250D01*
X22346412Y12019140D01*
X23027272Y12700000D01*
X23052728Y12700000D01*
X23733588Y12019140D01*
X23926217Y12067250D01*
X24100901Y12454555D01*
X24114073Y12879228D01*
X23963726Y13276614D01*
X23926217Y13332750D01*
X23733588Y13380860D01*
X23052728Y12700000D01*
X23027272Y12700000D01*
X22346412Y13380860D01*
X22153783Y13332750D01*
X21979099Y12945445D01*
X21965927Y12520772D01*
X18959843Y12520772D01*
X18960173Y12898040D01*
X18808253Y13265714D01*
X18680603Y13393588D01*
X22359140Y13393588D01*
X23040000Y12712728D01*
X23720860Y13393588D01*
X23672750Y13586217D01*
X23285445Y13760901D01*
X22860772Y13774073D01*
X22463386Y13623726D01*
X22407250Y13586217D01*
X22359140Y13393588D01*
X18680603Y13393588D01*
X18527194Y13547264D01*
X18159785Y13699826D01*
X17761960Y13700173D01*
X17394286Y13548253D01*
X17112736Y13267194D01*
X16960174Y12899785D01*
X16959827Y12501960D01*
X2049315Y12501960D01*
X2183164Y12552401D01*
X2252614Y12598804D01*
X2325058Y12812214D01*
X1500000Y13637272D01*
X674942Y12812214D01*
X475000Y12812214D01*
X475000Y12888494D01*
X662214Y12824942D01*
X1487272Y13650000D01*
X1512728Y13650000D01*
X2337786Y12824942D01*
X2551196Y12897386D01*
X2759191Y13356950D01*
X2775486Y13861129D01*
X2597599Y14333164D01*
X2551196Y14402614D01*
X2337786Y14475058D01*
X1512728Y13650000D01*
X1487272Y13650000D01*
X662214Y14475058D01*
X475000Y14411506D01*
X475000Y14487786D01*
X674942Y14487786D01*
X1500000Y13662728D01*
X2325058Y14487786D01*
X2252614Y14701196D01*
X1793050Y14909191D01*
X1288871Y14925486D01*
X816836Y14747599D01*
X747386Y14701196D01*
X674942Y14487786D01*
X475000Y14487786D01*
X475000Y15352214D01*
X674942Y15352214D01*
X747386Y15138804D01*
X1206950Y14930809D01*
X1711129Y14914514D01*
X1732967Y14922744D01*
X11299757Y14922744D01*
X11512445Y14408000D01*
X11905928Y14013830D01*
X12420301Y13800243D01*
X12977256Y13799757D01*
X13370768Y13962353D01*
X14099793Y13962353D01*
X14282097Y13521143D01*
X14619367Y13183283D01*
X15060258Y13000209D01*
X15537647Y12999793D01*
X15978857Y13182097D01*
X16316717Y13519367D01*
X16499791Y13960258D01*
X16500207Y14437647D01*
X16317903Y14878857D01*
X15990921Y15206412D01*
X21979140Y15206412D01*
X22027250Y15013783D01*
X22414555Y14839099D01*
X22839228Y14825927D01*
X23236614Y14976274D01*
X23292750Y15013783D01*
X23340860Y15206412D01*
X22660000Y15887272D01*
X21979140Y15206412D01*
X15990921Y15206412D01*
X15980633Y15216717D01*
X15539742Y15399791D01*
X15062353Y15400207D01*
X14621143Y15217903D01*
X14283283Y14880633D01*
X14100209Y14439742D01*
X14099793Y13962353D01*
X13370768Y13962353D01*
X13492000Y14012445D01*
X13886170Y14405928D01*
X14099757Y14920301D01*
X14100243Y15477256D01*
X13999625Y15720772D01*
X21585927Y15720772D01*
X21736274Y15323386D01*
X21773783Y15267250D01*
X21966412Y15219140D01*
X22647272Y15900000D01*
X22672728Y15900000D01*
X23353588Y15219140D01*
X23546217Y15267250D01*
X23720901Y15654555D01*
X23722371Y15701960D01*
X26739827Y15701960D01*
X26891747Y15334286D01*
X27172806Y15052736D01*
X27540215Y14900174D01*
X27861595Y14899894D01*
X27421143Y14717903D01*
X27083283Y14380633D01*
X26900209Y13939742D01*
X26899793Y13462353D01*
X27082097Y13021143D01*
X27419367Y12683283D01*
X27860258Y12500209D01*
X28337647Y12499793D01*
X28778857Y12682097D01*
X29116717Y13019367D01*
X29299791Y13460258D01*
X29300207Y13937647D01*
X29117903Y14378857D01*
X28874442Y14622744D01*
X29299757Y14622744D01*
X29512445Y14108000D01*
X29905928Y13713830D01*
X30420301Y13500243D01*
X30977256Y13499757D01*
X31492000Y13712445D01*
X31697932Y13918019D01*
X32830747Y13918019D01*
X32927524Y13683827D01*
X33459346Y13442521D01*
X34043030Y13423102D01*
X34589715Y13628529D01*
X34672476Y13683827D01*
X34769253Y13918019D01*
X33800000Y14887272D01*
X32830747Y13918019D01*
X31697932Y13918019D01*
X31886170Y14105928D01*
X32099757Y14620301D01*
X32099788Y14656970D01*
X32323102Y14656970D01*
X32528529Y14110285D01*
X32583827Y14027524D01*
X32818019Y13930747D01*
X33787272Y14900000D01*
X33812728Y14900000D01*
X34781981Y13930747D01*
X35016173Y14027524D01*
X35257479Y14559346D01*
X35276898Y15143030D01*
X35198294Y15352214D01*
X36674942Y15352214D01*
X36747386Y15138804D01*
X37206950Y14930809D01*
X37711129Y14914514D01*
X38183164Y15092401D01*
X38252614Y15138804D01*
X38325058Y15352214D01*
X37500000Y16177272D01*
X36674942Y15352214D01*
X35198294Y15352214D01*
X35071471Y15689715D01*
X35016173Y15772476D01*
X34781981Y15869253D01*
X33812728Y14900000D01*
X33787272Y14900000D01*
X32818019Y15869253D01*
X32583827Y15772476D01*
X32342521Y15240654D01*
X32323102Y14656970D01*
X32099788Y14656970D01*
X32100243Y15177256D01*
X31887555Y15692000D01*
X31697906Y15881981D01*
X32830747Y15881981D01*
X33800000Y14912728D01*
X34769253Y15881981D01*
X34729215Y15978871D01*
X36224514Y15978871D01*
X36402401Y15506836D01*
X36448804Y15437386D01*
X36662214Y15364942D01*
X37487272Y16190000D01*
X36662214Y17015058D01*
X36448804Y16942614D01*
X36240809Y16483050D01*
X36224514Y15978871D01*
X34729215Y15978871D01*
X34672476Y16116173D01*
X34140654Y16357479D01*
X33556970Y16376898D01*
X33010285Y16171471D01*
X32927524Y16116173D01*
X32830747Y15881981D01*
X31697906Y15881981D01*
X31494072Y16086170D01*
X30979699Y16299757D01*
X30422744Y16300243D01*
X29908000Y16087555D01*
X29513830Y15694072D01*
X29300243Y15179699D01*
X29299757Y14622744D01*
X28874442Y14622744D01*
X28780633Y14716717D01*
X28339742Y14899791D01*
X27938798Y14900140D01*
X28305714Y15051747D01*
X28587264Y15332806D01*
X28739826Y15700215D01*
X28740173Y16098040D01*
X28588253Y16465714D01*
X28307194Y16747264D01*
X27939785Y16899826D01*
X27541960Y16900173D01*
X27174286Y16748253D01*
X26892736Y16467194D01*
X26740174Y16099785D01*
X26739827Y15701960D01*
X23722371Y15701960D01*
X23734073Y16079228D01*
X23583726Y16476614D01*
X23546217Y16532750D01*
X23353588Y16580860D01*
X22672728Y15900000D01*
X22647272Y15900000D01*
X21966412Y16580860D01*
X21773783Y16532750D01*
X21599099Y16145445D01*
X21585927Y15720772D01*
X13999625Y15720772D01*
X13887555Y15992000D01*
X13494072Y16386170D01*
X12994556Y16593588D01*
X21979140Y16593588D01*
X22660000Y15912728D01*
X23340860Y16593588D01*
X23292750Y16786217D01*
X22905445Y16960901D01*
X22480772Y16974073D01*
X22083386Y16823726D01*
X22027250Y16786217D01*
X21979140Y16593588D01*
X12994556Y16593588D01*
X12979699Y16599757D01*
X12422744Y16600243D01*
X11908000Y16387555D01*
X11513830Y15994072D01*
X11300243Y15479699D01*
X11299757Y14922744D01*
X1732967Y14922744D01*
X2183164Y15092401D01*
X2252614Y15138804D01*
X2325058Y15352214D01*
X1500000Y16177272D01*
X674942Y15352214D01*
X475000Y15352214D01*
X475000Y15428494D01*
X662214Y15364942D01*
X1487272Y16190000D01*
X1512728Y16190000D01*
X2337786Y15364942D01*
X2551196Y15437386D01*
X2759191Y15896950D01*
X2775486Y16401129D01*
X2597599Y16873164D01*
X2551196Y16942614D01*
X2337786Y17015058D01*
X1512728Y16190000D01*
X1487272Y16190000D01*
X662214Y17015058D01*
X475000Y16951506D01*
X475000Y17027786D01*
X674942Y17027786D01*
X1500000Y16202728D01*
X2325058Y17027786D01*
X2252614Y17241196D01*
X1793050Y17449191D01*
X1288871Y17465486D01*
X816836Y17287599D01*
X747386Y17241196D01*
X674942Y17027786D01*
X475000Y17027786D01*
X475000Y17892214D01*
X674942Y17892214D01*
X747386Y17678804D01*
X1206950Y17470809D01*
X1711129Y17454514D01*
X2183164Y17632401D01*
X2252614Y17678804D01*
X2267529Y17722744D01*
X8099757Y17722744D01*
X8312445Y17208000D01*
X8705928Y16813830D01*
X9220301Y16600243D01*
X9777256Y16599757D01*
X10292000Y16812445D01*
X10686170Y17205928D01*
X10899757Y17720301D01*
X10899759Y17722744D01*
X18099757Y17722744D01*
X18312445Y17208000D01*
X18705928Y16813830D01*
X19220301Y16600243D01*
X19777256Y16599757D01*
X20292000Y16812445D01*
X20507716Y17027786D01*
X36674942Y17027786D01*
X37500000Y16202728D01*
X38325058Y17027786D01*
X38252614Y17241196D01*
X37793050Y17449191D01*
X37288871Y17465486D01*
X36816836Y17287599D01*
X36747386Y17241196D01*
X36674942Y17027786D01*
X20507716Y17027786D01*
X20686170Y17205928D01*
X20899757Y17720301D01*
X20900243Y18277256D01*
X20868534Y18354000D01*
X21122000Y18354000D01*
X21122000Y17586909D01*
X21193249Y17414899D01*
X21324899Y17283249D01*
X21496909Y17212000D01*
X22564000Y17212000D01*
X22681000Y17329000D01*
X22681000Y18471000D01*
X22699000Y18471000D01*
X22699000Y17329000D01*
X22816000Y17212000D01*
X23883091Y17212000D01*
X24055101Y17283249D01*
X24186751Y17414899D01*
X24258000Y17586909D01*
X24258000Y18354000D01*
X24141000Y18471000D01*
X22699000Y18471000D01*
X22681000Y18471000D01*
X21239000Y18471000D01*
X21122000Y18354000D01*
X20868534Y18354000D01*
X20816472Y18480000D01*
X28780613Y18480000D01*
X28871958Y18020780D01*
X29132085Y17631472D01*
X29521393Y17371345D01*
X29980613Y17280000D01*
X30639387Y17280000D01*
X31098607Y17371345D01*
X31487915Y17631472D01*
X31662137Y17892214D01*
X36674942Y17892214D01*
X36747386Y17678804D01*
X37206950Y17470809D01*
X37711129Y17454514D01*
X38183164Y17632401D01*
X38252614Y17678804D01*
X38325058Y17892214D01*
X37500000Y18717272D01*
X36674942Y17892214D01*
X31662137Y17892214D01*
X31748042Y18020780D01*
X31839387Y18480000D01*
X31831656Y18518871D01*
X36224514Y18518871D01*
X36402401Y18046836D01*
X36448804Y17977386D01*
X36662214Y17904942D01*
X37487272Y18730000D01*
X36662214Y19555058D01*
X36448804Y19482614D01*
X36240809Y19023050D01*
X36224514Y18518871D01*
X31831656Y18518871D01*
X31748042Y18939220D01*
X31487915Y19328528D01*
X31129840Y19567786D01*
X36674942Y19567786D01*
X37500000Y18742728D01*
X38325058Y19567786D01*
X38252614Y19781196D01*
X37793050Y19989191D01*
X37288871Y20005486D01*
X36816836Y19827599D01*
X36747386Y19781196D01*
X36674942Y19567786D01*
X31129840Y19567786D01*
X31098607Y19588655D01*
X30639387Y19680000D01*
X29980613Y19680000D01*
X29521393Y19588655D01*
X29132085Y19328528D01*
X28871958Y18939220D01*
X28780613Y18480000D01*
X20816472Y18480000D01*
X20687555Y18792000D01*
X20294072Y19186170D01*
X19843918Y19373091D01*
X21122000Y19373091D01*
X21122000Y18606000D01*
X21239000Y18489000D01*
X22681000Y18489000D01*
X22681000Y19631000D01*
X22699000Y19631000D01*
X22699000Y18489000D01*
X24141000Y18489000D01*
X24258000Y18606000D01*
X24258000Y19373091D01*
X24186751Y19545101D01*
X24055101Y19676751D01*
X23883091Y19748000D01*
X22816000Y19748000D01*
X22699000Y19631000D01*
X22681000Y19631000D01*
X22564000Y19748000D01*
X21496909Y19748000D01*
X21324899Y19676751D01*
X21193249Y19545101D01*
X21122000Y19373091D01*
X19843918Y19373091D01*
X19779699Y19399757D01*
X19222744Y19400243D01*
X18708000Y19187555D01*
X18313830Y18794072D01*
X18100243Y18279699D01*
X18099757Y17722744D01*
X10899759Y17722744D01*
X10900243Y18277256D01*
X10687555Y18792000D01*
X10294072Y19186170D01*
X9779699Y19399757D01*
X9222744Y19400243D01*
X8708000Y19187555D01*
X8313830Y18794072D01*
X8100243Y18279699D01*
X8099757Y17722744D01*
X2267529Y17722744D01*
X2325058Y17892214D01*
X1500000Y18717272D01*
X674942Y17892214D01*
X475000Y17892214D01*
X475000Y17968494D01*
X662214Y17904942D01*
X1487272Y18730000D01*
X1512728Y18730000D01*
X2337786Y17904942D01*
X2551196Y17977386D01*
X2759191Y18436950D01*
X2775486Y18941129D01*
X2597599Y19413164D01*
X2551196Y19482614D01*
X2337786Y19555058D01*
X1512728Y18730000D01*
X1487272Y18730000D01*
X662214Y19555058D01*
X475000Y19491506D01*
X475000Y19567786D01*
X674942Y19567786D01*
X1500000Y18742728D01*
X2325058Y19567786D01*
X2252614Y19781196D01*
X1793050Y19989191D01*
X1288871Y20005486D01*
X816836Y19827599D01*
X747386Y19781196D01*
X674942Y19567786D01*
X475000Y19567786D01*
X475000Y20608319D01*
X482097Y20591143D01*
X819367Y20253283D01*
X1260258Y20070209D01*
X1737647Y20069793D01*
X2178857Y20252097D01*
X2516717Y20589367D01*
X2671431Y20961960D01*
X3599827Y20961960D01*
X3751747Y20594286D01*
X4032806Y20312736D01*
X4400215Y20160174D01*
X4798040Y20159827D01*
X5165714Y20311747D01*
X5447264Y20592806D01*
X5599826Y20960215D01*
X5600173Y21358040D01*
X5574825Y21419387D01*
X5990000Y21419387D01*
X5990000Y20760613D01*
X6081345Y20301393D01*
X6341472Y19912085D01*
X6730780Y19651958D01*
X7190000Y19560613D01*
X7649220Y19651958D01*
X8038528Y19912085D01*
X8298655Y20301393D01*
X8390000Y20760613D01*
X8390000Y21419387D01*
X8530000Y21419387D01*
X8530000Y20760613D01*
X8621345Y20301393D01*
X8881472Y19912085D01*
X9270780Y19651958D01*
X9730000Y19560613D01*
X10189220Y19651958D01*
X10578528Y19912085D01*
X10838655Y20301393D01*
X10930000Y20760613D01*
X10930000Y21419387D01*
X11070000Y21419387D01*
X11070000Y20760613D01*
X11161345Y20301393D01*
X11421472Y19912085D01*
X11810780Y19651958D01*
X12270000Y19560613D01*
X12729220Y19651958D01*
X13118528Y19912085D01*
X13378655Y20301393D01*
X13470000Y20760613D01*
X13470000Y21419387D01*
X13378655Y21878607D01*
X13170590Y22190000D01*
X13602164Y22190000D01*
X13602164Y19990000D01*
X13633209Y19833928D01*
X13721616Y19701616D01*
X13853928Y19613209D01*
X14010000Y19582164D01*
X15610000Y19582164D01*
X15766072Y19613209D01*
X15898384Y19701616D01*
X15986791Y19833928D01*
X16017836Y19990000D01*
X16017836Y20818686D01*
X16182097Y20421143D01*
X16519367Y20083283D01*
X16960258Y19900209D01*
X17437647Y19899793D01*
X17878857Y20082097D01*
X18216717Y20419367D01*
X18241634Y20479375D01*
X18312445Y20308000D01*
X18705928Y19913830D01*
X19220301Y19700243D01*
X19777256Y19699757D01*
X20292000Y19912445D01*
X20686170Y20305928D01*
X20899757Y20820301D01*
X20899931Y21020000D01*
X21160613Y21020000D01*
X21251958Y20560780D01*
X21512085Y20171472D01*
X21901393Y19911345D01*
X22360613Y19820000D01*
X23019387Y19820000D01*
X23478607Y19911345D01*
X23867915Y20171472D01*
X24128042Y20560780D01*
X24219387Y21020000D01*
X28780613Y21020000D01*
X28871958Y20560780D01*
X29132085Y20171472D01*
X29521393Y19911345D01*
X29980613Y19820000D01*
X30639387Y19820000D01*
X31098607Y19911345D01*
X31487915Y20171472D01*
X31748042Y20560780D01*
X31839387Y21020000D01*
X31748042Y21479220D01*
X31487915Y21868528D01*
X31098607Y22128655D01*
X30639387Y22220000D01*
X29980613Y22220000D01*
X29521393Y22128655D01*
X29132085Y21868528D01*
X28871958Y21479220D01*
X28780613Y21020000D01*
X24219387Y21020000D01*
X24128042Y21479220D01*
X23867915Y21868528D01*
X23478607Y22128655D01*
X23019387Y22220000D01*
X22360613Y22220000D01*
X21901393Y22128655D01*
X21512085Y21868528D01*
X21251958Y21479220D01*
X21160613Y21020000D01*
X20899931Y21020000D01*
X20900243Y21377256D01*
X20687555Y21892000D01*
X20294072Y22286170D01*
X19779699Y22499757D01*
X19222744Y22500243D01*
X18708000Y22287555D01*
X18313830Y21894072D01*
X18241886Y21720813D01*
X18217903Y21778857D01*
X17880633Y22116717D01*
X17439742Y22299791D01*
X16962353Y22300207D01*
X16521143Y22117903D01*
X16183283Y21780633D01*
X16017836Y21382193D01*
X16017836Y22190000D01*
X15986791Y22346072D01*
X15898384Y22478384D01*
X15766072Y22566791D01*
X15610000Y22597836D01*
X14010000Y22597836D01*
X13853928Y22566791D01*
X13721616Y22478384D01*
X13633209Y22346072D01*
X13602164Y22190000D01*
X13170590Y22190000D01*
X13118528Y22267915D01*
X12729220Y22528042D01*
X12270000Y22619387D01*
X11810780Y22528042D01*
X11421472Y22267915D01*
X11161345Y21878607D01*
X11070000Y21419387D01*
X10930000Y21419387D01*
X10838655Y21878607D01*
X10578528Y22267915D01*
X10189220Y22528042D01*
X9730000Y22619387D01*
X9270780Y22528042D01*
X8881472Y22267915D01*
X8621345Y21878607D01*
X8530000Y21419387D01*
X8390000Y21419387D01*
X8298655Y21878607D01*
X8038528Y22267915D01*
X7649220Y22528042D01*
X7190000Y22619387D01*
X6730780Y22528042D01*
X6341472Y22267915D01*
X6081345Y21878607D01*
X5990000Y21419387D01*
X5574825Y21419387D01*
X5448253Y21725714D01*
X5167194Y22007264D01*
X4799785Y22159826D01*
X4401960Y22160173D01*
X4034286Y22008253D01*
X3752736Y21727194D01*
X3600174Y21359785D01*
X3599827Y20961960D01*
X2671431Y20961960D01*
X2699791Y21030258D01*
X2700207Y21507647D01*
X2517903Y21948857D01*
X2180633Y22286717D01*
X1739742Y22469791D01*
X1262353Y22470207D01*
X821143Y22287903D01*
X483283Y21950633D01*
X475000Y21930685D01*
X475000Y22972214D01*
X674942Y22972214D01*
X747386Y22758804D01*
X1206950Y22550809D01*
X1711129Y22534514D01*
X2183164Y22712401D01*
X2252614Y22758804D01*
X2325058Y22972214D01*
X1500000Y23797272D01*
X674942Y22972214D01*
X475000Y22972214D01*
X475000Y23048494D01*
X662214Y22984942D01*
X1487272Y23810000D01*
X1512728Y23810000D01*
X2337786Y22984942D01*
X2551196Y23057386D01*
X2759191Y23516950D01*
X2760582Y23560000D01*
X21160613Y23560000D01*
X21251958Y23100780D01*
X21512085Y22711472D01*
X21901393Y22451345D01*
X22360613Y22360000D01*
X23019387Y22360000D01*
X23478607Y22451345D01*
X23867915Y22711472D01*
X24128042Y23100780D01*
X24219387Y23560000D01*
X28780613Y23560000D01*
X28871958Y23100780D01*
X29132085Y22711472D01*
X29521393Y22451345D01*
X29980613Y22360000D01*
X30639387Y22360000D01*
X31098607Y22451345D01*
X31487915Y22711472D01*
X31748042Y23100780D01*
X31813859Y23431666D01*
X32349853Y23431666D01*
X32478985Y23119143D01*
X32650000Y22947829D01*
X32650000Y21751992D01*
X32479826Y21582115D01*
X32350148Y21269817D01*
X32349853Y20931666D01*
X32478985Y20619143D01*
X32717885Y20379826D01*
X33030183Y20250148D01*
X33368334Y20249853D01*
X33680857Y20378985D01*
X33734178Y20432214D01*
X36674942Y20432214D01*
X36747386Y20218804D01*
X37206950Y20010809D01*
X37711129Y19994514D01*
X38183164Y20172401D01*
X38252614Y20218804D01*
X38325058Y20432214D01*
X37500000Y21257272D01*
X36674942Y20432214D01*
X33734178Y20432214D01*
X33920174Y20617885D01*
X34049852Y20930183D01*
X34049964Y21058871D01*
X36224514Y21058871D01*
X36402401Y20586836D01*
X36448804Y20517386D01*
X36662214Y20444942D01*
X37487272Y21270000D01*
X36662214Y22095058D01*
X36448804Y22022614D01*
X36240809Y21563050D01*
X36224514Y21058871D01*
X34049964Y21058871D01*
X34050147Y21268334D01*
X33921015Y21580857D01*
X33750000Y21752171D01*
X33750000Y22107786D01*
X36674942Y22107786D01*
X37500000Y21282728D01*
X38325058Y22107786D01*
X38252614Y22321196D01*
X37793050Y22529191D01*
X37288871Y22545486D01*
X36816836Y22367599D01*
X36747386Y22321196D01*
X36674942Y22107786D01*
X33750000Y22107786D01*
X33750000Y22948008D01*
X33920174Y23117885D01*
X34049852Y23430183D01*
X34050147Y23768334D01*
X33921015Y24080857D01*
X33682115Y24320174D01*
X33369817Y24449852D01*
X33031666Y24450147D01*
X32719143Y24321015D01*
X32479826Y24082115D01*
X32350148Y23769817D01*
X32349853Y23431666D01*
X31813859Y23431666D01*
X31839387Y23560000D01*
X31748042Y24019220D01*
X31487915Y24408528D01*
X31098607Y24668655D01*
X30639387Y24760000D01*
X29980613Y24760000D01*
X29521393Y24668655D01*
X29132085Y24408528D01*
X28871958Y24019220D01*
X28780613Y23560000D01*
X24219387Y23560000D01*
X24128042Y24019220D01*
X23867915Y24408528D01*
X23478607Y24668655D01*
X23019387Y24760000D01*
X22360613Y24760000D01*
X21901393Y24668655D01*
X21512085Y24408528D01*
X21251958Y24019220D01*
X21160613Y23560000D01*
X2760582Y23560000D01*
X2775486Y24021129D01*
X2597599Y24493164D01*
X2551196Y24562614D01*
X2337786Y24635058D01*
X1512728Y23810000D01*
X1487272Y23810000D01*
X662214Y24635058D01*
X475000Y24571506D01*
X475000Y24647786D01*
X674942Y24647786D01*
X1500000Y23822728D01*
X2325058Y24647786D01*
X2252614Y24861196D01*
X1793050Y25069191D01*
X1288871Y25085486D01*
X816836Y24907599D01*
X747386Y24861196D01*
X674942Y24647786D01*
X475000Y24647786D01*
X475000Y25688319D01*
X482097Y25671143D01*
X819367Y25333283D01*
X1260258Y25150209D01*
X1737647Y25149793D01*
X2178857Y25332097D01*
X2393546Y25546412D01*
X3919140Y25546412D01*
X3967250Y25353783D01*
X4354555Y25179099D01*
X4779228Y25165927D01*
X5176614Y25316274D01*
X5232750Y25353783D01*
X5280860Y25546412D01*
X4600000Y26227272D01*
X3919140Y25546412D01*
X2393546Y25546412D01*
X2516717Y25669367D01*
X2679242Y26060772D01*
X3525927Y26060772D01*
X3676274Y25663386D01*
X3713783Y25607250D01*
X3906412Y25559140D01*
X4587272Y26240000D01*
X4612728Y26240000D01*
X5293588Y25559140D01*
X5486217Y25607250D01*
X5660901Y25994555D01*
X5674073Y26419228D01*
X5523726Y26816614D01*
X5486217Y26872750D01*
X5293588Y26920860D01*
X4612728Y26240000D01*
X4587272Y26240000D01*
X3906412Y26920860D01*
X3713783Y26872750D01*
X3539099Y26485445D01*
X3525927Y26060772D01*
X2679242Y26060772D01*
X2699791Y26110258D01*
X2700207Y26587647D01*
X2557268Y26933588D01*
X3919140Y26933588D01*
X4600000Y26252728D01*
X5280860Y26933588D01*
X5232750Y27126217D01*
X4845445Y27300901D01*
X4420772Y27314073D01*
X4023386Y27163726D01*
X3967250Y27126217D01*
X3919140Y26933588D01*
X2557268Y26933588D01*
X2517903Y27028857D01*
X2180633Y27366717D01*
X1739742Y27549791D01*
X1262353Y27550207D01*
X821143Y27367903D01*
X483283Y27030633D01*
X475000Y27010685D01*
X475000Y27676639D01*
X606909Y27622000D01*
X1374000Y27622000D01*
X1491000Y27739000D01*
X1491000Y28881000D01*
X1509000Y28881000D01*
X1509000Y27739000D01*
X1626000Y27622000D01*
X2393091Y27622000D01*
X2565101Y27693249D01*
X2696751Y27824899D01*
X2768000Y27996909D01*
X2768000Y28764000D01*
X2651000Y28881000D01*
X1509000Y28881000D01*
X1491000Y28881000D01*
X1471000Y28881000D01*
X1471000Y28899000D01*
X1491000Y28899000D01*
X1491000Y30041000D01*
X1509000Y30041000D01*
X1509000Y28899000D01*
X2651000Y28899000D01*
X2768000Y29016000D01*
X2768000Y29039387D01*
X5990000Y29039387D01*
X5990000Y28380613D01*
X6081345Y27921393D01*
X6341472Y27532085D01*
X6730780Y27271958D01*
X7190000Y27180613D01*
X7649220Y27271958D01*
X8038528Y27532085D01*
X8298655Y27921393D01*
X8390000Y28380613D01*
X8390000Y29039387D01*
X8530000Y29039387D01*
X8530000Y28380613D01*
X8621345Y27921393D01*
X8881472Y27532085D01*
X9270780Y27271958D01*
X9730000Y27180613D01*
X10189220Y27271958D01*
X10578528Y27532085D01*
X10838655Y27921393D01*
X10930000Y28380613D01*
X10930000Y29039387D01*
X11070000Y29039387D01*
X11070000Y28380613D01*
X11161345Y27921393D01*
X11421472Y27532085D01*
X11810780Y27271958D01*
X12270000Y27180613D01*
X12729220Y27271958D01*
X13118528Y27532085D01*
X13378655Y27921393D01*
X13470000Y28380613D01*
X13470000Y29039387D01*
X13610000Y29039387D01*
X13610000Y28380613D01*
X13701345Y27921393D01*
X13961472Y27532085D01*
X14350780Y27271958D01*
X14810000Y27180613D01*
X15269220Y27271958D01*
X15658528Y27532085D01*
X15918655Y27921393D01*
X16000263Y28331666D01*
X18449853Y28331666D01*
X18578985Y28019143D01*
X18750000Y27847829D01*
X18750000Y26751992D01*
X18579826Y26582115D01*
X18450148Y26269817D01*
X18449853Y25931666D01*
X18578985Y25619143D01*
X18817885Y25379826D01*
X19130183Y25250148D01*
X19468334Y25249853D01*
X19780857Y25378985D01*
X20020174Y25617885D01*
X20149852Y25930183D01*
X20150000Y26100000D01*
X21160613Y26100000D01*
X21251958Y25640780D01*
X21512085Y25251472D01*
X21901393Y24991345D01*
X22360613Y24900000D01*
X23019387Y24900000D01*
X23478607Y24991345D01*
X23867915Y25251472D01*
X24128042Y25640780D01*
X24219387Y26100000D01*
X24128042Y26559220D01*
X23867915Y26948528D01*
X23478607Y27208655D01*
X23019387Y27300000D01*
X22360613Y27300000D01*
X21901393Y27208655D01*
X21512085Y26948528D01*
X21251958Y26559220D01*
X21160613Y26100000D01*
X20150000Y26100000D01*
X20150147Y26268334D01*
X20021015Y26580857D01*
X19850000Y26752171D01*
X19850000Y27848008D01*
X20020174Y28017885D01*
X20149852Y28330183D01*
X20150122Y28640000D01*
X21160613Y28640000D01*
X21251958Y28180780D01*
X21512085Y27791472D01*
X21901393Y27531345D01*
X22360613Y27440000D01*
X23019387Y27440000D01*
X23478607Y27531345D01*
X23867915Y27791472D01*
X24128042Y28180780D01*
X24138163Y28231666D01*
X25249853Y28231666D01*
X25378985Y27919143D01*
X25550000Y27747829D01*
X25550000Y27051992D01*
X25379826Y26882115D01*
X25250148Y26569817D01*
X25249853Y26231666D01*
X25378985Y25919143D01*
X25617885Y25679826D01*
X25930183Y25550148D01*
X26268334Y25549853D01*
X26580857Y25678985D01*
X26820174Y25917885D01*
X26895795Y26100000D01*
X28780613Y26100000D01*
X28871958Y25640780D01*
X29132085Y25251472D01*
X29521393Y24991345D01*
X29980613Y24900000D01*
X30639387Y24900000D01*
X31098607Y24991345D01*
X31487915Y25251472D01*
X31748042Y25640780D01*
X31839387Y26100000D01*
X31748042Y26559220D01*
X31487915Y26948528D01*
X31098607Y27208655D01*
X30639387Y27300000D01*
X29980613Y27300000D01*
X29521393Y27208655D01*
X29132085Y26948528D01*
X28871958Y26559220D01*
X28780613Y26100000D01*
X26895795Y26100000D01*
X26949852Y26230183D01*
X26950147Y26568334D01*
X26821015Y26880857D01*
X26650000Y27052171D01*
X26650000Y27748008D01*
X26820174Y27917885D01*
X26949852Y28230183D01*
X26950147Y28568334D01*
X26920536Y28640000D01*
X28780613Y28640000D01*
X28871958Y28180780D01*
X29132085Y27791472D01*
X29521393Y27531345D01*
X29980613Y27440000D01*
X30639387Y27440000D01*
X31098607Y27531345D01*
X31487915Y27791472D01*
X31748042Y28180780D01*
X31839387Y28640000D01*
X31814722Y28764000D01*
X36232000Y28764000D01*
X36232000Y27996909D01*
X36303249Y27824899D01*
X36434899Y27693249D01*
X36606909Y27622000D01*
X37374000Y27622000D01*
X37491000Y27739000D01*
X37491000Y28881000D01*
X36349000Y28881000D01*
X36232000Y28764000D01*
X31814722Y28764000D01*
X31748042Y29099220D01*
X31487915Y29488528D01*
X31098607Y29748655D01*
X30925487Y29783091D01*
X36232000Y29783091D01*
X36232000Y29016000D01*
X36349000Y28899000D01*
X37491000Y28899000D01*
X37491000Y30041000D01*
X37374000Y30158000D01*
X36606909Y30158000D01*
X36434899Y30086751D01*
X36303249Y29955101D01*
X36232000Y29783091D01*
X30925487Y29783091D01*
X30639387Y29840000D01*
X29980613Y29840000D01*
X29521393Y29748655D01*
X29132085Y29488528D01*
X28871958Y29099220D01*
X28780613Y28640000D01*
X26920536Y28640000D01*
X26821015Y28880857D01*
X26582115Y29120174D01*
X26269817Y29249852D01*
X25931666Y29250147D01*
X25619143Y29121015D01*
X25379826Y28882115D01*
X25250148Y28569817D01*
X25249853Y28231666D01*
X24138163Y28231666D01*
X24219387Y28640000D01*
X24128042Y29099220D01*
X23867915Y29488528D01*
X23478607Y29748655D01*
X23019387Y29840000D01*
X22360613Y29840000D01*
X21901393Y29748655D01*
X21512085Y29488528D01*
X21251958Y29099220D01*
X21160613Y28640000D01*
X20150122Y28640000D01*
X20150147Y28668334D01*
X20021015Y28980857D01*
X19782115Y29220174D01*
X19469817Y29349852D01*
X19131666Y29350147D01*
X18819143Y29221015D01*
X18579826Y28982115D01*
X18450148Y28669817D01*
X18449853Y28331666D01*
X16000263Y28331666D01*
X16010000Y28380613D01*
X16010000Y29039387D01*
X15918655Y29498607D01*
X15658528Y29887915D01*
X15269220Y30148042D01*
X14810000Y30239387D01*
X14350780Y30148042D01*
X13961472Y29887915D01*
X13701345Y29498607D01*
X13610000Y29039387D01*
X13470000Y29039387D01*
X13378655Y29498607D01*
X13118528Y29887915D01*
X12729220Y30148042D01*
X12270000Y30239387D01*
X11810780Y30148042D01*
X11421472Y29887915D01*
X11161345Y29498607D01*
X11070000Y29039387D01*
X10930000Y29039387D01*
X10838655Y29498607D01*
X10578528Y29887915D01*
X10189220Y30148042D01*
X9730000Y30239387D01*
X9270780Y30148042D01*
X8881472Y29887915D01*
X8621345Y29498607D01*
X8530000Y29039387D01*
X8390000Y29039387D01*
X8298655Y29498607D01*
X8038528Y29887915D01*
X7649220Y30148042D01*
X7190000Y30239387D01*
X6730780Y30148042D01*
X6341472Y29887915D01*
X6081345Y29498607D01*
X5990000Y29039387D01*
X2768000Y29039387D01*
X2768000Y29783091D01*
X2696751Y29955101D01*
X2565101Y30086751D01*
X2393091Y30158000D01*
X1626000Y30158000D01*
X1509000Y30041000D01*
X1491000Y30041000D01*
X1374000Y30158000D01*
X606909Y30158000D01*
X475000Y30103361D01*
X475000Y31522744D01*
X3299757Y31522744D01*
X3512445Y31008000D01*
X3905928Y30613830D01*
X4420301Y30400243D01*
X4977256Y30399757D01*
X5492000Y30612445D01*
X5886170Y31005928D01*
X6099757Y31520301D01*
X6099759Y31522744D01*
X13299757Y31522744D01*
X13512445Y31008000D01*
X13905928Y30613830D01*
X14420301Y30400243D01*
X14977256Y30399757D01*
X15492000Y30612445D01*
X15886170Y31005928D01*
X16000017Y31280102D01*
X15999827Y31061960D01*
X16151747Y30694286D01*
X16432806Y30412736D01*
X16800215Y30260174D01*
X17198040Y30259827D01*
X17565714Y30411747D01*
X17847264Y30692806D01*
X17901219Y30822744D01*
X18099757Y30822744D01*
X18312445Y30308000D01*
X18705928Y29913830D01*
X19220301Y29700243D01*
X19777256Y29699757D01*
X20292000Y29912445D01*
X20686170Y30305928D01*
X20899757Y30820301D01*
X20900070Y31180000D01*
X21160613Y31180000D01*
X21251958Y30720780D01*
X21512085Y30331472D01*
X21901393Y30071345D01*
X22360613Y29980000D01*
X23019387Y29980000D01*
X23478607Y30071345D01*
X23867915Y30331472D01*
X24128042Y30720780D01*
X24219387Y31180000D01*
X28780613Y31180000D01*
X28871958Y30720780D01*
X29132085Y30331472D01*
X29521393Y30071345D01*
X29980613Y29980000D01*
X30639387Y29980000D01*
X31098607Y30071345D01*
X31487915Y30331472D01*
X31748042Y30720780D01*
X31839387Y31180000D01*
X31830885Y31222744D01*
X34099757Y31222744D01*
X34312445Y30708000D01*
X34705928Y30313830D01*
X35220301Y30100243D01*
X35777256Y30099757D01*
X36292000Y30312445D01*
X36686170Y30705928D01*
X36899757Y31220301D01*
X36900243Y31777256D01*
X36687555Y32292000D01*
X36294072Y32686170D01*
X35779699Y32899757D01*
X35222744Y32900243D01*
X34708000Y32687555D01*
X34313830Y32294072D01*
X34100243Y31779699D01*
X34099757Y31222744D01*
X31830885Y31222744D01*
X31748042Y31639220D01*
X31487915Y32028528D01*
X31098607Y32288655D01*
X30639387Y32380000D01*
X29980613Y32380000D01*
X29521393Y32288655D01*
X29132085Y32028528D01*
X28871958Y31639220D01*
X28780613Y31180000D01*
X24219387Y31180000D01*
X24128042Y31639220D01*
X23867915Y32028528D01*
X23478607Y32288655D01*
X23019387Y32380000D01*
X22360613Y32380000D01*
X21901393Y32288655D01*
X21512085Y32028528D01*
X21251958Y31639220D01*
X21160613Y31180000D01*
X20900070Y31180000D01*
X20900243Y31377256D01*
X20687555Y31892000D01*
X20294072Y32286170D01*
X19779699Y32499757D01*
X19222744Y32500243D01*
X18708000Y32287555D01*
X18313830Y31894072D01*
X18100243Y31379699D01*
X18099757Y30822744D01*
X17901219Y30822744D01*
X17999826Y31060215D01*
X18000173Y31458040D01*
X17848253Y31825714D01*
X17567194Y32107264D01*
X17199785Y32259826D01*
X16801960Y32260173D01*
X16434286Y32108253D01*
X16152736Y31827194D01*
X16099914Y31699984D01*
X16100243Y32077256D01*
X15887555Y32592000D01*
X15494072Y32986170D01*
X14979699Y33199757D01*
X14422744Y33200243D01*
X13908000Y32987555D01*
X13513830Y32594072D01*
X13300243Y32079699D01*
X13299757Y31522744D01*
X6099759Y31522744D01*
X6100243Y32077256D01*
X5887555Y32592000D01*
X5494072Y32986170D01*
X4979699Y33199757D01*
X4422744Y33200243D01*
X3908000Y32987555D01*
X3513830Y32594072D01*
X3300243Y32079699D01*
X3299757Y31522744D01*
X475000Y31522744D01*
X475000Y33561960D01*
X18099827Y33561960D01*
X18251747Y33194286D01*
X18532806Y32912736D01*
X18900215Y32760174D01*
X19298040Y32759827D01*
X19665714Y32911747D01*
X19947264Y33192806D01*
X20099826Y33560215D01*
X20099965Y33720000D01*
X21160613Y33720000D01*
X21251958Y33260780D01*
X21512085Y32871472D01*
X21901393Y32611345D01*
X22360613Y32520000D01*
X23019387Y32520000D01*
X23478607Y32611345D01*
X23867915Y32871472D01*
X24128042Y33260780D01*
X24219387Y33720000D01*
X28780613Y33720000D01*
X28871958Y33260780D01*
X29132085Y32871472D01*
X29521393Y32611345D01*
X29980613Y32520000D01*
X30639387Y32520000D01*
X31098607Y32611345D01*
X31487915Y32871472D01*
X31748042Y33260780D01*
X31785065Y33446908D01*
X31924509Y33109428D01*
X32247727Y32785646D01*
X32670247Y32610200D01*
X33127746Y32609801D01*
X33550572Y32784509D01*
X33874354Y33107727D01*
X34049800Y33530247D01*
X34050199Y33987746D01*
X33875491Y34410572D01*
X33552273Y34734354D01*
X33129753Y34909800D01*
X32672254Y34910199D01*
X32249428Y34735491D01*
X31925646Y34412273D01*
X31774222Y34047604D01*
X31748042Y34179220D01*
X31487915Y34568528D01*
X31098607Y34828655D01*
X30639387Y34920000D01*
X29980613Y34920000D01*
X29521393Y34828655D01*
X29132085Y34568528D01*
X28871958Y34179220D01*
X28780613Y33720000D01*
X24219387Y33720000D01*
X24128042Y34179220D01*
X23867915Y34568528D01*
X23478607Y34828655D01*
X23019387Y34920000D01*
X22360613Y34920000D01*
X21901393Y34828655D01*
X21512085Y34568528D01*
X21251958Y34179220D01*
X21160613Y33720000D01*
X20099965Y33720000D01*
X20100173Y33958040D01*
X19948253Y34325714D01*
X19667194Y34607264D01*
X19299785Y34759826D01*
X18901960Y34760173D01*
X18534286Y34608253D01*
X18252736Y34327194D01*
X18100174Y33959785D01*
X18099827Y33561960D01*
X475000Y33561960D01*
X475000Y35646412D01*
X16319140Y35646412D01*
X16367250Y35453783D01*
X16754555Y35279099D01*
X17179228Y35265927D01*
X17576614Y35416274D01*
X17632750Y35453783D01*
X17680860Y35646412D01*
X17000000Y36327272D01*
X16319140Y35646412D01*
X475000Y35646412D01*
X475000Y36160772D01*
X15925927Y36160772D01*
X16076274Y35763386D01*
X16113783Y35707250D01*
X16306412Y35659140D01*
X16987272Y36340000D01*
X17012728Y36340000D01*
X17693588Y35659140D01*
X17886217Y35707250D01*
X18060901Y36094555D01*
X18074073Y36519228D01*
X17923726Y36916614D01*
X17886217Y36972750D01*
X17693588Y37020860D01*
X17012728Y36340000D01*
X16987272Y36340000D01*
X16306412Y37020860D01*
X16113783Y36972750D01*
X15939099Y36585445D01*
X15925927Y36160772D01*
X475000Y36160772D01*
X475000Y37033588D01*
X16319140Y37033588D01*
X17000000Y36352728D01*
X17680860Y37033588D01*
X17632750Y37226217D01*
X17245445Y37400901D01*
X16820772Y37414073D01*
X16423386Y37263726D01*
X16367250Y37226217D01*
X16319140Y37033588D01*
X475000Y37033588D01*
X475000Y38146412D01*
X18419140Y38146412D01*
X18467250Y37953783D01*
X18854555Y37779099D01*
X19279228Y37765927D01*
X19676614Y37916274D01*
X19732750Y37953783D01*
X19753849Y38038264D01*
X32110992Y38038264D01*
X32177352Y37830049D01*
X32618852Y37630381D01*
X33103154Y37614867D01*
X33556527Y37785869D01*
X33622648Y37830049D01*
X33689008Y38038264D01*
X32900000Y38827272D01*
X32110992Y38038264D01*
X19753849Y38038264D01*
X19780860Y38146412D01*
X19100000Y38827272D01*
X18419140Y38146412D01*
X475000Y38146412D01*
X475000Y44118019D01*
X7530747Y44118019D01*
X7627524Y43883827D01*
X8159346Y43642521D01*
X8743030Y43623102D01*
X9289715Y43828529D01*
X9356623Y43873235D01*
X12049715Y43873235D01*
X12300383Y43266571D01*
X12764130Y42802014D01*
X13005147Y42701935D01*
X12683283Y42380633D01*
X12500209Y41939742D01*
X12499793Y41462353D01*
X12682097Y41021143D01*
X13019367Y40683283D01*
X13219884Y40600021D01*
X13021143Y40517903D01*
X12683283Y40180633D01*
X12500209Y39739742D01*
X12499793Y39262353D01*
X12682097Y38821143D01*
X13019367Y38483283D01*
X13460258Y38300209D01*
X13937647Y38299793D01*
X14378857Y38482097D01*
X14557844Y38660772D01*
X18025927Y38660772D01*
X18176274Y38263386D01*
X18213783Y38207250D01*
X18406412Y38159140D01*
X19087272Y38840000D01*
X19112728Y38840000D01*
X19793588Y38159140D01*
X19986217Y38207250D01*
X20160901Y38594555D01*
X20174073Y39019228D01*
X20023726Y39416614D01*
X19986217Y39472750D01*
X19793588Y39520860D01*
X19112728Y38840000D01*
X19087272Y38840000D01*
X18406412Y39520860D01*
X18213783Y39472750D01*
X18039099Y39085445D01*
X18025927Y38660772D01*
X14557844Y38660772D01*
X14716717Y38819367D01*
X14899791Y39260258D01*
X14900029Y39533588D01*
X18419140Y39533588D01*
X19100000Y38852728D01*
X19780860Y39533588D01*
X19732750Y39726217D01*
X19345445Y39900901D01*
X18920772Y39914073D01*
X18523386Y39763726D01*
X18467250Y39726217D01*
X18419140Y39533588D01*
X14900029Y39533588D01*
X14900207Y39737647D01*
X14717903Y40178857D01*
X14380633Y40516717D01*
X14180116Y40599979D01*
X14378857Y40682097D01*
X14716717Y41019367D01*
X14899791Y41460258D01*
X14900207Y41937647D01*
X14717903Y42378857D01*
X14395324Y42702000D01*
X14633429Y42800383D01*
X15097986Y43264130D01*
X15349713Y43870355D01*
X15349928Y44118019D01*
X23830747Y44118019D01*
X23927524Y43883827D01*
X24459346Y43642521D01*
X25043030Y43623102D01*
X25589715Y43828529D01*
X25656623Y43873235D01*
X28349715Y43873235D01*
X28600383Y43266571D01*
X29064130Y42802014D01*
X29305147Y42701935D01*
X28983283Y42380633D01*
X28800209Y41939742D01*
X28799793Y41462353D01*
X28982097Y41021143D01*
X29319367Y40683283D01*
X29519884Y40600021D01*
X29321143Y40517903D01*
X28983283Y40180633D01*
X28800209Y39739742D01*
X28799793Y39262353D01*
X28982097Y38821143D01*
X29319367Y38483283D01*
X29760258Y38300209D01*
X30237647Y38299793D01*
X30678857Y38482097D01*
X30833876Y38636846D01*
X31674867Y38636846D01*
X31845869Y38183473D01*
X31890049Y38117352D01*
X32098264Y38050992D01*
X32887272Y38840000D01*
X32912728Y38840000D01*
X33701736Y38050992D01*
X33909951Y38117352D01*
X34109619Y38558852D01*
X34125133Y39043154D01*
X33954131Y39496527D01*
X33909951Y39562648D01*
X33701736Y39629008D01*
X32912728Y38840000D01*
X32887272Y38840000D01*
X32098264Y39629008D01*
X31890049Y39562648D01*
X31690381Y39121148D01*
X31674867Y38636846D01*
X30833876Y38636846D01*
X31016717Y38819367D01*
X31199791Y39260258D01*
X31200123Y39641736D01*
X32110992Y39641736D01*
X32900000Y38852728D01*
X33689008Y39641736D01*
X33622648Y39849951D01*
X33181148Y40049619D01*
X32696846Y40065133D01*
X32243473Y39894131D01*
X32177352Y39849951D01*
X32110992Y39641736D01*
X31200123Y39641736D01*
X31200207Y39737647D01*
X31017903Y40178857D01*
X30680633Y40516717D01*
X30480116Y40599979D01*
X30678857Y40682097D01*
X31016717Y41019367D01*
X31101166Y41222744D01*
X34099757Y41222744D01*
X34312445Y40708000D01*
X34705928Y40313830D01*
X35220301Y40100243D01*
X35777256Y40099757D01*
X36292000Y40312445D01*
X36686170Y40705928D01*
X36899757Y41220301D01*
X36900243Y41777256D01*
X36687555Y42292000D01*
X36294072Y42686170D01*
X35779699Y42899757D01*
X35222744Y42900243D01*
X34708000Y42687555D01*
X34313830Y42294072D01*
X34100243Y41779699D01*
X34099757Y41222744D01*
X31101166Y41222744D01*
X31199791Y41460258D01*
X31200207Y41937647D01*
X31017903Y42378857D01*
X30695324Y42702000D01*
X30933429Y42800383D01*
X31397986Y43264130D01*
X31649713Y43870355D01*
X31650285Y44526765D01*
X31399617Y45133429D01*
X30935870Y45597986D01*
X30329645Y45849713D01*
X29673235Y45850285D01*
X29066571Y45599617D01*
X28602014Y45135870D01*
X28350287Y44529645D01*
X28349715Y43873235D01*
X25656623Y43873235D01*
X25672476Y43883827D01*
X25769253Y44118019D01*
X24800000Y45087272D01*
X23830747Y44118019D01*
X15349928Y44118019D01*
X15350285Y44526765D01*
X15213848Y44856970D01*
X23323102Y44856970D01*
X23528529Y44310285D01*
X23583827Y44227524D01*
X23818019Y44130747D01*
X24787272Y45100000D01*
X24812728Y45100000D01*
X25781981Y44130747D01*
X26016173Y44227524D01*
X26257479Y44759346D01*
X26276898Y45343030D01*
X26071471Y45889715D01*
X26016173Y45972476D01*
X25781981Y46069253D01*
X24812728Y45100000D01*
X24787272Y45100000D01*
X23818019Y46069253D01*
X23583827Y45972476D01*
X23342521Y45440654D01*
X23323102Y44856970D01*
X15213848Y44856970D01*
X15099617Y45133429D01*
X14635870Y45597986D01*
X14029645Y45849713D01*
X13373235Y45850285D01*
X12766571Y45599617D01*
X12302014Y45135870D01*
X12050287Y44529645D01*
X12049715Y43873235D01*
X9356623Y43873235D01*
X9372476Y43883827D01*
X9469253Y44118019D01*
X8500000Y45087272D01*
X7530747Y44118019D01*
X475000Y44118019D01*
X475000Y44856970D01*
X7023102Y44856970D01*
X7228529Y44310285D01*
X7283827Y44227524D01*
X7518019Y44130747D01*
X8487272Y45100000D01*
X8512728Y45100000D01*
X9481981Y44130747D01*
X9716173Y44227524D01*
X9957479Y44759346D01*
X9976898Y45343030D01*
X9771471Y45889715D01*
X9716173Y45972476D01*
X9481981Y46069253D01*
X8512728Y45100000D01*
X8487272Y45100000D01*
X7518019Y46069253D01*
X7283827Y45972476D01*
X7042521Y45440654D01*
X7023102Y44856970D01*
X475000Y44856970D01*
X475000Y46562353D01*
X4799793Y46562353D01*
X4982097Y46121143D01*
X5319367Y45783283D01*
X5760258Y45600209D01*
X6237647Y45599793D01*
X6678857Y45782097D01*
X6979265Y46081981D01*
X7530747Y46081981D01*
X8500000Y45112728D01*
X9469253Y46081981D01*
X9372476Y46316173D01*
X9050306Y46462353D01*
X9999793Y46462353D01*
X10182097Y46021143D01*
X10519367Y45683283D01*
X10960258Y45500209D01*
X11437647Y45499793D01*
X11878857Y45682097D01*
X12216717Y46019367D01*
X12399791Y46460258D01*
X12399792Y46462353D01*
X14999793Y46462353D01*
X15182097Y46021143D01*
X15519367Y45683283D01*
X15960258Y45500209D01*
X16437647Y45499793D01*
X16878857Y45682097D01*
X17216717Y46019367D01*
X17384213Y46422744D01*
X17699757Y46422744D01*
X17912445Y45908000D01*
X18305928Y45513830D01*
X18820301Y45300243D01*
X19377256Y45299757D01*
X19892000Y45512445D01*
X20286170Y45905928D01*
X20499757Y46420301D01*
X20499880Y46562353D01*
X20899793Y46562353D01*
X21082097Y46121143D01*
X21419367Y45783283D01*
X21860258Y45600209D01*
X22337647Y45599793D01*
X22778857Y45782097D01*
X23079265Y46081981D01*
X23830747Y46081981D01*
X24800000Y45112728D01*
X25769253Y46081981D01*
X25672476Y46316173D01*
X25350306Y46462353D01*
X26299793Y46462353D01*
X26482097Y46021143D01*
X26819367Y45683283D01*
X27260258Y45500209D01*
X27737647Y45499793D01*
X28178857Y45682097D01*
X28516717Y46019367D01*
X28699791Y46460258D01*
X28699792Y46462353D01*
X31299793Y46462353D01*
X31482097Y46021143D01*
X31819367Y45683283D01*
X32260258Y45500209D01*
X32737647Y45499793D01*
X33178857Y45682097D01*
X33516717Y46019367D01*
X33684213Y46422744D01*
X33899757Y46422744D01*
X34112445Y45908000D01*
X34505928Y45513830D01*
X35020301Y45300243D01*
X35577256Y45299757D01*
X36092000Y45512445D01*
X36486170Y45905928D01*
X36699757Y46420301D01*
X36700243Y46977256D01*
X36487555Y47492000D01*
X36094072Y47886170D01*
X35579699Y48099757D01*
X35022744Y48100243D01*
X34508000Y47887555D01*
X34113830Y47494072D01*
X33900243Y46979699D01*
X33899757Y46422744D01*
X33684213Y46422744D01*
X33699791Y46460258D01*
X33700207Y46937647D01*
X33517903Y47378857D01*
X33180633Y47716717D01*
X32739742Y47899791D01*
X32262353Y47900207D01*
X31821143Y47717903D01*
X31483283Y47380633D01*
X31300209Y46939742D01*
X31299793Y46462353D01*
X28699792Y46462353D01*
X28700207Y46937647D01*
X28517903Y47378857D01*
X28180633Y47716717D01*
X27739742Y47899791D01*
X27262353Y47900207D01*
X26821143Y47717903D01*
X26483283Y47380633D01*
X26300209Y46939742D01*
X26299793Y46462353D01*
X25350306Y46462353D01*
X25140654Y46557479D01*
X24556970Y46576898D01*
X24010285Y46371471D01*
X23927524Y46316173D01*
X23830747Y46081981D01*
X23079265Y46081981D01*
X23116717Y46119367D01*
X23299791Y46560258D01*
X23300207Y47037647D01*
X23117903Y47478857D01*
X22780633Y47816717D01*
X22339742Y47999791D01*
X21862353Y48000207D01*
X21421143Y47817903D01*
X21083283Y47480633D01*
X20900209Y47039742D01*
X20899793Y46562353D01*
X20499880Y46562353D01*
X20500243Y46977256D01*
X20287555Y47492000D01*
X19894072Y47886170D01*
X19379699Y48099757D01*
X18822744Y48100243D01*
X18308000Y47887555D01*
X17913830Y47494072D01*
X17700243Y46979699D01*
X17699757Y46422744D01*
X17384213Y46422744D01*
X17399791Y46460258D01*
X17400207Y46937647D01*
X17217903Y47378857D01*
X16880633Y47716717D01*
X16439742Y47899791D01*
X15962353Y47900207D01*
X15521143Y47717903D01*
X15183283Y47380633D01*
X15000209Y46939742D01*
X14999793Y46462353D01*
X12399792Y46462353D01*
X12400207Y46937647D01*
X12217903Y47378857D01*
X11880633Y47716717D01*
X11439742Y47899791D01*
X10962353Y47900207D01*
X10521143Y47717903D01*
X10183283Y47380633D01*
X10000209Y46939742D01*
X9999793Y46462353D01*
X9050306Y46462353D01*
X8840654Y46557479D01*
X8256970Y46576898D01*
X7710285Y46371471D01*
X7627524Y46316173D01*
X7530747Y46081981D01*
X6979265Y46081981D01*
X7016717Y46119367D01*
X7199791Y46560258D01*
X7200207Y47037647D01*
X7017903Y47478857D01*
X6680633Y47816717D01*
X6239742Y47999791D01*
X5762353Y48000207D01*
X5321143Y47817903D01*
X4983283Y47480633D01*
X4800209Y47039742D01*
X4799793Y46562353D01*
X475000Y46562353D01*
X475000Y52273235D01*
X12049715Y52273235D01*
X12300383Y51666571D01*
X12764130Y51202014D01*
X13005147Y51101935D01*
X12683283Y50780633D01*
X12500209Y50339742D01*
X12499793Y49862353D01*
X12682097Y49421143D01*
X13019367Y49083283D01*
X13460258Y48900209D01*
X13937647Y48899793D01*
X14378857Y49082097D01*
X14716717Y49419367D01*
X14899791Y49860258D01*
X14900207Y50337647D01*
X14717903Y50778857D01*
X14395324Y51102000D01*
X14633429Y51200383D01*
X15097986Y51664130D01*
X15349713Y52270355D01*
X15349715Y52273235D01*
X28349715Y52273235D01*
X28600383Y51666571D01*
X29064130Y51202014D01*
X29305147Y51101935D01*
X28983283Y50780633D01*
X28800209Y50339742D01*
X28799793Y49862353D01*
X28982097Y49421143D01*
X29319367Y49083283D01*
X29760258Y48900209D01*
X30237647Y48899793D01*
X30678857Y49082097D01*
X31016717Y49419367D01*
X31199791Y49860258D01*
X31200207Y50337647D01*
X31017903Y50778857D01*
X30695324Y51102000D01*
X30933429Y51200383D01*
X31397986Y51664130D01*
X31649713Y52270355D01*
X31650285Y52926765D01*
X31399617Y53533429D01*
X30935870Y53997986D01*
X30329645Y54249713D01*
X29673235Y54250285D01*
X29066571Y53999617D01*
X28602014Y53535870D01*
X28350287Y52929645D01*
X28349715Y52273235D01*
X15349715Y52273235D01*
X15350285Y52926765D01*
X15099617Y53533429D01*
X14635870Y53997986D01*
X14029645Y54249713D01*
X13373235Y54250285D01*
X12766571Y53999617D01*
X12302014Y53535870D01*
X12050287Y52929645D01*
X12049715Y52273235D01*
X475000Y52273235D01*
X475000Y54822744D01*
X7099757Y54822744D01*
X7312445Y54308000D01*
X7705928Y53913830D01*
X8220301Y53700243D01*
X8777256Y53699757D01*
X9292000Y53912445D01*
X9686170Y54305928D01*
X9899757Y54820301D01*
X9899793Y54862353D01*
X9999793Y54862353D01*
X10182097Y54421143D01*
X10519367Y54083283D01*
X10960258Y53900209D01*
X11437647Y53899793D01*
X11878857Y54082097D01*
X12216717Y54419367D01*
X12399791Y54860258D01*
X12399792Y54862353D01*
X14999793Y54862353D01*
X15182097Y54421143D01*
X15519367Y54083283D01*
X15960258Y53900209D01*
X16437647Y53899793D01*
X16878857Y54082097D01*
X17216717Y54419367D01*
X17384213Y54822744D01*
X23399757Y54822744D01*
X23612445Y54308000D01*
X24005928Y53913830D01*
X24520301Y53700243D01*
X25077256Y53699757D01*
X25592000Y53912445D01*
X25986170Y54305928D01*
X26199757Y54820301D01*
X26199793Y54862353D01*
X26299793Y54862353D01*
X26482097Y54421143D01*
X26819367Y54083283D01*
X27260258Y53900209D01*
X27737647Y53899793D01*
X28178857Y54082097D01*
X28516717Y54419367D01*
X28699791Y54860258D01*
X28699792Y54862353D01*
X31299793Y54862353D01*
X31482097Y54421143D01*
X31819367Y54083283D01*
X32260258Y53900209D01*
X32737647Y53899793D01*
X33178857Y54082097D01*
X33516717Y54419367D01*
X33699791Y54860258D01*
X33700207Y55337647D01*
X33517903Y55778857D01*
X33180633Y56116717D01*
X32739742Y56299791D01*
X32262353Y56300207D01*
X31821143Y56117903D01*
X31483283Y55780633D01*
X31300209Y55339742D01*
X31299793Y54862353D01*
X28699792Y54862353D01*
X28700207Y55337647D01*
X28517903Y55778857D01*
X28180633Y56116717D01*
X27739742Y56299791D01*
X27262353Y56300207D01*
X26821143Y56117903D01*
X26483283Y55780633D01*
X26300209Y55339742D01*
X26299793Y54862353D01*
X26199793Y54862353D01*
X26200243Y55377256D01*
X25987555Y55892000D01*
X25594072Y56286170D01*
X25265167Y56422744D01*
X33899757Y56422744D01*
X34112445Y55908000D01*
X34505928Y55513830D01*
X35020301Y55300243D01*
X35577256Y55299757D01*
X36092000Y55512445D01*
X36486170Y55905928D01*
X36699757Y56420301D01*
X36700243Y56977256D01*
X36487555Y57492000D01*
X36094072Y57886170D01*
X35679392Y58058361D01*
X35978857Y58182097D01*
X36316717Y58519367D01*
X36499791Y58960258D01*
X36500207Y59437647D01*
X36317903Y59878857D01*
X35980633Y60216717D01*
X35539742Y60399791D01*
X35062353Y60400207D01*
X34621143Y60217903D01*
X34283283Y59880633D01*
X34100209Y59439742D01*
X34099793Y58962353D01*
X34282097Y58521143D01*
X34619367Y58183283D01*
X34920796Y58058119D01*
X34508000Y57887555D01*
X34113830Y57494072D01*
X33900243Y56979699D01*
X33899757Y56422744D01*
X25265167Y56422744D01*
X25079699Y56499757D01*
X24522744Y56500243D01*
X24008000Y56287555D01*
X23613830Y55894072D01*
X23400243Y55379699D01*
X23399757Y54822744D01*
X17384213Y54822744D01*
X17399791Y54860258D01*
X17400207Y55337647D01*
X17217903Y55778857D01*
X16880633Y56116717D01*
X16439742Y56299791D01*
X15962353Y56300207D01*
X15521143Y56117903D01*
X15183283Y55780633D01*
X15000209Y55339742D01*
X14999793Y54862353D01*
X12399792Y54862353D01*
X12400207Y55337647D01*
X12217903Y55778857D01*
X11880633Y56116717D01*
X11439742Y56299791D01*
X10962353Y56300207D01*
X10521143Y56117903D01*
X10183283Y55780633D01*
X10000209Y55339742D01*
X9999793Y54862353D01*
X9899793Y54862353D01*
X9900243Y55377256D01*
X9687555Y55892000D01*
X9294072Y56286170D01*
X8965167Y56422744D01*
X17699757Y56422744D01*
X17912445Y55908000D01*
X18305928Y55513830D01*
X18820301Y55300243D01*
X19377256Y55299757D01*
X19892000Y55512445D01*
X20286170Y55905928D01*
X20499757Y56420301D01*
X20500243Y56977256D01*
X20287555Y57492000D01*
X19980163Y57799929D01*
X20177256Y57799757D01*
X20692000Y58012445D01*
X21086170Y58405928D01*
X21200016Y58680099D01*
X21312445Y58408000D01*
X21705928Y58013830D01*
X22220301Y57800243D01*
X22777256Y57799757D01*
X23292000Y58012445D01*
X23686170Y58405928D01*
X23899757Y58920301D01*
X23899759Y58922744D01*
X31099757Y58922744D01*
X31312445Y58408000D01*
X31705928Y58013830D01*
X32220301Y57800243D01*
X32777256Y57799757D01*
X33292000Y58012445D01*
X33686170Y58405928D01*
X33899757Y58920301D01*
X33900243Y59477256D01*
X33687555Y59992000D01*
X33294072Y60386170D01*
X32779699Y60599757D01*
X32222744Y60600243D01*
X31708000Y60387555D01*
X31313830Y59994072D01*
X31100243Y59479699D01*
X31099757Y58922744D01*
X23899759Y58922744D01*
X23900243Y59477256D01*
X23687555Y59992000D01*
X23294072Y60386170D01*
X22779699Y60599757D01*
X22222744Y60600243D01*
X21708000Y60387555D01*
X21313830Y59994072D01*
X21199984Y59719901D01*
X21087555Y59992000D01*
X20694072Y60386170D01*
X20179699Y60599757D01*
X19622744Y60600243D01*
X19108000Y60387555D01*
X18713830Y59994072D01*
X18500243Y59479699D01*
X18499757Y58922744D01*
X18712445Y58408000D01*
X19019837Y58100071D01*
X18822744Y58100243D01*
X18308000Y57887555D01*
X17913830Y57494072D01*
X17700243Y56979699D01*
X17699757Y56422744D01*
X8965167Y56422744D01*
X8779699Y56499757D01*
X8222744Y56500243D01*
X7708000Y56287555D01*
X7313830Y55894072D01*
X7100243Y55379699D01*
X7099757Y54822744D01*
X475000Y54822744D01*
X475000Y58922744D01*
X8499757Y58922744D01*
X8712445Y58408000D01*
X9105928Y58013830D01*
X9620301Y57800243D01*
X10177256Y57799757D01*
X10692000Y58012445D01*
X11086170Y58405928D01*
X11299757Y58920301D01*
X11300243Y59477256D01*
X11087555Y59992000D01*
X10694072Y60386170D01*
X10179699Y60599757D01*
X9622744Y60600243D01*
X9108000Y60387555D01*
X8713830Y59994072D01*
X8500243Y59479699D01*
X8499757Y58922744D01*
X475000Y58922744D01*
X475000Y61118019D01*
X11430747Y61118019D01*
X11527524Y60883827D01*
X12059346Y60642521D01*
X12643030Y60623102D01*
X13189715Y60828529D01*
X13272476Y60883827D01*
X13369253Y61118019D01*
X12400000Y62087272D01*
X11430747Y61118019D01*
X475000Y61118019D01*
X475000Y61856970D01*
X10923102Y61856970D01*
X11128529Y61310285D01*
X11183827Y61227524D01*
X11418019Y61130747D01*
X12387272Y62100000D01*
X12412728Y62100000D01*
X13381981Y61130747D01*
X13616173Y61227524D01*
X13857479Y61759346D01*
X13859588Y61822744D01*
X13999757Y61822744D01*
X14212445Y61308000D01*
X14605928Y60913830D01*
X15120301Y60700243D01*
X15677256Y60699757D01*
X16192000Y60912445D01*
X16586170Y61305928D01*
X16799757Y61820301D01*
X16800243Y62377256D01*
X16587555Y62892000D01*
X16194072Y63286170D01*
X15679699Y63499757D01*
X15122744Y63500243D01*
X14608000Y63287555D01*
X14213830Y62894072D01*
X14000243Y62379699D01*
X13999757Y61822744D01*
X13859588Y61822744D01*
X13876898Y62343030D01*
X13671471Y62889715D01*
X13616173Y62972476D01*
X13381981Y63069253D01*
X12412728Y62100000D01*
X12387272Y62100000D01*
X11418019Y63069253D01*
X11183827Y62972476D01*
X10942521Y62440654D01*
X10923102Y61856970D01*
X475000Y61856970D01*
X475000Y63081981D01*
X11430747Y63081981D01*
X12400000Y62112728D01*
X13369253Y63081981D01*
X13272476Y63316173D01*
X12740654Y63557479D01*
X12156970Y63576898D01*
X11610285Y63371471D01*
X11527524Y63316173D01*
X11430747Y63081981D01*
X475000Y63081981D01*
X475000Y63862353D01*
X17599793Y63862353D01*
X17782097Y63421143D01*
X18119367Y63083283D01*
X18560258Y62900209D01*
X19037647Y62899793D01*
X19478857Y63082097D01*
X19803739Y63406412D01*
X20679140Y63406412D01*
X20727250Y63213783D01*
X21114555Y63039099D01*
X21539228Y63025927D01*
X21936614Y63176274D01*
X21992750Y63213783D01*
X22040860Y63406412D01*
X21360000Y64087272D01*
X20679140Y63406412D01*
X19803739Y63406412D01*
X19816717Y63419367D01*
X19999791Y63860258D01*
X19999843Y63920772D01*
X20285927Y63920772D01*
X20436274Y63523386D01*
X20473783Y63467250D01*
X20666412Y63419140D01*
X21347272Y64100000D01*
X21372728Y64100000D01*
X22053588Y63419140D01*
X22246217Y63467250D01*
X22420901Y63854555D01*
X22422371Y63901960D01*
X25439827Y63901960D01*
X25591747Y63534286D01*
X25872806Y63252736D01*
X26240215Y63100174D01*
X26638040Y63099827D01*
X27005714Y63251747D01*
X27287264Y63532806D01*
X27439826Y63900215D01*
X27440107Y64222744D01*
X28099757Y64222744D01*
X28312445Y63708000D01*
X28705928Y63313830D01*
X29220301Y63100243D01*
X29777256Y63099757D01*
X30292000Y63312445D01*
X30497932Y63518019D01*
X31630747Y63518019D01*
X31727524Y63283827D01*
X32259346Y63042521D01*
X32843030Y63023102D01*
X33389715Y63228529D01*
X33472476Y63283827D01*
X33569253Y63518019D01*
X32600000Y64487272D01*
X31630747Y63518019D01*
X30497932Y63518019D01*
X30686170Y63705928D01*
X30899757Y64220301D01*
X30899788Y64256970D01*
X31123102Y64256970D01*
X31328529Y63710285D01*
X31383827Y63627524D01*
X31618019Y63530747D01*
X32587272Y64500000D01*
X32612728Y64500000D01*
X33581981Y63530747D01*
X33816173Y63627524D01*
X34057479Y64159346D01*
X34076898Y64743030D01*
X33871471Y65289715D01*
X33816173Y65372476D01*
X33581981Y65469253D01*
X32612728Y64500000D01*
X32587272Y64500000D01*
X31618019Y65469253D01*
X31383827Y65372476D01*
X31142521Y64840654D01*
X31123102Y64256970D01*
X30899788Y64256970D01*
X30900243Y64777256D01*
X30687555Y65292000D01*
X30497906Y65481981D01*
X31630747Y65481981D01*
X32600000Y64512728D01*
X33569253Y65481981D01*
X33472476Y65716173D01*
X32940654Y65957479D01*
X32356970Y65976898D01*
X31810285Y65771471D01*
X31727524Y65716173D01*
X31630747Y65481981D01*
X30497906Y65481981D01*
X30294072Y65686170D01*
X29779699Y65899757D01*
X29222744Y65900243D01*
X28708000Y65687555D01*
X28313830Y65294072D01*
X28100243Y64779699D01*
X28099757Y64222744D01*
X27440107Y64222744D01*
X27440173Y64298040D01*
X27288253Y64665714D01*
X27007194Y64947264D01*
X26639785Y65099826D01*
X26241960Y65100173D01*
X25874286Y64948253D01*
X25592736Y64667194D01*
X25440174Y64299785D01*
X25439827Y63901960D01*
X22422371Y63901960D01*
X22434073Y64279228D01*
X22283726Y64676614D01*
X22246217Y64732750D01*
X22053588Y64780860D01*
X21372728Y64100000D01*
X21347272Y64100000D01*
X20666412Y64780860D01*
X20473783Y64732750D01*
X20299099Y64345445D01*
X20285927Y63920772D01*
X19999843Y63920772D01*
X20000207Y64337647D01*
X19817903Y64778857D01*
X19803198Y64793588D01*
X20679140Y64793588D01*
X21360000Y64112728D01*
X22040860Y64793588D01*
X21992750Y64986217D01*
X21605445Y65160901D01*
X21180772Y65174073D01*
X20783386Y65023726D01*
X20727250Y64986217D01*
X20679140Y64793588D01*
X19803198Y64793588D01*
X19480633Y65116717D01*
X19039742Y65299791D01*
X18562353Y65300207D01*
X18121143Y65117903D01*
X17783283Y64780633D01*
X17600209Y64339742D01*
X17599793Y63862353D01*
X475000Y63862353D01*
X475000Y67772214D01*
X674942Y67772214D01*
X747386Y67558804D01*
X1206950Y67350809D01*
X1711129Y67334514D01*
X1991043Y67440000D01*
X17332164Y67440000D01*
X17332164Y65840000D01*
X17363209Y65683928D01*
X17451616Y65551616D01*
X17583928Y65463209D01*
X17740000Y65432164D01*
X19940000Y65432164D01*
X20096072Y65463209D01*
X20228384Y65551616D01*
X20316791Y65683928D01*
X20347836Y65840000D01*
X20347836Y66640000D01*
X24930613Y66640000D01*
X25021958Y66180780D01*
X25282085Y65791472D01*
X25671393Y65531345D01*
X26130613Y65440000D01*
X26789387Y65440000D01*
X27248607Y65531345D01*
X27637915Y65791472D01*
X27898042Y66180780D01*
X27989387Y66640000D01*
X27898042Y67099220D01*
X27637915Y67488528D01*
X27248607Y67748655D01*
X27130169Y67772214D01*
X36674942Y67772214D01*
X36747386Y67558804D01*
X37206950Y67350809D01*
X37711129Y67334514D01*
X38183164Y67512401D01*
X38252614Y67558804D01*
X38325058Y67772214D01*
X37500000Y68597272D01*
X36674942Y67772214D01*
X27130169Y67772214D01*
X26789387Y67840000D01*
X26130613Y67840000D01*
X25671393Y67748655D01*
X25282085Y67488528D01*
X25021958Y67099220D01*
X24930613Y66640000D01*
X20347836Y66640000D01*
X20347836Y67440000D01*
X20316791Y67596072D01*
X20228384Y67728384D01*
X20096072Y67816791D01*
X19940000Y67847836D01*
X17740000Y67847836D01*
X17583928Y67816791D01*
X17451616Y67728384D01*
X17363209Y67596072D01*
X17332164Y67440000D01*
X1991043Y67440000D01*
X2183164Y67512401D01*
X2252614Y67558804D01*
X2325058Y67772214D01*
X1500000Y68597272D01*
X674942Y67772214D01*
X475000Y67772214D01*
X475000Y67848494D01*
X662214Y67784942D01*
X1487272Y68610000D01*
X1512728Y68610000D01*
X2337786Y67784942D01*
X2551196Y67857386D01*
X2759191Y68316950D01*
X2775486Y68821129D01*
X2640245Y69180000D01*
X17310613Y69180000D01*
X17401958Y68720780D01*
X17662085Y68331472D01*
X18051393Y68071345D01*
X18510613Y67980000D01*
X19169387Y67980000D01*
X19628607Y68071345D01*
X20017915Y68331472D01*
X20278042Y68720780D01*
X20369387Y69180000D01*
X24930613Y69180000D01*
X25021958Y68720780D01*
X25282085Y68331472D01*
X25671393Y68071345D01*
X26130613Y67980000D01*
X26789387Y67980000D01*
X27248607Y68071345D01*
X27637915Y68331472D01*
X27682949Y68398871D01*
X36224514Y68398871D01*
X36402401Y67926836D01*
X36448804Y67857386D01*
X36662214Y67784942D01*
X37487272Y68610000D01*
X36662214Y69435058D01*
X36448804Y69362614D01*
X36240809Y68903050D01*
X36224514Y68398871D01*
X27682949Y68398871D01*
X27898042Y68720780D01*
X27989387Y69180000D01*
X27936121Y69447786D01*
X36674942Y69447786D01*
X37500000Y68622728D01*
X38325058Y69447786D01*
X38252614Y69661196D01*
X37793050Y69869191D01*
X37288871Y69885486D01*
X36816836Y69707599D01*
X36747386Y69661196D01*
X36674942Y69447786D01*
X27936121Y69447786D01*
X27898042Y69639220D01*
X27637915Y70028528D01*
X27248607Y70288655D01*
X26789387Y70380000D01*
X26130613Y70380000D01*
X25671393Y70288655D01*
X25282085Y70028528D01*
X25021958Y69639220D01*
X24930613Y69180000D01*
X20369387Y69180000D01*
X20278042Y69639220D01*
X20017915Y70028528D01*
X19628607Y70288655D01*
X19169387Y70380000D01*
X18510613Y70380000D01*
X18051393Y70288655D01*
X17662085Y70028528D01*
X17401958Y69639220D01*
X17310613Y69180000D01*
X2640245Y69180000D01*
X2597599Y69293164D01*
X2551196Y69362614D01*
X2337786Y69435058D01*
X1512728Y68610000D01*
X1487272Y68610000D01*
X662214Y69435058D01*
X475000Y69371506D01*
X475000Y69447786D01*
X674942Y69447786D01*
X1500000Y68622728D01*
X2325058Y69447786D01*
X2252614Y69661196D01*
X1793050Y69869191D01*
X1288871Y69885486D01*
X816836Y69707599D01*
X747386Y69661196D01*
X674942Y69447786D01*
X475000Y69447786D01*
X475000Y70488319D01*
X482097Y70471143D01*
X819367Y70133283D01*
X1260258Y69950209D01*
X1737647Y69949793D01*
X2178857Y70132097D01*
X2516717Y70469367D01*
X2570961Y70600000D01*
X3298095Y70600000D01*
X3517885Y70379826D01*
X3830183Y70250148D01*
X4168334Y70249853D01*
X4480857Y70378985D01*
X4720174Y70617885D01*
X4849852Y70930183D01*
X4850147Y71268334D01*
X4721015Y71580857D01*
X4482115Y71820174D01*
X4475926Y71822744D01*
X10999757Y71822744D01*
X11212445Y71308000D01*
X11605928Y70913830D01*
X12120301Y70700243D01*
X12292901Y70700092D01*
X12306296Y70682870D01*
X13306296Y69882870D01*
X13324384Y69873490D01*
X13417885Y69779826D01*
X13730183Y69650148D01*
X14068334Y69649853D01*
X14380857Y69778985D01*
X14569247Y69967046D01*
X14569713Y69967184D01*
X14599655Y69987889D01*
X15400778Y70699998D01*
X15677256Y70699757D01*
X16192000Y70912445D01*
X16586170Y71305928D01*
X16758108Y71720000D01*
X17310613Y71720000D01*
X17401958Y71260780D01*
X17662085Y70871472D01*
X18051393Y70611345D01*
X18510613Y70520000D01*
X19169387Y70520000D01*
X19628607Y70611345D01*
X20017915Y70871472D01*
X20278042Y71260780D01*
X20369387Y71720000D01*
X24930613Y71720000D01*
X25021958Y71260780D01*
X25282085Y70871472D01*
X25671393Y70611345D01*
X26130613Y70520000D01*
X26789387Y70520000D01*
X27248607Y70611345D01*
X27637915Y70871472D01*
X27898042Y71260780D01*
X27989387Y71720000D01*
X27898042Y72179220D01*
X27637915Y72568528D01*
X27248607Y72828655D01*
X27130169Y72852214D01*
X36674942Y72852214D01*
X36747386Y72638804D01*
X37206950Y72430809D01*
X37711129Y72414514D01*
X38183164Y72592401D01*
X38252614Y72638804D01*
X38325058Y72852214D01*
X37500000Y73677272D01*
X36674942Y72852214D01*
X27130169Y72852214D01*
X26789387Y72920000D01*
X26130613Y72920000D01*
X25671393Y72828655D01*
X25282085Y72568528D01*
X25021958Y72179220D01*
X24930613Y71720000D01*
X20369387Y71720000D01*
X20278042Y72179220D01*
X20017915Y72568528D01*
X19628607Y72828655D01*
X19169387Y72920000D01*
X18510613Y72920000D01*
X18051393Y72828655D01*
X17662085Y72568528D01*
X17401958Y72179220D01*
X17310613Y71720000D01*
X16758108Y71720000D01*
X16799757Y71820301D01*
X16800243Y72377256D01*
X16650000Y72740872D01*
X16650000Y74046088D01*
X16905714Y74151747D01*
X17014156Y74260000D01*
X17310613Y74260000D01*
X17401958Y73800780D01*
X17662085Y73411472D01*
X18051393Y73151345D01*
X18510613Y73060000D01*
X19169387Y73060000D01*
X19628607Y73151345D01*
X20017915Y73411472D01*
X20278042Y73800780D01*
X20369387Y74260000D01*
X24930613Y74260000D01*
X25021958Y73800780D01*
X25282085Y73411472D01*
X25671393Y73151345D01*
X26130613Y73060000D01*
X26789387Y73060000D01*
X27248607Y73151345D01*
X27637915Y73411472D01*
X27898042Y73800780D01*
X27981976Y74222744D01*
X28099757Y74222744D01*
X28312445Y73708000D01*
X28705928Y73313830D01*
X29220301Y73100243D01*
X29777256Y73099757D01*
X30292000Y73312445D01*
X30686170Y73705928D01*
X30899757Y74220301D01*
X30899759Y74222744D01*
X31199757Y74222744D01*
X31412445Y73708000D01*
X31805928Y73313830D01*
X32320301Y73100243D01*
X32877256Y73099757D01*
X33392000Y73312445D01*
X33558716Y73478871D01*
X36224514Y73478871D01*
X36402401Y73006836D01*
X36448804Y72937386D01*
X36662214Y72864942D01*
X37487272Y73690000D01*
X36662214Y74515058D01*
X36448804Y74442614D01*
X36240809Y73983050D01*
X36224514Y73478871D01*
X33558716Y73478871D01*
X33786170Y73705928D01*
X33999757Y74220301D01*
X34000025Y74527786D01*
X36674942Y74527786D01*
X37500000Y73702728D01*
X38325058Y74527786D01*
X38252614Y74741196D01*
X37793050Y74949191D01*
X37288871Y74965486D01*
X36816836Y74787599D01*
X36747386Y74741196D01*
X36674942Y74527786D01*
X34000025Y74527786D01*
X34000243Y74777256D01*
X33787555Y75292000D01*
X33687516Y75392214D01*
X36674942Y75392214D01*
X36747386Y75178804D01*
X37206950Y74970809D01*
X37711129Y74954514D01*
X38183164Y75132401D01*
X38252614Y75178804D01*
X38325058Y75392214D01*
X37500000Y76217272D01*
X36674942Y75392214D01*
X33687516Y75392214D01*
X33394072Y75686170D01*
X32879699Y75899757D01*
X32322744Y75900243D01*
X31808000Y75687555D01*
X31413830Y75294072D01*
X31200243Y74779699D01*
X31199757Y74222744D01*
X30899759Y74222744D01*
X30900243Y74777256D01*
X30687555Y75292000D01*
X30294072Y75686170D01*
X29779699Y75899757D01*
X29222744Y75900243D01*
X28708000Y75687555D01*
X28313830Y75294072D01*
X28100243Y74779699D01*
X28099757Y74222744D01*
X27981976Y74222744D01*
X27989387Y74260000D01*
X27898042Y74719220D01*
X27637915Y75108528D01*
X27248607Y75368655D01*
X26789387Y75460000D01*
X26130613Y75460000D01*
X25671393Y75368655D01*
X25282085Y75108528D01*
X25021958Y74719220D01*
X24930613Y74260000D01*
X20369387Y74260000D01*
X20278042Y74719220D01*
X20017915Y75108528D01*
X19628607Y75368655D01*
X19169387Y75460000D01*
X18510613Y75460000D01*
X18051393Y75368655D01*
X17662085Y75108528D01*
X17401958Y74719220D01*
X17310613Y74260000D01*
X17014156Y74260000D01*
X17187264Y74432806D01*
X17339826Y74800215D01*
X17340173Y75198040D01*
X17188253Y75565714D01*
X16907194Y75847264D01*
X16539785Y75999826D01*
X16141960Y76000173D01*
X15774286Y75848253D01*
X15492736Y75567194D01*
X15340174Y75199785D01*
X15339827Y74801960D01*
X15346936Y74784754D01*
X13520927Y72958745D01*
X13194072Y73286170D01*
X12679699Y73499757D01*
X12122744Y73500243D01*
X11608000Y73287555D01*
X11213830Y72894072D01*
X11000243Y72379699D01*
X10999757Y71822744D01*
X4475926Y71822744D01*
X4169817Y71949852D01*
X3831666Y71950147D01*
X3519143Y71821015D01*
X3397917Y71700000D01*
X2571146Y71700000D01*
X2517903Y71828857D01*
X2180633Y72166717D01*
X1739742Y72349791D01*
X1262353Y72350207D01*
X821143Y72167903D01*
X483283Y71830633D01*
X475000Y71810685D01*
X475000Y72852214D01*
X674942Y72852214D01*
X747386Y72638804D01*
X1206950Y72430809D01*
X1711129Y72414514D01*
X2183164Y72592401D01*
X2252614Y72638804D01*
X2325058Y72852214D01*
X1500000Y73677272D01*
X674942Y72852214D01*
X475000Y72852214D01*
X475000Y72928494D01*
X662214Y72864942D01*
X1487272Y73690000D01*
X1512728Y73690000D01*
X2337786Y72864942D01*
X2551196Y72937386D01*
X2759191Y73396950D01*
X2775486Y73901129D01*
X2622755Y74306412D01*
X10579140Y74306412D01*
X10627250Y74113783D01*
X11014555Y73939099D01*
X11439228Y73925927D01*
X11836614Y74076274D01*
X11892750Y74113783D01*
X11940860Y74306412D01*
X11260000Y74987272D01*
X10579140Y74306412D01*
X2622755Y74306412D01*
X2597599Y74373164D01*
X2551196Y74442614D01*
X2337786Y74515058D01*
X1512728Y73690000D01*
X1487272Y73690000D01*
X662214Y74515058D01*
X475000Y74451506D01*
X475000Y74527786D01*
X674942Y74527786D01*
X1500000Y73702728D01*
X2325058Y74527786D01*
X2252614Y74741196D01*
X2076792Y74820772D01*
X10185927Y74820772D01*
X10336274Y74423386D01*
X10373783Y74367250D01*
X10566412Y74319140D01*
X11247272Y75000000D01*
X11272728Y75000000D01*
X11953588Y74319140D01*
X12146217Y74367250D01*
X12320901Y74754555D01*
X12334073Y75179228D01*
X12183726Y75576614D01*
X12146217Y75632750D01*
X11953588Y75680860D01*
X11272728Y75000000D01*
X11247272Y75000000D01*
X10566412Y75680860D01*
X10373783Y75632750D01*
X10199099Y75245445D01*
X10185927Y74820772D01*
X2076792Y74820772D01*
X1793050Y74949191D01*
X1288871Y74965486D01*
X816836Y74787599D01*
X747386Y74741196D01*
X674942Y74527786D01*
X475000Y74527786D01*
X475000Y75568319D01*
X482097Y75551143D01*
X819367Y75213283D01*
X1260258Y75030209D01*
X1737647Y75029793D01*
X2178857Y75212097D01*
X2516717Y75549367D01*
X2576602Y75693588D01*
X10579140Y75693588D01*
X11260000Y75012728D01*
X11940860Y75693588D01*
X11892750Y75886217D01*
X11598633Y76018871D01*
X36224514Y76018871D01*
X36402401Y75546836D01*
X36448804Y75477386D01*
X36662214Y75404942D01*
X37487272Y76230000D01*
X36662214Y77055058D01*
X36448804Y76982614D01*
X36240809Y76523050D01*
X36224514Y76018871D01*
X11598633Y76018871D01*
X11505445Y76060901D01*
X11080772Y76074073D01*
X10683386Y75923726D01*
X10627250Y75886217D01*
X10579140Y75693588D01*
X2576602Y75693588D01*
X2699791Y75990258D01*
X2700207Y76467647D01*
X2550000Y76831176D01*
X2550000Y77067786D01*
X36674942Y77067786D01*
X37500000Y76242728D01*
X38325058Y77067786D01*
X38252614Y77281196D01*
X37793050Y77489191D01*
X37288871Y77505486D01*
X36816836Y77327599D01*
X36747386Y77281196D01*
X36674942Y77067786D01*
X2550000Y77067786D01*
X2550000Y78169521D01*
X2570961Y78220000D01*
X6377955Y78220000D01*
X6517885Y78079826D01*
X6830183Y77950148D01*
X7168334Y77949853D01*
X7480857Y78078985D01*
X7720174Y78317885D01*
X7849852Y78630183D01*
X7850147Y78968334D01*
X7721015Y79280857D01*
X7482115Y79520174D01*
X7169817Y79649852D01*
X6831666Y79650147D01*
X6519143Y79521015D01*
X6317777Y79320000D01*
X2571146Y79320000D01*
X2517903Y79448857D01*
X2180633Y79786717D01*
X1739742Y79969791D01*
X1262353Y79970207D01*
X821143Y79787903D01*
X483283Y79450633D01*
X475000Y79430685D01*
X475000Y80472214D01*
X674942Y80472214D01*
X747386Y80258804D01*
X1206950Y80050809D01*
X1711129Y80034514D01*
X2183164Y80212401D01*
X2252614Y80258804D01*
X2325058Y80472214D01*
X1500000Y81297272D01*
X674942Y80472214D01*
X475000Y80472214D01*
X475000Y80548494D01*
X662214Y80484942D01*
X1487272Y81310000D01*
X1512728Y81310000D01*
X2337786Y80484942D01*
X2551196Y80557386D01*
X2759191Y81016950D01*
X2775486Y81521129D01*
X2597599Y81993164D01*
X2551196Y82062614D01*
X2337786Y82135058D01*
X1512728Y81310000D01*
X1487272Y81310000D01*
X662214Y82135058D01*
X475000Y82071506D01*
X475000Y82147786D01*
X674942Y82147786D01*
X1500000Y81322728D01*
X2325058Y82147786D01*
X2252614Y82361196D01*
X1793050Y82569191D01*
X1288871Y82585486D01*
X816836Y82407599D01*
X747386Y82361196D01*
X674942Y82147786D01*
X475000Y82147786D01*
X475000Y83188319D01*
X482097Y83171143D01*
X819367Y82833283D01*
X1260258Y82650209D01*
X1737647Y82649793D01*
X2178857Y82832097D01*
X2516717Y83169367D01*
X2699791Y83610258D01*
X2700207Y84087647D01*
X2517903Y84528857D01*
X2180633Y84866717D01*
X1739742Y85049791D01*
X1262353Y85050207D01*
X821143Y84867903D01*
X483283Y84530633D01*
X475000Y84510685D01*
X475000Y85176639D01*
X606909Y85122000D01*
X1374000Y85122000D01*
X1491000Y85239000D01*
X1491000Y86381000D01*
X1509000Y86381000D01*
X1509000Y85239000D01*
X1626000Y85122000D01*
X2393091Y85122000D01*
X2565101Y85193249D01*
X2696751Y85324899D01*
X2768000Y85496909D01*
X2768000Y86264000D01*
X2651000Y86381000D01*
X1509000Y86381000D01*
X1491000Y86381000D01*
X1471000Y86381000D01*
X1471000Y86399000D01*
X1491000Y86399000D01*
X1491000Y87541000D01*
X1509000Y87541000D01*
X1509000Y86399000D01*
X2651000Y86399000D01*
X2768000Y86516000D01*
X2768000Y87283091D01*
X2696751Y87455101D01*
X2565101Y87586751D01*
X2393091Y87658000D01*
X1626000Y87658000D01*
X1509000Y87541000D01*
X1491000Y87541000D01*
X1374000Y87658000D01*
X606909Y87658000D01*
X475000Y87603361D01*
X475000Y88525000D01*
X12525000Y88525000D01*
X12525000Y78000000D01*
X12525000Y78000000D01*
G37*
X12525000Y78000000D02*
X12561157Y77818225D01*
X12664124Y77664124D01*
X12818225Y77561157D01*
X13000000Y77525000D01*
X35000000Y77525000D01*
X35181775Y77561157D01*
X35335876Y77664124D01*
X35438843Y77818225D01*
X35475000Y78000000D01*
X35475000Y80472214D01*
X36674942Y80472214D01*
X36747386Y80258804D01*
X37206950Y80050809D01*
X37711129Y80034514D01*
X38183164Y80212401D01*
X38252614Y80258804D01*
X38325058Y80472214D01*
X37500000Y81297272D01*
X36674942Y80472214D01*
X35475000Y80472214D01*
X35475000Y81098871D01*
X36224514Y81098871D01*
X36402401Y80626836D01*
X36448804Y80557386D01*
X36662214Y80484942D01*
X37487272Y81310000D01*
X36662214Y82135058D01*
X36448804Y82062614D01*
X36240809Y81603050D01*
X36224514Y81098871D01*
X35475000Y81098871D01*
X35475000Y82147786D01*
X36674942Y82147786D01*
X37500000Y81322728D01*
X38325058Y82147786D01*
X38252614Y82361196D01*
X37793050Y82569191D01*
X37288871Y82585486D01*
X36816836Y82407599D01*
X36747386Y82361196D01*
X36674942Y82147786D01*
X35475000Y82147786D01*
X35475000Y86264000D01*
X36232000Y86264000D01*
X36232000Y85496909D01*
X36303249Y85324899D01*
X36434899Y85193249D01*
X36606909Y85122000D01*
X37374000Y85122000D01*
X37491000Y85239000D01*
X37491000Y86381000D01*
X36349000Y86381000D01*
X36232000Y86264000D01*
X35475000Y86264000D01*
X35475000Y87283091D01*
X36232000Y87283091D01*
X36232000Y86516000D01*
X36349000Y86399000D01*
X37491000Y86399000D01*
X37491000Y87541000D01*
X37374000Y87658000D01*
X36606909Y87658000D01*
X36434899Y87586751D01*
X36303249Y87455101D01*
X36232000Y87283091D01*
X35475000Y87283091D01*
X35475000Y88525000D01*
X38525000Y88525000D01*
X38525000Y87603361D01*
X38393091Y87658000D01*
X37626000Y87658000D01*
X37509000Y87541000D01*
X37509000Y86399000D01*
X37529000Y86399000D01*
X37529000Y86381000D01*
X37509000Y86381000D01*
X37509000Y85239000D01*
X37626000Y85122000D01*
X38393091Y85122000D01*
X38525000Y85176639D01*
X38525000Y84511681D01*
X38517903Y84528857D01*
X38180633Y84866717D01*
X37739742Y85049791D01*
X37262353Y85050207D01*
X36821143Y84867903D01*
X36483283Y84530633D01*
X36300209Y84089742D01*
X36299793Y83612353D01*
X36482097Y83171143D01*
X36819367Y82833283D01*
X37260258Y82650209D01*
X37737647Y82649793D01*
X38178857Y82832097D01*
X38516717Y83169367D01*
X38525000Y83189315D01*
X38525000Y82071506D01*
X38337786Y82135058D01*
X37512728Y81310000D01*
X38337786Y80484942D01*
X38525000Y80548494D01*
X38525000Y79431681D01*
X38517903Y79448857D01*
X38180633Y79786717D01*
X37739742Y79969791D01*
X37262353Y79970207D01*
X36821143Y79787903D01*
X36483283Y79450633D01*
X36300209Y79009742D01*
X36299793Y78532353D01*
X36482097Y78091143D01*
X36819367Y77753283D01*
X37260258Y77570209D01*
X37737647Y77569793D01*
X38178857Y77752097D01*
X38516717Y78089367D01*
X38525000Y78109315D01*
X38525000Y76991506D01*
X38337786Y77055058D01*
X37512728Y76230000D01*
X38337786Y75404942D01*
X38525000Y75468494D01*
X38525000Y74451506D01*
X38337786Y74515058D01*
X37512728Y73690000D01*
X38337786Y72864942D01*
X38525000Y72928494D01*
X38525000Y71811681D01*
X38517903Y71828857D01*
X38180633Y72166717D01*
X37739742Y72349791D01*
X37262353Y72350207D01*
X36821143Y72167903D01*
X36483283Y71830633D01*
X36300209Y71389742D01*
X36299793Y70912353D01*
X36482097Y70471143D01*
X36819367Y70133283D01*
X37260258Y69950209D01*
X37737647Y69949793D01*
X38178857Y70132097D01*
X38516717Y70469367D01*
X38525000Y70489315D01*
X38525000Y69371506D01*
X38337786Y69435058D01*
X37512728Y68610000D01*
X38337786Y67784942D01*
X38525000Y67848494D01*
X38525000Y30103361D01*
X38393091Y30158000D01*
X37626000Y30158000D01*
X37509000Y30041000D01*
X37509000Y28899000D01*
X37529000Y28899000D01*
X37529000Y28881000D01*
X37509000Y28881000D01*
X37509000Y27739000D01*
X37626000Y27622000D01*
X38393091Y27622000D01*
X38525000Y27676639D01*
X38525000Y27011681D01*
X38517903Y27028857D01*
X38180633Y27366717D01*
X37739742Y27549791D01*
X37262353Y27550207D01*
X36821143Y27367903D01*
X36483283Y27030633D01*
X36300209Y26589742D01*
X36299793Y26112353D01*
X36450000Y25748824D01*
X36450000Y24410479D01*
X36300209Y24049742D01*
X36299793Y23572353D01*
X36482097Y23131143D01*
X36819367Y22793283D01*
X37260258Y22610209D01*
X37737647Y22609793D01*
X38178857Y22792097D01*
X38516717Y23129367D01*
X38525000Y23149315D01*
X38525000Y22031506D01*
X38337786Y22095058D01*
X37512728Y21270000D01*
X38337786Y20444942D01*
X38525000Y20508494D01*
X38525000Y19491506D01*
X38337786Y19555058D01*
X37512728Y18730000D01*
X38337786Y17904942D01*
X38525000Y17968494D01*
X38525000Y16951506D01*
X38337786Y17015058D01*
X37512728Y16190000D01*
X38337786Y15364942D01*
X38525000Y15428494D01*
X38525000Y14311681D01*
X38517903Y14328857D01*
X38180633Y14666717D01*
X37739742Y14849791D01*
X37262353Y14850207D01*
X36821143Y14667903D01*
X36483283Y14330633D01*
X36300209Y13889742D01*
X36299793Y13412353D01*
X36482097Y12971143D01*
X36819367Y12633283D01*
X37260258Y12450209D01*
X37737647Y12449793D01*
X38178857Y12632097D01*
X38516717Y12969367D01*
X38525000Y12989315D01*
X38525000Y11871506D01*
X38337786Y11935058D01*
X37512728Y11110000D01*
X38337786Y10284942D01*
X38525000Y10348494D01*
X38525000Y475000D01*
X475000Y475000D01*
X475000Y1518019D01*
X4030747Y1518019D01*
X4127524Y1283827D01*
X4659346Y1042521D01*
X5243030Y1023102D01*
X5789715Y1228529D01*
X5872476Y1283827D01*
X5969253Y1518019D01*
X5000000Y2487272D01*
X4030747Y1518019D01*
X475000Y1518019D01*
X475000Y2256970D01*
X3523102Y2256970D01*
X3728529Y1710285D01*
X3783827Y1627524D01*
X4018019Y1530747D01*
X4987272Y2500000D01*
X5012728Y2500000D01*
X5981981Y1530747D01*
X6216173Y1627524D01*
X6457479Y2159346D01*
X6459588Y2222744D01*
X13599757Y2222744D01*
X13812445Y1708000D01*
X14205928Y1313830D01*
X14720301Y1100243D01*
X15277256Y1099757D01*
X15792000Y1312445D01*
X16186170Y1705928D01*
X16399757Y2220301D01*
X16399820Y2292892D01*
X16451958Y2030780D01*
X16712085Y1641472D01*
X17101393Y1381345D01*
X17560613Y1290000D01*
X18219387Y1290000D01*
X18678607Y1381345D01*
X19067915Y1641472D01*
X19328042Y2030780D01*
X19419387Y2490000D01*
X23980613Y2490000D01*
X24071958Y2030780D01*
X24332085Y1641472D01*
X24721393Y1381345D01*
X25180613Y1290000D01*
X25839387Y1290000D01*
X26298607Y1381345D01*
X26687915Y1641472D01*
X26948042Y2030780D01*
X26955787Y2069718D01*
X27011747Y1934286D01*
X27292806Y1652736D01*
X27660215Y1500174D01*
X28058040Y1499827D01*
X28425714Y1651747D01*
X28580649Y1806412D01*
X32259140Y1806412D01*
X32307250Y1613783D01*
X32694555Y1439099D01*
X33119228Y1425927D01*
X33516614Y1576274D01*
X33572750Y1613783D01*
X33620860Y1806412D01*
X32940000Y2487272D01*
X32259140Y1806412D01*
X28580649Y1806412D01*
X28707264Y1932806D01*
X28859826Y2300215D01*
X28859843Y2320772D01*
X31865927Y2320772D01*
X32016274Y1923386D01*
X32053783Y1867250D01*
X32246412Y1819140D01*
X32927272Y2500000D01*
X32952728Y2500000D01*
X33633588Y1819140D01*
X33826217Y1867250D01*
X34000901Y2254555D01*
X34014073Y2679228D01*
X33863726Y3076614D01*
X33826217Y3132750D01*
X33633588Y3180860D01*
X32952728Y2500000D01*
X32927272Y2500000D01*
X32246412Y3180860D01*
X32053783Y3132750D01*
X31879099Y2745445D01*
X31865927Y2320772D01*
X28859843Y2320772D01*
X28860173Y2698040D01*
X28708253Y3065714D01*
X28580603Y3193588D01*
X32259140Y3193588D01*
X32940000Y2512728D01*
X33620860Y3193588D01*
X33572750Y3386217D01*
X33185445Y3560901D01*
X32760772Y3574073D01*
X32363386Y3423726D01*
X32307250Y3386217D01*
X32259140Y3193588D01*
X28580603Y3193588D01*
X28427194Y3347264D01*
X28059785Y3499826D01*
X27661960Y3500173D01*
X27294286Y3348253D01*
X27012736Y3067194D01*
X26953129Y2923645D01*
X26948042Y2949220D01*
X26687915Y3338528D01*
X26298607Y3598655D01*
X25839387Y3690000D01*
X25180613Y3690000D01*
X24721393Y3598655D01*
X24332085Y3338528D01*
X24071958Y2949220D01*
X23980613Y2490000D01*
X19419387Y2490000D01*
X19328042Y2949220D01*
X19067915Y3338528D01*
X18678607Y3598655D01*
X18219387Y3690000D01*
X17560613Y3690000D01*
X17101393Y3598655D01*
X16712085Y3338528D01*
X16451958Y2949220D01*
X16400166Y2688845D01*
X16400243Y2777256D01*
X16187555Y3292000D01*
X15794072Y3686170D01*
X15279699Y3899757D01*
X14722744Y3900243D01*
X14208000Y3687555D01*
X13813830Y3294072D01*
X13600243Y2779699D01*
X13599757Y2222744D01*
X6459588Y2222744D01*
X6476898Y2743030D01*
X6271471Y3289715D01*
X6216173Y3372476D01*
X5981981Y3469253D01*
X5012728Y2500000D01*
X4987272Y2500000D01*
X4018019Y3469253D01*
X3783827Y3372476D01*
X3542521Y2840654D01*
X3523102Y2256970D01*
X475000Y2256970D01*
X475000Y3481981D01*
X4030747Y3481981D01*
X5000000Y2512728D01*
X5969253Y3481981D01*
X5872476Y3716173D01*
X5340654Y3957479D01*
X4756970Y3976898D01*
X4210285Y3771471D01*
X4127524Y3716173D01*
X4030747Y3481981D01*
X475000Y3481981D01*
X475000Y4922744D01*
X11299757Y4922744D01*
X11512445Y4408000D01*
X11905928Y4013830D01*
X12420301Y3800243D01*
X12977256Y3799757D01*
X13492000Y4012445D01*
X13886170Y4405928D01*
X14099757Y4920301D01*
X14099767Y4932254D01*
X14149801Y4932254D01*
X14324509Y4509428D01*
X14647727Y4185646D01*
X15070247Y4010200D01*
X15527746Y4009801D01*
X15950572Y4184509D01*
X16274354Y4507727D01*
X16402915Y4817335D01*
X16451958Y4570780D01*
X16712085Y4181472D01*
X17101393Y3921345D01*
X17560613Y3830000D01*
X18219387Y3830000D01*
X18678607Y3921345D01*
X19067915Y4181472D01*
X19328042Y4570780D01*
X19419387Y5030000D01*
X23980613Y5030000D01*
X24071958Y4570780D01*
X24332085Y4181472D01*
X24721393Y3921345D01*
X25180613Y3830000D01*
X25839387Y3830000D01*
X26298607Y3921345D01*
X26687915Y4181472D01*
X26948042Y4570780D01*
X26970295Y4682654D01*
X27124509Y4309428D01*
X27447727Y3985646D01*
X27870247Y3810200D01*
X28327746Y3809801D01*
X28750572Y3984509D01*
X29074354Y4307727D01*
X29205160Y4622744D01*
X29299757Y4622744D01*
X29512445Y4108000D01*
X29905928Y3713830D01*
X30420301Y3500243D01*
X30977256Y3499757D01*
X31492000Y3712445D01*
X31886170Y4105928D01*
X32099757Y4620301D01*
X32099759Y4622744D01*
X32399757Y4622744D01*
X32612445Y4108000D01*
X33005928Y3713830D01*
X33520301Y3500243D01*
X34077256Y3499757D01*
X34592000Y3712445D01*
X34986170Y4105928D01*
X35199757Y4620301D01*
X35200243Y5177256D01*
X34987555Y5692000D01*
X34594072Y6086170D01*
X34079699Y6299757D01*
X33522744Y6300243D01*
X33008000Y6087555D01*
X32613830Y5694072D01*
X32400243Y5179699D01*
X32399757Y4622744D01*
X32099759Y4622744D01*
X32100243Y5177256D01*
X31887555Y5692000D01*
X31494072Y6086170D01*
X30979699Y6299757D01*
X30422744Y6300243D01*
X29908000Y6087555D01*
X29513830Y5694072D01*
X29300243Y5179699D01*
X29299757Y4622744D01*
X29205160Y4622744D01*
X29249800Y4730247D01*
X29250199Y5187746D01*
X29075491Y5610572D01*
X28752273Y5934354D01*
X28329753Y6109800D01*
X27872254Y6110199D01*
X27449428Y5935491D01*
X27125646Y5612273D01*
X26989016Y5283232D01*
X26948042Y5489220D01*
X26687915Y5878528D01*
X26298607Y6138655D01*
X25839387Y6230000D01*
X25180613Y6230000D01*
X24721393Y6138655D01*
X24332085Y5878528D01*
X24071958Y5489220D01*
X23980613Y5030000D01*
X19419387Y5030000D01*
X19328042Y5489220D01*
X19067915Y5878528D01*
X18678607Y6138655D01*
X18219387Y6230000D01*
X17560613Y6230000D01*
X17101393Y6138655D01*
X16712085Y5878528D01*
X16451958Y5489220D01*
X16437761Y5417848D01*
X16275491Y5810572D01*
X15952273Y6134354D01*
X15529753Y6309800D01*
X15072254Y6310199D01*
X14649428Y6135491D01*
X14325646Y5812273D01*
X14150200Y5389753D01*
X14149801Y4932254D01*
X14099767Y4932254D01*
X14100243Y5477256D01*
X13887555Y5992000D01*
X13494072Y6386170D01*
X12979699Y6599757D01*
X12422744Y6600243D01*
X11908000Y6387555D01*
X11513830Y5994072D01*
X11300243Y5479699D01*
X11299757Y4922744D01*
X475000Y4922744D01*
X475000Y7570000D01*
X16360613Y7570000D01*
X16451958Y7110780D01*
X16712085Y6721472D01*
X17101393Y6461345D01*
X17560613Y6370000D01*
X18219387Y6370000D01*
X18678607Y6461345D01*
X19067915Y6721472D01*
X19328042Y7110780D01*
X19419387Y7570000D01*
X23980613Y7570000D01*
X24071958Y7110780D01*
X24332085Y6721472D01*
X24721393Y6461345D01*
X25180613Y6370000D01*
X25839387Y6370000D01*
X26298607Y6461345D01*
X26687915Y6721472D01*
X26948042Y7110780D01*
X27039387Y7570000D01*
X26948042Y8029220D01*
X26687915Y8418528D01*
X26298607Y8678655D01*
X25839387Y8770000D01*
X25180613Y8770000D01*
X24721393Y8678655D01*
X24332085Y8418528D01*
X24071958Y8029220D01*
X23980613Y7570000D01*
X19419387Y7570000D01*
X19328042Y8029220D01*
X19067915Y8418528D01*
X18678607Y8678655D01*
X18219387Y8770000D01*
X17560613Y8770000D01*
X17101393Y8678655D01*
X16712085Y8418528D01*
X16451958Y8029220D01*
X16360613Y7570000D01*
X475000Y7570000D01*
X475000Y10272214D01*
X674942Y10272214D01*
X747386Y10058804D01*
X1206950Y9850809D01*
X1711129Y9834514D01*
X2182773Y10012254D01*
X14149801Y10012254D01*
X14324509Y9589428D01*
X14647727Y9265646D01*
X15070247Y9090200D01*
X15527746Y9089801D01*
X15950572Y9264509D01*
X16274354Y9587727D01*
X16402915Y9897335D01*
X16451958Y9650780D01*
X16712085Y9261472D01*
X17101393Y9001345D01*
X17560613Y8910000D01*
X18219387Y8910000D01*
X18678607Y9001345D01*
X19067915Y9261472D01*
X19328042Y9650780D01*
X19419387Y10110000D01*
X19328042Y10569220D01*
X19100341Y10910000D01*
X24002164Y10910000D01*
X24002164Y9310000D01*
X24033209Y9153928D01*
X24121616Y9021616D01*
X24253928Y8933209D01*
X24410000Y8902164D01*
X26610000Y8902164D01*
X26766072Y8933209D01*
X26898384Y9021616D01*
X26986791Y9153928D01*
X27017836Y9310000D01*
X27017836Y9647597D01*
X27124509Y9389428D01*
X27447727Y9065646D01*
X27870247Y8890200D01*
X28327746Y8889801D01*
X28750572Y9064509D01*
X29074354Y9387727D01*
X29249800Y9810247D01*
X29250199Y10267746D01*
X29248353Y10272214D01*
X36674942Y10272214D01*
X36747386Y10058804D01*
X37206950Y9850809D01*
X37711129Y9834514D01*
X38183164Y10012401D01*
X38252614Y10058804D01*
X38325058Y10272214D01*
X37500000Y11097272D01*
X36674942Y10272214D01*
X29248353Y10272214D01*
X29075491Y10690572D01*
X28867555Y10898871D01*
X36224514Y10898871D01*
X36402401Y10426836D01*
X36448804Y10357386D01*
X36662214Y10284942D01*
X37487272Y11110000D01*
X36662214Y11935058D01*
X36448804Y11862614D01*
X36240809Y11403050D01*
X36224514Y10898871D01*
X28867555Y10898871D01*
X28752273Y11014354D01*
X28329753Y11189800D01*
X27872254Y11190199D01*
X27449428Y11015491D01*
X27125646Y10692273D01*
X27017836Y10432638D01*
X27017836Y10910000D01*
X26986791Y11066072D01*
X26898384Y11198384D01*
X26766072Y11286791D01*
X26610000Y11317836D01*
X24410000Y11317836D01*
X24253928Y11286791D01*
X24121616Y11198384D01*
X24033209Y11066072D01*
X24002164Y10910000D01*
X19100341Y10910000D01*
X19067915Y10958528D01*
X18678607Y11218655D01*
X18219387Y11310000D01*
X17560613Y11310000D01*
X17101393Y11218655D01*
X16712085Y10958528D01*
X16451958Y10569220D01*
X16437761Y10497848D01*
X16275491Y10890572D01*
X15952273Y11214354D01*
X15529753Y11389800D01*
X15072254Y11390199D01*
X14649428Y11215491D01*
X14325646Y10892273D01*
X14150200Y10469753D01*
X14149801Y10012254D01*
X2182773Y10012254D01*
X2183164Y10012401D01*
X2252614Y10058804D01*
X2325058Y10272214D01*
X1500000Y11097272D01*
X674942Y10272214D01*
X475000Y10272214D01*
X475000Y10348494D01*
X662214Y10284942D01*
X1487272Y11110000D01*
X1512728Y11110000D01*
X2337786Y10284942D01*
X2551196Y10357386D01*
X2759191Y10816950D01*
X2775486Y11321129D01*
X2597599Y11793164D01*
X2551196Y11862614D01*
X2337786Y11935058D01*
X1512728Y11110000D01*
X1487272Y11110000D01*
X662214Y11935058D01*
X475000Y11871506D01*
X475000Y11947786D01*
X674942Y11947786D01*
X1500000Y11122728D01*
X2325058Y11947786D01*
X2252614Y12161196D01*
X1793050Y12369191D01*
X1288871Y12385486D01*
X816836Y12207599D01*
X747386Y12161196D01*
X674942Y11947786D01*
X475000Y11947786D01*
X475000Y12812214D01*
X674942Y12812214D01*
X747386Y12598804D01*
X1206950Y12390809D01*
X1711129Y12374514D01*
X2049315Y12501960D01*
X16959827Y12501960D01*
X17111747Y12134286D01*
X17392806Y11852736D01*
X17760215Y11700174D01*
X18158040Y11699827D01*
X18525714Y11851747D01*
X18680649Y12006412D01*
X22359140Y12006412D01*
X22407250Y11813783D01*
X22794555Y11639099D01*
X23219228Y11625927D01*
X23616614Y11776274D01*
X23672750Y11813783D01*
X23706217Y11947786D01*
X36674942Y11947786D01*
X37500000Y11122728D01*
X38325058Y11947786D01*
X38252614Y12161196D01*
X37793050Y12369191D01*
X37288871Y12385486D01*
X36816836Y12207599D01*
X36747386Y12161196D01*
X36674942Y11947786D01*
X23706217Y11947786D01*
X23720860Y12006412D01*
X23040000Y12687272D01*
X22359140Y12006412D01*
X18680649Y12006412D01*
X18807264Y12132806D01*
X18959826Y12500215D01*
X18959843Y12520772D01*
X21965927Y12520772D01*
X22116274Y12123386D01*
X22153783Y12067250D01*
X22346412Y12019140D01*
X23027272Y12700000D01*
X23052728Y12700000D01*
X23733588Y12019140D01*
X23926217Y12067250D01*
X24100901Y12454555D01*
X24114073Y12879228D01*
X23963726Y13276614D01*
X23926217Y13332750D01*
X23733588Y13380860D01*
X23052728Y12700000D01*
X23027272Y12700000D01*
X22346412Y13380860D01*
X22153783Y13332750D01*
X21979099Y12945445D01*
X21965927Y12520772D01*
X18959843Y12520772D01*
X18960173Y12898040D01*
X18808253Y13265714D01*
X18680603Y13393588D01*
X22359140Y13393588D01*
X23040000Y12712728D01*
X23720860Y13393588D01*
X23672750Y13586217D01*
X23285445Y13760901D01*
X22860772Y13774073D01*
X22463386Y13623726D01*
X22407250Y13586217D01*
X22359140Y13393588D01*
X18680603Y13393588D01*
X18527194Y13547264D01*
X18159785Y13699826D01*
X17761960Y13700173D01*
X17394286Y13548253D01*
X17112736Y13267194D01*
X16960174Y12899785D01*
X16959827Y12501960D01*
X2049315Y12501960D01*
X2183164Y12552401D01*
X2252614Y12598804D01*
X2325058Y12812214D01*
X1500000Y13637272D01*
X674942Y12812214D01*
X475000Y12812214D01*
X475000Y12888494D01*
X662214Y12824942D01*
X1487272Y13650000D01*
X1512728Y13650000D01*
X2337786Y12824942D01*
X2551196Y12897386D01*
X2759191Y13356950D01*
X2775486Y13861129D01*
X2597599Y14333164D01*
X2551196Y14402614D01*
X2337786Y14475058D01*
X1512728Y13650000D01*
X1487272Y13650000D01*
X662214Y14475058D01*
X475000Y14411506D01*
X475000Y14487786D01*
X674942Y14487786D01*
X1500000Y13662728D01*
X2325058Y14487786D01*
X2252614Y14701196D01*
X1793050Y14909191D01*
X1288871Y14925486D01*
X816836Y14747599D01*
X747386Y14701196D01*
X674942Y14487786D01*
X475000Y14487786D01*
X475000Y15352214D01*
X674942Y15352214D01*
X747386Y15138804D01*
X1206950Y14930809D01*
X1711129Y14914514D01*
X1732967Y14922744D01*
X11299757Y14922744D01*
X11512445Y14408000D01*
X11905928Y14013830D01*
X12420301Y13800243D01*
X12977256Y13799757D01*
X13370768Y13962353D01*
X14099793Y13962353D01*
X14282097Y13521143D01*
X14619367Y13183283D01*
X15060258Y13000209D01*
X15537647Y12999793D01*
X15978857Y13182097D01*
X16316717Y13519367D01*
X16499791Y13960258D01*
X16500207Y14437647D01*
X16317903Y14878857D01*
X15990921Y15206412D01*
X21979140Y15206412D01*
X22027250Y15013783D01*
X22414555Y14839099D01*
X22839228Y14825927D01*
X23236614Y14976274D01*
X23292750Y15013783D01*
X23340860Y15206412D01*
X22660000Y15887272D01*
X21979140Y15206412D01*
X15990921Y15206412D01*
X15980633Y15216717D01*
X15539742Y15399791D01*
X15062353Y15400207D01*
X14621143Y15217903D01*
X14283283Y14880633D01*
X14100209Y14439742D01*
X14099793Y13962353D01*
X13370768Y13962353D01*
X13492000Y14012445D01*
X13886170Y14405928D01*
X14099757Y14920301D01*
X14100243Y15477256D01*
X13999625Y15720772D01*
X21585927Y15720772D01*
X21736274Y15323386D01*
X21773783Y15267250D01*
X21966412Y15219140D01*
X22647272Y15900000D01*
X22672728Y15900000D01*
X23353588Y15219140D01*
X23546217Y15267250D01*
X23720901Y15654555D01*
X23722371Y15701960D01*
X26739827Y15701960D01*
X26891747Y15334286D01*
X27172806Y15052736D01*
X27540215Y14900174D01*
X27861595Y14899894D01*
X27421143Y14717903D01*
X27083283Y14380633D01*
X26900209Y13939742D01*
X26899793Y13462353D01*
X27082097Y13021143D01*
X27419367Y12683283D01*
X27860258Y12500209D01*
X28337647Y12499793D01*
X28778857Y12682097D01*
X29116717Y13019367D01*
X29299791Y13460258D01*
X29300207Y13937647D01*
X29117903Y14378857D01*
X28874442Y14622744D01*
X29299757Y14622744D01*
X29512445Y14108000D01*
X29905928Y13713830D01*
X30420301Y13500243D01*
X30977256Y13499757D01*
X31492000Y13712445D01*
X31697932Y13918019D01*
X32830747Y13918019D01*
X32927524Y13683827D01*
X33459346Y13442521D01*
X34043030Y13423102D01*
X34589715Y13628529D01*
X34672476Y13683827D01*
X34769253Y13918019D01*
X33800000Y14887272D01*
X32830747Y13918019D01*
X31697932Y13918019D01*
X31886170Y14105928D01*
X32099757Y14620301D01*
X32099788Y14656970D01*
X32323102Y14656970D01*
X32528529Y14110285D01*
X32583827Y14027524D01*
X32818019Y13930747D01*
X33787272Y14900000D01*
X33812728Y14900000D01*
X34781981Y13930747D01*
X35016173Y14027524D01*
X35257479Y14559346D01*
X35276898Y15143030D01*
X35198294Y15352214D01*
X36674942Y15352214D01*
X36747386Y15138804D01*
X37206950Y14930809D01*
X37711129Y14914514D01*
X38183164Y15092401D01*
X38252614Y15138804D01*
X38325058Y15352214D01*
X37500000Y16177272D01*
X36674942Y15352214D01*
X35198294Y15352214D01*
X35071471Y15689715D01*
X35016173Y15772476D01*
X34781981Y15869253D01*
X33812728Y14900000D01*
X33787272Y14900000D01*
X32818019Y15869253D01*
X32583827Y15772476D01*
X32342521Y15240654D01*
X32323102Y14656970D01*
X32099788Y14656970D01*
X32100243Y15177256D01*
X31887555Y15692000D01*
X31697906Y15881981D01*
X32830747Y15881981D01*
X33800000Y14912728D01*
X34769253Y15881981D01*
X34729215Y15978871D01*
X36224514Y15978871D01*
X36402401Y15506836D01*
X36448804Y15437386D01*
X36662214Y15364942D01*
X37487272Y16190000D01*
X36662214Y17015058D01*
X36448804Y16942614D01*
X36240809Y16483050D01*
X36224514Y15978871D01*
X34729215Y15978871D01*
X34672476Y16116173D01*
X34140654Y16357479D01*
X33556970Y16376898D01*
X33010285Y16171471D01*
X32927524Y16116173D01*
X32830747Y15881981D01*
X31697906Y15881981D01*
X31494072Y16086170D01*
X30979699Y16299757D01*
X30422744Y16300243D01*
X29908000Y16087555D01*
X29513830Y15694072D01*
X29300243Y15179699D01*
X29299757Y14622744D01*
X28874442Y14622744D01*
X28780633Y14716717D01*
X28339742Y14899791D01*
X27938798Y14900140D01*
X28305714Y15051747D01*
X28587264Y15332806D01*
X28739826Y15700215D01*
X28740173Y16098040D01*
X28588253Y16465714D01*
X28307194Y16747264D01*
X27939785Y16899826D01*
X27541960Y16900173D01*
X27174286Y16748253D01*
X26892736Y16467194D01*
X26740174Y16099785D01*
X26739827Y15701960D01*
X23722371Y15701960D01*
X23734073Y16079228D01*
X23583726Y16476614D01*
X23546217Y16532750D01*
X23353588Y16580860D01*
X22672728Y15900000D01*
X22647272Y15900000D01*
X21966412Y16580860D01*
X21773783Y16532750D01*
X21599099Y16145445D01*
X21585927Y15720772D01*
X13999625Y15720772D01*
X13887555Y15992000D01*
X13494072Y16386170D01*
X12994556Y16593588D01*
X21979140Y16593588D01*
X22660000Y15912728D01*
X23340860Y16593588D01*
X23292750Y16786217D01*
X22905445Y16960901D01*
X22480772Y16974073D01*
X22083386Y16823726D01*
X22027250Y16786217D01*
X21979140Y16593588D01*
X12994556Y16593588D01*
X12979699Y16599757D01*
X12422744Y16600243D01*
X11908000Y16387555D01*
X11513830Y15994072D01*
X11300243Y15479699D01*
X11299757Y14922744D01*
X1732967Y14922744D01*
X2183164Y15092401D01*
X2252614Y15138804D01*
X2325058Y15352214D01*
X1500000Y16177272D01*
X674942Y15352214D01*
X475000Y15352214D01*
X475000Y15428494D01*
X662214Y15364942D01*
X1487272Y16190000D01*
X1512728Y16190000D01*
X2337786Y15364942D01*
X2551196Y15437386D01*
X2759191Y15896950D01*
X2775486Y16401129D01*
X2597599Y16873164D01*
X2551196Y16942614D01*
X2337786Y17015058D01*
X1512728Y16190000D01*
X1487272Y16190000D01*
X662214Y17015058D01*
X475000Y16951506D01*
X475000Y17027786D01*
X674942Y17027786D01*
X1500000Y16202728D01*
X2325058Y17027786D01*
X2252614Y17241196D01*
X1793050Y17449191D01*
X1288871Y17465486D01*
X816836Y17287599D01*
X747386Y17241196D01*
X674942Y17027786D01*
X475000Y17027786D01*
X475000Y17892214D01*
X674942Y17892214D01*
X747386Y17678804D01*
X1206950Y17470809D01*
X1711129Y17454514D01*
X2183164Y17632401D01*
X2252614Y17678804D01*
X2267529Y17722744D01*
X8099757Y17722744D01*
X8312445Y17208000D01*
X8705928Y16813830D01*
X9220301Y16600243D01*
X9777256Y16599757D01*
X10292000Y16812445D01*
X10686170Y17205928D01*
X10899757Y17720301D01*
X10899759Y17722744D01*
X18099757Y17722744D01*
X18312445Y17208000D01*
X18705928Y16813830D01*
X19220301Y16600243D01*
X19777256Y16599757D01*
X20292000Y16812445D01*
X20507716Y17027786D01*
X36674942Y17027786D01*
X37500000Y16202728D01*
X38325058Y17027786D01*
X38252614Y17241196D01*
X37793050Y17449191D01*
X37288871Y17465486D01*
X36816836Y17287599D01*
X36747386Y17241196D01*
X36674942Y17027786D01*
X20507716Y17027786D01*
X20686170Y17205928D01*
X20899757Y17720301D01*
X20900243Y18277256D01*
X20868534Y18354000D01*
X21122000Y18354000D01*
X21122000Y17586909D01*
X21193249Y17414899D01*
X21324899Y17283249D01*
X21496909Y17212000D01*
X22564000Y17212000D01*
X22681000Y17329000D01*
X22681000Y18471000D01*
X22699000Y18471000D01*
X22699000Y17329000D01*
X22816000Y17212000D01*
X23883091Y17212000D01*
X24055101Y17283249D01*
X24186751Y17414899D01*
X24258000Y17586909D01*
X24258000Y18354000D01*
X24141000Y18471000D01*
X22699000Y18471000D01*
X22681000Y18471000D01*
X21239000Y18471000D01*
X21122000Y18354000D01*
X20868534Y18354000D01*
X20816472Y18480000D01*
X28780613Y18480000D01*
X28871958Y18020780D01*
X29132085Y17631472D01*
X29521393Y17371345D01*
X29980613Y17280000D01*
X30639387Y17280000D01*
X31098607Y17371345D01*
X31487915Y17631472D01*
X31662137Y17892214D01*
X36674942Y17892214D01*
X36747386Y17678804D01*
X37206950Y17470809D01*
X37711129Y17454514D01*
X38183164Y17632401D01*
X38252614Y17678804D01*
X38325058Y17892214D01*
X37500000Y18717272D01*
X36674942Y17892214D01*
X31662137Y17892214D01*
X31748042Y18020780D01*
X31839387Y18480000D01*
X31831656Y18518871D01*
X36224514Y18518871D01*
X36402401Y18046836D01*
X36448804Y17977386D01*
X36662214Y17904942D01*
X37487272Y18730000D01*
X36662214Y19555058D01*
X36448804Y19482614D01*
X36240809Y19023050D01*
X36224514Y18518871D01*
X31831656Y18518871D01*
X31748042Y18939220D01*
X31487915Y19328528D01*
X31129840Y19567786D01*
X36674942Y19567786D01*
X37500000Y18742728D01*
X38325058Y19567786D01*
X38252614Y19781196D01*
X37793050Y19989191D01*
X37288871Y20005486D01*
X36816836Y19827599D01*
X36747386Y19781196D01*
X36674942Y19567786D01*
X31129840Y19567786D01*
X31098607Y19588655D01*
X30639387Y19680000D01*
X29980613Y19680000D01*
X29521393Y19588655D01*
X29132085Y19328528D01*
X28871958Y18939220D01*
X28780613Y18480000D01*
X20816472Y18480000D01*
X20687555Y18792000D01*
X20294072Y19186170D01*
X19843918Y19373091D01*
X21122000Y19373091D01*
X21122000Y18606000D01*
X21239000Y18489000D01*
X22681000Y18489000D01*
X22681000Y19631000D01*
X22699000Y19631000D01*
X22699000Y18489000D01*
X24141000Y18489000D01*
X24258000Y18606000D01*
X24258000Y19373091D01*
X24186751Y19545101D01*
X24055101Y19676751D01*
X23883091Y19748000D01*
X22816000Y19748000D01*
X22699000Y19631000D01*
X22681000Y19631000D01*
X22564000Y19748000D01*
X21496909Y19748000D01*
X21324899Y19676751D01*
X21193249Y19545101D01*
X21122000Y19373091D01*
X19843918Y19373091D01*
X19779699Y19399757D01*
X19222744Y19400243D01*
X18708000Y19187555D01*
X18313830Y18794072D01*
X18100243Y18279699D01*
X18099757Y17722744D01*
X10899759Y17722744D01*
X10900243Y18277256D01*
X10687555Y18792000D01*
X10294072Y19186170D01*
X9779699Y19399757D01*
X9222744Y19400243D01*
X8708000Y19187555D01*
X8313830Y18794072D01*
X8100243Y18279699D01*
X8099757Y17722744D01*
X2267529Y17722744D01*
X2325058Y17892214D01*
X1500000Y18717272D01*
X674942Y17892214D01*
X475000Y17892214D01*
X475000Y17968494D01*
X662214Y17904942D01*
X1487272Y18730000D01*
X1512728Y18730000D01*
X2337786Y17904942D01*
X2551196Y17977386D01*
X2759191Y18436950D01*
X2775486Y18941129D01*
X2597599Y19413164D01*
X2551196Y19482614D01*
X2337786Y19555058D01*
X1512728Y18730000D01*
X1487272Y18730000D01*
X662214Y19555058D01*
X475000Y19491506D01*
X475000Y19567786D01*
X674942Y19567786D01*
X1500000Y18742728D01*
X2325058Y19567786D01*
X2252614Y19781196D01*
X1793050Y19989191D01*
X1288871Y20005486D01*
X816836Y19827599D01*
X747386Y19781196D01*
X674942Y19567786D01*
X475000Y19567786D01*
X475000Y20608319D01*
X482097Y20591143D01*
X819367Y20253283D01*
X1260258Y20070209D01*
X1737647Y20069793D01*
X2178857Y20252097D01*
X2516717Y20589367D01*
X2671431Y20961960D01*
X3599827Y20961960D01*
X3751747Y20594286D01*
X4032806Y20312736D01*
X4400215Y20160174D01*
X4798040Y20159827D01*
X5165714Y20311747D01*
X5447264Y20592806D01*
X5599826Y20960215D01*
X5600173Y21358040D01*
X5574825Y21419387D01*
X5990000Y21419387D01*
X5990000Y20760613D01*
X6081345Y20301393D01*
X6341472Y19912085D01*
X6730780Y19651958D01*
X7190000Y19560613D01*
X7649220Y19651958D01*
X8038528Y19912085D01*
X8298655Y20301393D01*
X8390000Y20760613D01*
X8390000Y21419387D01*
X8530000Y21419387D01*
X8530000Y20760613D01*
X8621345Y20301393D01*
X8881472Y19912085D01*
X9270780Y19651958D01*
X9730000Y19560613D01*
X10189220Y19651958D01*
X10578528Y19912085D01*
X10838655Y20301393D01*
X10930000Y20760613D01*
X10930000Y21419387D01*
X11070000Y21419387D01*
X11070000Y20760613D01*
X11161345Y20301393D01*
X11421472Y19912085D01*
X11810780Y19651958D01*
X12270000Y19560613D01*
X12729220Y19651958D01*
X13118528Y19912085D01*
X13378655Y20301393D01*
X13470000Y20760613D01*
X13470000Y21419387D01*
X13378655Y21878607D01*
X13170590Y22190000D01*
X13602164Y22190000D01*
X13602164Y19990000D01*
X13633209Y19833928D01*
X13721616Y19701616D01*
X13853928Y19613209D01*
X14010000Y19582164D01*
X15610000Y19582164D01*
X15766072Y19613209D01*
X15898384Y19701616D01*
X15986791Y19833928D01*
X16017836Y19990000D01*
X16017836Y20818686D01*
X16182097Y20421143D01*
X16519367Y20083283D01*
X16960258Y19900209D01*
X17437647Y19899793D01*
X17878857Y20082097D01*
X18216717Y20419367D01*
X18241634Y20479375D01*
X18312445Y20308000D01*
X18705928Y19913830D01*
X19220301Y19700243D01*
X19777256Y19699757D01*
X20292000Y19912445D01*
X20686170Y20305928D01*
X20899757Y20820301D01*
X20899931Y21020000D01*
X21160613Y21020000D01*
X21251958Y20560780D01*
X21512085Y20171472D01*
X21901393Y19911345D01*
X22360613Y19820000D01*
X23019387Y19820000D01*
X23478607Y19911345D01*
X23867915Y20171472D01*
X24128042Y20560780D01*
X24219387Y21020000D01*
X28780613Y21020000D01*
X28871958Y20560780D01*
X29132085Y20171472D01*
X29521393Y19911345D01*
X29980613Y19820000D01*
X30639387Y19820000D01*
X31098607Y19911345D01*
X31487915Y20171472D01*
X31748042Y20560780D01*
X31839387Y21020000D01*
X31748042Y21479220D01*
X31487915Y21868528D01*
X31098607Y22128655D01*
X30639387Y22220000D01*
X29980613Y22220000D01*
X29521393Y22128655D01*
X29132085Y21868528D01*
X28871958Y21479220D01*
X28780613Y21020000D01*
X24219387Y21020000D01*
X24128042Y21479220D01*
X23867915Y21868528D01*
X23478607Y22128655D01*
X23019387Y22220000D01*
X22360613Y22220000D01*
X21901393Y22128655D01*
X21512085Y21868528D01*
X21251958Y21479220D01*
X21160613Y21020000D01*
X20899931Y21020000D01*
X20900243Y21377256D01*
X20687555Y21892000D01*
X20294072Y22286170D01*
X19779699Y22499757D01*
X19222744Y22500243D01*
X18708000Y22287555D01*
X18313830Y21894072D01*
X18241886Y21720813D01*
X18217903Y21778857D01*
X17880633Y22116717D01*
X17439742Y22299791D01*
X16962353Y22300207D01*
X16521143Y22117903D01*
X16183283Y21780633D01*
X16017836Y21382193D01*
X16017836Y22190000D01*
X15986791Y22346072D01*
X15898384Y22478384D01*
X15766072Y22566791D01*
X15610000Y22597836D01*
X14010000Y22597836D01*
X13853928Y22566791D01*
X13721616Y22478384D01*
X13633209Y22346072D01*
X13602164Y22190000D01*
X13170590Y22190000D01*
X13118528Y22267915D01*
X12729220Y22528042D01*
X12270000Y22619387D01*
X11810780Y22528042D01*
X11421472Y22267915D01*
X11161345Y21878607D01*
X11070000Y21419387D01*
X10930000Y21419387D01*
X10838655Y21878607D01*
X10578528Y22267915D01*
X10189220Y22528042D01*
X9730000Y22619387D01*
X9270780Y22528042D01*
X8881472Y22267915D01*
X8621345Y21878607D01*
X8530000Y21419387D01*
X8390000Y21419387D01*
X8298655Y21878607D01*
X8038528Y22267915D01*
X7649220Y22528042D01*
X7190000Y22619387D01*
X6730780Y22528042D01*
X6341472Y22267915D01*
X6081345Y21878607D01*
X5990000Y21419387D01*
X5574825Y21419387D01*
X5448253Y21725714D01*
X5167194Y22007264D01*
X4799785Y22159826D01*
X4401960Y22160173D01*
X4034286Y22008253D01*
X3752736Y21727194D01*
X3600174Y21359785D01*
X3599827Y20961960D01*
X2671431Y20961960D01*
X2699791Y21030258D01*
X2700207Y21507647D01*
X2517903Y21948857D01*
X2180633Y22286717D01*
X1739742Y22469791D01*
X1262353Y22470207D01*
X821143Y22287903D01*
X483283Y21950633D01*
X475000Y21930685D01*
X475000Y22972214D01*
X674942Y22972214D01*
X747386Y22758804D01*
X1206950Y22550809D01*
X1711129Y22534514D01*
X2183164Y22712401D01*
X2252614Y22758804D01*
X2325058Y22972214D01*
X1500000Y23797272D01*
X674942Y22972214D01*
X475000Y22972214D01*
X475000Y23048494D01*
X662214Y22984942D01*
X1487272Y23810000D01*
X1512728Y23810000D01*
X2337786Y22984942D01*
X2551196Y23057386D01*
X2759191Y23516950D01*
X2760582Y23560000D01*
X21160613Y23560000D01*
X21251958Y23100780D01*
X21512085Y22711472D01*
X21901393Y22451345D01*
X22360613Y22360000D01*
X23019387Y22360000D01*
X23478607Y22451345D01*
X23867915Y22711472D01*
X24128042Y23100780D01*
X24219387Y23560000D01*
X28780613Y23560000D01*
X28871958Y23100780D01*
X29132085Y22711472D01*
X29521393Y22451345D01*
X29980613Y22360000D01*
X30639387Y22360000D01*
X31098607Y22451345D01*
X31487915Y22711472D01*
X31748042Y23100780D01*
X31813859Y23431666D01*
X32349853Y23431666D01*
X32478985Y23119143D01*
X32650000Y22947829D01*
X32650000Y21751992D01*
X32479826Y21582115D01*
X32350148Y21269817D01*
X32349853Y20931666D01*
X32478985Y20619143D01*
X32717885Y20379826D01*
X33030183Y20250148D01*
X33368334Y20249853D01*
X33680857Y20378985D01*
X33734178Y20432214D01*
X36674942Y20432214D01*
X36747386Y20218804D01*
X37206950Y20010809D01*
X37711129Y19994514D01*
X38183164Y20172401D01*
X38252614Y20218804D01*
X38325058Y20432214D01*
X37500000Y21257272D01*
X36674942Y20432214D01*
X33734178Y20432214D01*
X33920174Y20617885D01*
X34049852Y20930183D01*
X34049964Y21058871D01*
X36224514Y21058871D01*
X36402401Y20586836D01*
X36448804Y20517386D01*
X36662214Y20444942D01*
X37487272Y21270000D01*
X36662214Y22095058D01*
X36448804Y22022614D01*
X36240809Y21563050D01*
X36224514Y21058871D01*
X34049964Y21058871D01*
X34050147Y21268334D01*
X33921015Y21580857D01*
X33750000Y21752171D01*
X33750000Y22107786D01*
X36674942Y22107786D01*
X37500000Y21282728D01*
X38325058Y22107786D01*
X38252614Y22321196D01*
X37793050Y22529191D01*
X37288871Y22545486D01*
X36816836Y22367599D01*
X36747386Y22321196D01*
X36674942Y22107786D01*
X33750000Y22107786D01*
X33750000Y22948008D01*
X33920174Y23117885D01*
X34049852Y23430183D01*
X34050147Y23768334D01*
X33921015Y24080857D01*
X33682115Y24320174D01*
X33369817Y24449852D01*
X33031666Y24450147D01*
X32719143Y24321015D01*
X32479826Y24082115D01*
X32350148Y23769817D01*
X32349853Y23431666D01*
X31813859Y23431666D01*
X31839387Y23560000D01*
X31748042Y24019220D01*
X31487915Y24408528D01*
X31098607Y24668655D01*
X30639387Y24760000D01*
X29980613Y24760000D01*
X29521393Y24668655D01*
X29132085Y24408528D01*
X28871958Y24019220D01*
X28780613Y23560000D01*
X24219387Y23560000D01*
X24128042Y24019220D01*
X23867915Y24408528D01*
X23478607Y24668655D01*
X23019387Y24760000D01*
X22360613Y24760000D01*
X21901393Y24668655D01*
X21512085Y24408528D01*
X21251958Y24019220D01*
X21160613Y23560000D01*
X2760582Y23560000D01*
X2775486Y24021129D01*
X2597599Y24493164D01*
X2551196Y24562614D01*
X2337786Y24635058D01*
X1512728Y23810000D01*
X1487272Y23810000D01*
X662214Y24635058D01*
X475000Y24571506D01*
X475000Y24647786D01*
X674942Y24647786D01*
X1500000Y23822728D01*
X2325058Y24647786D01*
X2252614Y24861196D01*
X1793050Y25069191D01*
X1288871Y25085486D01*
X816836Y24907599D01*
X747386Y24861196D01*
X674942Y24647786D01*
X475000Y24647786D01*
X475000Y25688319D01*
X482097Y25671143D01*
X819367Y25333283D01*
X1260258Y25150209D01*
X1737647Y25149793D01*
X2178857Y25332097D01*
X2393546Y25546412D01*
X3919140Y25546412D01*
X3967250Y25353783D01*
X4354555Y25179099D01*
X4779228Y25165927D01*
X5176614Y25316274D01*
X5232750Y25353783D01*
X5280860Y25546412D01*
X4600000Y26227272D01*
X3919140Y25546412D01*
X2393546Y25546412D01*
X2516717Y25669367D01*
X2679242Y26060772D01*
X3525927Y26060772D01*
X3676274Y25663386D01*
X3713783Y25607250D01*
X3906412Y25559140D01*
X4587272Y26240000D01*
X4612728Y26240000D01*
X5293588Y25559140D01*
X5486217Y25607250D01*
X5660901Y25994555D01*
X5674073Y26419228D01*
X5523726Y26816614D01*
X5486217Y26872750D01*
X5293588Y26920860D01*
X4612728Y26240000D01*
X4587272Y26240000D01*
X3906412Y26920860D01*
X3713783Y26872750D01*
X3539099Y26485445D01*
X3525927Y26060772D01*
X2679242Y26060772D01*
X2699791Y26110258D01*
X2700207Y26587647D01*
X2557268Y26933588D01*
X3919140Y26933588D01*
X4600000Y26252728D01*
X5280860Y26933588D01*
X5232750Y27126217D01*
X4845445Y27300901D01*
X4420772Y27314073D01*
X4023386Y27163726D01*
X3967250Y27126217D01*
X3919140Y26933588D01*
X2557268Y26933588D01*
X2517903Y27028857D01*
X2180633Y27366717D01*
X1739742Y27549791D01*
X1262353Y27550207D01*
X821143Y27367903D01*
X483283Y27030633D01*
X475000Y27010685D01*
X475000Y27676639D01*
X606909Y27622000D01*
X1374000Y27622000D01*
X1491000Y27739000D01*
X1491000Y28881000D01*
X1509000Y28881000D01*
X1509000Y27739000D01*
X1626000Y27622000D01*
X2393091Y27622000D01*
X2565101Y27693249D01*
X2696751Y27824899D01*
X2768000Y27996909D01*
X2768000Y28764000D01*
X2651000Y28881000D01*
X1509000Y28881000D01*
X1491000Y28881000D01*
X1471000Y28881000D01*
X1471000Y28899000D01*
X1491000Y28899000D01*
X1491000Y30041000D01*
X1509000Y30041000D01*
X1509000Y28899000D01*
X2651000Y28899000D01*
X2768000Y29016000D01*
X2768000Y29039387D01*
X5990000Y29039387D01*
X5990000Y28380613D01*
X6081345Y27921393D01*
X6341472Y27532085D01*
X6730780Y27271958D01*
X7190000Y27180613D01*
X7649220Y27271958D01*
X8038528Y27532085D01*
X8298655Y27921393D01*
X8390000Y28380613D01*
X8390000Y29039387D01*
X8530000Y29039387D01*
X8530000Y28380613D01*
X8621345Y27921393D01*
X8881472Y27532085D01*
X9270780Y27271958D01*
X9730000Y27180613D01*
X10189220Y27271958D01*
X10578528Y27532085D01*
X10838655Y27921393D01*
X10930000Y28380613D01*
X10930000Y29039387D01*
X11070000Y29039387D01*
X11070000Y28380613D01*
X11161345Y27921393D01*
X11421472Y27532085D01*
X11810780Y27271958D01*
X12270000Y27180613D01*
X12729220Y27271958D01*
X13118528Y27532085D01*
X13378655Y27921393D01*
X13470000Y28380613D01*
X13470000Y29039387D01*
X13610000Y29039387D01*
X13610000Y28380613D01*
X13701345Y27921393D01*
X13961472Y27532085D01*
X14350780Y27271958D01*
X14810000Y27180613D01*
X15269220Y27271958D01*
X15658528Y27532085D01*
X15918655Y27921393D01*
X16000263Y28331666D01*
X18449853Y28331666D01*
X18578985Y28019143D01*
X18750000Y27847829D01*
X18750000Y26751992D01*
X18579826Y26582115D01*
X18450148Y26269817D01*
X18449853Y25931666D01*
X18578985Y25619143D01*
X18817885Y25379826D01*
X19130183Y25250148D01*
X19468334Y25249853D01*
X19780857Y25378985D01*
X20020174Y25617885D01*
X20149852Y25930183D01*
X20150000Y26100000D01*
X21160613Y26100000D01*
X21251958Y25640780D01*
X21512085Y25251472D01*
X21901393Y24991345D01*
X22360613Y24900000D01*
X23019387Y24900000D01*
X23478607Y24991345D01*
X23867915Y25251472D01*
X24128042Y25640780D01*
X24219387Y26100000D01*
X24128042Y26559220D01*
X23867915Y26948528D01*
X23478607Y27208655D01*
X23019387Y27300000D01*
X22360613Y27300000D01*
X21901393Y27208655D01*
X21512085Y26948528D01*
X21251958Y26559220D01*
X21160613Y26100000D01*
X20150000Y26100000D01*
X20150147Y26268334D01*
X20021015Y26580857D01*
X19850000Y26752171D01*
X19850000Y27848008D01*
X20020174Y28017885D01*
X20149852Y28330183D01*
X20150122Y28640000D01*
X21160613Y28640000D01*
X21251958Y28180780D01*
X21512085Y27791472D01*
X21901393Y27531345D01*
X22360613Y27440000D01*
X23019387Y27440000D01*
X23478607Y27531345D01*
X23867915Y27791472D01*
X24128042Y28180780D01*
X24138163Y28231666D01*
X25249853Y28231666D01*
X25378985Y27919143D01*
X25550000Y27747829D01*
X25550000Y27051992D01*
X25379826Y26882115D01*
X25250148Y26569817D01*
X25249853Y26231666D01*
X25378985Y25919143D01*
X25617885Y25679826D01*
X25930183Y25550148D01*
X26268334Y25549853D01*
X26580857Y25678985D01*
X26820174Y25917885D01*
X26895795Y26100000D01*
X28780613Y26100000D01*
X28871958Y25640780D01*
X29132085Y25251472D01*
X29521393Y24991345D01*
X29980613Y24900000D01*
X30639387Y24900000D01*
X31098607Y24991345D01*
X31487915Y25251472D01*
X31748042Y25640780D01*
X31839387Y26100000D01*
X31748042Y26559220D01*
X31487915Y26948528D01*
X31098607Y27208655D01*
X30639387Y27300000D01*
X29980613Y27300000D01*
X29521393Y27208655D01*
X29132085Y26948528D01*
X28871958Y26559220D01*
X28780613Y26100000D01*
X26895795Y26100000D01*
X26949852Y26230183D01*
X26950147Y26568334D01*
X26821015Y26880857D01*
X26650000Y27052171D01*
X26650000Y27748008D01*
X26820174Y27917885D01*
X26949852Y28230183D01*
X26950147Y28568334D01*
X26920536Y28640000D01*
X28780613Y28640000D01*
X28871958Y28180780D01*
X29132085Y27791472D01*
X29521393Y27531345D01*
X29980613Y27440000D01*
X30639387Y27440000D01*
X31098607Y27531345D01*
X31487915Y27791472D01*
X31748042Y28180780D01*
X31839387Y28640000D01*
X31814722Y28764000D01*
X36232000Y28764000D01*
X36232000Y27996909D01*
X36303249Y27824899D01*
X36434899Y27693249D01*
X36606909Y27622000D01*
X37374000Y27622000D01*
X37491000Y27739000D01*
X37491000Y28881000D01*
X36349000Y28881000D01*
X36232000Y28764000D01*
X31814722Y28764000D01*
X31748042Y29099220D01*
X31487915Y29488528D01*
X31098607Y29748655D01*
X30925487Y29783091D01*
X36232000Y29783091D01*
X36232000Y29016000D01*
X36349000Y28899000D01*
X37491000Y28899000D01*
X37491000Y30041000D01*
X37374000Y30158000D01*
X36606909Y30158000D01*
X36434899Y30086751D01*
X36303249Y29955101D01*
X36232000Y29783091D01*
X30925487Y29783091D01*
X30639387Y29840000D01*
X29980613Y29840000D01*
X29521393Y29748655D01*
X29132085Y29488528D01*
X28871958Y29099220D01*
X28780613Y28640000D01*
X26920536Y28640000D01*
X26821015Y28880857D01*
X26582115Y29120174D01*
X26269817Y29249852D01*
X25931666Y29250147D01*
X25619143Y29121015D01*
X25379826Y28882115D01*
X25250148Y28569817D01*
X25249853Y28231666D01*
X24138163Y28231666D01*
X24219387Y28640000D01*
X24128042Y29099220D01*
X23867915Y29488528D01*
X23478607Y29748655D01*
X23019387Y29840000D01*
X22360613Y29840000D01*
X21901393Y29748655D01*
X21512085Y29488528D01*
X21251958Y29099220D01*
X21160613Y28640000D01*
X20150122Y28640000D01*
X20150147Y28668334D01*
X20021015Y28980857D01*
X19782115Y29220174D01*
X19469817Y29349852D01*
X19131666Y29350147D01*
X18819143Y29221015D01*
X18579826Y28982115D01*
X18450148Y28669817D01*
X18449853Y28331666D01*
X16000263Y28331666D01*
X16010000Y28380613D01*
X16010000Y29039387D01*
X15918655Y29498607D01*
X15658528Y29887915D01*
X15269220Y30148042D01*
X14810000Y30239387D01*
X14350780Y30148042D01*
X13961472Y29887915D01*
X13701345Y29498607D01*
X13610000Y29039387D01*
X13470000Y29039387D01*
X13378655Y29498607D01*
X13118528Y29887915D01*
X12729220Y30148042D01*
X12270000Y30239387D01*
X11810780Y30148042D01*
X11421472Y29887915D01*
X11161345Y29498607D01*
X11070000Y29039387D01*
X10930000Y29039387D01*
X10838655Y29498607D01*
X10578528Y29887915D01*
X10189220Y30148042D01*
X9730000Y30239387D01*
X9270780Y30148042D01*
X8881472Y29887915D01*
X8621345Y29498607D01*
X8530000Y29039387D01*
X8390000Y29039387D01*
X8298655Y29498607D01*
X8038528Y29887915D01*
X7649220Y30148042D01*
X7190000Y30239387D01*
X6730780Y30148042D01*
X6341472Y29887915D01*
X6081345Y29498607D01*
X5990000Y29039387D01*
X2768000Y29039387D01*
X2768000Y29783091D01*
X2696751Y29955101D01*
X2565101Y30086751D01*
X2393091Y30158000D01*
X1626000Y30158000D01*
X1509000Y30041000D01*
X1491000Y30041000D01*
X1374000Y30158000D01*
X606909Y30158000D01*
X475000Y30103361D01*
X475000Y31522744D01*
X3299757Y31522744D01*
X3512445Y31008000D01*
X3905928Y30613830D01*
X4420301Y30400243D01*
X4977256Y30399757D01*
X5492000Y30612445D01*
X5886170Y31005928D01*
X6099757Y31520301D01*
X6099759Y31522744D01*
X13299757Y31522744D01*
X13512445Y31008000D01*
X13905928Y30613830D01*
X14420301Y30400243D01*
X14977256Y30399757D01*
X15492000Y30612445D01*
X15886170Y31005928D01*
X16000017Y31280102D01*
X15999827Y31061960D01*
X16151747Y30694286D01*
X16432806Y30412736D01*
X16800215Y30260174D01*
X17198040Y30259827D01*
X17565714Y30411747D01*
X17847264Y30692806D01*
X17901219Y30822744D01*
X18099757Y30822744D01*
X18312445Y30308000D01*
X18705928Y29913830D01*
X19220301Y29700243D01*
X19777256Y29699757D01*
X20292000Y29912445D01*
X20686170Y30305928D01*
X20899757Y30820301D01*
X20900070Y31180000D01*
X21160613Y31180000D01*
X21251958Y30720780D01*
X21512085Y30331472D01*
X21901393Y30071345D01*
X22360613Y29980000D01*
X23019387Y29980000D01*
X23478607Y30071345D01*
X23867915Y30331472D01*
X24128042Y30720780D01*
X24219387Y31180000D01*
X28780613Y31180000D01*
X28871958Y30720780D01*
X29132085Y30331472D01*
X29521393Y30071345D01*
X29980613Y29980000D01*
X30639387Y29980000D01*
X31098607Y30071345D01*
X31487915Y30331472D01*
X31748042Y30720780D01*
X31839387Y31180000D01*
X31830885Y31222744D01*
X34099757Y31222744D01*
X34312445Y30708000D01*
X34705928Y30313830D01*
X35220301Y30100243D01*
X35777256Y30099757D01*
X36292000Y30312445D01*
X36686170Y30705928D01*
X36899757Y31220301D01*
X36900243Y31777256D01*
X36687555Y32292000D01*
X36294072Y32686170D01*
X35779699Y32899757D01*
X35222744Y32900243D01*
X34708000Y32687555D01*
X34313830Y32294072D01*
X34100243Y31779699D01*
X34099757Y31222744D01*
X31830885Y31222744D01*
X31748042Y31639220D01*
X31487915Y32028528D01*
X31098607Y32288655D01*
X30639387Y32380000D01*
X29980613Y32380000D01*
X29521393Y32288655D01*
X29132085Y32028528D01*
X28871958Y31639220D01*
X28780613Y31180000D01*
X24219387Y31180000D01*
X24128042Y31639220D01*
X23867915Y32028528D01*
X23478607Y32288655D01*
X23019387Y32380000D01*
X22360613Y32380000D01*
X21901393Y32288655D01*
X21512085Y32028528D01*
X21251958Y31639220D01*
X21160613Y31180000D01*
X20900070Y31180000D01*
X20900243Y31377256D01*
X20687555Y31892000D01*
X20294072Y32286170D01*
X19779699Y32499757D01*
X19222744Y32500243D01*
X18708000Y32287555D01*
X18313830Y31894072D01*
X18100243Y31379699D01*
X18099757Y30822744D01*
X17901219Y30822744D01*
X17999826Y31060215D01*
X18000173Y31458040D01*
X17848253Y31825714D01*
X17567194Y32107264D01*
X17199785Y32259826D01*
X16801960Y32260173D01*
X16434286Y32108253D01*
X16152736Y31827194D01*
X16099914Y31699984D01*
X16100243Y32077256D01*
X15887555Y32592000D01*
X15494072Y32986170D01*
X14979699Y33199757D01*
X14422744Y33200243D01*
X13908000Y32987555D01*
X13513830Y32594072D01*
X13300243Y32079699D01*
X13299757Y31522744D01*
X6099759Y31522744D01*
X6100243Y32077256D01*
X5887555Y32592000D01*
X5494072Y32986170D01*
X4979699Y33199757D01*
X4422744Y33200243D01*
X3908000Y32987555D01*
X3513830Y32594072D01*
X3300243Y32079699D01*
X3299757Y31522744D01*
X475000Y31522744D01*
X475000Y33561960D01*
X18099827Y33561960D01*
X18251747Y33194286D01*
X18532806Y32912736D01*
X18900215Y32760174D01*
X19298040Y32759827D01*
X19665714Y32911747D01*
X19947264Y33192806D01*
X20099826Y33560215D01*
X20099965Y33720000D01*
X21160613Y33720000D01*
X21251958Y33260780D01*
X21512085Y32871472D01*
X21901393Y32611345D01*
X22360613Y32520000D01*
X23019387Y32520000D01*
X23478607Y32611345D01*
X23867915Y32871472D01*
X24128042Y33260780D01*
X24219387Y33720000D01*
X28780613Y33720000D01*
X28871958Y33260780D01*
X29132085Y32871472D01*
X29521393Y32611345D01*
X29980613Y32520000D01*
X30639387Y32520000D01*
X31098607Y32611345D01*
X31487915Y32871472D01*
X31748042Y33260780D01*
X31785065Y33446908D01*
X31924509Y33109428D01*
X32247727Y32785646D01*
X32670247Y32610200D01*
X33127746Y32609801D01*
X33550572Y32784509D01*
X33874354Y33107727D01*
X34049800Y33530247D01*
X34050199Y33987746D01*
X33875491Y34410572D01*
X33552273Y34734354D01*
X33129753Y34909800D01*
X32672254Y34910199D01*
X32249428Y34735491D01*
X31925646Y34412273D01*
X31774222Y34047604D01*
X31748042Y34179220D01*
X31487915Y34568528D01*
X31098607Y34828655D01*
X30639387Y34920000D01*
X29980613Y34920000D01*
X29521393Y34828655D01*
X29132085Y34568528D01*
X28871958Y34179220D01*
X28780613Y33720000D01*
X24219387Y33720000D01*
X24128042Y34179220D01*
X23867915Y34568528D01*
X23478607Y34828655D01*
X23019387Y34920000D01*
X22360613Y34920000D01*
X21901393Y34828655D01*
X21512085Y34568528D01*
X21251958Y34179220D01*
X21160613Y33720000D01*
X20099965Y33720000D01*
X20100173Y33958040D01*
X19948253Y34325714D01*
X19667194Y34607264D01*
X19299785Y34759826D01*
X18901960Y34760173D01*
X18534286Y34608253D01*
X18252736Y34327194D01*
X18100174Y33959785D01*
X18099827Y33561960D01*
X475000Y33561960D01*
X475000Y35646412D01*
X16319140Y35646412D01*
X16367250Y35453783D01*
X16754555Y35279099D01*
X17179228Y35265927D01*
X17576614Y35416274D01*
X17632750Y35453783D01*
X17680860Y35646412D01*
X17000000Y36327272D01*
X16319140Y35646412D01*
X475000Y35646412D01*
X475000Y36160772D01*
X15925927Y36160772D01*
X16076274Y35763386D01*
X16113783Y35707250D01*
X16306412Y35659140D01*
X16987272Y36340000D01*
X17012728Y36340000D01*
X17693588Y35659140D01*
X17886217Y35707250D01*
X18060901Y36094555D01*
X18074073Y36519228D01*
X17923726Y36916614D01*
X17886217Y36972750D01*
X17693588Y37020860D01*
X17012728Y36340000D01*
X16987272Y36340000D01*
X16306412Y37020860D01*
X16113783Y36972750D01*
X15939099Y36585445D01*
X15925927Y36160772D01*
X475000Y36160772D01*
X475000Y37033588D01*
X16319140Y37033588D01*
X17000000Y36352728D01*
X17680860Y37033588D01*
X17632750Y37226217D01*
X17245445Y37400901D01*
X16820772Y37414073D01*
X16423386Y37263726D01*
X16367250Y37226217D01*
X16319140Y37033588D01*
X475000Y37033588D01*
X475000Y38146412D01*
X18419140Y38146412D01*
X18467250Y37953783D01*
X18854555Y37779099D01*
X19279228Y37765927D01*
X19676614Y37916274D01*
X19732750Y37953783D01*
X19753849Y38038264D01*
X32110992Y38038264D01*
X32177352Y37830049D01*
X32618852Y37630381D01*
X33103154Y37614867D01*
X33556527Y37785869D01*
X33622648Y37830049D01*
X33689008Y38038264D01*
X32900000Y38827272D01*
X32110992Y38038264D01*
X19753849Y38038264D01*
X19780860Y38146412D01*
X19100000Y38827272D01*
X18419140Y38146412D01*
X475000Y38146412D01*
X475000Y44118019D01*
X7530747Y44118019D01*
X7627524Y43883827D01*
X8159346Y43642521D01*
X8743030Y43623102D01*
X9289715Y43828529D01*
X9356623Y43873235D01*
X12049715Y43873235D01*
X12300383Y43266571D01*
X12764130Y42802014D01*
X13005147Y42701935D01*
X12683283Y42380633D01*
X12500209Y41939742D01*
X12499793Y41462353D01*
X12682097Y41021143D01*
X13019367Y40683283D01*
X13219884Y40600021D01*
X13021143Y40517903D01*
X12683283Y40180633D01*
X12500209Y39739742D01*
X12499793Y39262353D01*
X12682097Y38821143D01*
X13019367Y38483283D01*
X13460258Y38300209D01*
X13937647Y38299793D01*
X14378857Y38482097D01*
X14557844Y38660772D01*
X18025927Y38660772D01*
X18176274Y38263386D01*
X18213783Y38207250D01*
X18406412Y38159140D01*
X19087272Y38840000D01*
X19112728Y38840000D01*
X19793588Y38159140D01*
X19986217Y38207250D01*
X20160901Y38594555D01*
X20174073Y39019228D01*
X20023726Y39416614D01*
X19986217Y39472750D01*
X19793588Y39520860D01*
X19112728Y38840000D01*
X19087272Y38840000D01*
X18406412Y39520860D01*
X18213783Y39472750D01*
X18039099Y39085445D01*
X18025927Y38660772D01*
X14557844Y38660772D01*
X14716717Y38819367D01*
X14899791Y39260258D01*
X14900029Y39533588D01*
X18419140Y39533588D01*
X19100000Y38852728D01*
X19780860Y39533588D01*
X19732750Y39726217D01*
X19345445Y39900901D01*
X18920772Y39914073D01*
X18523386Y39763726D01*
X18467250Y39726217D01*
X18419140Y39533588D01*
X14900029Y39533588D01*
X14900207Y39737647D01*
X14717903Y40178857D01*
X14380633Y40516717D01*
X14180116Y40599979D01*
X14378857Y40682097D01*
X14716717Y41019367D01*
X14899791Y41460258D01*
X14900207Y41937647D01*
X14717903Y42378857D01*
X14395324Y42702000D01*
X14633429Y42800383D01*
X15097986Y43264130D01*
X15349713Y43870355D01*
X15349928Y44118019D01*
X23830747Y44118019D01*
X23927524Y43883827D01*
X24459346Y43642521D01*
X25043030Y43623102D01*
X25589715Y43828529D01*
X25656623Y43873235D01*
X28349715Y43873235D01*
X28600383Y43266571D01*
X29064130Y42802014D01*
X29305147Y42701935D01*
X28983283Y42380633D01*
X28800209Y41939742D01*
X28799793Y41462353D01*
X28982097Y41021143D01*
X29319367Y40683283D01*
X29519884Y40600021D01*
X29321143Y40517903D01*
X28983283Y40180633D01*
X28800209Y39739742D01*
X28799793Y39262353D01*
X28982097Y38821143D01*
X29319367Y38483283D01*
X29760258Y38300209D01*
X30237647Y38299793D01*
X30678857Y38482097D01*
X30833876Y38636846D01*
X31674867Y38636846D01*
X31845869Y38183473D01*
X31890049Y38117352D01*
X32098264Y38050992D01*
X32887272Y38840000D01*
X32912728Y38840000D01*
X33701736Y38050992D01*
X33909951Y38117352D01*
X34109619Y38558852D01*
X34125133Y39043154D01*
X33954131Y39496527D01*
X33909951Y39562648D01*
X33701736Y39629008D01*
X32912728Y38840000D01*
X32887272Y38840000D01*
X32098264Y39629008D01*
X31890049Y39562648D01*
X31690381Y39121148D01*
X31674867Y38636846D01*
X30833876Y38636846D01*
X31016717Y38819367D01*
X31199791Y39260258D01*
X31200123Y39641736D01*
X32110992Y39641736D01*
X32900000Y38852728D01*
X33689008Y39641736D01*
X33622648Y39849951D01*
X33181148Y40049619D01*
X32696846Y40065133D01*
X32243473Y39894131D01*
X32177352Y39849951D01*
X32110992Y39641736D01*
X31200123Y39641736D01*
X31200207Y39737647D01*
X31017903Y40178857D01*
X30680633Y40516717D01*
X30480116Y40599979D01*
X30678857Y40682097D01*
X31016717Y41019367D01*
X31101166Y41222744D01*
X34099757Y41222744D01*
X34312445Y40708000D01*
X34705928Y40313830D01*
X35220301Y40100243D01*
X35777256Y40099757D01*
X36292000Y40312445D01*
X36686170Y40705928D01*
X36899757Y41220301D01*
X36900243Y41777256D01*
X36687555Y42292000D01*
X36294072Y42686170D01*
X35779699Y42899757D01*
X35222744Y42900243D01*
X34708000Y42687555D01*
X34313830Y42294072D01*
X34100243Y41779699D01*
X34099757Y41222744D01*
X31101166Y41222744D01*
X31199791Y41460258D01*
X31200207Y41937647D01*
X31017903Y42378857D01*
X30695324Y42702000D01*
X30933429Y42800383D01*
X31397986Y43264130D01*
X31649713Y43870355D01*
X31650285Y44526765D01*
X31399617Y45133429D01*
X30935870Y45597986D01*
X30329645Y45849713D01*
X29673235Y45850285D01*
X29066571Y45599617D01*
X28602014Y45135870D01*
X28350287Y44529645D01*
X28349715Y43873235D01*
X25656623Y43873235D01*
X25672476Y43883827D01*
X25769253Y44118019D01*
X24800000Y45087272D01*
X23830747Y44118019D01*
X15349928Y44118019D01*
X15350285Y44526765D01*
X15213848Y44856970D01*
X23323102Y44856970D01*
X23528529Y44310285D01*
X23583827Y44227524D01*
X23818019Y44130747D01*
X24787272Y45100000D01*
X24812728Y45100000D01*
X25781981Y44130747D01*
X26016173Y44227524D01*
X26257479Y44759346D01*
X26276898Y45343030D01*
X26071471Y45889715D01*
X26016173Y45972476D01*
X25781981Y46069253D01*
X24812728Y45100000D01*
X24787272Y45100000D01*
X23818019Y46069253D01*
X23583827Y45972476D01*
X23342521Y45440654D01*
X23323102Y44856970D01*
X15213848Y44856970D01*
X15099617Y45133429D01*
X14635870Y45597986D01*
X14029645Y45849713D01*
X13373235Y45850285D01*
X12766571Y45599617D01*
X12302014Y45135870D01*
X12050287Y44529645D01*
X12049715Y43873235D01*
X9356623Y43873235D01*
X9372476Y43883827D01*
X9469253Y44118019D01*
X8500000Y45087272D01*
X7530747Y44118019D01*
X475000Y44118019D01*
X475000Y44856970D01*
X7023102Y44856970D01*
X7228529Y44310285D01*
X7283827Y44227524D01*
X7518019Y44130747D01*
X8487272Y45100000D01*
X8512728Y45100000D01*
X9481981Y44130747D01*
X9716173Y44227524D01*
X9957479Y44759346D01*
X9976898Y45343030D01*
X9771471Y45889715D01*
X9716173Y45972476D01*
X9481981Y46069253D01*
X8512728Y45100000D01*
X8487272Y45100000D01*
X7518019Y46069253D01*
X7283827Y45972476D01*
X7042521Y45440654D01*
X7023102Y44856970D01*
X475000Y44856970D01*
X475000Y46562353D01*
X4799793Y46562353D01*
X4982097Y46121143D01*
X5319367Y45783283D01*
X5760258Y45600209D01*
X6237647Y45599793D01*
X6678857Y45782097D01*
X6979265Y46081981D01*
X7530747Y46081981D01*
X8500000Y45112728D01*
X9469253Y46081981D01*
X9372476Y46316173D01*
X9050306Y46462353D01*
X9999793Y46462353D01*
X10182097Y46021143D01*
X10519367Y45683283D01*
X10960258Y45500209D01*
X11437647Y45499793D01*
X11878857Y45682097D01*
X12216717Y46019367D01*
X12399791Y46460258D01*
X12399792Y46462353D01*
X14999793Y46462353D01*
X15182097Y46021143D01*
X15519367Y45683283D01*
X15960258Y45500209D01*
X16437647Y45499793D01*
X16878857Y45682097D01*
X17216717Y46019367D01*
X17384213Y46422744D01*
X17699757Y46422744D01*
X17912445Y45908000D01*
X18305928Y45513830D01*
X18820301Y45300243D01*
X19377256Y45299757D01*
X19892000Y45512445D01*
X20286170Y45905928D01*
X20499757Y46420301D01*
X20499880Y46562353D01*
X20899793Y46562353D01*
X21082097Y46121143D01*
X21419367Y45783283D01*
X21860258Y45600209D01*
X22337647Y45599793D01*
X22778857Y45782097D01*
X23079265Y46081981D01*
X23830747Y46081981D01*
X24800000Y45112728D01*
X25769253Y46081981D01*
X25672476Y46316173D01*
X25350306Y46462353D01*
X26299793Y46462353D01*
X26482097Y46021143D01*
X26819367Y45683283D01*
X27260258Y45500209D01*
X27737647Y45499793D01*
X28178857Y45682097D01*
X28516717Y46019367D01*
X28699791Y46460258D01*
X28699792Y46462353D01*
X31299793Y46462353D01*
X31482097Y46021143D01*
X31819367Y45683283D01*
X32260258Y45500209D01*
X32737647Y45499793D01*
X33178857Y45682097D01*
X33516717Y46019367D01*
X33684213Y46422744D01*
X33899757Y46422744D01*
X34112445Y45908000D01*
X34505928Y45513830D01*
X35020301Y45300243D01*
X35577256Y45299757D01*
X36092000Y45512445D01*
X36486170Y45905928D01*
X36699757Y46420301D01*
X36700243Y46977256D01*
X36487555Y47492000D01*
X36094072Y47886170D01*
X35579699Y48099757D01*
X35022744Y48100243D01*
X34508000Y47887555D01*
X34113830Y47494072D01*
X33900243Y46979699D01*
X33899757Y46422744D01*
X33684213Y46422744D01*
X33699791Y46460258D01*
X33700207Y46937647D01*
X33517903Y47378857D01*
X33180633Y47716717D01*
X32739742Y47899791D01*
X32262353Y47900207D01*
X31821143Y47717903D01*
X31483283Y47380633D01*
X31300209Y46939742D01*
X31299793Y46462353D01*
X28699792Y46462353D01*
X28700207Y46937647D01*
X28517903Y47378857D01*
X28180633Y47716717D01*
X27739742Y47899791D01*
X27262353Y47900207D01*
X26821143Y47717903D01*
X26483283Y47380633D01*
X26300209Y46939742D01*
X26299793Y46462353D01*
X25350306Y46462353D01*
X25140654Y46557479D01*
X24556970Y46576898D01*
X24010285Y46371471D01*
X23927524Y46316173D01*
X23830747Y46081981D01*
X23079265Y46081981D01*
X23116717Y46119367D01*
X23299791Y46560258D01*
X23300207Y47037647D01*
X23117903Y47478857D01*
X22780633Y47816717D01*
X22339742Y47999791D01*
X21862353Y48000207D01*
X21421143Y47817903D01*
X21083283Y47480633D01*
X20900209Y47039742D01*
X20899793Y46562353D01*
X20499880Y46562353D01*
X20500243Y46977256D01*
X20287555Y47492000D01*
X19894072Y47886170D01*
X19379699Y48099757D01*
X18822744Y48100243D01*
X18308000Y47887555D01*
X17913830Y47494072D01*
X17700243Y46979699D01*
X17699757Y46422744D01*
X17384213Y46422744D01*
X17399791Y46460258D01*
X17400207Y46937647D01*
X17217903Y47378857D01*
X16880633Y47716717D01*
X16439742Y47899791D01*
X15962353Y47900207D01*
X15521143Y47717903D01*
X15183283Y47380633D01*
X15000209Y46939742D01*
X14999793Y46462353D01*
X12399792Y46462353D01*
X12400207Y46937647D01*
X12217903Y47378857D01*
X11880633Y47716717D01*
X11439742Y47899791D01*
X10962353Y47900207D01*
X10521143Y47717903D01*
X10183283Y47380633D01*
X10000209Y46939742D01*
X9999793Y46462353D01*
X9050306Y46462353D01*
X8840654Y46557479D01*
X8256970Y46576898D01*
X7710285Y46371471D01*
X7627524Y46316173D01*
X7530747Y46081981D01*
X6979265Y46081981D01*
X7016717Y46119367D01*
X7199791Y46560258D01*
X7200207Y47037647D01*
X7017903Y47478857D01*
X6680633Y47816717D01*
X6239742Y47999791D01*
X5762353Y48000207D01*
X5321143Y47817903D01*
X4983283Y47480633D01*
X4800209Y47039742D01*
X4799793Y46562353D01*
X475000Y46562353D01*
X475000Y52273235D01*
X12049715Y52273235D01*
X12300383Y51666571D01*
X12764130Y51202014D01*
X13005147Y51101935D01*
X12683283Y50780633D01*
X12500209Y50339742D01*
X12499793Y49862353D01*
X12682097Y49421143D01*
X13019367Y49083283D01*
X13460258Y48900209D01*
X13937647Y48899793D01*
X14378857Y49082097D01*
X14716717Y49419367D01*
X14899791Y49860258D01*
X14900207Y50337647D01*
X14717903Y50778857D01*
X14395324Y51102000D01*
X14633429Y51200383D01*
X15097986Y51664130D01*
X15349713Y52270355D01*
X15349715Y52273235D01*
X28349715Y52273235D01*
X28600383Y51666571D01*
X29064130Y51202014D01*
X29305147Y51101935D01*
X28983283Y50780633D01*
X28800209Y50339742D01*
X28799793Y49862353D01*
X28982097Y49421143D01*
X29319367Y49083283D01*
X29760258Y48900209D01*
X30237647Y48899793D01*
X30678857Y49082097D01*
X31016717Y49419367D01*
X31199791Y49860258D01*
X31200207Y50337647D01*
X31017903Y50778857D01*
X30695324Y51102000D01*
X30933429Y51200383D01*
X31397986Y51664130D01*
X31649713Y52270355D01*
X31650285Y52926765D01*
X31399617Y53533429D01*
X30935870Y53997986D01*
X30329645Y54249713D01*
X29673235Y54250285D01*
X29066571Y53999617D01*
X28602014Y53535870D01*
X28350287Y52929645D01*
X28349715Y52273235D01*
X15349715Y52273235D01*
X15350285Y52926765D01*
X15099617Y53533429D01*
X14635870Y53997986D01*
X14029645Y54249713D01*
X13373235Y54250285D01*
X12766571Y53999617D01*
X12302014Y53535870D01*
X12050287Y52929645D01*
X12049715Y52273235D01*
X475000Y52273235D01*
X475000Y54822744D01*
X7099757Y54822744D01*
X7312445Y54308000D01*
X7705928Y53913830D01*
X8220301Y53700243D01*
X8777256Y53699757D01*
X9292000Y53912445D01*
X9686170Y54305928D01*
X9899757Y54820301D01*
X9899793Y54862353D01*
X9999793Y54862353D01*
X10182097Y54421143D01*
X10519367Y54083283D01*
X10960258Y53900209D01*
X11437647Y53899793D01*
X11878857Y54082097D01*
X12216717Y54419367D01*
X12399791Y54860258D01*
X12399792Y54862353D01*
X14999793Y54862353D01*
X15182097Y54421143D01*
X15519367Y54083283D01*
X15960258Y53900209D01*
X16437647Y53899793D01*
X16878857Y54082097D01*
X17216717Y54419367D01*
X17384213Y54822744D01*
X23399757Y54822744D01*
X23612445Y54308000D01*
X24005928Y53913830D01*
X24520301Y53700243D01*
X25077256Y53699757D01*
X25592000Y53912445D01*
X25986170Y54305928D01*
X26199757Y54820301D01*
X26199793Y54862353D01*
X26299793Y54862353D01*
X26482097Y54421143D01*
X26819367Y54083283D01*
X27260258Y53900209D01*
X27737647Y53899793D01*
X28178857Y54082097D01*
X28516717Y54419367D01*
X28699791Y54860258D01*
X28699792Y54862353D01*
X31299793Y54862353D01*
X31482097Y54421143D01*
X31819367Y54083283D01*
X32260258Y53900209D01*
X32737647Y53899793D01*
X33178857Y54082097D01*
X33516717Y54419367D01*
X33699791Y54860258D01*
X33700207Y55337647D01*
X33517903Y55778857D01*
X33180633Y56116717D01*
X32739742Y56299791D01*
X32262353Y56300207D01*
X31821143Y56117903D01*
X31483283Y55780633D01*
X31300209Y55339742D01*
X31299793Y54862353D01*
X28699792Y54862353D01*
X28700207Y55337647D01*
X28517903Y55778857D01*
X28180633Y56116717D01*
X27739742Y56299791D01*
X27262353Y56300207D01*
X26821143Y56117903D01*
X26483283Y55780633D01*
X26300209Y55339742D01*
X26299793Y54862353D01*
X26199793Y54862353D01*
X26200243Y55377256D01*
X25987555Y55892000D01*
X25594072Y56286170D01*
X25265167Y56422744D01*
X33899757Y56422744D01*
X34112445Y55908000D01*
X34505928Y55513830D01*
X35020301Y55300243D01*
X35577256Y55299757D01*
X36092000Y55512445D01*
X36486170Y55905928D01*
X36699757Y56420301D01*
X36700243Y56977256D01*
X36487555Y57492000D01*
X36094072Y57886170D01*
X35679392Y58058361D01*
X35978857Y58182097D01*
X36316717Y58519367D01*
X36499791Y58960258D01*
X36500207Y59437647D01*
X36317903Y59878857D01*
X35980633Y60216717D01*
X35539742Y60399791D01*
X35062353Y60400207D01*
X34621143Y60217903D01*
X34283283Y59880633D01*
X34100209Y59439742D01*
X34099793Y58962353D01*
X34282097Y58521143D01*
X34619367Y58183283D01*
X34920796Y58058119D01*
X34508000Y57887555D01*
X34113830Y57494072D01*
X33900243Y56979699D01*
X33899757Y56422744D01*
X25265167Y56422744D01*
X25079699Y56499757D01*
X24522744Y56500243D01*
X24008000Y56287555D01*
X23613830Y55894072D01*
X23400243Y55379699D01*
X23399757Y54822744D01*
X17384213Y54822744D01*
X17399791Y54860258D01*
X17400207Y55337647D01*
X17217903Y55778857D01*
X16880633Y56116717D01*
X16439742Y56299791D01*
X15962353Y56300207D01*
X15521143Y56117903D01*
X15183283Y55780633D01*
X15000209Y55339742D01*
X14999793Y54862353D01*
X12399792Y54862353D01*
X12400207Y55337647D01*
X12217903Y55778857D01*
X11880633Y56116717D01*
X11439742Y56299791D01*
X10962353Y56300207D01*
X10521143Y56117903D01*
X10183283Y55780633D01*
X10000209Y55339742D01*
X9999793Y54862353D01*
X9899793Y54862353D01*
X9900243Y55377256D01*
X9687555Y55892000D01*
X9294072Y56286170D01*
X8965167Y56422744D01*
X17699757Y56422744D01*
X17912445Y55908000D01*
X18305928Y55513830D01*
X18820301Y55300243D01*
X19377256Y55299757D01*
X19892000Y55512445D01*
X20286170Y55905928D01*
X20499757Y56420301D01*
X20500243Y56977256D01*
X20287555Y57492000D01*
X19980163Y57799929D01*
X20177256Y57799757D01*
X20692000Y58012445D01*
X21086170Y58405928D01*
X21200016Y58680099D01*
X21312445Y58408000D01*
X21705928Y58013830D01*
X22220301Y57800243D01*
X22777256Y57799757D01*
X23292000Y58012445D01*
X23686170Y58405928D01*
X23899757Y58920301D01*
X23899759Y58922744D01*
X31099757Y58922744D01*
X31312445Y58408000D01*
X31705928Y58013830D01*
X32220301Y57800243D01*
X32777256Y57799757D01*
X33292000Y58012445D01*
X33686170Y58405928D01*
X33899757Y58920301D01*
X33900243Y59477256D01*
X33687555Y59992000D01*
X33294072Y60386170D01*
X32779699Y60599757D01*
X32222744Y60600243D01*
X31708000Y60387555D01*
X31313830Y59994072D01*
X31100243Y59479699D01*
X31099757Y58922744D01*
X23899759Y58922744D01*
X23900243Y59477256D01*
X23687555Y59992000D01*
X23294072Y60386170D01*
X22779699Y60599757D01*
X22222744Y60600243D01*
X21708000Y60387555D01*
X21313830Y59994072D01*
X21199984Y59719901D01*
X21087555Y59992000D01*
X20694072Y60386170D01*
X20179699Y60599757D01*
X19622744Y60600243D01*
X19108000Y60387555D01*
X18713830Y59994072D01*
X18500243Y59479699D01*
X18499757Y58922744D01*
X18712445Y58408000D01*
X19019837Y58100071D01*
X18822744Y58100243D01*
X18308000Y57887555D01*
X17913830Y57494072D01*
X17700243Y56979699D01*
X17699757Y56422744D01*
X8965167Y56422744D01*
X8779699Y56499757D01*
X8222744Y56500243D01*
X7708000Y56287555D01*
X7313830Y55894072D01*
X7100243Y55379699D01*
X7099757Y54822744D01*
X475000Y54822744D01*
X475000Y58922744D01*
X8499757Y58922744D01*
X8712445Y58408000D01*
X9105928Y58013830D01*
X9620301Y57800243D01*
X10177256Y57799757D01*
X10692000Y58012445D01*
X11086170Y58405928D01*
X11299757Y58920301D01*
X11300243Y59477256D01*
X11087555Y59992000D01*
X10694072Y60386170D01*
X10179699Y60599757D01*
X9622744Y60600243D01*
X9108000Y60387555D01*
X8713830Y59994072D01*
X8500243Y59479699D01*
X8499757Y58922744D01*
X475000Y58922744D01*
X475000Y61118019D01*
X11430747Y61118019D01*
X11527524Y60883827D01*
X12059346Y60642521D01*
X12643030Y60623102D01*
X13189715Y60828529D01*
X13272476Y60883827D01*
X13369253Y61118019D01*
X12400000Y62087272D01*
X11430747Y61118019D01*
X475000Y61118019D01*
X475000Y61856970D01*
X10923102Y61856970D01*
X11128529Y61310285D01*
X11183827Y61227524D01*
X11418019Y61130747D01*
X12387272Y62100000D01*
X12412728Y62100000D01*
X13381981Y61130747D01*
X13616173Y61227524D01*
X13857479Y61759346D01*
X13859588Y61822744D01*
X13999757Y61822744D01*
X14212445Y61308000D01*
X14605928Y60913830D01*
X15120301Y60700243D01*
X15677256Y60699757D01*
X16192000Y60912445D01*
X16586170Y61305928D01*
X16799757Y61820301D01*
X16800243Y62377256D01*
X16587555Y62892000D01*
X16194072Y63286170D01*
X15679699Y63499757D01*
X15122744Y63500243D01*
X14608000Y63287555D01*
X14213830Y62894072D01*
X14000243Y62379699D01*
X13999757Y61822744D01*
X13859588Y61822744D01*
X13876898Y62343030D01*
X13671471Y62889715D01*
X13616173Y62972476D01*
X13381981Y63069253D01*
X12412728Y62100000D01*
X12387272Y62100000D01*
X11418019Y63069253D01*
X11183827Y62972476D01*
X10942521Y62440654D01*
X10923102Y61856970D01*
X475000Y61856970D01*
X475000Y63081981D01*
X11430747Y63081981D01*
X12400000Y62112728D01*
X13369253Y63081981D01*
X13272476Y63316173D01*
X12740654Y63557479D01*
X12156970Y63576898D01*
X11610285Y63371471D01*
X11527524Y63316173D01*
X11430747Y63081981D01*
X475000Y63081981D01*
X475000Y63862353D01*
X17599793Y63862353D01*
X17782097Y63421143D01*
X18119367Y63083283D01*
X18560258Y62900209D01*
X19037647Y62899793D01*
X19478857Y63082097D01*
X19803739Y63406412D01*
X20679140Y63406412D01*
X20727250Y63213783D01*
X21114555Y63039099D01*
X21539228Y63025927D01*
X21936614Y63176274D01*
X21992750Y63213783D01*
X22040860Y63406412D01*
X21360000Y64087272D01*
X20679140Y63406412D01*
X19803739Y63406412D01*
X19816717Y63419367D01*
X19999791Y63860258D01*
X19999843Y63920772D01*
X20285927Y63920772D01*
X20436274Y63523386D01*
X20473783Y63467250D01*
X20666412Y63419140D01*
X21347272Y64100000D01*
X21372728Y64100000D01*
X22053588Y63419140D01*
X22246217Y63467250D01*
X22420901Y63854555D01*
X22422371Y63901960D01*
X25439827Y63901960D01*
X25591747Y63534286D01*
X25872806Y63252736D01*
X26240215Y63100174D01*
X26638040Y63099827D01*
X27005714Y63251747D01*
X27287264Y63532806D01*
X27439826Y63900215D01*
X27440107Y64222744D01*
X28099757Y64222744D01*
X28312445Y63708000D01*
X28705928Y63313830D01*
X29220301Y63100243D01*
X29777256Y63099757D01*
X30292000Y63312445D01*
X30497932Y63518019D01*
X31630747Y63518019D01*
X31727524Y63283827D01*
X32259346Y63042521D01*
X32843030Y63023102D01*
X33389715Y63228529D01*
X33472476Y63283827D01*
X33569253Y63518019D01*
X32600000Y64487272D01*
X31630747Y63518019D01*
X30497932Y63518019D01*
X30686170Y63705928D01*
X30899757Y64220301D01*
X30899788Y64256970D01*
X31123102Y64256970D01*
X31328529Y63710285D01*
X31383827Y63627524D01*
X31618019Y63530747D01*
X32587272Y64500000D01*
X32612728Y64500000D01*
X33581981Y63530747D01*
X33816173Y63627524D01*
X34057479Y64159346D01*
X34076898Y64743030D01*
X33871471Y65289715D01*
X33816173Y65372476D01*
X33581981Y65469253D01*
X32612728Y64500000D01*
X32587272Y64500000D01*
X31618019Y65469253D01*
X31383827Y65372476D01*
X31142521Y64840654D01*
X31123102Y64256970D01*
X30899788Y64256970D01*
X30900243Y64777256D01*
X30687555Y65292000D01*
X30497906Y65481981D01*
X31630747Y65481981D01*
X32600000Y64512728D01*
X33569253Y65481981D01*
X33472476Y65716173D01*
X32940654Y65957479D01*
X32356970Y65976898D01*
X31810285Y65771471D01*
X31727524Y65716173D01*
X31630747Y65481981D01*
X30497906Y65481981D01*
X30294072Y65686170D01*
X29779699Y65899757D01*
X29222744Y65900243D01*
X28708000Y65687555D01*
X28313830Y65294072D01*
X28100243Y64779699D01*
X28099757Y64222744D01*
X27440107Y64222744D01*
X27440173Y64298040D01*
X27288253Y64665714D01*
X27007194Y64947264D01*
X26639785Y65099826D01*
X26241960Y65100173D01*
X25874286Y64948253D01*
X25592736Y64667194D01*
X25440174Y64299785D01*
X25439827Y63901960D01*
X22422371Y63901960D01*
X22434073Y64279228D01*
X22283726Y64676614D01*
X22246217Y64732750D01*
X22053588Y64780860D01*
X21372728Y64100000D01*
X21347272Y64100000D01*
X20666412Y64780860D01*
X20473783Y64732750D01*
X20299099Y64345445D01*
X20285927Y63920772D01*
X19999843Y63920772D01*
X20000207Y64337647D01*
X19817903Y64778857D01*
X19803198Y64793588D01*
X20679140Y64793588D01*
X21360000Y64112728D01*
X22040860Y64793588D01*
X21992750Y64986217D01*
X21605445Y65160901D01*
X21180772Y65174073D01*
X20783386Y65023726D01*
X20727250Y64986217D01*
X20679140Y64793588D01*
X19803198Y64793588D01*
X19480633Y65116717D01*
X19039742Y65299791D01*
X18562353Y65300207D01*
X18121143Y65117903D01*
X17783283Y64780633D01*
X17600209Y64339742D01*
X17599793Y63862353D01*
X475000Y63862353D01*
X475000Y67772214D01*
X674942Y67772214D01*
X747386Y67558804D01*
X1206950Y67350809D01*
X1711129Y67334514D01*
X1991043Y67440000D01*
X17332164Y67440000D01*
X17332164Y65840000D01*
X17363209Y65683928D01*
X17451616Y65551616D01*
X17583928Y65463209D01*
X17740000Y65432164D01*
X19940000Y65432164D01*
X20096072Y65463209D01*
X20228384Y65551616D01*
X20316791Y65683928D01*
X20347836Y65840000D01*
X20347836Y66640000D01*
X24930613Y66640000D01*
X25021958Y66180780D01*
X25282085Y65791472D01*
X25671393Y65531345D01*
X26130613Y65440000D01*
X26789387Y65440000D01*
X27248607Y65531345D01*
X27637915Y65791472D01*
X27898042Y66180780D01*
X27989387Y66640000D01*
X27898042Y67099220D01*
X27637915Y67488528D01*
X27248607Y67748655D01*
X27130169Y67772214D01*
X36674942Y67772214D01*
X36747386Y67558804D01*
X37206950Y67350809D01*
X37711129Y67334514D01*
X38183164Y67512401D01*
X38252614Y67558804D01*
X38325058Y67772214D01*
X37500000Y68597272D01*
X36674942Y67772214D01*
X27130169Y67772214D01*
X26789387Y67840000D01*
X26130613Y67840000D01*
X25671393Y67748655D01*
X25282085Y67488528D01*
X25021958Y67099220D01*
X24930613Y66640000D01*
X20347836Y66640000D01*
X20347836Y67440000D01*
X20316791Y67596072D01*
X20228384Y67728384D01*
X20096072Y67816791D01*
X19940000Y67847836D01*
X17740000Y67847836D01*
X17583928Y67816791D01*
X17451616Y67728384D01*
X17363209Y67596072D01*
X17332164Y67440000D01*
X1991043Y67440000D01*
X2183164Y67512401D01*
X2252614Y67558804D01*
X2325058Y67772214D01*
X1500000Y68597272D01*
X674942Y67772214D01*
X475000Y67772214D01*
X475000Y67848494D01*
X662214Y67784942D01*
X1487272Y68610000D01*
X1512728Y68610000D01*
X2337786Y67784942D01*
X2551196Y67857386D01*
X2759191Y68316950D01*
X2775486Y68821129D01*
X2640245Y69180000D01*
X17310613Y69180000D01*
X17401958Y68720780D01*
X17662085Y68331472D01*
X18051393Y68071345D01*
X18510613Y67980000D01*
X19169387Y67980000D01*
X19628607Y68071345D01*
X20017915Y68331472D01*
X20278042Y68720780D01*
X20369387Y69180000D01*
X24930613Y69180000D01*
X25021958Y68720780D01*
X25282085Y68331472D01*
X25671393Y68071345D01*
X26130613Y67980000D01*
X26789387Y67980000D01*
X27248607Y68071345D01*
X27637915Y68331472D01*
X27682949Y68398871D01*
X36224514Y68398871D01*
X36402401Y67926836D01*
X36448804Y67857386D01*
X36662214Y67784942D01*
X37487272Y68610000D01*
X36662214Y69435058D01*
X36448804Y69362614D01*
X36240809Y68903050D01*
X36224514Y68398871D01*
X27682949Y68398871D01*
X27898042Y68720780D01*
X27989387Y69180000D01*
X27936121Y69447786D01*
X36674942Y69447786D01*
X37500000Y68622728D01*
X38325058Y69447786D01*
X38252614Y69661196D01*
X37793050Y69869191D01*
X37288871Y69885486D01*
X36816836Y69707599D01*
X36747386Y69661196D01*
X36674942Y69447786D01*
X27936121Y69447786D01*
X27898042Y69639220D01*
X27637915Y70028528D01*
X27248607Y70288655D01*
X26789387Y70380000D01*
X26130613Y70380000D01*
X25671393Y70288655D01*
X25282085Y70028528D01*
X25021958Y69639220D01*
X24930613Y69180000D01*
X20369387Y69180000D01*
X20278042Y69639220D01*
X20017915Y70028528D01*
X19628607Y70288655D01*
X19169387Y70380000D01*
X18510613Y70380000D01*
X18051393Y70288655D01*
X17662085Y70028528D01*
X17401958Y69639220D01*
X17310613Y69180000D01*
X2640245Y69180000D01*
X2597599Y69293164D01*
X2551196Y69362614D01*
X2337786Y69435058D01*
X1512728Y68610000D01*
X1487272Y68610000D01*
X662214Y69435058D01*
X475000Y69371506D01*
X475000Y69447786D01*
X674942Y69447786D01*
X1500000Y68622728D01*
X2325058Y69447786D01*
X2252614Y69661196D01*
X1793050Y69869191D01*
X1288871Y69885486D01*
X816836Y69707599D01*
X747386Y69661196D01*
X674942Y69447786D01*
X475000Y69447786D01*
X475000Y70488319D01*
X482097Y70471143D01*
X819367Y70133283D01*
X1260258Y69950209D01*
X1737647Y69949793D01*
X2178857Y70132097D01*
X2516717Y70469367D01*
X2570961Y70600000D01*
X3298095Y70600000D01*
X3517885Y70379826D01*
X3830183Y70250148D01*
X4168334Y70249853D01*
X4480857Y70378985D01*
X4720174Y70617885D01*
X4849852Y70930183D01*
X4850147Y71268334D01*
X4721015Y71580857D01*
X4482115Y71820174D01*
X4475926Y71822744D01*
X10999757Y71822744D01*
X11212445Y71308000D01*
X11605928Y70913830D01*
X12120301Y70700243D01*
X12292901Y70700092D01*
X12306296Y70682870D01*
X13306296Y69882870D01*
X13324384Y69873490D01*
X13417885Y69779826D01*
X13730183Y69650148D01*
X14068334Y69649853D01*
X14380857Y69778985D01*
X14569247Y69967046D01*
X14569713Y69967184D01*
X14599655Y69987889D01*
X15400778Y70699998D01*
X15677256Y70699757D01*
X16192000Y70912445D01*
X16586170Y71305928D01*
X16758108Y71720000D01*
X17310613Y71720000D01*
X17401958Y71260780D01*
X17662085Y70871472D01*
X18051393Y70611345D01*
X18510613Y70520000D01*
X19169387Y70520000D01*
X19628607Y70611345D01*
X20017915Y70871472D01*
X20278042Y71260780D01*
X20369387Y71720000D01*
X24930613Y71720000D01*
X25021958Y71260780D01*
X25282085Y70871472D01*
X25671393Y70611345D01*
X26130613Y70520000D01*
X26789387Y70520000D01*
X27248607Y70611345D01*
X27637915Y70871472D01*
X27898042Y71260780D01*
X27989387Y71720000D01*
X27898042Y72179220D01*
X27637915Y72568528D01*
X27248607Y72828655D01*
X27130169Y72852214D01*
X36674942Y72852214D01*
X36747386Y72638804D01*
X37206950Y72430809D01*
X37711129Y72414514D01*
X38183164Y72592401D01*
X38252614Y72638804D01*
X38325058Y72852214D01*
X37500000Y73677272D01*
X36674942Y72852214D01*
X27130169Y72852214D01*
X26789387Y72920000D01*
X26130613Y72920000D01*
X25671393Y72828655D01*
X25282085Y72568528D01*
X25021958Y72179220D01*
X24930613Y71720000D01*
X20369387Y71720000D01*
X20278042Y72179220D01*
X20017915Y72568528D01*
X19628607Y72828655D01*
X19169387Y72920000D01*
X18510613Y72920000D01*
X18051393Y72828655D01*
X17662085Y72568528D01*
X17401958Y72179220D01*
X17310613Y71720000D01*
X16758108Y71720000D01*
X16799757Y71820301D01*
X16800243Y72377256D01*
X16650000Y72740872D01*
X16650000Y74046088D01*
X16905714Y74151747D01*
X17014156Y74260000D01*
X17310613Y74260000D01*
X17401958Y73800780D01*
X17662085Y73411472D01*
X18051393Y73151345D01*
X18510613Y73060000D01*
X19169387Y73060000D01*
X19628607Y73151345D01*
X20017915Y73411472D01*
X20278042Y73800780D01*
X20369387Y74260000D01*
X24930613Y74260000D01*
X25021958Y73800780D01*
X25282085Y73411472D01*
X25671393Y73151345D01*
X26130613Y73060000D01*
X26789387Y73060000D01*
X27248607Y73151345D01*
X27637915Y73411472D01*
X27898042Y73800780D01*
X27981976Y74222744D01*
X28099757Y74222744D01*
X28312445Y73708000D01*
X28705928Y73313830D01*
X29220301Y73100243D01*
X29777256Y73099757D01*
X30292000Y73312445D01*
X30686170Y73705928D01*
X30899757Y74220301D01*
X30899759Y74222744D01*
X31199757Y74222744D01*
X31412445Y73708000D01*
X31805928Y73313830D01*
X32320301Y73100243D01*
X32877256Y73099757D01*
X33392000Y73312445D01*
X33558716Y73478871D01*
X36224514Y73478871D01*
X36402401Y73006836D01*
X36448804Y72937386D01*
X36662214Y72864942D01*
X37487272Y73690000D01*
X36662214Y74515058D01*
X36448804Y74442614D01*
X36240809Y73983050D01*
X36224514Y73478871D01*
X33558716Y73478871D01*
X33786170Y73705928D01*
X33999757Y74220301D01*
X34000025Y74527786D01*
X36674942Y74527786D01*
X37500000Y73702728D01*
X38325058Y74527786D01*
X38252614Y74741196D01*
X37793050Y74949191D01*
X37288871Y74965486D01*
X36816836Y74787599D01*
X36747386Y74741196D01*
X36674942Y74527786D01*
X34000025Y74527786D01*
X34000243Y74777256D01*
X33787555Y75292000D01*
X33687516Y75392214D01*
X36674942Y75392214D01*
X36747386Y75178804D01*
X37206950Y74970809D01*
X37711129Y74954514D01*
X38183164Y75132401D01*
X38252614Y75178804D01*
X38325058Y75392214D01*
X37500000Y76217272D01*
X36674942Y75392214D01*
X33687516Y75392214D01*
X33394072Y75686170D01*
X32879699Y75899757D01*
X32322744Y75900243D01*
X31808000Y75687555D01*
X31413830Y75294072D01*
X31200243Y74779699D01*
X31199757Y74222744D01*
X30899759Y74222744D01*
X30900243Y74777256D01*
X30687555Y75292000D01*
X30294072Y75686170D01*
X29779699Y75899757D01*
X29222744Y75900243D01*
X28708000Y75687555D01*
X28313830Y75294072D01*
X28100243Y74779699D01*
X28099757Y74222744D01*
X27981976Y74222744D01*
X27989387Y74260000D01*
X27898042Y74719220D01*
X27637915Y75108528D01*
X27248607Y75368655D01*
X26789387Y75460000D01*
X26130613Y75460000D01*
X25671393Y75368655D01*
X25282085Y75108528D01*
X25021958Y74719220D01*
X24930613Y74260000D01*
X20369387Y74260000D01*
X20278042Y74719220D01*
X20017915Y75108528D01*
X19628607Y75368655D01*
X19169387Y75460000D01*
X18510613Y75460000D01*
X18051393Y75368655D01*
X17662085Y75108528D01*
X17401958Y74719220D01*
X17310613Y74260000D01*
X17014156Y74260000D01*
X17187264Y74432806D01*
X17339826Y74800215D01*
X17340173Y75198040D01*
X17188253Y75565714D01*
X16907194Y75847264D01*
X16539785Y75999826D01*
X16141960Y76000173D01*
X15774286Y75848253D01*
X15492736Y75567194D01*
X15340174Y75199785D01*
X15339827Y74801960D01*
X15346936Y74784754D01*
X13520927Y72958745D01*
X13194072Y73286170D01*
X12679699Y73499757D01*
X12122744Y73500243D01*
X11608000Y73287555D01*
X11213830Y72894072D01*
X11000243Y72379699D01*
X10999757Y71822744D01*
X4475926Y71822744D01*
X4169817Y71949852D01*
X3831666Y71950147D01*
X3519143Y71821015D01*
X3397917Y71700000D01*
X2571146Y71700000D01*
X2517903Y71828857D01*
X2180633Y72166717D01*
X1739742Y72349791D01*
X1262353Y72350207D01*
X821143Y72167903D01*
X483283Y71830633D01*
X475000Y71810685D01*
X475000Y72852214D01*
X674942Y72852214D01*
X747386Y72638804D01*
X1206950Y72430809D01*
X1711129Y72414514D01*
X2183164Y72592401D01*
X2252614Y72638804D01*
X2325058Y72852214D01*
X1500000Y73677272D01*
X674942Y72852214D01*
X475000Y72852214D01*
X475000Y72928494D01*
X662214Y72864942D01*
X1487272Y73690000D01*
X1512728Y73690000D01*
X2337786Y72864942D01*
X2551196Y72937386D01*
X2759191Y73396950D01*
X2775486Y73901129D01*
X2622755Y74306412D01*
X10579140Y74306412D01*
X10627250Y74113783D01*
X11014555Y73939099D01*
X11439228Y73925927D01*
X11836614Y74076274D01*
X11892750Y74113783D01*
X11940860Y74306412D01*
X11260000Y74987272D01*
X10579140Y74306412D01*
X2622755Y74306412D01*
X2597599Y74373164D01*
X2551196Y74442614D01*
X2337786Y74515058D01*
X1512728Y73690000D01*
X1487272Y73690000D01*
X662214Y74515058D01*
X475000Y74451506D01*
X475000Y74527786D01*
X674942Y74527786D01*
X1500000Y73702728D01*
X2325058Y74527786D01*
X2252614Y74741196D01*
X2076792Y74820772D01*
X10185927Y74820772D01*
X10336274Y74423386D01*
X10373783Y74367250D01*
X10566412Y74319140D01*
X11247272Y75000000D01*
X11272728Y75000000D01*
X11953588Y74319140D01*
X12146217Y74367250D01*
X12320901Y74754555D01*
X12334073Y75179228D01*
X12183726Y75576614D01*
X12146217Y75632750D01*
X11953588Y75680860D01*
X11272728Y75000000D01*
X11247272Y75000000D01*
X10566412Y75680860D01*
X10373783Y75632750D01*
X10199099Y75245445D01*
X10185927Y74820772D01*
X2076792Y74820772D01*
X1793050Y74949191D01*
X1288871Y74965486D01*
X816836Y74787599D01*
X747386Y74741196D01*
X674942Y74527786D01*
X475000Y74527786D01*
X475000Y75568319D01*
X482097Y75551143D01*
X819367Y75213283D01*
X1260258Y75030209D01*
X1737647Y75029793D01*
X2178857Y75212097D01*
X2516717Y75549367D01*
X2576602Y75693588D01*
X10579140Y75693588D01*
X11260000Y75012728D01*
X11940860Y75693588D01*
X11892750Y75886217D01*
X11598633Y76018871D01*
X36224514Y76018871D01*
X36402401Y75546836D01*
X36448804Y75477386D01*
X36662214Y75404942D01*
X37487272Y76230000D01*
X36662214Y77055058D01*
X36448804Y76982614D01*
X36240809Y76523050D01*
X36224514Y76018871D01*
X11598633Y76018871D01*
X11505445Y76060901D01*
X11080772Y76074073D01*
X10683386Y75923726D01*
X10627250Y75886217D01*
X10579140Y75693588D01*
X2576602Y75693588D01*
X2699791Y75990258D01*
X2700207Y76467647D01*
X2550000Y76831176D01*
X2550000Y77067786D01*
X36674942Y77067786D01*
X37500000Y76242728D01*
X38325058Y77067786D01*
X38252614Y77281196D01*
X37793050Y77489191D01*
X37288871Y77505486D01*
X36816836Y77327599D01*
X36747386Y77281196D01*
X36674942Y77067786D01*
X2550000Y77067786D01*
X2550000Y78169521D01*
X2570961Y78220000D01*
X6377955Y78220000D01*
X6517885Y78079826D01*
X6830183Y77950148D01*
X7168334Y77949853D01*
X7480857Y78078985D01*
X7720174Y78317885D01*
X7849852Y78630183D01*
X7850147Y78968334D01*
X7721015Y79280857D01*
X7482115Y79520174D01*
X7169817Y79649852D01*
X6831666Y79650147D01*
X6519143Y79521015D01*
X6317777Y79320000D01*
X2571146Y79320000D01*
X2517903Y79448857D01*
X2180633Y79786717D01*
X1739742Y79969791D01*
X1262353Y79970207D01*
X821143Y79787903D01*
X483283Y79450633D01*
X475000Y79430685D01*
X475000Y80472214D01*
X674942Y80472214D01*
X747386Y80258804D01*
X1206950Y80050809D01*
X1711129Y80034514D01*
X2183164Y80212401D01*
X2252614Y80258804D01*
X2325058Y80472214D01*
X1500000Y81297272D01*
X674942Y80472214D01*
X475000Y80472214D01*
X475000Y80548494D01*
X662214Y80484942D01*
X1487272Y81310000D01*
X1512728Y81310000D01*
X2337786Y80484942D01*
X2551196Y80557386D01*
X2759191Y81016950D01*
X2775486Y81521129D01*
X2597599Y81993164D01*
X2551196Y82062614D01*
X2337786Y82135058D01*
X1512728Y81310000D01*
X1487272Y81310000D01*
X662214Y82135058D01*
X475000Y82071506D01*
X475000Y82147786D01*
X674942Y82147786D01*
X1500000Y81322728D01*
X2325058Y82147786D01*
X2252614Y82361196D01*
X1793050Y82569191D01*
X1288871Y82585486D01*
X816836Y82407599D01*
X747386Y82361196D01*
X674942Y82147786D01*
X475000Y82147786D01*
X475000Y83188319D01*
X482097Y83171143D01*
X819367Y82833283D01*
X1260258Y82650209D01*
X1737647Y82649793D01*
X2178857Y82832097D01*
X2516717Y83169367D01*
X2699791Y83610258D01*
X2700207Y84087647D01*
X2517903Y84528857D01*
X2180633Y84866717D01*
X1739742Y85049791D01*
X1262353Y85050207D01*
X821143Y84867903D01*
X483283Y84530633D01*
X475000Y84510685D01*
X475000Y85176639D01*
X606909Y85122000D01*
X1374000Y85122000D01*
X1491000Y85239000D01*
X1491000Y86381000D01*
X1509000Y86381000D01*
X1509000Y85239000D01*
X1626000Y85122000D01*
X2393091Y85122000D01*
X2565101Y85193249D01*
X2696751Y85324899D01*
X2768000Y85496909D01*
X2768000Y86264000D01*
X2651000Y86381000D01*
X1509000Y86381000D01*
X1491000Y86381000D01*
X1471000Y86381000D01*
X1471000Y86399000D01*
X1491000Y86399000D01*
X1491000Y87541000D01*
X1509000Y87541000D01*
X1509000Y86399000D01*
X2651000Y86399000D01*
X2768000Y86516000D01*
X2768000Y87283091D01*
X2696751Y87455101D01*
X2565101Y87586751D01*
X2393091Y87658000D01*
X1626000Y87658000D01*
X1509000Y87541000D01*
X1491000Y87541000D01*
X1374000Y87658000D01*
X606909Y87658000D01*
X475000Y87603361D01*
X475000Y88525000D01*
X12525000Y88525000D01*
X12525000Y78000000D01*
M02*
