M48
;DRILL file {KiCad (2016-08-20 BZR 7083)-product} date Wed Apr 22 08:43:59 2020
;FORMAT={3:3/ absolute / metric / suppress leading zeros}
FMAT,2
METRIC,TZ
T1C0.500
T2C0.700
T3C0.800
T4C0.900
T5C1.000
T6C3.200
%
G90
G05
M71
T1
X1600Y61000
X1600Y46600
X1600Y32200
X4000Y72600
X4000Y71100
X4800Y15500
X5600Y40600
X5700Y19600
X5800Y48500
X6200Y77400
X6600Y80500
X6600Y57100
X6700Y67500
X7000Y78800
X7200Y61600
X8200Y26200
X8800Y5700
X9100Y12600
X10800Y16100
X11100Y23000
X11700Y79000
X11900Y69300
X12000Y87800
X12100Y48600
X12100Y7300
X12600Y3000
X12700Y33300
X13100Y26700
X13500Y13200
X13800Y57800
X13900Y70500
X14600Y75400
X14800Y18700
X15100Y68600
X15300Y65000
X15900Y40500
X16100Y6600
X16200Y44900
X16600Y48900
X17200Y62900
X17400Y14000
X18000Y59700
X18100Y23100
X18500Y53700
X18600Y76900
X18600Y43000
X19300Y28500
X19300Y26100
X19600Y15800
X20900Y73100
X21000Y48400
X21300Y2400
X21800Y9900
X22200Y57400
X24200Y69200
X24400Y76800
X25200Y60400
X25300Y58000
X26100Y48000
X26100Y28400
X26100Y26400
X26300Y12000
X27700Y62900
X27900Y53100
X28300Y67800
X28800Y1100
X29300Y6800
X29700Y13300
X30100Y11000
X30200Y69300
X30800Y72300
X31100Y56600
X31100Y35500
X32500Y29600
X33200Y23600
X33200Y21100
X33900Y48700
X34000Y60500
X34700Y44600
X34900Y54500
X37300Y1100
X37400Y5100
X37600Y34500
X37800Y44200
T2
X4600Y26240
X4600Y21160
X11260Y75000
X16340Y75000
X17000Y36340
X17000Y31260
X17960Y12700
X19100Y38840
X19100Y33760
X21360Y64100
X22660Y15900
X23040Y12700
X26440Y64100
X27740Y15900
X27860Y2500
X32940Y2500
T3
X15300Y10240
X15300Y5160
X28100Y10040
X28100Y4960
X32900Y38840
X32900Y33760
T4
X6000Y46800
X7190Y28710
X7190Y21090
X9730Y28710
X9730Y21090
X12270Y28710
X12270Y21090
X13700Y39500
X14810Y28710
X14810Y21090
X15300Y14200
X17200Y21100
X17890Y10110
X17890Y7570
X17890Y5030
X17890Y2490
X18800Y64100
X18840Y74260
X18840Y71720
X18840Y69180
X18840Y66640
X22100Y46800
X22690Y33720
X22690Y31180
X22690Y28640
X22690Y26100
X22690Y23560
X22690Y21020
X22690Y18480
X25510Y10110
X25510Y7570
X25510Y5030
X25510Y2490
X26460Y74260
X26460Y71720
X26460Y69180
X26460Y66640
X28100Y13700
X30000Y39500
X30310Y33720
X30310Y31180
X30310Y28640
X30310Y26100
X30310Y23560
X30310Y21020
X30310Y18480
X35300Y59200
T5
X1500Y86390
X1500Y83850
X1500Y81310
X1500Y78770
X1500Y76230
X1500Y73690
X1500Y71150
X1500Y68610
X1500Y28890
X1500Y26350
X1500Y23810
X1500Y21270
X1500Y18730
X1500Y16190
X1500Y13650
X1500Y11110
X4700Y31800
X5000Y2500
X8500Y55100
X8500Y45100
X9500Y18000
X9900Y59200
X11200Y55100
X11200Y46700
X12400Y72100
X12400Y62100
X12700Y15200
X12700Y5200
X13700Y50100
X13700Y41700
X14700Y31800
X15000Y2500
X15400Y72100
X15400Y62100
X16200Y55100
X16200Y46700
X19100Y56700
X19100Y46700
X19500Y31100
X19500Y21100
X19500Y18000
X19900Y59200
X22500Y59200
X24800Y55100
X24800Y45100
X27500Y55100
X27500Y46700
X29500Y74500
X29500Y64500
X30000Y50100
X30000Y41700
X30700Y14900
X30700Y4900
X32500Y59200
X32500Y55100
X32500Y46700
X32600Y74500
X32600Y64500
X33800Y14900
X33800Y4900
X35300Y56700
X35300Y46700
X35500Y41500
X35500Y31500
X37500Y86390
X37500Y83850
X37500Y81310
X37500Y78770
X37500Y76230
X37500Y73690
X37500Y71150
X37500Y68610
X37500Y28890
X37500Y26350
X37500Y23810
X37500Y21270
X37500Y18730
X37500Y16190
X37500Y13650
X37500Y11110
T6
X23600Y38600
T0
M30
